<?xml version="1.0" encoding="UTF-8"?>
<svg id="Layer_2" data-name="Layer 2" xmlns="http://www.w3.org/2000/svg" viewBox="0 0 55.84 46.13">
  <defs>
    <style>
      .cls-1 {
        fill: #db3a34;
      }

      .cls-2 {
        fill: #ffc0c0;
      }
    </style>
  </defs>
  <circle class="cls-2" cx="22.91" cy="23.06" r="22.91"/>
  <g>
    <circle class="cls-1" cx="22.91" cy="11.9" r="4.3"/>
    <path class="cls-1" d="M33.72,17.49c-.28-.86-1.2-1.33-2.06-1.05-2.96.96-6.03,1.42-9.13,1.38-2.85-.04-5.67-.5-8.38-1.38-.86-.28-1.78.19-2.06,1.05-.28.86.19,1.78,1.05,2.06,2.64.85,5.36,1.33,8.12,1.48v4.61h0c0,1.23-.42,2.44-1.18,3.41l-5.37,6.85c-.56.71-.43,1.74.28,2.3.3.23.66.35,1.01.35.49,0,.96-.21,1.29-.63l5.37-6.85c.08-.11.16-.22.24-.33.08.11.15.23.24.33l5.37,6.84c.32.41.8.63,1.29.63.35,0,.71-.11,1.01-.35.71-.56.83-1.59.28-2.3l-5.37-6.84c-.76-.97-1.18-2.18-1.18-3.41v-4.59c2.76-.14,5.48-.64,8.12-1.49.86-.28,1.33-1.2,1.05-2.06Z"/>
  </g>
</svg>