<?xml version="1.0" encoding="UTF-8"?>
<svg xmlns="http://www.w3.org/2000/svg" viewBox="0 0 419.98 120">
  <defs>
    <style>
      .cls-1 {
        fill: none;
        stroke: #ffc0c0;
        stroke-miterlimit: 10;
        stroke-width: 3px;
      }

      .cls-2 {
        font-family: Karla-Regular, Karla;
        font-size: 16px;
        font-variation-settings: 'wght' 400;
      }

      .cls-3 {
        fill: #db3a34;
      }

      .cls-4, .cls-5 {
        fill: #ffc0c0;
      }

      .cls-5 {
        stroke: #db3a34;
        stroke-linejoin: round;
        stroke-width: 4px;
      }

      .cls-6 {
        fill: #f3fd80;
      }

      .cls-7 {
        font-family: Karla-Bold, Karla;
        font-size: 20px;
        font-variation-settings: 'wght' 700;
        font-weight: 700;
      }
    </style>
  </defs>
  <g id="Layer_5">
    <text transform="translate(159.1 27.4)"><tspan class="cls-7"><tspan x="0" y="0">Completion Highlighting</tspan></tspan><tspan class="cls-2"><tspan x="0" y="38.4">Keeps the user engaged through </tspan></tspan><tspan class="cls-2"><tspan x="0" y="57.6">increased interaction with the app </tspan></tspan><tspan class="cls-2"><tspan x="0" y="76.8">(tapping). </tspan></tspan></text>
  </g>
  <g id="Layer_11">
    <g>
      <circle class="cls-4" cx="60.25" cy="60.33" r="60"/>
      <g>
        <rect class="cls-3" x="27.53" y="38.77" width="64.75" height="12.31"/>
        <rect class="cls-3" x="27.61" y="71" width="34.06" height="12.31"/>
        <rect class="cls-3" x="27.53" y="54.59" width="64.75" height="12.31"/>
        <line class="cls-1" x1="31.93" y1="44.93" x2="87.86" y2="44.93"/>
        <line class="cls-1" x1="31.93" y1="60.75" x2="87.86" y2="60.75"/>
        <line class="cls-1" x1="31.86" y1="77.16" x2="57.86" y2="77.16"/>
        <circle class="cls-6" cx="73.61" cy="63.53" r="12.31"/>
        <path class="cls-5" d="M68.83,75.5c.31.15.68-.08.68-.43v-12.71c.11-1.81,1.39-3.26,2.93-3.52,1.9-.32,3.96,1.22,4.17,3.52v7.43c0,.42.33.76.75.78,7.58.35,12.08,1.76,10.32,9.96l-2.56,8.69c-.23.77-.89,1.33-1.69,1.42l-7.5.88c-.71.08-1.41-.22-1.84-.79-3.84-5.07-8.14-9.31-13.65-11.33-1.1-.4-1.53-1.76-.82-2.69,1.84-2.41,4.52-3.45,9.21-1.22Z"/>
      </g>
    </g>
  </g>
</svg>