<?xml version="1.0" encoding="UTF-8"?>
<svg xmlns="http://www.w3.org/2000/svg" viewBox="0 0 793.52 435.26">
  <defs>
    <style>
      .cls-1 {
        fill: #aba3d3;
      }

      .cls-2 {
        fill: #cad2f7;
      }

      .cls-3 {
        fill: #251f3a;
      }
    </style>
  </defs>
  <g id="Layer_3" data-name="Layer 3">
    <path class="cls-2" d="M12.24.5h769.84c6.26,0,11.34,5.08,11.34,11.34v58.73H.9V11.84C.9,5.58,5.98.5,12.24.5Z"/>
  </g>
  <g id="Layer_2" data-name="Layer 2">
    <g>
      <path class="cls-3" d="M147.74,242.36c13.2-6.91,22.23-20.73,22.23-36.63,0-22.79-18.54-41.32-41.32-41.32s-41.32,18.54-41.32,41.32c0,15.9,9.03,29.72,22.23,36.63-11.34,3.6-19.59,14.23-19.59,26.75v41.52h6v-41.52c0-12.16,9.9-22.06,22.06-22.06h21.24c12.16,0,22.06,9.9,22.06,22.06v41.52h6v-41.52c0-12.52-8.24-23.15-19.59-26.75ZM93.33,205.73c0-19.48,15.85-35.32,35.32-35.32s35.32,15.85,35.32,35.32-15.85,35.32-35.32,35.32-35.32-15.85-35.32-35.32Z"/>
      <path class="cls-3" d="M114.07,195.94c-3.16,0-5.73,2.57-5.73,5.73s2.57,5.73,5.73,5.73,5.73-2.57,5.73-5.73-2.57-5.73-5.73-5.73Z"/>
      <path class="cls-3" d="M143.23,207.39c3.16,0,5.73-2.57,5.73-5.73s-2.57-5.73-5.73-5.73-5.73,2.57-5.73,5.73,2.57,5.73,5.73,5.73Z"/>
      <path class="cls-3" d="M136.24,218.93c.39-.73.11-1.64-.63-2.03-.73-.39-1.64-.11-2.03.63-.06.12-1.61,2.99-4.77,3.31-2.43.24-4.78-1.06-6-3.32-.39-.73-1.3-1-2.03-.61-.73.39-1,1.3-.61,2.03,1.65,3.06,4.75,4.92,8.06,4.92.29,0,.58-.01.87-.04,4.66-.46,6.89-4.44,7.13-4.89Z"/>
    </g>
    <g>
      <path class="cls-3" d="M651.09,207.39c3.16,0,5.73-2.57,5.73-5.73s-2.57-5.73-5.73-5.73-5.73,2.57-5.73,5.73,2.57,5.73,5.73,5.73Z"/>
      <path class="cls-3" d="M680.25,207.39c3.16,0,5.73-2.57,5.73-5.73s-2.57-5.73-5.73-5.73-5.73,2.57-5.73,5.73,2.57,5.73,5.73,5.73Z"/>
      <path class="cls-3" d="M659.42,207.27c.21-.35.1-.82-.25-1.03-.35-.21-.82-.1-1.03.25-.08.14-2.09,3.38-6.25,3.74-3.19.27-6.28-1.2-7.86-3.75-.22-.35-.68-.46-1.03-.24-.35.22-.46.68-.24,1.03,1.73,2.79,4.95,4.49,8.37,4.49.3,0,.59-.01.89-.04,4.83-.42,7.15-4.05,7.4-4.46Z"/>
      <path class="cls-3" d="M680.29,211.77c.3,0,.59-.01.89-.04,4.83-.42,7.15-4.05,7.4-4.46.21-.35.1-.82-.25-1.03-.35-.21-.82-.1-1.03.25-.08.14-2.09,3.38-6.25,3.74-3.19.27-6.28-1.2-7.86-3.75-.22-.35-.68-.46-1.03-.24-.35.22-.46.68-.24,1.03,1.73,2.79,4.95,4.49,8.37,4.49Z"/>
      <path class="cls-3" d="M673.3,222c0-1.1-.9-2-2-2h-11.23c-1.1,0-2,.9-2,2s.9,2,2,2h11.23c1.1,0,2-.9,2-2Z"/>
      <path class="cls-3" d="M704.35,300.26v-31.15c0-12.52-8.24-23.15-19.59-26.75,13.2-6.91,22.23-20.73,22.23-36.63,0-22.79-18.54-41.32-41.32-41.32s-41.32,18.54-41.32,41.32c0,15.9,9.03,29.72,22.23,36.63-9.56,3.03-16.91,11.06-18.99,21h-34.58v36.9h-32v24.58h206.77v-24.58h-63.44ZM630.35,205.73c0-19.48,15.85-35.32,35.32-35.32s35.32,15.85,35.32,35.32-15.85,35.32-35.32,35.32-35.32-15.85-35.32-35.32ZM599.01,269.35h63.68v28.06h-63.68v-28.06ZM633.76,263.35c2.54-9.38,11.12-16.31,21.29-16.31h21.24c12.16,0,22.06,9.9,22.06,22.06v31.15h-29.66v-36.9h-34.93Z"/>
      <path class="cls-3" d="M639.17,283.72l-.68.62c-.48.44-1.1.69-1.75.69-1.43,0-2.6-1.17-2.6-2.6,0-.87.43-1.67,1.16-2.16l.76-.51-.84-.36c-.87-.37-1.79-.56-2.74-.56-.66,0-1.3.1-1.91.27-.76-1.06-1.81-1.59-3.9-2.16l-.53,1.93c1.37.37,2.08.66,2.55,1.09-1.89,1.24-3.14,3.38-3.14,5.8,0,3.82,3.11,6.94,6.94,6.94s6.94-3.11,6.94-6.94c0-.36-.03-.73-.1-1.14l-.15-.91Z"/>
    </g>
    <g>
      <path class="cls-3" d="M438.48,205.73c0-22.79-18.54-41.32-41.32-41.32s-41.32,18.54-41.32,41.32c0,15.9,9.03,29.72,22.23,36.63-11.34,3.6-19.59,14.23-19.59,26.75v41.52h6v-41.52c0-12.16,9.9-22.06,22.06-22.06h21.24c12.16,0,22.06,9.9,22.06,22.06v41.52h6v-41.52c0-12.52-8.24-23.15-19.59-26.75,13.2-6.91,22.23-20.73,22.23-36.63ZM397.16,241.05c-19.48,0-35.32-15.85-35.32-35.32s15.85-35.32,35.32-35.32,35.32,15.85,35.32,35.32-15.85,35.32-35.32,35.32Z"/>
      <path class="cls-3" d="M382.58,195.94c-3.16,0-5.73,2.57-5.73,5.73s2.57,5.73,5.73,5.73,5.73-2.57,5.73-5.73-2.57-5.73-5.73-5.73Z"/>
      <path class="cls-3" d="M411.74,195.94c-3.16,0-5.73,2.57-5.73,5.73s2.57,5.73,5.73,5.73,5.73-2.57,5.73-5.73-2.57-5.73-5.73-5.73Z"/>
      <path class="cls-3" d="M395.8,216.77c-4.68.46-6.89,4.44-7.13,4.89-.39.73-.1,1.64.63,2.03.22.12.46.17.7.17.54,0,1.06-.29,1.33-.8.06-.12,1.6-2.99,4.77-3.3,2.43-.24,4.78,1.06,6,3.32.39.73,1.3,1,2.03.61.73-.39,1-1.3.61-2.03-1.79-3.32-5.29-5.24-8.93-4.88Z"/>
      <path class="cls-3" d="M445.54,119.93c-1.32-3.76-5.54-10.24-19.1-12.21-1.35-8.08-7.08-14.56-15.52-17.48-9.16-3.16-19.07-1.29-25.53,4.76-5.83-1.44-12.26-.34-16.96,2.95-3.6,2.52-5.84,6.04-6.39,9.99-8.78,3.02-14.29,8.1-15.57,14.37-1.04,5.08,1.01,10.41,5.48,14.26,4.4,3.79,10.33,5.72,16.97,5.72,4.35,0,9.01-.83,13.75-2.51,13.97,3.31,25.52,3.31,34.34.03,9.6,2.99,18.76,1.25,24.6-4.7,4.2-4.28,5.71-10.1,3.93-15.17Z"/>
      <path class="cls-3" d="M359.97,158.29l9.5-10.84c.55-.62.48-1.57-.14-2.12-.62-.55-1.57-.48-2.12.14l-9.5,10.84c-.55.62-.48,1.57.14,2.12.28.25.64.37.99.37.42,0,.83-.17,1.13-.51Z"/>
      <path class="cls-3" d="M374.77,160.5l9.5-10.84c.55-.62.48-1.57-.14-2.12-.62-.55-1.57-.48-2.12.14l-9.5,10.84c-.55.62-.48,1.57.14,2.12.28.25.64.37.99.37.42,0,.83-.17,1.13-.51Z"/>
      <path class="cls-3" d="M393.75,153.95l5.69-6.49c.55-.62.48-1.57-.14-2.12-.62-.55-1.57-.48-2.12.14l-5.69,6.49c-.55.62-.48,1.57.14,2.12.28.25.64.37.99.37.42,0,.83-.17,1.13-.51Z"/>
      <path class="cls-3" d="M436.94,147.68l-9.5,10.84c-.55.62-.48,1.57.14,2.12.28.25.64.37.99.37.42,0,.83-.17,1.13-.51l9.5-10.84c.55-.62.48-1.57-.14-2.12-.62-.55-1.57-.48-2.12.14Z"/>
      <path class="cls-3" d="M416.19,155.82l8.21-9.37c.55-.62.48-1.57-.14-2.12s-1.57-.48-2.12.14l-8.21,9.37c-.55.62-.48,1.57.14,2.12.28.25.64.37.99.37.42,0,.83-.17,1.13-.51Z"/>
    </g>
  </g>
  <g id="Text">
    <g>
      <path d="M48.42,360.43l3.46-10.05h1.52l3.38,10.05h-1.31l-.85-2.58h-4l-.88,2.58h-1.31ZM50.93,356.88h3.36l-1.68-4.98-1.68,4.98Z"/>
      <path d="M62.38,352.76h1.25v4.77c0,.64.16,1.13.47,1.46.31.33.76.5,1.34.5.48,0,.9-.13,1.25-.38.35-.26.63-.61.82-1.06.19-.45.29-.97.29-1.55h.46c0,.86-.12,1.59-.37,2.2-.25.61-.6,1.07-1.05,1.4-.45.32-.98.48-1.59.48-.58,0-1.08-.11-1.51-.32-.43-.21-.77-.54-1.01-.97-.24-.43-.36-.98-.36-1.65v-4.86ZM67.81,352.76h1.25v7.66h-1.25v-7.66Z"/>
      <path d="M75.05,360.62c-.74,0-1.36-.11-1.86-.32-.5-.21-.87-.5-1.13-.87-.26-.37-.39-.8-.41-1.28h1.2c.03.49.22.85.59,1.09.37.24.86.36,1.49.36.33,0,.63-.05.91-.16.28-.11.5-.25.66-.44.17-.19.25-.4.25-.63,0-.3-.11-.53-.33-.7s-.57-.32-1.05-.45l-1.49-.48c-.65-.2-1.14-.48-1.48-.84-.34-.36-.52-.78-.52-1.28,0-.62.27-1.11.82-1.49.54-.37,1.26-.56,2.14-.56.94,0,1.67.19,2.18.58.52.38.79.86.81,1.44h-1.23c-.05-.34-.22-.59-.51-.76-.29-.17-.71-.26-1.25-.26s-.92.12-1.21.35-.44.49-.44.77c0,.53.45.92,1.36,1.17l1.52.51c.66.2,1.16.46,1.51.78.35.32.52.73.52,1.22,0,.38-.13.75-.38,1.09-.25.34-.61.62-1.06.83-.46.21-1,.32-1.63.32Z"/>
      <path d="M83.36,360.62c-.66,0-1.25-.17-1.77-.51-.52-.34-.93-.81-1.23-1.41-.3-.6-.45-1.3-.45-2.08,0-.84.15-1.56.45-2.16.3-.6.71-1.07,1.23-1.39.52-.32,1.11-.48,1.78-.48.58,0,1.08.12,1.49.35.41.24.74.55.99.95.25.4.43.85.52,1.36s.13,1.03.08,1.56h-5.54v-.77h4.71l-.37.24c.02-.32,0-.63-.05-.94-.05-.31-.15-.6-.28-.87s-.33-.48-.58-.64c-.25-.16-.57-.24-.96-.24-.49,0-.9.12-1.23.38-.33.25-.58.58-.74.99-.17.41-.25.85-.25,1.32v.51c0,.53.08,1.01.24,1.43.16.42.41.75.73,1s.74.37,1.23.37.9-.12,1.22-.36c.32-.24.51-.59.58-1.06h1.3c-.08.51-.26.94-.54,1.31s-.64.65-1.08.84c-.44.2-.93.3-1.48.3Z"/>
      <path d="M88.92,360.43v-7.66h1.25v7.66h-1.25ZM89.78,356.97c0-.97.09-1.78.28-2.42.19-.64.46-1.12.82-1.44.36-.32.8-.48,1.32-.48.17,0,.33.01.47.04.14.02.28.06.43.11l-.08,1.23c-.15-.05-.31-.09-.49-.12-.18-.03-.33-.05-.47-.05-.45,0-.82.13-1.1.39s-.48.62-.6,1.09c-.12.47-.19,1.02-.19,1.66h-.38Z"/>
      <path d="M101.24,360.62c-.62,0-1.19-.17-1.7-.5-.52-.33-.93-.8-1.24-1.41-.31-.61-.46-1.32-.46-2.14s.15-1.52.46-2.12c.3-.6.71-1.06,1.21-1.38.5-.32,1.06-.48,1.66-.48.56,0,1.05.14,1.48.41.42.27.75.66.99,1.18.23.51.35,1.13.35,1.86h-.48c0-.51-.1-.93-.3-1.28-.2-.35-.46-.61-.78-.79-.32-.18-.66-.27-1.03-.27-.42,0-.8.12-1.14.35-.34.23-.62.56-.82.99-.21.43-.31.94-.31,1.54s.1,1.13.31,1.57c.21.44.48.77.82,1.01.34.24.72.35,1.14.35.35,0,.68-.09,1-.27.32-.18.59-.45.8-.8s.31-.77.31-1.27h.48c0,.74-.12,1.37-.36,1.88s-.57.91-.98,1.17c-.41.27-.88.4-1.39.4ZM103.7,360.43l-.21-1.79v-9.12h1.25v10.91h-1.04Z"/>
      <path d="M108.69,350.97c-.26,0-.46-.07-.61-.22s-.22-.34-.22-.58.07-.42.22-.56.35-.21.61-.21.46.07.61.21c.15.14.22.33.22.56s-.07.43-.22.58c-.15.15-.35.22-.61.22ZM108.06,360.43v-7.66h1.25v7.66h-1.25Z"/>
      <path d="M114.88,360.62c-.63,0-1.15-.11-1.56-.34-.41-.22-.72-.51-.92-.87-.2-.36-.3-.73-.3-1.13,0-.52.13-.94.39-1.26.26-.33.61-.56,1.06-.72.45-.15.95-.23,1.51-.23.4,0,.8.04,1.2.12.4.08.8.19,1.18.33v.78c-.32-.13-.68-.23-1.08-.3-.4-.08-.77-.11-1.11-.11-.51,0-.94.11-1.3.32s-.53.57-.53,1.08c0,.37.13.69.4.96.27.27.7.4,1.29.4.42,0,.79-.1,1.12-.29.33-.19.6-.44.79-.73.19-.29.29-.59.29-.88h.3c0,.51-.11.99-.33,1.42-.22.44-.54.79-.95,1.06s-.9.4-1.47.4ZM117.49,360.43l-.16-1.68v-3.28c0-.69-.15-1.18-.44-1.48-.29-.3-.73-.45-1.32-.45-.33,0-.63.05-.9.14-.27.1-.48.24-.64.44-.16.2-.24.46-.24.77h-1.39c0-.55.14-1,.41-1.34s.65-.58,1.12-.74c.48-.15,1.02-.23,1.64-.23s1.11.1,1.56.3c.45.2.81.51,1.06.94.26.43.38.99.38,1.68v4.93h-1.09Z"/>
      <path d="M124.26,364.36c-.78,0-1.46-.11-2.04-.33-.58-.22-1.02-.52-1.34-.89-.32-.37-.48-.78-.48-1.23,0-.59.22-1.04.65-1.36.43-.31,1-.47,1.68-.47l.69.43c-.58,0-1.02.12-1.34.36-.31.24-.47.57-.47.98s.22.77.67,1.06c.45.29,1.1.43,1.97.43.64,0,1.2-.09,1.68-.28.48-.18.86-.42,1.13-.72.27-.3.4-.61.4-.96,0-.24-.09-.45-.26-.62-.18-.17-.45-.26-.81-.26h-2.98c-.52,0-.96-.08-1.34-.24s-.67-.36-.87-.62-.3-.54-.3-.84c0-.32.09-.59.27-.82.18-.22.42-.39.71-.51.29-.12.6-.18.94-.18l.24.46c-.16,0-.32.04-.48.11-.16.07-.3.18-.41.32-.11.14-.16.32-.16.53,0,.25.1.45.3.62.2.17.57.25,1.1.25h2.98c.72,0,1.29.15,1.7.46.41.3.62.73.62,1.27,0,.5-.18.98-.54,1.44-.36.46-.87.84-1.54,1.14s-1.46.44-2.39.44ZM124.49,358.19c-.59,0-1.12-.12-1.59-.35s-.85-.56-1.12-.98c-.27-.42-.41-.91-.41-1.46s.14-1.05.41-1.47c.27-.42.65-.75,1.12-.98.47-.23,1-.35,1.59-.35s1.09.12,1.56.35c.47.23.84.56,1.12.98.28.42.42.91.42,1.47s-.14,1.04-.42,1.46c-.28.42-.65.75-1.12.98-.47.23-.99.35-1.56.35ZM124.49,357.29c.59,0,1.04-.18,1.37-.54.33-.36.49-.82.49-1.36s-.16-1.01-.49-1.36c-.33-.35-.78-.52-1.37-.52s-1.04.17-1.37.52c-.33.35-.5.8-.5,1.36s.17,1,.5,1.36c.33.36.79.54,1.37.54ZM127,353.8l-.59-.24c0-.45.09-.84.26-1.18.18-.34.43-.6.75-.79s.71-.28,1.16-.28l-.1,1.23c-.48,0-.85.1-1.1.31s-.38.52-.38.96Z"/>
      <path d="M130.59,360.43v-7.65h1.07l.18,1.76v5.89h-1.25ZM136.03,360.43v-4.5c0-.73-.17-1.29-.52-1.67-.35-.38-.83-.57-1.43-.57-.46,0-.86.13-1.19.38-.34.25-.59.61-.78,1.08-.18.47-.27,1.02-.27,1.67h-.48c0-.89.12-1.65.35-2.28.23-.63.58-1.11,1.03-1.44s1-.5,1.64-.5c.6,0,1.12.13,1.55.4.43.27.76.65.99,1.16.23.5.34,1.1.34,1.78v4.5h-1.23Z"/>
      <path d="M143.01,360.62c-.69,0-1.3-.15-1.84-.46-.54-.3-.96-.75-1.27-1.35-.31-.6-.46-1.33-.46-2.21s.15-1.62.46-2.21c.31-.59.73-1.04,1.27-1.35.54-.3,1.15-.46,1.84-.46s1.29.15,1.83.46c.54.3.96.75,1.26,1.35s.46,1.33.46,2.21-.15,1.61-.46,2.21c-.31.6-.73,1.05-1.26,1.35-.54.3-1.15.46-1.83.46ZM142.98,359.53c.5,0,.92-.12,1.26-.36.35-.24.61-.57.79-1.01s.27-.96.27-1.56c0-.91-.19-1.63-.57-2.16-.38-.52-.94-.79-1.69-.79-.5,0-.92.12-1.27.36-.34.24-.61.58-.78,1.02-.18.44-.27.96-.27,1.57,0,.9.19,1.62.57,2.14s.94.79,1.68.79Z"/>
      <path d="M151.74,360.62c-.74,0-1.36-.11-1.86-.32-.5-.21-.87-.5-1.13-.87-.26-.37-.39-.8-.41-1.28h1.2c.03.49.22.85.59,1.09.37.24.86.36,1.49.36.33,0,.63-.05.91-.16.28-.11.5-.25.66-.44.17-.19.25-.4.25-.63,0-.3-.11-.53-.33-.7s-.57-.32-1.05-.45l-1.49-.48c-.65-.2-1.14-.48-1.48-.84-.34-.36-.52-.78-.52-1.28,0-.62.27-1.11.82-1.49.54-.37,1.26-.56,2.14-.56.94,0,1.67.19,2.18.58.52.38.79.86.81,1.44h-1.23c-.05-.34-.22-.59-.51-.76-.29-.17-.71-.26-1.25-.26s-.92.12-1.21.35-.44.49-.44.77c0,.53.45.92,1.36,1.17l1.52.51c.66.2,1.16.46,1.51.78.35.32.52.73.52,1.22,0,.38-.13.75-.38,1.09-.25.34-.61.62-1.06.83-.46.21-1,.32-1.63.32Z"/>
      <path d="M160.05,360.62c-.66,0-1.25-.17-1.77-.51-.52-.34-.93-.81-1.23-1.41-.3-.6-.45-1.3-.45-2.08,0-.84.15-1.56.45-2.16.3-.6.71-1.07,1.23-1.39.52-.32,1.11-.48,1.78-.48.58,0,1.08.12,1.49.35.41.24.74.55.99.95.25.4.43.85.52,1.36s.13,1.03.08,1.56h-5.54v-.77h4.71l-.37.24c.02-.32,0-.63-.05-.94-.05-.31-.15-.6-.28-.87s-.33-.48-.58-.64c-.25-.16-.57-.24-.96-.24-.49,0-.9.12-1.23.38-.33.25-.58.58-.74.99-.17.41-.25.85-.25,1.32v.51c0,.53.08,1.01.24,1.43.16.42.41.75.73,1s.74.37,1.23.37.9-.12,1.22-.36c.32-.24.51-.59.58-1.06h1.3c-.08.51-.26.94-.54,1.31s-.64.65-1.08.84c-.44.2-.93.3-1.48.3Z"/>
      <path d="M168.35,360.62c-.62,0-1.19-.17-1.7-.5-.52-.33-.93-.8-1.24-1.41-.31-.61-.46-1.32-.46-2.14s.15-1.52.46-2.12c.3-.6.71-1.06,1.21-1.38.5-.32,1.06-.48,1.66-.48.56,0,1.05.14,1.48.41.42.27.75.66.99,1.18.23.51.35,1.13.35,1.86h-.48c0-.51-.1-.93-.3-1.28-.2-.35-.46-.61-.78-.79-.32-.18-.66-.27-1.03-.27-.42,0-.8.12-1.14.35-.34.23-.62.56-.82.99-.21.43-.31.94-.31,1.54s.1,1.13.31,1.57c.21.44.48.77.82,1.01.34.24.72.35,1.14.35.35,0,.68-.09,1-.27.32-.18.59-.45.8-.8s.31-.77.31-1.27h.48c0,.74-.12,1.37-.36,1.88s-.57.91-.98,1.17c-.41.27-.88.4-1.39.4ZM170.81,360.43l-.21-1.79v-9.12h1.25v10.91h-1.04Z"/>
      <path d="M177.57,352.78h1.3l1.95,6.38h-.16l1.9-6.02h1.04l1.89,6.03h-.14l1.95-6.4h1.25l-2.51,7.65h-1.22l-1.86-5.65h.19l-1.84,5.65h-1.22l-2.53-7.65Z"/>
      <path d="M191.19,350.97c-.26,0-.46-.07-.61-.22s-.22-.34-.22-.58.07-.42.22-.56.35-.21.61-.21.46.07.61.21c.15.14.22.33.22.56s-.07.43-.22.58c-.15.15-.35.22-.61.22ZM190.57,360.43v-7.66h1.25v7.66h-1.25Z"/>
      <path d="M194.18,353.64v-.86h4.88v.86h-4.88ZM197.61,360.62c-.42,0-.79-.08-1.12-.24-.33-.16-.59-.4-.78-.72-.19-.32-.29-.72-.29-1.2v-7.81h1.23v7.78c0,.79.37,1.18,1.1,1.18.22,0,.43-.02.64-.07.21-.05.44-.12.69-.22l.18.9c-.27.12-.54.21-.81.29-.27.07-.55.11-.84.11Z"/>
      <path d="M201.27,360.43v-10.91h1.25v10.91h-1.25ZM206.71,360.43v-4.5c0-.73-.17-1.29-.52-1.67-.35-.38-.83-.57-1.43-.57-.46,0-.86.13-1.19.38-.34.25-.59.61-.78,1.08-.18.47-.27,1.02-.27,1.67h-.48c0-.89.12-1.65.35-2.28.23-.63.58-1.11,1.03-1.44s1-.5,1.64-.5c.6,0,1.12.13,1.55.4.43.27.76.65.99,1.16.23.5.34,1.1.34,1.78v4.5h-1.23Z"/>
      <path d="M69,379.63l3.46-10.05h1.52l3.38,10.05h-1.31l-.85-2.58h-4l-.88,2.58h-1.31ZM71.51,376.08h3.36l-1.68-4.98-1.68,4.98Z"/>
      <path d="M78.32,372.84v-.86h4.88v.86h-4.88ZM81.74,379.82c-.42,0-.79-.08-1.12-.24-.33-.16-.59-.4-.78-.72-.19-.32-.29-.72-.29-1.2v-7.81h1.23v7.78c0,.79.37,1.18,1.1,1.18.22,0,.43-.02.64-.07.21-.05.44-.12.69-.22l.18.9c-.27.12-.54.21-.81.29-.27.07-.55.11-.84.11Z"/>
      <path d="M84.33,372.84v-.86h4.88v.86h-4.88ZM87.76,379.82c-.42,0-.79-.08-1.12-.24-.33-.16-.59-.4-.78-.72-.19-.32-.29-.72-.29-1.2v-7.81h1.23v7.78c0,.79.37,1.18,1.1,1.18.22,0,.43-.02.64-.07.21-.05.44-.12.69-.22l.18.9c-.27.12-.54.21-.81.29-.27.07-.55.11-.84.11Z"/>
      <path d="M94.08,379.82c-.66,0-1.25-.17-1.77-.51-.52-.34-.93-.81-1.23-1.41-.3-.6-.45-1.3-.45-2.08,0-.84.15-1.56.45-2.16.3-.6.71-1.07,1.23-1.39.52-.32,1.11-.48,1.78-.48.58,0,1.08.12,1.49.35.41.24.74.55.99.95.25.4.43.85.52,1.36s.13,1.03.08,1.56h-5.54v-.77h4.71l-.37.24c.02-.32,0-.63-.05-.94-.05-.31-.15-.6-.28-.87s-.33-.48-.58-.64c-.25-.16-.57-.24-.96-.24-.49,0-.9.12-1.23.38-.33.25-.58.58-.74.99-.17.41-.25.85-.25,1.32v.51c0,.53.08,1.01.24,1.43.16.42.41.75.73,1s.74.37,1.23.37.9-.12,1.22-.36c.32-.24.51-.59.58-1.06h1.3c-.08.51-.26.94-.54,1.31s-.64.65-1.08.84c-.44.2-.93.3-1.48.3Z"/>
      <path d="M99.64,379.63v-7.65h1.07l.18,1.76v5.89h-1.25ZM105.08,379.63v-4.5c0-.73-.17-1.29-.52-1.67-.35-.38-.83-.57-1.43-.57-.46,0-.86.13-1.19.38-.34.25-.59.61-.78,1.08-.18.47-.27,1.02-.27,1.67h-.48c0-.89.12-1.65.35-2.28.23-.63.58-1.11,1.03-1.44s1-.5,1.64-.5c.6,0,1.12.13,1.55.4.43.27.76.65.99,1.16.23.5.34,1.1.34,1.78v4.5h-1.23Z"/>
      <path d="M108.22,372.84v-.86h4.88v.86h-4.88ZM111.64,379.82c-.42,0-.79-.08-1.12-.24-.33-.16-.59-.4-.78-.72-.19-.32-.29-.72-.29-1.2v-7.81h1.23v7.78c0,.79.37,1.18,1.1,1.18.22,0,.43-.02.64-.07.21-.05.44-.12.69-.22l.18.9c-.27.12-.54.21-.81.29-.27.07-.55.11-.84.11Z"/>
      <path d="M116.01,370.17c-.26,0-.46-.07-.61-.22s-.22-.34-.22-.58.07-.42.22-.56.35-.21.61-.21.46.07.61.21c.15.14.22.33.22.56s-.07.43-.22.58c-.15.15-.35.22-.61.22ZM115.39,379.63v-7.66h1.25v7.66h-1.25Z"/>
      <path d="M122.84,379.82c-.69,0-1.3-.15-1.84-.46-.54-.3-.96-.75-1.27-1.35-.31-.6-.46-1.33-.46-2.21s.15-1.62.46-2.21c.31-.59.73-1.04,1.27-1.35.54-.3,1.15-.46,1.84-.46s1.29.15,1.83.46c.54.3.96.75,1.26,1.35s.46,1.33.46,2.21-.15,1.61-.46,2.21c-.31.6-.73,1.05-1.26,1.35-.54.3-1.15.46-1.83.46ZM122.81,378.73c.5,0,.92-.12,1.26-.36.35-.24.61-.57.79-1.01s.27-.96.27-1.56c0-.91-.19-1.63-.57-2.16-.38-.52-.94-.79-1.69-.79-.5,0-.92.12-1.27.36-.34.24-.61.58-.78,1.02-.18.44-.27.96-.27,1.57,0,.9.19,1.62.57,2.14s.94.79,1.68.79Z"/>
      <path d="M128.82,379.63v-7.65h1.07l.18,1.76v5.89h-1.25ZM134.26,379.63v-4.5c0-.73-.17-1.29-.52-1.67-.35-.38-.83-.57-1.43-.57-.46,0-.86.13-1.19.38-.34.25-.59.61-.78,1.08-.18.47-.27,1.02-.27,1.67h-.48c0-.89.12-1.65.35-2.28.23-.63.58-1.11,1.03-1.44s1-.5,1.64-.5c.6,0,1.12.13,1.55.4.43.27.76.65.99,1.16.23.5.34,1.1.34,1.78v4.5h-1.23Z"/>
      <path d="M142.27,369.58h2.94c1.01,0,1.89.21,2.64.62.75.41,1.33,1,1.74,1.75s.62,1.64.62,2.66-.21,1.89-.62,2.64-.99,1.34-1.74,1.76c-.75.42-1.63.63-2.64.63h-2.94v-10.05ZM143.52,370.68v7.86h1.7c.76,0,1.41-.17,1.96-.51.55-.34.97-.81,1.26-1.4.3-.59.44-1.27.44-2.02s-.15-1.43-.44-2.02c-.3-.59-.72-1.05-1.26-1.39-.55-.34-1.2-.51-1.96-.51h-1.7Z"/>
      <path d="M155.49,379.82c-.66,0-1.25-.17-1.77-.51-.52-.34-.93-.81-1.23-1.41-.3-.6-.45-1.3-.45-2.08,0-.84.15-1.56.45-2.16.3-.6.71-1.07,1.23-1.39.52-.32,1.11-.48,1.78-.48.58,0,1.08.12,1.49.35.41.24.74.55.99.95.25.4.43.85.52,1.36s.13,1.03.08,1.56h-5.54v-.77h4.71l-.37.24c.02-.32,0-.63-.05-.94-.05-.31-.15-.6-.28-.87s-.33-.48-.58-.64c-.25-.16-.57-.24-.96-.24-.49,0-.9.12-1.23.38-.33.25-.58.58-.74.99-.17.41-.25.85-.25,1.32v.51c0,.53.08,1.01.24,1.43.16.42.41.75.73,1s.74.37,1.23.37.9-.12,1.22-.36c.32-.24.51-.59.58-1.06h1.3c-.08.51-.26.94-.54,1.31s-.64.65-1.08.84c-.44.2-.93.3-1.48.3Z"/>
      <path d="M160.22,372.84v-.86h4.08v.86h-4.08ZM161.47,379.63v-8.83c0-.51.1-.92.29-1.24.19-.32.46-.56.78-.72s.69-.23,1.1-.23c.22,0,.44.02.67.05.23.03.45.08.68.14l-.24.99c-.16-.06-.32-.11-.48-.14-.16-.03-.31-.05-.45-.05-.17,0-.34.03-.51.1-.17.06-.31.18-.42.36-.11.18-.17.43-.17.76v8.82h-1.25ZM167.23,370.17c-.26,0-.46-.07-.61-.22s-.22-.34-.22-.58.07-.42.22-.56.35-.21.61-.21.46.07.61.21c.15.14.22.33.22.56s-.07.43-.22.58c-.15.15-.35.22-.61.22ZM166.61,379.63v-7.66h1.25v7.66h-1.25Z"/>
      <path d="M173.99,379.82c-.61,0-1.19-.17-1.72-.5-.53-.33-.96-.8-1.28-1.4-.33-.6-.49-1.31-.49-2.14s.16-1.56.49-2.16c.33-.6.75-1.05,1.28-1.37s1.1-.47,1.72-.47c.43,0,.82.07,1.16.2.34.13.64.31.9.54.26.23.47.49.64.78.17.29.29.6.37.92l-1.28.11c-.13-.44-.36-.79-.67-1.05s-.69-.39-1.14-.39c-.38,0-.73.11-1.07.32-.33.22-.6.54-.81.97-.21.43-.31.96-.31,1.6,0,.59.09,1.11.28,1.54s.45.77.78,1.01c.33.24.71.36,1.13.36.59,0,1.04-.15,1.35-.44.31-.29.46-.69.46-1.21h1.28c0,.53-.13,1.01-.38,1.42-.25.42-.61.74-1.07.98-.46.24-1,.36-1.63.36Z"/>
      <path d="M180.27,370.17c-.26,0-.46-.07-.61-.22s-.22-.34-.22-.58.07-.42.22-.56.35-.21.61-.21.46.07.61.21c.15.14.22.33.22.56s-.07.43-.22.58c-.15.15-.35.22-.61.22ZM179.64,379.63v-7.66h1.25v7.66h-1.25Z"/>
      <path d="M183.26,372.84v-.86h4.88v.86h-4.88ZM186.68,379.82c-.42,0-.79-.08-1.12-.24-.33-.16-.59-.4-.78-.72-.19-.32-.29-.72-.29-1.2v-7.81h1.23v7.78c0,.79.37,1.18,1.1,1.18.22,0,.43-.02.64-.07.21-.05.44-.12.69-.22l.18.9c-.27.12-.54.21-.81.29-.27.07-.55.11-.84.11Z"/>
      <path d="M49.69,388.78h1.25v4.43h4.98v-4.43h1.23v10.05h-1.23v-4.54h-4.98v4.54h-1.25v-10.05Z"/>
      <path d="M59.12,391.18h1.39l2.5,6.56h-.29l1.94-6.56h1.28l-2.88,9.18c-.24.77-.56,1.36-.96,1.78-.4.42-.91.62-1.54.62-.34,0-.65-.05-.96-.14s-.61-.23-.93-.42v-1.15c.28.22.56.38.82.48.26.1.54.14.83.14.32,0,.59-.1.8-.3s.4-.46.54-.78.27-.65.37-1l.22-.77-3.14-7.65Z"/>
      <path d="M67.84,402.59v-11.41h1.04l.21,1.79v9.62h-1.25ZM71.31,399.02c-.56,0-1.05-.13-1.46-.38-.41-.26-.73-.63-.96-1.12-.22-.49-.34-1.09-.34-1.8h.53c0,.47.1.88.3,1.2.2.33.45.57.77.74.32.17.65.25,1.01.25.38,0,.75-.11,1.1-.33.35-.22.64-.55.86-.98.22-.43.34-.96.34-1.6s-.1-1.13-.31-1.56c-.21-.43-.48-.76-.83-.99-.35-.23-.73-.34-1.15-.34-.36,0-.7.09-1.02.26-.32.18-.58.43-.78.77-.2.34-.3.76-.3,1.25h-.53c0-.74.12-1.36.37-1.87.25-.5.58-.88,1-1.14s.89-.38,1.42-.38c.6,0,1.15.16,1.67.48.52.32.94.78,1.26,1.38.32.6.48,1.31.48,2.14s-.16,1.57-.48,2.17-.75,1.06-1.27,1.38c-.52.32-1.09.48-1.69.48Z"/>
      <path d="M79.84,399.02c-.66,0-1.25-.17-1.77-.51-.52-.34-.93-.81-1.23-1.41-.3-.6-.45-1.3-.45-2.08,0-.84.15-1.56.45-2.16.3-.6.71-1.07,1.23-1.39.52-.32,1.11-.48,1.78-.48.58,0,1.08.12,1.49.35.41.24.74.55.99.95.25.4.43.85.52,1.36s.13,1.03.08,1.56h-5.54v-.77h4.71l-.37.24c.02-.32,0-.63-.05-.94-.05-.31-.15-.6-.28-.87s-.33-.48-.58-.64c-.25-.16-.57-.24-.96-.24-.49,0-.9.12-1.23.38-.33.25-.58.58-.74.99-.17.41-.25.85-.25,1.32v.51c0,.53.08,1.01.24,1.43.16.42.41.75.73,1s.74.37,1.23.37.9-.12,1.22-.36c.32-.24.51-.59.58-1.06h1.3c-.08.51-.26.94-.54,1.31s-.64.65-1.08.84c-.44.2-.93.3-1.48.3Z"/>
      <path d="M85.4,398.83v-7.66h1.25v7.66h-1.25ZM86.27,395.37c0-.97.09-1.78.28-2.42.19-.64.46-1.12.82-1.44.36-.32.8-.48,1.32-.48.17,0,.33.01.47.04.14.02.28.06.43.11l-.08,1.23c-.15-.05-.31-.09-.49-.12-.18-.03-.33-.05-.47-.05-.45,0-.82.13-1.1.39s-.48.62-.6,1.09c-.12.47-.19,1.02-.19,1.66h-.38Z"/>
      <path d="M93.31,399.02c-.63,0-1.15-.11-1.56-.34-.41-.22-.72-.51-.92-.87-.2-.36-.3-.73-.3-1.13,0-.52.13-.94.39-1.26.26-.33.61-.56,1.06-.72.45-.15.95-.23,1.51-.23.4,0,.8.04,1.2.12.4.08.8.19,1.18.33v.78c-.32-.13-.68-.23-1.08-.3-.4-.08-.77-.11-1.11-.11-.51,0-.94.11-1.3.32s-.53.57-.53,1.08c0,.37.13.69.4.96.27.27.7.4,1.29.4.42,0,.79-.1,1.12-.29.33-.19.6-.44.79-.73.19-.29.29-.59.29-.88h.3c0,.51-.11.99-.33,1.42-.22.44-.54.79-.95,1.06s-.9.4-1.47.4ZM95.92,398.83l-.16-1.68v-3.28c0-.69-.15-1.18-.44-1.48-.29-.3-.73-.45-1.32-.45-.33,0-.63.05-.9.14-.27.1-.48.24-.64.44-.16.2-.24.46-.24.77h-1.39c0-.55.14-1,.41-1.34s.65-.58,1.12-.74c.48-.15,1.02-.23,1.64-.23s1.11.1,1.56.3c.45.2.81.51,1.06.94.26.43.38.99.38,1.68v4.93h-1.09Z"/>
      <path d="M102.68,399.02c-.61,0-1.19-.17-1.72-.5-.53-.33-.96-.8-1.28-1.4-.33-.6-.49-1.31-.49-2.14s.16-1.56.49-2.16c.33-.6.75-1.05,1.28-1.37s1.1-.47,1.72-.47c.43,0,.82.07,1.16.2.34.13.64.31.9.54.26.23.47.49.64.78.17.29.29.6.37.92l-1.28.11c-.13-.44-.36-.79-.67-1.05s-.69-.39-1.14-.39c-.38,0-.73.11-1.07.32-.33.22-.6.54-.81.97-.21.43-.31.96-.31,1.6,0,.59.09,1.11.28,1.54s.45.77.78,1.01c.33.24.71.36,1.13.36.59,0,1.04-.15,1.35-.44.31-.29.46-.69.46-1.21h1.28c0,.53-.13,1.01-.38,1.42-.25.42-.61.74-1.07.98-.46.24-1,.36-1.63.36Z"/>
      <path d="M107.18,392.04v-.86h4.88v.86h-4.88ZM110.6,399.02c-.42,0-.79-.08-1.12-.24-.33-.16-.59-.4-.78-.72-.19-.32-.29-.72-.29-1.2v-7.81h1.23v7.78c0,.79.37,1.18,1.1,1.18.22,0,.43-.02.64-.07.21-.05.44-.12.69-.22l.18.9c-.27.12-.54.21-.81.29-.27.07-.55.11-.84.11Z"/>
      <path d="M114.97,389.37c-.26,0-.46-.07-.61-.22s-.22-.34-.22-.58.07-.42.22-.56.35-.21.61-.21.46.07.61.21c.15.14.22.33.22.56s-.07.43-.22.58c-.15.15-.35.22-.61.22ZM114.35,398.83v-7.66h1.25v7.66h-1.25Z"/>
      <path d="M117.71,391.18h1.42l2.4,6.58h-.18l2.4-6.58h1.42l-3.06,7.65h-1.36l-3.06-7.65Z"/>
      <path d="M127.78,389.37c-.26,0-.46-.07-.61-.22s-.22-.34-.22-.58.07-.42.22-.56.35-.21.61-.21.46.07.61.21c.15.14.22.33.22.56s-.07.43-.22.58c-.15.15-.35.22-.61.22ZM127.15,398.83v-7.66h1.25v7.66h-1.25Z"/>
      <path d="M130.77,392.04v-.86h4.88v.86h-4.88ZM134.19,399.02c-.42,0-.79-.08-1.12-.24-.33-.16-.59-.4-.78-.72-.19-.32-.29-.72-.29-1.2v-7.81h1.23v7.78c0,.79.37,1.18,1.1,1.18.22,0,.43-.02.64-.07.21-.05.44-.12.69-.22l.18.9c-.27.12-.54.21-.81.29-.27.07-.55.11-.84.11Z"/>
      <path d="M136.59,391.18h1.39l2.5,6.56h-.29l1.94-6.56h1.28l-2.88,9.18c-.24.77-.56,1.36-.96,1.78-.4.42-.91.62-1.54.62-.34,0-.65-.05-.96-.14s-.61-.23-.93-.42v-1.15c.28.22.56.38.82.48.26.1.54.14.83.14.32,0,.59-.1.8-.3s.4-.46.54-.78.27-.65.37-1l.22-.77-3.14-7.65Z"/>
      <path d="M149.1,388.78h2.94c1.01,0,1.89.21,2.64.62.75.41,1.33,1,1.74,1.75s.62,1.64.62,2.66-.21,1.89-.62,2.64-.99,1.34-1.74,1.76c-.75.42-1.63.63-2.64.63h-2.94v-10.05ZM150.35,389.88v7.86h1.7c.76,0,1.41-.17,1.96-.51.55-.34.97-.81,1.26-1.4.3-.59.44-1.27.44-2.02s-.15-1.43-.44-2.02c-.3-.59-.72-1.05-1.26-1.39-.55-.34-1.2-.51-1.96-.51h-1.7Z"/>
      <path d="M160.37,389.37c-.26,0-.46-.07-.61-.22s-.22-.34-.22-.58.07-.42.22-.56.35-.21.61-.21.46.07.61.21c.15.14.22.33.22.56s-.07.43-.22.58c-.15.15-.35.22-.61.22ZM159.74,398.83v-7.66h1.25v7.66h-1.25Z"/>
      <path d="M167.18,399.02c-.74,0-1.36-.11-1.86-.32-.5-.21-.87-.5-1.13-.87-.26-.37-.39-.8-.41-1.28h1.2c.03.49.22.85.59,1.09.37.24.86.36,1.49.36.33,0,.63-.05.91-.16.28-.11.5-.25.66-.44.17-.19.25-.4.25-.63,0-.3-.11-.53-.33-.7s-.57-.32-1.05-.45l-1.49-.48c-.65-.2-1.14-.48-1.48-.84-.34-.36-.52-.78-.52-1.28,0-.62.27-1.11.82-1.49.54-.37,1.26-.56,2.14-.56.94,0,1.67.19,2.18.58.52.38.79.86.81,1.44h-1.23c-.05-.34-.22-.59-.51-.76-.29-.17-.71-.26-1.25-.26s-.92.12-1.21.35-.44.49-.44.77c0,.53.45.92,1.36,1.17l1.52.51c.66.2,1.16.46,1.51.78.35.32.52.73.52,1.22,0,.38-.13.75-.38,1.09-.25.34-.61.62-1.06.83-.46.21-1,.32-1.63.32Z"/>
      <path d="M175.61,399.02c-.69,0-1.3-.15-1.84-.46-.54-.3-.96-.75-1.27-1.35-.31-.6-.46-1.33-.46-2.21s.15-1.62.46-2.21c.31-.59.73-1.04,1.27-1.35.54-.3,1.15-.46,1.84-.46s1.29.15,1.83.46c.54.3.96.75,1.26,1.35s.46,1.33.46,2.21-.15,1.61-.46,2.21c-.31.6-.73,1.05-1.26,1.35-.54.3-1.15.46-1.83.46ZM175.58,397.93c.5,0,.92-.12,1.26-.36.35-.24.61-.57.79-1.01s.27-.96.27-1.56c0-.91-.19-1.63-.57-2.16-.38-.52-.94-.79-1.69-.79-.5,0-.92.12-1.27.36-.34.24-.61.58-.78,1.02-.18.44-.27.96-.27,1.57,0,.9.19,1.62.57,2.14s.94.79,1.68.79Z"/>
      <path d="M181.58,398.83v-7.66h1.25v7.66h-1.25ZM182.45,395.37c0-.97.09-1.78.28-2.42.19-.64.46-1.12.82-1.44.36-.32.8-.48,1.32-.48.17,0,.33.01.47.04.14.02.28.06.43.11l-.08,1.23c-.15-.05-.31-.09-.49-.12-.18-.03-.33-.05-.47-.05-.45,0-.82.13-1.1.39s-.48.62-.6,1.09c-.12.47-.19,1.02-.19,1.66h-.38Z"/>
      <path d="M190.1,399.02c-.62,0-1.19-.17-1.7-.5-.52-.33-.93-.8-1.24-1.41-.31-.61-.46-1.32-.46-2.14s.15-1.52.46-2.12c.3-.6.71-1.06,1.21-1.38.5-.32,1.06-.48,1.66-.48.56,0,1.05.14,1.48.41.42.27.75.66.99,1.18.23.51.35,1.13.35,1.86h-.48c0-.51-.1-.93-.3-1.28-.2-.35-.46-.61-.78-.79-.32-.18-.66-.27-1.03-.27-.42,0-.8.12-1.14.35-.34.23-.62.56-.82.99-.21.43-.31.94-.31,1.54s.1,1.13.31,1.57c.21.44.48.77.82,1.01.34.24.72.35,1.14.35.35,0,.68-.09,1-.27.32-.18.59-.45.8-.8s.31-.77.31-1.27h.48c0,.74-.12,1.37-.36,1.88s-.57.91-.98,1.17c-.41.27-.88.4-1.39.4ZM192.57,398.83l-.21-1.79v-9.12h1.25v10.91h-1.04Z"/>
      <path d="M199.5,399.02c-.66,0-1.25-.17-1.77-.51-.52-.34-.93-.81-1.23-1.41-.3-.6-.45-1.3-.45-2.08,0-.84.15-1.56.45-2.16.3-.6.71-1.07,1.23-1.39.52-.32,1.11-.48,1.78-.48.58,0,1.08.12,1.49.35.41.24.74.55.99.95.25.4.43.85.52,1.36s.13,1.03.08,1.56h-5.54v-.77h4.71l-.37.24c.02-.32,0-.63-.05-.94-.05-.31-.15-.6-.28-.87s-.33-.48-.58-.64c-.25-.16-.57-.24-.96-.24-.49,0-.9.12-1.23.38-.33.25-.58.58-.74.99-.17.41-.25.85-.25,1.32v.51c0,.53.08,1.01.24,1.43.16.42.41.75.73,1s.74.37,1.23.37.9-.12,1.22-.36c.32-.24.51-.59.58-1.06h1.3c-.08.51-.26.94-.54,1.31s-.64.65-1.08.84c-.44.2-.93.3-1.48.3Z"/>
      <path d="M205.06,398.83v-7.66h1.25v7.66h-1.25ZM205.93,395.37c0-.97.09-1.78.28-2.42.19-.64.46-1.12.82-1.44.36-.32.8-.48,1.32-.48.17,0,.33.01.47.04.14.02.28.06.43.11l-.08,1.23c-.15-.05-.31-.09-.49-.12-.18-.03-.33-.05-.47-.05-.45,0-.82.13-1.1.39s-.48.62-.6,1.09c-.12.47-.19,1.02-.19,1.66h-.38Z"/>
    </g>
    <g>
      <path d="M66.78,45.04v-16.8h6.84c1.57,0,2.86.23,3.86.68,1.01.46,1.76,1.11,2.24,1.97.49.86.73,1.88.73,3.08s-.24,2.21-.73,3.07c-.49.86-1.24,1.52-2.24,1.98-1.01.46-2.3.68-3.86.68h-2.52v5.33h-4.32ZM71.1,36.16h2.04c1.1,0,1.88-.18,2.33-.55.45-.37.67-.91.67-1.63s-.22-1.26-.67-1.63c-.45-.37-1.22-.55-2.33-.55h-2.04v4.37Z"/>
      <path d="M88.29,45.35c-1.25,0-2.37-.24-3.36-.71-.99-.47-1.78-1.2-2.36-2.17-.58-.98-.88-2.2-.88-3.67v-.48c0-1.41.28-2.58.84-3.5.56-.93,1.32-1.63,2.29-2.1.97-.47,2.04-.71,3.23-.71,2.1,0,3.68.54,4.75,1.62,1.07,1.08,1.61,2.64,1.61,4.69v1.34h-8.93c.03.62.18,1.14.44,1.56.26.42.6.72,1.02.9.42.18.86.28,1.34.28.7,0,1.26-.11,1.67-.32.41-.22.68-.51.8-.88h3.41c-.26,1.39-.89,2.43-1.9,3.12-1.01.69-2.34,1.03-3.98,1.03ZM88.17,34.96c-.45,0-.87.07-1.27.22-.4.14-.72.38-.97.71-.25.33-.39.77-.42,1.33h5.28c0-.59-.12-1.05-.36-1.38-.24-.33-.56-.56-.95-.68s-.83-.19-1.31-.19Z"/>
      <path d="M96.33,45.04v-12.72h3.41v1.73c.13-.29.34-.59.65-.91.3-.32.67-.59,1.1-.8.43-.22.91-.32,1.44-.32.27,0,.49.02.65.05.16.03.3.06.43.1v3.19c-.08-.05-.26-.1-.55-.17-.29-.06-.62-.1-1.01-.1-.56,0-1.02.11-1.38.34-.36.22-.62.53-.79.91s-.25.82-.25,1.3v7.42h-3.7Z"/>
      <path d="M105.69,45.04v-12.72h3.48v1.82c.29-.56.74-1.06,1.34-1.49.61-.43,1.36-.65,2.26-.65,1.01,0,1.79.19,2.34.58.55.38.96.9,1.21,1.56.32-.61.82-1.12,1.49-1.52.67-.41,1.46-.61,2.38-.61,1.38,0,2.42.39,3.14,1.16.72.78,1.08,1.93,1.08,3.47v8.4h-3.7v-7.49c0-.9-.14-1.53-.42-1.91-.28-.38-.73-.56-1.36-.56-.37,0-.71.1-1.02.3s-.56.48-.74.85c-.18.37-.28.81-.28,1.32v7.49h-3.7v-7.49c0-.9-.14-1.53-.42-1.91-.28-.38-.74-.56-1.38-.56-.37,0-.7.1-1.01.3s-.55.48-.73.85-.28.81-.28,1.32v7.49h-3.7Z"/>
      <path d="M130.65,45.35c-.91,0-1.69-.18-2.34-.53s-1.14-.84-1.48-1.45c-.34-.62-.5-1.3-.5-2.05,0-1.26.39-2.23,1.16-2.9.78-.67,1.95-1.01,3.52-1.01h3.6v-.53c0-.77-.18-1.3-.54-1.58s-.86-.43-1.5-.43-1.06.09-1.34.28c-.29.18-.45.48-.48.9h-3.7c.05-.77.29-1.46.73-2.06.44-.61,1.07-1.09,1.9-1.44.82-.35,1.83-.53,3.01-.53,1.12,0,2.1.17,2.95.5s1.51.88,1.98,1.62c.47.74.71,1.74.71,2.99v4.68c0,.67.02,1.26.05,1.76.03.5.08,1,.14,1.48h-3.53c-.02-.27-.04-.51-.06-.72s-.04-.46-.04-.77c-.38.51-.92.94-1.6,1.28-.68.34-1.56.52-2.65.52ZM131.85,42.74c.53,0,1-.1,1.42-.29.42-.19.74-.48.98-.88.24-.39.36-.84.36-1.33v-.53h-2.88c-.54,0-.95.14-1.21.43-.26.29-.4.62-.4.98,0,.48.13.87.4,1.16.26.3.71.44,1.33.44Z"/>
      <path d="M140.61,45.04v-12.72h3.41v1.73c.32-.58.82-1.06,1.5-1.45.68-.39,1.59-.59,2.72-.59,1.52,0,2.67.41,3.44,1.22.78.82,1.16,1.99,1.16,3.53v8.28h-3.7v-7.44c0-.83-.18-1.46-.54-1.88-.36-.42-.95-.64-1.76-.64-.59,0-1.08.12-1.45.35-.38.23-.65.54-.83.91-.18.38-.26.8-.26,1.26v7.44h-3.7Z"/>
      <path d="M161.25,45.35c-1.25,0-2.37-.24-3.36-.71-.99-.47-1.78-1.2-2.36-2.17-.58-.98-.88-2.2-.88-3.67v-.48c0-1.41.28-2.58.84-3.5.56-.93,1.32-1.63,2.29-2.1.97-.47,2.04-.71,3.23-.71,2.1,0,3.68.54,4.75,1.62,1.07,1.08,1.61,2.64,1.61,4.69v1.34h-8.93c.03.62.18,1.14.44,1.56.26.42.6.72,1.02.9.42.18.86.28,1.34.28.7,0,1.26-.11,1.67-.32.41-.22.68-.51.8-.88h3.41c-.26,1.39-.89,2.43-1.9,3.12-1.01.69-2.34,1.03-3.98,1.03ZM161.13,34.96c-.45,0-.87.07-1.27.22-.4.14-.72.38-.97.71-.25.33-.39.77-.42,1.33h5.28c0-.59-.12-1.05-.36-1.38-.24-.33-.56-.56-.95-.68s-.83-.19-1.31-.19Z"/>
      <path d="M169.29,45.04v-12.72h3.41v1.73c.32-.58.82-1.06,1.5-1.45.68-.39,1.59-.59,2.72-.59,1.52,0,2.67.41,3.44,1.22.78.82,1.16,1.99,1.16,3.53v8.28h-3.7v-7.44c0-.83-.18-1.46-.54-1.88-.36-.42-.95-.64-1.76-.64-.59,0-1.08.12-1.45.35-.38.23-.65.54-.83.91-.18.38-.26.8-.26,1.26v7.44h-3.7Z"/>
      <path d="M189.21,45.18c-1.06,0-1.92-.14-2.59-.42-.67-.28-1.17-.74-1.49-1.39-.32-.65-.48-1.53-.48-2.65v-5.38h-1.56v-3.02h1.56v-2.88h3.7v2.88h2.9v3.02h-2.9v4.78c0,.72.12,1.23.35,1.54s.68.46,1.36.46c.48,0,.96-.02,1.44-.07v3c-.3.05-.62.08-.96.11-.34.02-.78.04-1.32.04Z"/>
    </g>
    <g>
      <path d="M608.69,45.04v-13.25h-5.16v-3.55h14.64v3.55h-5.16v13.25h-4.32Z"/>
      <path d="M624.04,45.35c-1.25,0-2.37-.24-3.36-.71-.99-.47-1.78-1.2-2.36-2.17-.58-.98-.88-2.2-.88-3.67v-.48c0-1.41.28-2.58.84-3.5s1.32-1.63,2.29-2.1c.97-.47,2.04-.71,3.23-.71,2.1,0,3.68.54,4.75,1.62,1.07,1.08,1.61,2.64,1.61,4.69v1.34h-8.93c.03.62.18,1.14.44,1.56.26.42.6.72,1.02.9.42.18.86.28,1.34.28.7,0,1.26-.11,1.67-.32.41-.22.68-.51.8-.88h3.41c-.26,1.39-.89,2.43-1.9,3.12-1.01.69-2.34,1.03-3.98,1.03ZM623.93,34.96c-.45,0-.87.07-1.27.22-.4.14-.72.38-.97.71-.25.33-.39.77-.42,1.33h5.28c0-.59-.12-1.05-.36-1.38-.24-.33-.56-.56-.95-.68-.39-.13-.83-.19-1.31-.19Z"/>
      <path d="M632.09,45.04v-12.72h3.48v1.82c.29-.56.74-1.06,1.34-1.49.61-.43,1.36-.65,2.26-.65,1.01,0,1.79.19,2.34.58.55.38.96.9,1.21,1.56.32-.61.82-1.12,1.49-1.52.67-.41,1.46-.61,2.38-.61,1.38,0,2.42.39,3.14,1.16.72.78,1.08,1.93,1.08,3.47v8.4h-3.7v-7.49c0-.9-.14-1.53-.42-1.91-.28-.38-.73-.56-1.36-.56-.37,0-.71.1-1.02.3-.31.2-.56.48-.74.85s-.28.81-.28,1.32v7.49h-3.7v-7.49c0-.9-.14-1.53-.42-1.91-.28-.38-.74-.56-1.38-.56-.37,0-.71.1-1.01.3s-.55.48-.73.85c-.18.37-.28.81-.28,1.32v7.49h-3.7Z"/>
      <path d="M653.09,49.84v-17.52h3.41v1.73c.34-.51.84-.98,1.5-1.4.66-.42,1.48-.64,2.46-.64,1.79,0,3.15.53,4.08,1.58.93,1.06,1.39,2.63,1.39,4.73v.48c0,1.44-.22,2.64-.67,3.61-.45.97-1.08,1.7-1.9,2.2-.82.5-1.78.74-2.9.74-.72,0-1.4-.16-2.05-.49-.65-.33-1.19-.8-1.62-1.43v6.41h-3.7ZM659.57,42.3c.74,0,1.35-.3,1.84-.9.49-.6.73-1.47.73-2.6v-.48c0-1.1-.24-1.92-.71-2.46-.47-.54-1.09-.8-1.86-.8-.51,0-.98.11-1.4.32s-.76.54-1.01.97c-.25.43-.37.97-.37,1.61v1.2c0,.66.12,1.22.37,1.69.25.47.58.83,1.01,1.08.42.25.89.37,1.4.37Z"/>
      <path d="M673.85,45.35c-1.18,0-2.27-.23-3.25-.7-.98-.46-1.77-1.19-2.35-2.17-.58-.98-.88-2.21-.88-3.68v-.48c0-1.38.29-2.53.88-3.47.58-.94,1.37-1.64,2.35-2.12.98-.48,2.07-.72,3.25-.72s2.29.24,3.26.72c.98.48,1.76,1.19,2.34,2.12.58.94.88,2.09.88,3.47v.48c0,1.46-.29,2.67-.88,3.64-.58.97-1.36,1.7-2.34,2.18-.98.49-2.06.73-3.26.73ZM673.85,42.28c.58,0,1.06-.14,1.46-.42.4-.28.7-.68.91-1.21.21-.53.31-1.14.31-1.85v-.48c0-.64-.1-1.2-.31-1.68-.21-.48-.51-.86-.91-1.14-.4-.28-.89-.42-1.46-.42s-1.06.14-1.46.42c-.4.28-.7.66-.91,1.14-.21.48-.31,1.04-.31,1.68v.48c0,.74.1,1.36.31,1.88.21.52.51.92.91,1.19.4.27.89.41,1.46.41Z"/>
      <path d="M682.25,45.04v-12.72h3.41v1.73c.13-.29.34-.59.65-.91.3-.32.67-.59,1.1-.8.43-.22.91-.32,1.44-.32.27,0,.49.02.65.05.16.03.3.06.43.1v3.19c-.08-.05-.26-.1-.55-.17-.29-.06-.62-.1-1.01-.1-.56,0-1.02.11-1.38.34-.36.22-.62.53-.79.91s-.25.82-.25,1.3v7.42h-3.7Z"/>
      <path d="M695.21,45.35c-.91,0-1.69-.18-2.34-.53-.65-.35-1.14-.84-1.48-1.45-.34-.62-.5-1.3-.5-2.05,0-1.26.39-2.23,1.16-2.9s1.95-1.01,3.52-1.01h3.6v-.53c0-.77-.18-1.3-.54-1.58-.36-.29-.86-.43-1.5-.43s-1.06.09-1.34.28c-.29.18-.45.48-.48.9h-3.7c.05-.77.29-1.46.73-2.06.44-.61,1.07-1.09,1.9-1.44.82-.35,1.83-.53,3.01-.53,1.12,0,2.1.17,2.95.5.85.34,1.51.88,1.98,1.62s.71,1.74.71,2.99v4.68c0,.67.02,1.26.05,1.76.03.5.08,1,.14,1.48h-3.53c-.02-.27-.04-.51-.06-.72-.02-.21-.04-.46-.04-.77-.38.51-.92.94-1.6,1.28-.68.34-1.56.52-2.65.52ZM696.41,42.74c.53,0,1-.1,1.42-.29.42-.19.74-.48.98-.88.24-.39.36-.84.36-1.33v-.53h-2.88c-.54,0-.95.14-1.21.43-.26.29-.4.62-.4.98,0,.48.13.87.4,1.16s.71.44,1.33.44Z"/>
      <path d="M705.17,45.04v-12.72h3.41v1.73c.13-.29.34-.59.65-.91.3-.32.67-.59,1.1-.8s.91-.32,1.44-.32c.27,0,.49.02.65.05.16.03.3.06.43.1v3.19c-.08-.05-.26-.1-.55-.17-.29-.06-.62-.1-1.01-.1-.56,0-1.02.11-1.38.34-.36.22-.62.53-.79.91s-.25.82-.25,1.3v7.42h-3.7Z"/>
      <path d="M717.65,50.15c-.24,0-.48-.02-.72-.07v-3.07c.24.05.48.07.72.07.32,0,.58-.07.79-.2.21-.14.4-.36.56-.66s.35-.7.54-1.2l-5.38-12.7h4.08l3.17,8.47,3-8.47h3.67l-4.85,12.72c-.48,1.2-.94,2.18-1.37,2.94-.43.76-.97,1.31-1.62,1.66s-1.52.52-2.6.52Z"/>
    </g>
    <g>
      <path d="M340.47,45.35c-1.57,0-2.87-.21-3.91-.62-1.04-.42-1.82-1-2.34-1.76-.52-.76-.8-1.67-.83-2.72h4.32c.13.61.41,1.05.84,1.33.43.28,1.07.42,1.92.42.91,0,1.6-.13,2.05-.38.46-.26.68-.65.68-1.18,0-.43-.15-.78-.44-1.03-.3-.26-.75-.47-1.36-.65-.61-.18-1.34-.36-2.18-.55-1.1-.26-2.06-.59-2.86-1-.8-.41-1.42-.96-1.85-1.64-.43-.69-.65-1.58-.65-2.66s.27-1.95.8-2.69c.54-.74,1.3-1.3,2.29-1.69.99-.39,2.16-.59,3.5-.59,1.47,0,2.69.19,3.66.58.97.38,1.7.94,2.21,1.66.5.72.79,1.6.85,2.64h-4.32c-.1-.51-.33-.89-.7-1.14-.37-.25-.94-.37-1.7-.37-.85,0-1.44.14-1.78.41s-.5.62-.5,1.06c0,.59.31,1.02.92,1.3.62.27,1.51.52,2.68.74.86.18,1.65.39,2.36.65.71.26,1.32.58,1.82.98.5.4.89.89,1.16,1.48s.41,1.3.41,2.15c0,1.1-.28,2.05-.84,2.84s-1.37,1.4-2.42,1.82-2.33.64-3.82.64Z"/>
      <path d="M351.79,31.12c-.69,0-1.22-.18-1.6-.54s-.56-.82-.56-1.38.19-1.02.56-1.38c.38-.36.91-.54,1.6-.54s1.22.18,1.6.54c.38.36.56.82.56,1.38s-.19,1.02-.56,1.38-.91.54-1.6.54ZM349.95,45.04v-12.72h3.7v12.72h-3.7Z"/>
      <path d="M361.68,45.18c-1.06,0-1.92-.14-2.59-.42-.67-.28-1.17-.74-1.49-1.39-.32-.65-.48-1.53-.48-2.65v-5.38h-1.56v-3.02h1.56v-2.88h3.7v2.88h2.9v3.02h-2.9v4.78c0,.72.12,1.23.35,1.54s.68.46,1.36.46c.48,0,.96-.02,1.44-.07v3c-.3.05-.62.08-.96.11-.34.02-.78.04-1.32.04Z"/>
      <path d="M370.25,45.35c-1.46,0-2.57-.42-3.34-1.25s-1.15-2.1-1.15-3.79v-7.99h3.7v7.42c0,.83.17,1.46.52,1.9.34.43.9.65,1.67.65.54,0,1-.11,1.36-.34.36-.22.63-.53.8-.91.18-.38.26-.82.26-1.3v-7.42h3.7v12.72h-3.41v-1.73c-.34.58-.84,1.06-1.52,1.45-.68.39-1.54.59-2.58.59Z"/>
      <path d="M384.12,45.35c-.91,0-1.69-.18-2.34-.53s-1.14-.84-1.48-1.45c-.34-.62-.5-1.3-.5-2.05,0-1.26.39-2.23,1.16-2.9.78-.67,1.95-1.01,3.52-1.01h3.6v-.53c0-.77-.18-1.3-.54-1.58s-.86-.43-1.5-.43-1.06.09-1.34.28c-.29.18-.45.48-.48.9h-3.7c.05-.77.29-1.46.73-2.06.44-.61,1.07-1.09,1.9-1.44.82-.35,1.83-.53,3.01-.53,1.12,0,2.1.17,2.95.5s1.51.88,1.98,1.62c.47.74.71,1.74.71,2.99v4.68c0,.67.02,1.26.05,1.76.03.5.08,1,.14,1.48h-3.53c-.02-.27-.04-.51-.06-.72s-.04-.46-.04-.77c-.38.51-.92.94-1.6,1.28-.68.34-1.56.52-2.65.52ZM385.32,42.74c.53,0,1-.1,1.42-.29.42-.19.74-.48.98-.88.24-.39.36-.84.36-1.33v-.53h-2.88c-.54,0-.95.14-1.21.43-.26.29-.4.62-.4.98,0,.48.13.87.4,1.16.26.3.71.44,1.33.44Z"/>
      <path d="M399.48,45.18c-1.06,0-1.92-.14-2.59-.42-.67-.28-1.17-.74-1.49-1.39-.32-.65-.48-1.53-.48-2.65v-5.38h-1.56v-3.02h1.56v-2.88h3.7v2.88h2.9v3.02h-2.9v4.78c0,.72.12,1.23.35,1.54.23.3.68.46,1.36.46.48,0,.96-.02,1.44-.07v3c-.3.05-.62.08-.96.11-.34.02-.78.04-1.32.04Z"/>
      <path d="M405.77,31.12c-.69,0-1.22-.18-1.6-.54s-.56-.82-.56-1.38.19-1.02.56-1.38c.38-.36.91-.54,1.6-.54s1.22.18,1.6.54c.38.36.56.82.56,1.38s-.19,1.02-.56,1.38-.91.54-1.6.54ZM403.92,45.04v-12.72h3.7v12.72h-3.7Z"/>
      <path d="M416.26,45.35c-1.18,0-2.27-.23-3.25-.7-.98-.46-1.77-1.19-2.35-2.17-.58-.98-.88-2.21-.88-3.68v-.48c0-1.38.29-2.53.88-3.47.58-.94,1.37-1.64,2.35-2.12.98-.48,2.07-.72,3.25-.72s2.29.24,3.26.72c.98.48,1.76,1.19,2.34,2.12.58.94.88,2.09.88,3.47v.48c0,1.46-.29,2.67-.88,3.64-.58.97-1.36,1.7-2.34,2.18-.98.49-2.06.73-3.26.73ZM416.26,42.28c.58,0,1.06-.14,1.46-.42.4-.28.7-.68.91-1.21.21-.53.31-1.14.31-1.85v-.48c0-.64-.1-1.2-.31-1.68-.21-.48-.51-.86-.91-1.14-.4-.28-.89-.42-1.46-.42s-1.06.14-1.46.42c-.4.28-.7.66-.91,1.14-.21.48-.31,1.04-.31,1.68v.48c0,.74.1,1.36.31,1.88.21.52.51.92.91,1.19.4.27.89.41,1.46.41Z"/>
      <path d="M424.66,45.04v-12.72h3.41v1.73c.32-.58.82-1.06,1.5-1.45.68-.39,1.59-.59,2.72-.59,1.52,0,2.67.41,3.44,1.22.78.82,1.16,1.99,1.16,3.53v8.28h-3.7v-7.44c0-.83-.18-1.46-.54-1.88-.36-.42-.95-.64-1.76-.64-.59,0-1.08.12-1.45.35-.38.23-.65.54-.83.91s-.26.8-.26,1.26v7.44h-3.7Z"/>
      <path d="M443.14,45.35c-.91,0-1.69-.18-2.34-.53-.65-.35-1.14-.84-1.48-1.45s-.5-1.3-.5-2.05c0-1.26.39-2.23,1.16-2.9.78-.67,1.95-1.01,3.52-1.01h3.6v-.53c0-.77-.18-1.3-.54-1.58-.36-.29-.86-.43-1.5-.43s-1.06.09-1.34.28c-.29.18-.45.48-.48.9h-3.7c.05-.77.29-1.46.73-2.06.44-.61,1.07-1.09,1.9-1.44s1.83-.53,3.01-.53c1.12,0,2.1.17,2.95.5.85.34,1.51.88,1.98,1.62.47.74.71,1.74.71,2.99v4.68c0,.67.02,1.26.05,1.76.03.5.08,1,.14,1.48h-3.53c-.02-.27-.04-.51-.06-.72-.02-.21-.04-.46-.04-.77-.38.51-.92.94-1.6,1.28s-1.56.52-2.65.52ZM444.33,42.74c.53,0,1-.1,1.42-.29.42-.19.74-.48.98-.88.24-.39.36-.84.36-1.33v-.53h-2.88c-.54,0-.95.14-1.21.43-.26.29-.4.62-.4.98,0,.48.13.87.4,1.16.26.3.71.44,1.33.44Z"/>
      <path d="M457.65,45.18c-1.02,0-1.86-.12-2.52-.37-.66-.25-1.14-.7-1.45-1.37-.31-.66-.47-1.63-.47-2.89v-12.31h3.7v11.76c0,.78.11,1.33.32,1.64.22.31.67.47,1.36.47.19,0,.35,0,.48-.01.13,0,.26-.02.38-.04v3.05c-.16.02-.33.03-.52.04-.18,0-.38.02-.6.02s-.44.01-.68.01Z"/>
    </g>
    <g>
      <path d="M307.34,350.38h1.25v6.42c0,.94.24,1.62.71,2.04s1.1.63,1.86.63,1.38-.21,1.85-.63c.47-.42.71-1.1.71-2.04v-6.42h1.25v6.42c0,.84-.16,1.55-.47,2.12-.31.57-.75.99-1.32,1.28s-1.24.43-2.02.43-1.45-.14-2.02-.43-1.02-.71-1.33-1.28c-.31-.57-.47-1.27-.47-2.12v-6.42Z"/>
      <path d="M320.76,360.62c-.74,0-1.36-.11-1.86-.32-.5-.21-.87-.5-1.13-.87-.26-.37-.39-.8-.41-1.28h1.2c.03.49.22.85.59,1.09.37.24.86.36,1.49.36.33,0,.63-.05.91-.16.28-.11.5-.25.66-.44.17-.19.25-.4.25-.63,0-.3-.11-.53-.33-.7s-.57-.32-1.05-.45l-1.49-.48c-.65-.2-1.14-.48-1.48-.84-.34-.36-.52-.78-.52-1.28,0-.62.27-1.11.82-1.49.54-.37,1.26-.56,2.14-.56.94,0,1.67.19,2.18.58.52.38.79.86.81,1.44h-1.23c-.05-.34-.22-.59-.51-.76-.29-.17-.71-.26-1.25-.26s-.92.12-1.21.35-.44.49-.44.77c0,.53.45.92,1.36,1.17l1.52.51c.66.2,1.16.46,1.51.78.35.32.52.73.52,1.22,0,.38-.13.75-.38,1.09-.25.34-.61.62-1.06.83-.46.21-1,.32-1.63.32Z"/>
      <path d="M329.08,360.62c-.66,0-1.25-.17-1.77-.51-.52-.34-.93-.81-1.23-1.41-.3-.6-.45-1.3-.45-2.08,0-.84.15-1.56.45-2.16.3-.6.71-1.07,1.23-1.39.52-.32,1.11-.48,1.78-.48.58,0,1.08.12,1.49.35.41.24.74.55.99.95.25.4.43.85.52,1.36s.13,1.03.08,1.56h-5.54v-.77h4.71l-.37.24c.02-.32,0-.63-.05-.94-.05-.31-.15-.6-.28-.87s-.33-.48-.58-.64c-.25-.16-.57-.24-.96-.24-.49,0-.9.12-1.23.38-.33.25-.58.58-.74.99-.17.41-.25.85-.25,1.32v.51c0,.53.08,1.01.24,1.43.16.42.41.75.73,1s.74.37,1.23.37.9-.12,1.22-.36c.32-.24.51-.59.58-1.06h1.3c-.08.51-.26.94-.54,1.31s-.64.65-1.08.84c-.44.2-.93.3-1.48.3Z"/>
      <path d="M334.64,360.43v-7.66h1.25v7.66h-1.25ZM335.5,356.97c0-.97.09-1.78.28-2.42.19-.64.46-1.12.82-1.44.36-.32.8-.48,1.32-.48.17,0,.33.01.47.04.14.02.28.06.43.11l-.08,1.23c-.15-.05-.31-.09-.49-.12-.18-.03-.33-.05-.47-.05-.45,0-.82.13-1.1.39s-.48.62-.6,1.09c-.12.47-.19,1.02-.19,1.66h-.38Z"/>
      <path d="M342.89,352.78h1.3l1.95,6.38h-.16l1.9-6.02h1.04l1.89,6.03h-.14l1.95-6.4h1.25l-2.51,7.65h-1.22l-1.86-5.65h.19l-1.84,5.65h-1.22l-2.53-7.65Z"/>
      <path d="M355.81,360.43v-10.91h1.25v10.91h-1.25ZM361.25,360.43v-4.5c0-.73-.17-1.29-.52-1.67-.35-.38-.83-.57-1.43-.57-.46,0-.86.13-1.19.38-.34.25-.59.61-.78,1.08-.18.47-.27,1.02-.27,1.67h-.48c0-.89.12-1.65.35-2.28.23-.63.58-1.11,1.03-1.44s1-.5,1.64-.5c.6,0,1.12.13,1.55.4.43.27.76.65.99,1.16.23.5.34,1.1.34,1.78v4.5h-1.23Z"/>
      <path d="M368.23,360.62c-.69,0-1.3-.15-1.84-.46-.54-.3-.96-.75-1.27-1.35-.31-.6-.46-1.33-.46-2.21s.15-1.62.46-2.21c.31-.59.73-1.04,1.27-1.35.54-.3,1.15-.46,1.84-.46s1.29.15,1.83.46c.54.3.96.75,1.26,1.35s.46,1.33.46,2.21-.15,1.61-.46,2.21c-.31.6-.73,1.05-1.26,1.35-.54.3-1.15.46-1.83.46ZM368.2,359.53c.5,0,.92-.12,1.26-.36.35-.24.61-.57.79-1.01s.27-.96.27-1.56c0-.91-.19-1.63-.57-2.16-.38-.52-.94-.79-1.69-.79-.5,0-.92.12-1.27.36-.34.24-.61.58-.78,1.02-.18.44-.27.96-.27,1.57,0,.9.19,1.62.57,2.14s.94.79,1.68.79Z"/>
      <path d="M378.71,350.97c-.26,0-.46-.07-.61-.22s-.22-.34-.22-.58.07-.42.22-.56.35-.21.61-.21.46.07.61.21c.15.14.22.33.22.56s-.07.43-.22.58c-.15.15-.35.22-.61.22ZM378.09,360.43v-7.66h1.25v7.66h-1.25Z"/>
      <path d="M385.53,360.62c-.74,0-1.36-.11-1.86-.32-.5-.21-.87-.5-1.13-.87-.26-.37-.39-.8-.41-1.28h1.2c.03.49.22.85.59,1.09.37.24.86.36,1.49.36.33,0,.63-.05.91-.16.28-.11.5-.25.66-.44.17-.19.25-.4.25-.63,0-.3-.11-.53-.33-.7s-.57-.32-1.05-.45l-1.49-.48c-.65-.2-1.14-.48-1.48-.84-.34-.36-.52-.78-.52-1.28,0-.62.27-1.11.82-1.49.54-.37,1.26-.56,2.14-.56.94,0,1.67.19,2.18.58.52.38.79.86.81,1.44h-1.23c-.05-.34-.22-.59-.51-.76-.29-.17-.71-.26-1.25-.26s-.92.12-1.21.35-.44.49-.44.77c0,.53.45.92,1.36,1.17l1.52.51c.66.2,1.16.46,1.51.78.35.32.52.73.52,1.22,0,.38-.13.75-.38,1.09-.25.34-.61.62-1.06.83-.46.21-1,.32-1.63.32Z"/>
      <path d="M397.64,360.62c-.66,0-1.25-.17-1.77-.51-.52-.34-.93-.81-1.23-1.41-.3-.6-.45-1.3-.45-2.08,0-.84.15-1.56.45-2.16.3-.6.71-1.07,1.23-1.39.52-.32,1.11-.48,1.78-.48.58,0,1.08.12,1.49.35.41.24.74.55.99.95.25.4.42.85.52,1.36s.13,1.03.08,1.56h-5.54v-.77h4.71l-.37.24c.02-.32,0-.63-.05-.94-.05-.31-.15-.6-.28-.87s-.33-.48-.58-.64c-.25-.16-.57-.24-.96-.24-.49,0-.9.12-1.23.38s-.58.58-.74.99c-.17.41-.25.85-.25,1.32v.51c0,.53.08,1.01.24,1.43.16.42.41.75.73,1,.33.25.74.37,1.23.37s.9-.12,1.22-.36c.32-.24.51-.59.58-1.06h1.3c-.08.51-.26.94-.54,1.31-.28.37-.64.65-1.08.84-.44.2-.93.3-1.48.3Z"/>
      <path d="M402,360.43l2.9-3.82-2.9-3.84h1.52l2.19,2.9,2.11-2.9h1.52l-2.91,3.84,2.9,3.82h-1.52l-2.19-2.91-2.1,2.91h-1.52Z"/>
      <path d="M411.39,364.19v-11.41h1.04l.21,1.79v9.62h-1.25ZM414.86,360.62c-.56,0-1.05-.13-1.46-.38-.41-.26-.73-.63-.96-1.12-.22-.49-.34-1.09-.34-1.8h.53c0,.47.1.88.3,1.2.2.33.45.57.77.74s.65.25,1.01.25c.38,0,.75-.11,1.1-.33.35-.22.64-.55.86-.98.22-.43.34-.96.34-1.6s-.1-1.13-.31-1.56c-.21-.43-.48-.76-.83-.99-.35-.23-.73-.34-1.15-.34-.36,0-.7.09-1.02.26-.32.18-.58.43-.78.77-.2.34-.3.76-.3,1.25h-.53c0-.74.12-1.36.37-1.87.25-.5.58-.88,1-1.14.42-.26.89-.38,1.42-.38.6,0,1.15.16,1.67.48.52.32.94.78,1.26,1.38.32.6.48,1.31.48,2.14s-.16,1.57-.48,2.17c-.32.6-.75,1.06-1.27,1.38-.52.32-1.08.48-1.69.48Z"/>
      <path d="M423.39,360.62c-.66,0-1.25-.17-1.77-.51-.52-.34-.93-.81-1.23-1.41-.3-.6-.45-1.3-.45-2.08,0-.84.15-1.56.45-2.16s.71-1.07,1.23-1.39c.52-.32,1.11-.48,1.78-.48.58,0,1.08.12,1.49.35.41.24.74.55.99.95.25.4.42.85.52,1.36s.13,1.03.08,1.56h-5.54v-.77h4.71l-.37.24c.02-.32,0-.63-.05-.94-.05-.31-.15-.6-.28-.87s-.33-.48-.58-.64c-.25-.16-.57-.24-.96-.24-.49,0-.9.12-1.23.38s-.58.58-.74.99-.25.85-.25,1.32v.51c0,.53.08,1.01.24,1.43.16.42.41.75.73,1s.74.37,1.23.37.9-.12,1.22-.36c.32-.24.51-.59.58-1.06h1.3c-.08.51-.26.94-.54,1.31-.28.37-.64.65-1.08.84-.44.2-.93.3-1.48.3Z"/>
      <path d="M428.95,360.43v-7.66h1.25v7.66h-1.25ZM429.82,356.97c0-.97.09-1.78.28-2.42s.46-1.12.82-1.44c.36-.32.8-.48,1.32-.48.17,0,.33.01.47.04.14.02.28.06.43.11l-.08,1.23c-.15-.05-.31-.09-.49-.12-.18-.03-.33-.05-.47-.05-.45,0-.82.13-1.1.39s-.48.62-.6,1.09c-.12.47-.19,1.02-.19,1.66h-.38Z"/>
      <path d="M435.44,350.97c-.26,0-.46-.07-.61-.22s-.22-.34-.22-.58.08-.42.22-.56.35-.21.61-.21.46.07.61.21.22.33.22.56-.07.43-.22.58-.35.22-.61.22ZM434.82,360.43v-7.66h1.25v7.66h-1.25Z"/>
      <path d="M442.16,360.62c-.66,0-1.25-.17-1.77-.51-.52-.34-.93-.81-1.23-1.41-.3-.6-.45-1.3-.45-2.08,0-.84.15-1.56.45-2.16s.71-1.07,1.23-1.39c.52-.32,1.11-.48,1.78-.48.58,0,1.08.12,1.49.35.41.24.74.55.99.95.25.4.42.85.52,1.36s.13,1.03.08,1.56h-5.54v-.77h4.71l-.37.24c.02-.32,0-.63-.05-.94-.05-.31-.15-.6-.28-.87s-.33-.48-.58-.64c-.25-.16-.57-.24-.96-.24-.49,0-.9.12-1.23.38s-.58.58-.74.99-.25.85-.25,1.32v.51c0,.53.08,1.01.24,1.43.16.42.41.75.73,1s.74.37,1.23.37.9-.12,1.22-.36c.32-.24.51-.59.58-1.06h1.3c-.08.51-.26.94-.54,1.31-.28.37-.64.65-1.08.84-.44.2-.93.3-1.48.3Z"/>
      <path d="M447.72,360.43v-7.65h1.07l.18,1.76v5.89h-1.25ZM453.16,360.43v-4.5c0-.73-.17-1.29-.52-1.67-.35-.38-.83-.57-1.43-.57-.46,0-.86.13-1.19.38-.34.25-.59.61-.78,1.08s-.27,1.02-.27,1.67h-.48c0-.89.12-1.65.35-2.28.24-.63.58-1.11,1.03-1.44.45-.33,1-.5,1.64-.5.6,0,1.12.13,1.55.4.43.27.76.65.99,1.16.23.5.34,1.1.34,1.78v4.5h-1.23Z"/>
      <path d="M460.06,360.62c-.61,0-1.19-.17-1.72-.5-.53-.33-.96-.8-1.28-1.4-.33-.6-.49-1.31-.49-2.14s.16-1.56.49-2.16c.33-.6.75-1.05,1.28-1.37.53-.31,1.1-.47,1.72-.47.43,0,.82.07,1.16.2.34.13.64.31.9.54.26.23.47.49.64.78.17.29.29.6.37.92l-1.28.11c-.13-.44-.36-.79-.67-1.05-.31-.26-.69-.39-1.14-.39-.38,0-.73.11-1.07.32-.33.22-.6.54-.81.97-.21.43-.31.96-.31,1.6,0,.59.09,1.11.28,1.54s.45.77.78,1.01.71.36,1.13.36c.59,0,1.04-.15,1.35-.44.31-.29.46-.69.46-1.21h1.28c0,.53-.12,1.01-.38,1.42s-.61.74-1.07.98c-.46.24-1,.36-1.63.36Z"/>
      <path d="M466.34,350.97c-.26,0-.46-.07-.61-.22s-.22-.34-.22-.58.07-.42.22-.56.35-.21.61-.21.46.07.61.21c.15.14.22.33.22.56s-.08.43-.22.58c-.15.15-.35.22-.61.22ZM465.71,360.43v-7.66h1.25v7.66h-1.25Z"/>
      <path d="M470.4,360.43v-7.65h1.07l.18,1.76v5.89h-1.25ZM475.84,360.43v-4.5c0-.73-.17-1.29-.52-1.67-.35-.38-.83-.57-1.43-.57-.46,0-.86.13-1.19.38-.34.25-.59.61-.78,1.08s-.27,1.02-.27,1.67h-.48c0-.89.12-1.65.35-2.28.24-.63.58-1.11,1.03-1.44.45-.33,1-.5,1.64-.5.6,0,1.12.13,1.55.4.43.27.76.65.99,1.16.23.5.34,1.1.34,1.78v4.5h-1.23Z"/>
      <path d="M482.76,364.36c-.78,0-1.46-.11-2.04-.33-.58-.22-1.02-.52-1.34-.89-.32-.37-.48-.78-.48-1.23,0-.59.22-1.04.65-1.36.43-.31,1-.47,1.68-.47l.69.43c-.58,0-1.02.12-1.34.36s-.47.57-.47.98.22.77.67,1.06c.45.29,1.1.43,1.97.43.64,0,1.2-.09,1.68-.28.48-.18.86-.42,1.13-.72.27-.3.4-.61.4-.96,0-.24-.09-.45-.26-.62-.18-.17-.45-.26-.81-.26h-2.98c-.52,0-.96-.08-1.34-.24s-.67-.36-.87-.62c-.2-.26-.3-.54-.3-.84,0-.32.09-.59.27-.82s.42-.39.71-.51.6-.18.94-.18l.24.46c-.16,0-.32.04-.48.11-.16.07-.3.18-.41.32s-.16.32-.16.53c0,.25.1.45.3.62.2.17.57.25,1.1.25h2.98c.72,0,1.29.15,1.7.46.41.3.62.73.62,1.27,0,.5-.18.98-.54,1.44-.36.46-.87.84-1.54,1.14-.67.3-1.46.44-2.39.44ZM482.98,358.19c-.59,0-1.12-.12-1.59-.35-.47-.23-.84-.56-1.12-.98-.27-.42-.41-.91-.41-1.46s.14-1.05.41-1.47c.28-.42.65-.75,1.12-.98.47-.23,1-.35,1.59-.35s1.09.12,1.56.35c.47.23.84.56,1.12.98.28.42.42.91.42,1.47s-.14,1.04-.42,1.46c-.28.42-.65.75-1.12.98-.47.23-.99.35-1.56.35ZM482.98,357.29c.59,0,1.04-.18,1.37-.54.33-.36.49-.82.49-1.36s-.16-1.01-.49-1.36c-.33-.35-.78-.52-1.37-.52s-1.04.17-1.37.52c-.33.35-.5.8-.5,1.36s.17,1,.5,1.36c.33.36.79.54,1.37.54ZM485.5,353.8l-.59-.24c0-.45.09-.84.26-1.18.18-.34.43-.6.75-.79s.71-.28,1.16-.28l-.1,1.23c-.48,0-.85.1-1.1.31s-.38.52-.38.96Z"/>
      <path d="M310.15,383.56c-.78,0-1.46-.11-2.04-.33-.58-.22-1.02-.52-1.34-.89-.32-.37-.48-.78-.48-1.23,0-.59.22-1.04.65-1.36.43-.31,1-.47,1.68-.47l.69.43c-.58,0-1.02.12-1.34.36-.31.24-.47.57-.47.98s.22.77.67,1.06c.45.29,1.1.43,1.97.43.64,0,1.2-.09,1.68-.28.48-.18.86-.42,1.13-.72.27-.3.4-.61.4-.96,0-.24-.09-.45-.26-.62-.18-.17-.45-.26-.81-.26h-2.98c-.52,0-.96-.08-1.34-.24s-.67-.36-.87-.62-.3-.54-.3-.84c0-.32.09-.59.27-.82.18-.22.42-.39.71-.51.29-.12.6-.18.94-.18l.24.46c-.16,0-.32.04-.48.11-.16.07-.3.18-.41.32-.11.14-.16.32-.16.53,0,.25.1.45.3.62.2.17.57.25,1.1.25h2.98c.72,0,1.29.15,1.7.46.41.3.62.73.62,1.27,0,.5-.18.98-.54,1.44-.36.46-.87.84-1.54,1.14s-1.46.44-2.39.44ZM310.38,377.39c-.59,0-1.12-.12-1.59-.35s-.85-.56-1.12-.98c-.27-.42-.41-.91-.41-1.46s.14-1.05.41-1.47c.27-.42.65-.75,1.12-.98.47-.23,1-.35,1.59-.35s1.09.12,1.56.35c.47.23.84.56,1.12.98.28.42.42.91.42,1.47s-.14,1.04-.42,1.46c-.28.42-.65.75-1.12.98-.47.23-.99.35-1.56.35ZM310.38,376.49c.59,0,1.04-.18,1.37-.54.33-.36.49-.82.49-1.36s-.16-1.01-.49-1.36c-.33-.35-.78-.52-1.37-.52s-1.04.17-1.37.52c-.33.35-.5.8-.5,1.36s.17,1,.5,1.36c.33.36.79.54,1.37.54ZM312.89,373l-.59-.24c0-.45.09-.84.26-1.18.18-.34.43-.6.75-.79s.71-.28,1.16-.28l-.1,1.23c-.48,0-.85.1-1.1.31s-.38.52-.38.96Z"/>
      <path d="M316.48,379.63v-7.66h1.25v7.66h-1.25ZM317.34,376.17c0-.97.09-1.78.28-2.42.19-.64.46-1.12.82-1.44.36-.32.8-.48,1.32-.48.17,0,.33.01.47.04.14.02.28.06.43.11l-.08,1.23c-.15-.05-.31-.09-.49-.12-.18-.03-.33-.05-.47-.05-.45,0-.82.13-1.1.39s-.48.62-.6,1.09c-.12.47-.19,1.02-.19,1.66h-.38Z"/>
      <path d="M322.97,370.17c-.26,0-.46-.07-.61-.22s-.22-.34-.22-.58.07-.42.22-.56.35-.21.61-.21.46.07.61.21c.15.14.22.33.22.56s-.07.43-.22.58c-.15.15-.35.22-.61.22ZM322.34,379.63v-7.66h1.25v7.66h-1.25Z"/>
      <path d="M329.69,379.82c-.66,0-1.25-.17-1.77-.51-.52-.34-.93-.81-1.23-1.41-.3-.6-.45-1.3-.45-2.08,0-.84.15-1.56.45-2.16.3-.6.71-1.07,1.23-1.39.52-.32,1.11-.48,1.78-.48.58,0,1.08.12,1.49.35.41.24.74.55.99.95.25.4.43.85.52,1.36s.13,1.03.08,1.56h-5.54v-.77h4.71l-.37.24c.02-.32,0-.63-.05-.94-.05-.31-.15-.6-.28-.87s-.33-.48-.58-.64c-.25-.16-.57-.24-.96-.24-.49,0-.9.12-1.23.38-.33.25-.58.58-.74.99-.17.41-.25.85-.25,1.32v.51c0,.53.08,1.01.24,1.43.16.42.41.75.73,1s.74.37,1.23.37.9-.12,1.22-.36c.32-.24.51-.59.58-1.06h1.3c-.08.51-.26.94-.54,1.31s-.64.65-1.08.84c-.44.2-.93.3-1.48.3Z"/>
      <path d="M334.41,372.84v-.86h4.08v.86h-4.08ZM335.66,379.63v-8.83c0-.51.1-.92.29-1.24.19-.32.46-.56.78-.72s.69-.23,1.1-.23c.22,0,.44.02.67.05.23.03.45.08.68.14l-.24.99c-.16-.06-.32-.11-.48-.14-.16-.03-.31-.05-.45-.05-.17,0-.34.03-.51.1-.17.06-.31.18-.42.36-.11.18-.17.43-.17.76v8.82h-1.25Z"/>
      <path d="M346.65,379.82c-.63,0-1.15-.11-1.56-.34-.41-.22-.72-.51-.92-.87-.2-.36-.3-.73-.3-1.13,0-.52.13-.94.39-1.26.26-.33.61-.56,1.06-.72.45-.15.95-.23,1.51-.23.4,0,.8.04,1.2.12.4.08.8.19,1.18.33v.78c-.32-.13-.68-.23-1.08-.3-.4-.08-.77-.11-1.11-.11-.51,0-.94.11-1.3.32s-.53.57-.53,1.08c0,.37.13.69.4.96.27.27.7.4,1.29.4.42,0,.79-.1,1.12-.29.33-.19.6-.44.79-.73.19-.29.29-.59.29-.88h.3c0,.51-.11.99-.33,1.42-.22.44-.54.79-.95,1.06s-.9.4-1.47.4ZM349.26,379.63l-.16-1.68v-3.28c0-.69-.15-1.18-.44-1.48-.29-.3-.73-.45-1.32-.45-.33,0-.63.05-.9.14-.27.1-.48.24-.64.44-.16.2-.24.46-.24.77h-1.39c0-.55.14-1,.41-1.34s.65-.58,1.12-.74c.48-.15,1.02-.23,1.64-.23s1.11.1,1.56.3c.45.2.81.51,1.06.94.26.43.38.99.38,1.68v4.93h-1.09Z"/>
      <path d="M353.33,379.63v-7.65h1.07l.18,1.76v5.89h-1.25ZM358.77,379.63v-4.5c0-.73-.17-1.29-.52-1.67-.35-.38-.83-.57-1.43-.57-.46,0-.86.13-1.19.38-.34.25-.59.61-.78,1.08-.18.47-.27,1.02-.27,1.67h-.48c0-.89.12-1.65.35-2.28.23-.63.58-1.11,1.03-1.44s1-.5,1.64-.5c.6,0,1.12.13,1.55.4.43.27.76.65.99,1.16.23.5.34,1.1.34,1.78v4.5h-1.23Z"/>
      <path d="M365.73,379.82c-.62,0-1.19-.17-1.7-.5-.52-.33-.93-.8-1.24-1.41-.31-.61-.46-1.32-.46-2.14s.15-1.52.46-2.12c.3-.6.71-1.06,1.21-1.38.5-.32,1.06-.48,1.66-.48.56,0,1.05.14,1.48.41.42.27.75.66.99,1.18.23.51.35,1.13.35,1.86h-.48c0-.51-.1-.93-.3-1.28-.2-.35-.46-.61-.78-.79-.32-.18-.66-.27-1.03-.27-.42,0-.8.12-1.14.35-.34.23-.62.56-.82.99-.21.43-.31.94-.31,1.54s.1,1.13.31,1.57c.21.44.48.77.82,1.01.34.24.72.35,1.14.35.35,0,.68-.09,1-.27.32-.18.59-.45.8-.8s.31-.77.31-1.27h.48c0,.74-.12,1.37-.36,1.88s-.57.91-.98,1.17c-.41.27-.88.4-1.39.4ZM368.19,379.63l-.21-1.79v-9.12h1.25v10.91h-1.04Z"/>
      <path d="M376.97,370.17c-.26,0-.46-.07-.61-.22s-.22-.34-.22-.58.07-.42.22-.56.35-.21.61-.21.46.07.61.21c.15.14.22.33.22.56s-.07.43-.22.58c-.15.15-.35.22-.61.22ZM376.35,379.63v-7.66h1.25v7.66h-1.25Z"/>
      <path d="M383.79,379.82c-.74,0-1.36-.11-1.86-.32-.5-.21-.87-.5-1.13-.87-.26-.37-.39-.8-.41-1.28h1.2c.03.49.22.85.59,1.09.37.24.86.36,1.49.36.33,0,.63-.05.91-.16.28-.11.5-.25.66-.44.17-.19.25-.4.25-.63,0-.3-.11-.53-.33-.7s-.57-.32-1.05-.45l-1.49-.48c-.65-.2-1.14-.48-1.48-.84-.34-.36-.52-.78-.52-1.28,0-.62.27-1.11.82-1.49.54-.37,1.26-.56,2.14-.56.94,0,1.67.19,2.18.58.52.38.79.86.81,1.44h-1.23c-.05-.34-.22-.59-.51-.76-.29-.17-.71-.26-1.25-.26s-.92.12-1.21.35-.44.49-.44.77c0,.53.45.92,1.36,1.17l1.52.51c.66.2,1.16.46,1.51.78.35.32.52.73.52,1.22,0,.38-.13.75-.38,1.09-.25.34-.61.62-1.06.83-.46.21-1,.32-1.63.32Z"/>
      <path d="M395.98,379.82c-.62,0-1.19-.17-1.7-.5-.52-.33-.93-.8-1.24-1.41-.31-.61-.46-1.32-.46-2.14s.15-1.52.46-2.12c.3-.6.71-1.06,1.21-1.38.5-.32,1.06-.48,1.66-.48.56,0,1.05.14,1.48.41.42.27.75.66.99,1.18.24.51.35,1.13.35,1.86h-.48c0-.51-.1-.93-.3-1.28s-.46-.61-.78-.79c-.32-.18-.66-.27-1.03-.27-.42,0-.8.12-1.14.35-.34.23-.62.56-.82.99-.21.43-.31.94-.31,1.54s.1,1.13.31,1.57c.21.44.48.77.82,1.01.34.24.72.35,1.14.35.35,0,.68-.09,1-.27.32-.18.59-.45.8-.8s.31-.77.31-1.27h.48c0,.74-.12,1.37-.36,1.88-.24.51-.57.91-.98,1.17-.41.27-.88.4-1.39.4ZM398.45,379.63l-.21-1.79v-9.12h1.25v10.91h-1.04Z"/>
      <path d="M403.43,370.17c-.26,0-.46-.07-.61-.22s-.22-.34-.22-.58.07-.42.22-.56.35-.21.61-.21.46.07.61.21c.15.14.22.33.22.56s-.08.43-.22.58c-.15.15-.35.22-.61.22ZM402.81,379.63v-7.66h1.25v7.66h-1.25Z"/>
      <path d="M410.25,379.82c-.74,0-1.36-.11-1.86-.32s-.87-.5-1.13-.87c-.26-.37-.39-.8-.41-1.28h1.2c.03.49.22.85.59,1.09.37.24.86.36,1.49.36.33,0,.63-.05.91-.16.28-.11.5-.25.66-.44.17-.19.25-.4.25-.63,0-.3-.11-.53-.33-.7s-.57-.32-1.05-.45l-1.49-.48c-.65-.2-1.14-.48-1.48-.84-.34-.36-.52-.78-.52-1.28,0-.62.27-1.11.82-1.49.54-.37,1.26-.56,2.14-.56.94,0,1.67.19,2.18.58.52.38.79.86.81,1.44h-1.23c-.05-.34-.22-.59-.51-.76-.29-.17-.71-.26-1.25-.26s-.92.12-1.21.35c-.29.23-.44.49-.44.77,0,.53.45.92,1.36,1.17l1.52.51c.66.2,1.16.46,1.51.78.35.32.52.73.52,1.22,0,.38-.12.75-.38,1.09-.25.34-.61.62-1.06.83-.46.21-1,.32-1.63.32Z"/>
      <path d="M414.83,372.84v-.86h4.88v.86h-4.88ZM418.25,379.82c-.42,0-.79-.08-1.12-.24s-.59-.4-.78-.72c-.19-.32-.29-.72-.29-1.2v-7.81h1.23v7.78c0,.79.37,1.18,1.1,1.18.22,0,.43-.02.64-.07.21-.05.44-.12.69-.22l.18.9c-.27.12-.54.21-.81.29-.27.07-.55.11-.84.11Z"/>
      <path d="M421.92,379.63v-7.66h1.25v7.66h-1.25ZM422.78,376.17c0-.97.09-1.78.28-2.42s.46-1.12.82-1.44c.36-.32.8-.48,1.32-.48.17,0,.33.01.47.04.14.02.28.06.43.11l-.08,1.23c-.15-.05-.31-.09-.49-.12-.18-.03-.33-.05-.47-.05-.45,0-.82.13-1.1.39s-.48.62-.6,1.09c-.12.47-.19,1.02-.19,1.66h-.38Z"/>
      <path d="M429.83,379.82c-.63,0-1.15-.11-1.56-.34-.41-.22-.72-.51-.92-.87s-.3-.73-.3-1.13c0-.52.13-.94.39-1.26s.61-.56,1.06-.72c.45-.15.95-.23,1.51-.23.4,0,.8.04,1.2.12.4.08.8.19,1.18.33v.78c-.32-.13-.68-.23-1.08-.3-.4-.08-.77-.11-1.11-.11-.51,0-.94.11-1.3.32-.35.21-.53.57-.53,1.08,0,.37.13.69.4.96.27.27.7.4,1.29.4.42,0,.79-.1,1.12-.29.33-.19.6-.44.79-.73.2-.29.29-.59.29-.88h.3c0,.51-.11.99-.33,1.42-.22.44-.54.79-.95,1.06-.41.27-.9.4-1.47.4ZM432.44,379.63l-.16-1.68v-3.28c0-.69-.15-1.18-.44-1.48-.29-.3-.73-.45-1.32-.45-.33,0-.63.05-.9.14-.27.1-.48.24-.64.44-.16.2-.24.46-.24.77h-1.39c0-.55.14-1,.41-1.34.27-.34.65-.58,1.12-.74.48-.15,1.02-.23,1.64-.23s1.11.1,1.56.3c.45.2.81.51,1.06.94.26.43.38.99.38,1.68v4.93h-1.09Z"/>
      <path d="M439.2,379.82c-.61,0-1.19-.17-1.72-.5-.53-.33-.96-.8-1.28-1.4s-.49-1.31-.49-2.14.16-1.56.49-2.16.75-1.05,1.28-1.37c.53-.31,1.1-.47,1.72-.47.43,0,.82.07,1.16.2.34.13.64.31.9.54.26.23.47.49.64.78.17.29.29.6.37.92l-1.28.11c-.13-.44-.36-.79-.67-1.05-.31-.26-.69-.39-1.14-.39-.38,0-.74.11-1.07.32s-.6.54-.81.97c-.21.43-.31.96-.31,1.6,0,.59.09,1.11.28,1.54s.45.77.78,1.01c.33.24.71.36,1.13.36.59,0,1.04-.15,1.35-.44.31-.29.46-.69.46-1.21h1.28c0,.53-.13,1.01-.38,1.42-.25.42-.61.74-1.07.98s-1,.36-1.63.36Z"/>
      <path d="M443.69,372.84v-.86h4.88v.86h-4.88ZM447.12,379.82c-.42,0-.79-.08-1.12-.24s-.59-.4-.78-.72c-.19-.32-.29-.72-.29-1.2v-7.81h1.23v7.78c0,.79.37,1.18,1.1,1.18.22,0,.43-.02.64-.07.21-.05.44-.12.69-.22l.18.9c-.27.12-.54.21-.81.29-.27.07-.55.11-.84.11Z"/>
      <path d="M453.44,379.82c-.66,0-1.25-.17-1.77-.51-.52-.34-.93-.81-1.23-1.41-.3-.6-.45-1.3-.45-2.08,0-.84.15-1.56.45-2.16s.71-1.07,1.23-1.39c.52-.32,1.11-.48,1.78-.48.58,0,1.08.12,1.49.35.41.24.74.55.99.95.25.4.42.85.52,1.36s.13,1.03.08,1.56h-5.54v-.77h4.71l-.37.24c.02-.32,0-.63-.05-.94-.05-.31-.15-.6-.28-.87s-.33-.48-.58-.64c-.25-.16-.57-.24-.96-.24-.49,0-.9.12-1.23.38s-.58.58-.74.99-.25.85-.25,1.32v.51c0,.53.08,1.01.24,1.43.16.42.41.75.73,1s.74.37,1.23.37.9-.12,1.22-.36c.32-.24.51-.59.58-1.06h1.3c-.08.51-.26.94-.54,1.31-.28.37-.64.65-1.08.84-.44.2-.93.3-1.48.3Z"/>
      <path d="M461.73,379.82c-.62,0-1.19-.17-1.7-.5-.52-.33-.93-.8-1.24-1.41-.31-.61-.46-1.32-.46-2.14s.15-1.52.46-2.12c.3-.6.71-1.06,1.21-1.38.5-.32,1.06-.48,1.66-.48.56,0,1.05.14,1.48.41.42.27.75.66.99,1.18.24.51.35,1.13.35,1.86h-.48c0-.51-.1-.93-.3-1.28s-.46-.61-.78-.79c-.32-.18-.66-.27-1.03-.27-.42,0-.8.12-1.14.35-.34.23-.62.56-.82.99-.21.43-.31.94-.31,1.54s.1,1.13.31,1.57c.21.44.48.77.82,1.01.34.24.72.35,1.14.35.35,0,.68-.09,1-.27.32-.18.59-.45.8-.8s.31-.77.31-1.27h.48c0,.74-.12,1.37-.36,1.88-.24.51-.57.91-.98,1.17-.41.27-.88.4-1.39.4ZM464.2,379.63l-.21-1.79v-9.12h1.25v10.91h-1.04Z"/>
      <path d="M472.28,379.63v-10.91h1.25v9.12l-.37,1.79h-.88ZM475.78,379.82c-.51,0-.97-.13-1.39-.4s-.74-.66-.98-1.17c-.24-.51-.36-1.14-.36-1.88h.48c0,.5.1.92.31,1.27.21.35.47.62.8.8.33.18.67.27,1.02.27.41,0,.79-.12,1.13-.35.34-.23.62-.57.82-1.01s.31-.96.31-1.57-.1-1.11-.3-1.54c-.2-.43-.48-.76-.82-.99-.34-.23-.73-.35-1.15-.35-.36,0-.71.09-1.03.27s-.58.44-.78.79-.3.77-.3,1.28h-.48c0-.72.12-1.34.36-1.86s.57-.9.99-1.18c.42-.27.91-.41,1.47-.41.6,0,1.16.16,1.66.48.5.32.91.78,1.21,1.38.3.6.46,1.3.46,2.12s-.16,1.54-.46,2.14c-.31.61-.72,1.07-1.24,1.41-.52.33-1.08.5-1.7.5Z"/>
      <path d="M480.49,371.98h1.39l2.5,6.56h-.29l1.94-6.56h1.28l-2.88,9.18c-.24.77-.56,1.36-.96,1.78-.4.42-.91.62-1.54.62-.34,0-.66-.05-.96-.14-.3-.1-.61-.23-.93-.42v-1.15c.28.22.56.38.82.48s.54.14.83.14c.32,0,.59-.1.8-.3s.4-.46.54-.78c.14-.32.27-.65.37-1l.22-.77-3.14-7.65Z"/>
      <path d="M331.44,398.83v-7.65h1.07l.18,1.76v5.89h-1.25ZM336.88,398.83v-4.5c0-.73-.17-1.29-.52-1.67-.35-.38-.83-.57-1.43-.57-.46,0-.86.13-1.19.38-.34.25-.59.61-.78,1.08-.18.47-.27,1.02-.27,1.67h-.48c0-.89.12-1.65.35-2.28.23-.63.58-1.11,1.03-1.44s1-.5,1.64-.5c.6,0,1.12.13,1.55.4.43.27.76.65.99,1.16.23.5.34,1.1.34,1.78v4.5h-1.23Z"/>
      <path d="M343.75,399.02c-.66,0-1.25-.17-1.77-.51-.52-.34-.93-.81-1.23-1.41-.3-.6-.45-1.3-.45-2.08,0-.84.15-1.56.45-2.16.3-.6.71-1.07,1.23-1.39.52-.32,1.11-.48,1.78-.48.58,0,1.08.12,1.49.35.41.24.74.55.99.95.25.4.43.85.52,1.36s.13,1.03.08,1.56h-5.54v-.77h4.71l-.37.24c.02-.32,0-.63-.05-.94-.05-.31-.15-.6-.28-.87s-.33-.48-.58-.64c-.25-.16-.57-.24-.96-.24-.49,0-.9.12-1.23.38-.33.25-.58.58-.74.99-.17.41-.25.85-.25,1.32v.51c0,.53.08,1.01.24,1.43.16.42.41.75.73,1s.74.37,1.23.37.9-.12,1.22-.36c.32-.24.51-.59.58-1.06h1.3c-.08.51-.26.94-.54,1.31s-.64.65-1.08.84c-.44.2-.93.3-1.48.3Z"/>
      <path d="M352.02,402.76c-.78,0-1.46-.11-2.04-.33-.58-.22-1.02-.52-1.34-.89-.32-.37-.48-.78-.48-1.23,0-.59.22-1.04.65-1.36.43-.31,1-.47,1.68-.47l.69.43c-.58,0-1.02.12-1.34.36-.31.24-.47.57-.47.98s.22.77.67,1.06c.45.29,1.1.43,1.97.43.64,0,1.2-.09,1.68-.28.48-.18.86-.42,1.13-.72.27-.3.4-.61.4-.96,0-.24-.09-.45-.26-.62-.18-.17-.45-.26-.81-.26h-2.98c-.52,0-.96-.08-1.34-.24s-.67-.36-.87-.62-.3-.54-.3-.84c0-.32.09-.59.27-.82.18-.22.42-.39.71-.51.29-.12.6-.18.94-.18l.24.46c-.16,0-.32.04-.48.11-.16.07-.3.18-.41.32-.11.14-.16.32-.16.53,0,.25.1.45.3.62.2.17.57.25,1.1.25h2.98c.72,0,1.29.15,1.7.46.41.3.62.73.62,1.27,0,.5-.18.98-.54,1.44-.36.46-.87.84-1.54,1.14s-1.46.44-2.39.44ZM352.24,396.59c-.59,0-1.12-.12-1.59-.35s-.85-.56-1.12-.98c-.27-.42-.41-.91-.41-1.46s.14-1.05.41-1.47c.27-.42.65-.75,1.12-.98.47-.23,1-.35,1.59-.35s1.09.12,1.56.35c.47.23.84.56,1.12.98.28.42.42.91.42,1.47s-.14,1.04-.42,1.46c-.28.42-.65.75-1.12.98-.47.23-.99.35-1.56.35ZM352.24,395.69c.59,0,1.04-.18,1.37-.54.33-.36.49-.82.49-1.36s-.16-1.01-.49-1.36c-.33-.35-.78-.52-1.37-.52s-1.04.17-1.37.52c-.33.35-.5.8-.5,1.36s.17,1,.5,1.36c.33.36.79.54,1.37.54ZM354.75,392.2l-.59-.24c0-.45.09-.84.26-1.18.18-.34.43-.6.75-.79s.71-.28,1.16-.28l-.1,1.23c-.48,0-.85.1-1.1.31s-.38.52-.38.96Z"/>
      <path d="M360.47,399.02c-.63,0-1.15-.11-1.56-.34-.41-.22-.72-.51-.92-.87-.2-.36-.3-.73-.3-1.13,0-.52.13-.94.39-1.26.26-.33.61-.56,1.06-.72.45-.15.95-.23,1.51-.23.4,0,.8.04,1.2.12.4.08.8.19,1.18.33v.78c-.32-.13-.68-.23-1.08-.3-.4-.08-.77-.11-1.11-.11-.51,0-.94.11-1.3.32s-.53.57-.53,1.08c0,.37.13.69.4.96.27.27.7.4,1.29.4.42,0,.79-.1,1.12-.29.33-.19.6-.44.79-.73.19-.29.29-.59.29-.88h.3c0,.51-.11.99-.33,1.42-.22.44-.54.79-.95,1.06s-.9.4-1.47.4ZM363.08,398.83l-.16-1.68v-3.28c0-.69-.15-1.18-.44-1.48-.29-.3-.73-.45-1.32-.45-.33,0-.63.05-.9.14-.27.1-.48.24-.64.44-.16.2-.24.46-.24.77h-1.39c0-.55.14-1,.41-1.34s.65-.58,1.12-.74c.48-.15,1.02-.23,1.64-.23s1.11.1,1.56.3c.45.2.81.51,1.06.94.26.43.38.99.38,1.68v4.93h-1.09Z"/>
      <path d="M366.08,392.04v-.86h4.88v.86h-4.88ZM369.51,399.02c-.42,0-.79-.08-1.12-.24-.33-.16-.59-.4-.78-.72-.19-.32-.29-.72-.29-1.2v-7.81h1.23v7.78c0,.79.37,1.18,1.1,1.18.22,0,.43-.02.64-.07.21-.05.44-.12.69-.22l.18.9c-.27.12-.54.21-.81.29-.27.07-.55.11-.84.11Z"/>
      <path d="M373.87,389.37c-.26,0-.46-.07-.61-.22s-.22-.34-.22-.58.07-.42.22-.56.35-.21.61-.21.46.07.61.21c.15.14.22.33.22.56s-.07.43-.22.58c-.15.15-.35.22-.61.22ZM373.25,398.83v-7.66h1.25v7.66h-1.25Z"/>
      <path d="M376.61,391.18h1.42l2.4,6.58h-.18l2.4-6.58h1.42l-3.06,7.65h-1.36l-3.06-7.65Z"/>
      <path d="M388.63,399.02c-.66,0-1.25-.17-1.77-.51-.52-.34-.93-.81-1.23-1.41-.3-.6-.45-1.3-.45-2.08,0-.84.15-1.56.45-2.16.3-.6.71-1.07,1.23-1.39.52-.32,1.11-.48,1.78-.48.58,0,1.08.12,1.49.35.41.24.74.55.99.95.25.4.43.85.52,1.36s.13,1.03.08,1.56h-5.54v-.77h4.71l-.37.24c.02-.32,0-.63-.05-.94-.05-.31-.15-.6-.28-.87s-.33-.48-.58-.64c-.25-.16-.57-.24-.96-.24-.49,0-.9.12-1.23.38-.33.25-.58.58-.74.99-.17.41-.25.85-.25,1.32v.51c0,.53.08,1.01.24,1.43.16.42.41.75.73,1s.74.37,1.23.37.9-.12,1.22-.36c.32-.24.51-.59.58-1.06h1.3c-.08.51-.26.94-.54,1.31s-.64.65-1.08.84c-.44.2-.93.3-1.48.3Z"/>
      <path d="M396.92,392.04v-.86h4.88v.86h-4.88ZM400.34,399.02c-.42,0-.79-.08-1.12-.24s-.59-.4-.78-.72c-.19-.32-.29-.72-.29-1.2v-7.81h1.23v7.78c0,.79.37,1.18,1.1,1.18.22,0,.43-.02.64-.07.21-.05.44-.12.69-.22l.18.9c-.27.12-.54.21-.81.29-.27.07-.55.11-.84.11Z"/>
      <path d="M404.01,398.83v-10.91h1.25v10.91h-1.25ZM409.45,398.83v-4.5c0-.73-.17-1.29-.52-1.67-.35-.38-.83-.57-1.43-.57-.46,0-.86.13-1.19.38-.34.25-.59.61-.78,1.08s-.27,1.02-.27,1.67h-.48c0-.89.12-1.65.35-2.28.24-.63.58-1.11,1.03-1.44.45-.33,1-.5,1.64-.5.6,0,1.12.13,1.55.4.43.27.76.65.99,1.16.23.5.34,1.1.34,1.78v4.5h-1.23Z"/>
      <path d="M416.43,399.02c-.69,0-1.3-.15-1.84-.46-.54-.3-.96-.75-1.27-1.35-.31-.6-.46-1.33-.46-2.21s.15-1.62.46-2.21.73-1.04,1.27-1.35c.54-.3,1.15-.46,1.84-.46s1.29.15,1.83.46c.54.3.96.75,1.26,1.35s.46,1.33.46,2.21-.15,1.61-.46,2.21c-.31.6-.73,1.05-1.26,1.35-.54.3-1.15.46-1.83.46ZM416.4,397.93c.5,0,.92-.12,1.26-.36s.61-.57.79-1.01.27-.96.27-1.56c0-.91-.19-1.63-.57-2.16-.38-.52-.94-.79-1.69-.79-.5,0-.92.12-1.27.36s-.61.58-.78,1.02c-.18.44-.27.96-.27,1.57,0,.9.19,1.62.57,2.14.38.53.94.79,1.68.79Z"/>
      <path d="M422.18,391.16h1.25v4.77c0,.64.16,1.13.47,1.46.31.33.76.5,1.34.5.48,0,.9-.13,1.25-.38.35-.26.63-.61.82-1.06.2-.45.29-.97.29-1.55h.46c0,.86-.12,1.59-.37,2.2-.25.61-.6,1.07-1.05,1.4-.45.32-.98.48-1.59.48-.58,0-1.08-.11-1.51-.32-.43-.21-.77-.54-1.01-.97-.24-.43-.36-.98-.36-1.65v-4.86ZM427.61,391.16h1.25v7.66h-1.25v-7.66Z"/>
      <path d="M434.8,402.76c-.78,0-1.46-.11-2.04-.33-.58-.22-1.02-.52-1.34-.89-.32-.37-.48-.78-.48-1.23,0-.59.22-1.04.65-1.36.43-.31,1-.47,1.68-.47l.69.43c-.58,0-1.02.12-1.34.36s-.47.57-.47.98.22.77.67,1.06c.45.29,1.1.43,1.97.43.64,0,1.2-.09,1.68-.28.48-.18.86-.42,1.13-.72.27-.3.4-.61.4-.96,0-.24-.09-.45-.26-.62-.18-.17-.45-.26-.81-.26h-2.98c-.52,0-.96-.08-1.34-.24s-.67-.36-.87-.62c-.2-.26-.3-.54-.3-.84,0-.32.09-.59.27-.82s.42-.39.71-.51.6-.18.94-.18l.24.46c-.16,0-.32.04-.48.11-.16.07-.3.18-.41.32s-.16.32-.16.53c0,.25.1.45.3.62.2.17.57.25,1.1.25h2.98c.72,0,1.29.15,1.7.46.41.3.62.73.62,1.27,0,.5-.18.98-.54,1.44-.36.46-.87.84-1.54,1.14-.67.3-1.46.44-2.39.44ZM435.02,396.59c-.59,0-1.12-.12-1.59-.35-.47-.23-.84-.56-1.12-.98-.27-.42-.41-.91-.41-1.46s.14-1.05.41-1.47c.28-.42.65-.75,1.12-.98.47-.23,1-.35,1.59-.35s1.09.12,1.56.35c.47.23.84.56,1.12.98.28.42.42.91.42,1.47s-.14,1.04-.42,1.46c-.28.42-.65.75-1.12.98-.47.23-.99.35-1.56.35ZM435.02,395.69c.59,0,1.04-.18,1.37-.54.33-.36.49-.82.49-1.36s-.16-1.01-.49-1.36c-.33-.35-.78-.52-1.37-.52s-1.04.17-1.37.52c-.33.35-.5.8-.5,1.36s.17,1,.5,1.36c.33.36.79.54,1.37.54ZM437.54,392.2l-.59-.24c0-.45.09-.84.26-1.18.18-.34.43-.6.75-.79s.71-.28,1.16-.28l-.1,1.23c-.48,0-.85.1-1.1.31s-.38.52-.38.96Z"/>
      <path d="M441.13,398.83v-10.91h1.25v10.91h-1.25ZM446.57,398.83v-4.5c0-.73-.17-1.29-.52-1.67-.35-.38-.83-.57-1.43-.57-.46,0-.86.13-1.19.38-.34.25-.59.61-.78,1.08s-.27,1.02-.27,1.67h-.48c0-.89.12-1.65.35-2.28.24-.63.58-1.11,1.03-1.44.45-.33,1-.5,1.64-.5.6,0,1.12.13,1.55.4.43.27.76.65.99,1.16.23.5.34,1.1.34,1.78v4.5h-1.23Z"/>
      <path d="M449.71,392.04v-.86h4.88v.86h-4.88ZM453.13,399.02c-.42,0-.79-.08-1.12-.24-.33-.16-.59-.4-.78-.72-.19-.32-.29-.72-.29-1.2v-7.81h1.23v7.78c0,.79.37,1.18,1.1,1.18.22,0,.43-.02.64-.07s.44-.12.69-.22l.18.9c-.27.12-.54.21-.81.29-.27.07-.55.11-.84.11Z"/>
      <path d="M459.55,399.02c-.74,0-1.36-.11-1.86-.32s-.87-.5-1.13-.87c-.26-.37-.39-.8-.41-1.28h1.2c.03.49.22.85.59,1.09.37.24.86.36,1.49.36.33,0,.63-.05.91-.16.28-.11.5-.25.66-.44.17-.19.25-.4.25-.63,0-.3-.11-.53-.33-.7s-.57-.32-1.05-.45l-1.49-.48c-.65-.2-1.14-.48-1.48-.84-.34-.36-.52-.78-.52-1.28,0-.62.27-1.11.82-1.49.54-.37,1.26-.56,2.14-.56.94,0,1.67.19,2.18.58.52.38.79.86.81,1.44h-1.23c-.05-.34-.22-.59-.51-.76-.29-.17-.71-.26-1.25-.26s-.92.12-1.21.35c-.29.23-.44.49-.44.77,0,.53.45.92,1.36,1.17l1.52.51c.66.2,1.16.46,1.51.78.35.32.52.73.52,1.22,0,.38-.12.75-.38,1.09-.25.34-.61.62-1.06.83-.46.21-1,.32-1.63.32Z"/>
    </g>
    <g>
      <path d="M605.73,350.38h1.25v6.42c0,.94.24,1.62.71,2.04s1.1.63,1.86.63,1.38-.21,1.85-.63.71-1.1.71-2.04v-6.42h1.25v6.42c0,.84-.16,1.55-.47,2.12-.31.57-.75.99-1.32,1.28-.57.29-1.24.43-2.02.43s-1.45-.14-2.02-.43-1.02-.71-1.33-1.28c-.31-.57-.47-1.27-.47-2.12v-6.42Z"/>
      <path d="M619.16,360.62c-.74,0-1.36-.11-1.86-.32-.5-.21-.87-.5-1.13-.87-.26-.37-.39-.8-.41-1.28h1.2c.03.49.22.85.59,1.09.37.24.86.36,1.49.36.33,0,.63-.05.91-.16.28-.11.5-.25.66-.44s.25-.4.25-.63c0-.3-.11-.53-.33-.7s-.57-.32-1.05-.45l-1.49-.48c-.64-.2-1.14-.48-1.48-.84-.34-.36-.52-.78-.52-1.28,0-.62.27-1.11.82-1.49.54-.37,1.26-.56,2.14-.56.94,0,1.67.19,2.18.58.52.38.79.86.81,1.44h-1.23c-.05-.34-.22-.59-.51-.76-.29-.17-.71-.26-1.25-.26s-.92.12-1.21.35c-.29.23-.44.49-.44.77,0,.53.45.92,1.36,1.17l1.52.51c.66.2,1.16.46,1.51.78.35.32.52.73.52,1.22,0,.38-.13.75-.38,1.09-.25.34-.61.62-1.06.83s-1,.32-1.63.32Z"/>
      <path d="M627.47,360.62c-.66,0-1.25-.17-1.77-.51-.52-.34-.93-.81-1.23-1.41-.3-.6-.45-1.3-.45-2.08,0-.84.15-1.56.45-2.16.3-.6.71-1.07,1.23-1.39.52-.32,1.11-.48,1.78-.48.58,0,1.08.12,1.49.35.41.24.74.55.99.95.25.4.43.85.52,1.36s.13,1.03.08,1.56h-5.54v-.77h4.71l-.37.24c.02-.32,0-.63-.05-.94s-.15-.6-.28-.87-.33-.48-.58-.64-.57-.24-.96-.24c-.49,0-.9.12-1.23.38-.33.25-.58.58-.74.99-.17.41-.25.85-.25,1.32v.51c0,.53.08,1.01.24,1.43.16.42.41.75.73,1s.74.37,1.23.37.9-.12,1.22-.36c.32-.24.51-.59.58-1.06h1.3c-.08.51-.26.94-.54,1.31-.28.37-.64.65-1.08.84-.44.2-.93.3-1.48.3Z"/>
      <path d="M633.03,360.43v-7.66h1.25v7.66h-1.25ZM633.89,356.97c0-.97.09-1.78.28-2.42.19-.64.46-1.12.82-1.44.36-.32.8-.48,1.32-.48.17,0,.33.01.47.04.14.02.28.06.43.11l-.08,1.23c-.15-.05-.31-.09-.49-.12-.18-.03-.33-.05-.47-.05-.45,0-.82.13-1.1.39s-.48.62-.6,1.09c-.12.47-.19,1.02-.19,1.66h-.38Z"/>
      <path d="M643.32,350.97c-.26,0-.46-.07-.61-.22s-.22-.34-.22-.58.07-.42.22-.56.35-.21.61-.21.46.07.61.21c.15.14.22.33.22.56s-.08.43-.22.58c-.15.15-.35.22-.61.22ZM642.69,360.43v-7.66h1.25v7.66h-1.25Z"/>
      <path d="M650.13,360.62c-.74,0-1.36-.11-1.86-.32-.5-.21-.87-.5-1.13-.87-.26-.37-.39-.8-.41-1.28h1.2c.03.49.22.85.59,1.09.37.24.86.36,1.49.36.33,0,.63-.05.91-.16.28-.11.5-.25.66-.44s.25-.4.25-.63c0-.3-.11-.53-.33-.7s-.57-.32-1.05-.45l-1.49-.48c-.64-.2-1.14-.48-1.48-.84-.34-.36-.52-.78-.52-1.28,0-.62.27-1.11.82-1.49.54-.37,1.26-.56,2.14-.56.94,0,1.67.19,2.18.58.52.38.79.86.81,1.44h-1.23c-.05-.34-.22-.59-.51-.76-.29-.17-.71-.26-1.25-.26s-.92.12-1.21.35c-.29.23-.44.49-.44.77,0,.53.45.92,1.36,1.17l1.52.51c.66.2,1.16.46,1.51.78.35.32.52.73.52,1.22,0,.38-.13.75-.38,1.09-.25.34-.61.62-1.06.83s-1,.32-1.63.32Z"/>
      <path d="M658.52,353.64v-.86h4.88v.86h-4.88ZM661.94,360.62c-.42,0-.79-.08-1.12-.24-.33-.16-.59-.4-.78-.72-.19-.32-.29-.72-.29-1.2v-7.81h1.23v7.78c0,.79.37,1.18,1.1,1.18.22,0,.43-.02.64-.07s.44-.12.69-.22l.18.9c-.27.12-.54.21-.81.29-.27.07-.55.11-.84.11Z"/>
      <path d="M665.6,360.43v-7.66h1.25v7.66h-1.25ZM666.47,356.97c0-.97.09-1.78.28-2.42.19-.64.46-1.12.82-1.44.36-.32.8-.48,1.32-.48.17,0,.33.01.47.04.14.02.28.06.43.11l-.08,1.23c-.15-.05-.31-.09-.49-.12-.18-.03-.33-.05-.47-.05-.45,0-.82.13-1.1.39s-.48.62-.6,1.09c-.12.47-.19,1.02-.19,1.66h-.38Z"/>
      <path d="M670.12,352.78h1.39l2.5,6.56h-.29l1.94-6.56h1.28l-2.88,9.18c-.24.77-.56,1.36-.96,1.78-.4.42-.91.62-1.54.62-.34,0-.65-.05-.96-.14-.3-.1-.61-.23-.93-.42v-1.15c.28.22.56.38.82.48.26.1.54.14.83.14.32,0,.59-.1.8-.3s.4-.46.54-.78c.14-.32.27-.65.37-1l.22-.77-3.14-7.65Z"/>
      <path d="M679.54,350.97c-.26,0-.46-.07-.61-.22s-.22-.34-.22-.58.07-.42.22-.56.35-.21.61-.21.46.07.61.21c.15.14.22.33.22.56s-.08.43-.22.58c-.15.15-.35.22-.61.22ZM678.92,360.43v-7.66h1.25v7.66h-1.25Z"/>
      <path d="M683.6,360.43v-7.65h1.07l.18,1.76v5.89h-1.25ZM689.04,360.43v-4.5c0-.73-.17-1.29-.52-1.67-.35-.38-.83-.57-1.43-.57-.46,0-.86.13-1.19.38-.34.25-.59.61-.78,1.08-.18.47-.27,1.02-.27,1.67h-.48c0-.89.12-1.65.35-2.28.23-.63.58-1.11,1.03-1.44.45-.33,1-.5,1.64-.5.6,0,1.12.13,1.55.4.43.27.76.65.99,1.16.23.5.34,1.1.34,1.78v4.5h-1.23Z"/>
      <path d="M695.96,364.36c-.78,0-1.46-.11-2.04-.33-.58-.22-1.02-.52-1.34-.89-.32-.37-.48-.78-.48-1.23,0-.59.22-1.04.65-1.36.43-.31,1-.47,1.68-.47l.69.43c-.58,0-1.02.12-1.34.36-.31.24-.47.57-.47.98s.22.77.67,1.06,1.1.43,1.97.43c.64,0,1.2-.09,1.68-.28.48-.18.86-.42,1.13-.72s.4-.61.4-.96c0-.24-.09-.45-.26-.62-.18-.17-.45-.26-.81-.26h-2.98c-.52,0-.96-.08-1.34-.24s-.67-.36-.87-.62c-.2-.26-.3-.54-.3-.84,0-.32.09-.59.27-.82.18-.22.42-.39.71-.51.29-.12.6-.18.94-.18l.24.46c-.16,0-.32.04-.48.11-.16.07-.3.18-.41.32-.11.14-.16.32-.16.53,0,.25.1.45.3.62.2.17.57.25,1.1.25h2.98c.72,0,1.29.15,1.7.46.41.3.62.73.62,1.27,0,.5-.18.98-.54,1.44-.36.46-.87.84-1.54,1.14-.67.3-1.46.44-2.39.44ZM696.19,358.19c-.59,0-1.12-.12-1.59-.35-.47-.23-.85-.56-1.12-.98-.28-.42-.41-.91-.41-1.46s.14-1.05.41-1.47c.27-.42.65-.75,1.12-.98.47-.23,1-.35,1.59-.35s1.09.12,1.56.35c.47.23.84.56,1.12.98.28.42.42.91.42,1.47s-.14,1.04-.42,1.46c-.28.42-.65.75-1.12.98s-.99.35-1.56.35ZM696.19,357.29c.59,0,1.04-.18,1.37-.54.33-.36.49-.82.49-1.36s-.16-1.01-.49-1.36c-.33-.35-.78-.52-1.37-.52s-1.04.17-1.37.52c-.33.35-.5.8-.5,1.36s.17,1,.5,1.36c.33.36.79.54,1.37.54ZM698.7,353.8l-.59-.24c0-.45.09-.84.26-1.18s.43-.6.75-.79.71-.28,1.16-.28l-.1,1.23c-.48,0-.85.1-1.1.31s-.38.52-.38.96Z"/>
      <path d="M705.02,353.64v-.86h4.88v.86h-4.88ZM708.44,360.62c-.42,0-.79-.08-1.12-.24-.33-.16-.59-.4-.78-.72-.19-.32-.29-.72-.29-1.2v-7.81h1.23v7.78c0,.79.37,1.18,1.1,1.18.22,0,.43-.02.64-.07s.44-.12.69-.22l.18.9c-.27.12-.54.21-.81.29-.27.07-.55.11-.84.11Z"/>
      <path d="M714.87,360.62c-.69,0-1.3-.15-1.84-.46-.54-.3-.96-.75-1.27-1.35-.31-.6-.46-1.33-.46-2.21s.15-1.62.46-2.21.73-1.04,1.27-1.35c.54-.3,1.15-.46,1.84-.46s1.29.15,1.83.46c.54.3.96.75,1.26,1.35s.46,1.33.46,2.21-.15,1.61-.46,2.21c-.31.6-.73,1.05-1.26,1.35-.54.3-1.15.46-1.83.46ZM714.84,359.53c.5,0,.92-.12,1.26-.36s.61-.57.79-1.01.27-.96.27-1.56c0-.91-.19-1.63-.57-2.16-.38-.52-.94-.79-1.69-.79-.5,0-.92.12-1.27.36s-.61.58-.78,1.02c-.18.44-.27.96-.27,1.57,0,.9.19,1.62.57,2.14.38.53.94.79,1.68.79Z"/>
      <path d="M590.76,383.39v-11.41h1.04l.21,1.79v9.62h-1.25ZM594.23,379.82c-.56,0-1.05-.13-1.46-.38-.41-.26-.73-.63-.96-1.12-.22-.49-.34-1.09-.34-1.8h.53c0,.47.1.88.3,1.2s.46.57.77.74c.32.17.65.25,1.01.25.38,0,.75-.11,1.1-.33.35-.22.64-.55.86-.98.22-.43.34-.96.34-1.6s-.1-1.13-.31-1.56c-.21-.43-.48-.76-.83-.99-.35-.23-.73-.34-1.15-.34-.36,0-.7.09-1.02.26-.32.18-.58.43-.78.77s-.3.76-.3,1.25h-.53c0-.74.12-1.36.37-1.87.25-.5.58-.88,1-1.14.42-.26.89-.38,1.42-.38.6,0,1.15.16,1.67.48.52.32.94.78,1.26,1.38.32.6.48,1.31.48,2.14s-.16,1.57-.48,2.17c-.32.6-.75,1.06-1.27,1.38s-1.09.48-1.69.48Z"/>
      <path d="M602.76,379.82c-.66,0-1.25-.17-1.77-.51-.52-.34-.93-.81-1.23-1.41-.3-.6-.45-1.3-.45-2.08,0-.84.15-1.56.45-2.16.3-.6.71-1.07,1.23-1.39.52-.32,1.11-.48,1.78-.48.58,0,1.08.12,1.49.35.41.24.74.55.99.95.25.4.43.85.52,1.36s.13,1.03.08,1.56h-5.54v-.77h4.71l-.37.24c.02-.32,0-.63-.05-.94s-.15-.6-.28-.87-.33-.48-.58-.64-.57-.24-.96-.24c-.49,0-.9.12-1.23.38-.33.25-.58.58-.74.99-.17.41-.25.85-.25,1.32v.51c0,.53.08,1.01.24,1.43.16.42.41.75.73,1s.74.37,1.23.37.9-.12,1.22-.36c.32-.24.51-.59.58-1.06h1.3c-.08.51-.26.94-.54,1.31-.28.37-.64.65-1.08.84-.44.2-.93.3-1.48.3Z"/>
      <path d="M608.32,379.63v-7.66h1.25v7.66h-1.25ZM609.19,376.17c0-.97.09-1.78.28-2.42.19-.64.46-1.12.82-1.44.36-.32.8-.48,1.32-.48.17,0,.33.01.47.04.14.02.28.06.43.11l-.08,1.23c-.15-.05-.31-.09-.49-.12-.18-.03-.33-.05-.47-.05-.45,0-.82.13-1.1.39s-.48.62-.6,1.09c-.12.47-.19,1.02-.19,1.66h-.38Z"/>
      <path d="M613.28,372.84v-.86h4.08v.86h-4.08ZM614.52,379.63v-8.83c0-.51.1-.92.29-1.24.19-.32.46-.56.78-.72s.69-.23,1.1-.23c.22,0,.44.02.67.05.23.03.45.08.68.14l-.24.99c-.16-.06-.32-.11-.48-.14-.16-.03-.31-.05-.45-.05-.17,0-.34.03-.51.1-.17.06-.31.18-.42.36s-.17.43-.17.76v8.82h-1.25Z"/>
      <path d="M622.36,379.82c-.69,0-1.3-.15-1.84-.46-.54-.3-.96-.75-1.27-1.35-.31-.6-.46-1.33-.46-2.21s.16-1.62.46-2.21c.31-.59.73-1.04,1.27-1.35.54-.3,1.15-.46,1.84-.46s1.29.15,1.83.46c.54.3.96.75,1.26,1.35s.46,1.33.46,2.21-.15,1.61-.46,2.21c-.31.6-.73,1.05-1.26,1.35-.54.3-1.15.46-1.83.46ZM622.32,378.73c.5,0,.92-.12,1.26-.36.35-.24.61-.57.79-1.01s.27-.96.27-1.56c0-.91-.19-1.63-.57-2.16-.38-.52-.94-.79-1.69-.79-.5,0-.92.12-1.27.36-.34.24-.61.58-.78,1.02-.18.44-.27.96-.27,1.57,0,.9.19,1.62.57,2.14.38.53.94.79,1.68.79Z"/>
      <path d="M628.33,379.63v-7.66h1.25v7.66h-1.25ZM629.2,376.17c0-.97.09-1.78.28-2.42.19-.64.46-1.12.82-1.44.36-.32.8-.48,1.32-.48.17,0,.33.01.47.04.14.02.28.06.43.11l-.08,1.23c-.15-.05-.31-.09-.49-.12-.18-.03-.33-.05-.47-.05-.45,0-.82.13-1.1.39s-.48.62-.6,1.09c-.12.47-.19,1.02-.19,1.66h-.38Z"/>
      <path d="M634.12,379.63v-7.65h1.07l.14,1.54c.24-.55.58-.98,1.01-1.28.43-.3.96-.45,1.56-.45s1.12.13,1.55.4c.43.27.76.65.99,1.16.23.5.34,1.1.34,1.78v4.5h-1.23v-4.5c0-.73-.17-1.29-.52-1.67-.35-.38-.83-.57-1.43-.57-.46,0-.86.13-1.19.38-.34.25-.59.61-.78,1.08-.18.47-.27,1.02-.27,1.67v3.62h-1.25ZM644.87,379.63v-4.5c0-.73-.17-1.29-.52-1.67-.35-.38-.82-.57-1.41-.57-.69,0-1.22.27-1.59.8-.37.54-.55,1.28-.55,2.22h-.58c0-.69.07-1.29.2-1.81.14-.52.33-.95.6-1.29.26-.34.58-.6.95-.77.37-.17.8-.26,1.27-.26.6,0,1.12.13,1.55.4.43.27.76.65.99,1.16.23.5.34,1.1.34,1.78v4.5h-1.25Z"/>
      <path d="M651.81,372.84v-.86h4.88v.86h-4.88ZM655.23,379.82c-.42,0-.79-.08-1.12-.24-.33-.16-.59-.4-.78-.72-.19-.32-.29-.72-.29-1.2v-7.81h1.23v7.78c0,.79.37,1.18,1.1,1.18.22,0,.43-.02.64-.07s.44-.12.69-.22l.18.9c-.27.12-.54.21-.81.29-.27.07-.55.11-.84.11Z"/>
      <path d="M661.03,379.82c-.63,0-1.15-.11-1.56-.34-.41-.22-.72-.51-.92-.87-.2-.36-.3-.73-.3-1.13,0-.52.13-.94.39-1.26.26-.33.61-.56,1.06-.72s.95-.23,1.51-.23c.4,0,.8.04,1.2.12.4.08.8.19,1.18.33v.78c-.32-.13-.68-.23-1.08-.3-.4-.08-.77-.11-1.11-.11-.51,0-.94.11-1.3.32-.35.21-.53.57-.53,1.08,0,.37.13.69.4.96s.7.4,1.29.4c.42,0,.79-.1,1.12-.29.33-.19.6-.44.79-.73.19-.29.29-.59.29-.88h.3c0,.51-.11.99-.33,1.42s-.54.79-.95,1.06c-.41.27-.9.4-1.47.4ZM663.63,379.63l-.16-1.68v-3.28c0-.69-.15-1.18-.44-1.48-.29-.3-.73-.45-1.32-.45-.33,0-.63.05-.9.14s-.48.24-.64.44c-.16.2-.24.46-.24.77h-1.39c0-.55.14-1,.41-1.34.27-.34.65-.58,1.12-.74.48-.15,1.02-.23,1.64-.23s1.11.1,1.56.3.81.51,1.06.94c.26.43.38.99.38,1.68v4.93h-1.09Z"/>
      <path d="M670.46,379.82c-.74,0-1.36-.11-1.86-.32-.5-.21-.87-.5-1.13-.87-.26-.37-.39-.8-.41-1.28h1.2c.03.49.22.85.59,1.09.37.24.86.36,1.49.36.33,0,.63-.05.91-.16.28-.11.5-.25.66-.44s.25-.4.25-.63c0-.3-.11-.53-.33-.7s-.57-.32-1.05-.45l-1.49-.48c-.64-.2-1.14-.48-1.48-.84-.34-.36-.52-.78-.52-1.28,0-.62.27-1.11.82-1.49.54-.37,1.26-.56,2.14-.56.94,0,1.67.19,2.18.58.52.38.79.86.81,1.44h-1.23c-.05-.34-.22-.59-.51-.76-.29-.17-.71-.26-1.25-.26s-.92.12-1.21.35c-.29.23-.44.49-.44.77,0,.53.45.92,1.36,1.17l1.52.51c.66.2,1.16.46,1.51.78.35.32.52.73.52,1.22,0,.38-.13.75-.38,1.09-.25.34-.61.62-1.06.83s-1,.32-1.63.32Z"/>
      <path d="M676.11,379.63v-10.91h1.25v10.91h-1.25ZM677.17,375.24l3.9-3.26h1.74l-5.65,4.59v-1.33ZM681.46,379.63l-3.63-4.83,1.26-.22,3.9,5.06h-1.54Z"/>
      <path d="M687.88,379.82c-.74,0-1.36-.11-1.86-.32-.5-.21-.87-.5-1.13-.87-.26-.37-.39-.8-.41-1.28h1.2c.03.49.22.85.59,1.09.37.24.86.36,1.49.36.33,0,.63-.05.91-.16.28-.11.5-.25.66-.44s.25-.4.25-.63c0-.3-.11-.53-.33-.7s-.57-.32-1.05-.45l-1.49-.48c-.64-.2-1.14-.48-1.48-.84-.34-.36-.52-.78-.52-1.28,0-.62.27-1.11.82-1.49.54-.37,1.26-.56,2.14-.56.94,0,1.67.19,2.18.58.52.38.79.86.81,1.44h-1.23c-.05-.34-.22-.59-.51-.76-.29-.17-.71-.26-1.25-.26s-.92.12-1.21.35c-.29.23-.44.49-.44.77,0,.53.45.92,1.36,1.17l1.52.51c.66.2,1.16.46,1.51.78.35.32.52.73.52,1.22,0,.38-.13.75-.38,1.09-.25.34-.61.62-1.06.83s-1,.32-1.63.32Z"/>
      <path d="M696.01,371.98h1.3l1.95,6.38h-.16l1.9-6.02h1.04l1.89,6.03h-.14l1.95-6.4h1.25l-2.51,7.65h-1.22l-1.86-5.65h.19l-1.84,5.65h-1.22l-2.53-7.65Z"/>
      <path d="M708.93,379.63v-10.91h1.25v10.91h-1.25ZM714.37,379.63v-4.5c0-.73-.17-1.29-.52-1.67-.35-.38-.83-.57-1.43-.57-.46,0-.86.13-1.19.38-.34.25-.59.61-.78,1.08-.18.47-.27,1.02-.27,1.67h-.48c0-.89.12-1.65.35-2.28.23-.63.58-1.11,1.03-1.44.45-.33,1-.5,1.64-.5.6,0,1.12.13,1.55.4.43.27.76.65.99,1.16.23.5.34,1.1.34,1.78v4.5h-1.23Z"/>
      <path d="M719.29,370.17c-.26,0-.46-.07-.61-.22s-.22-.34-.22-.58.08-.42.22-.56.35-.21.61-.21.46.07.61.21.22.33.22.56-.07.43-.22.58-.35.22-.61.22ZM718.67,379.63v-7.66h1.25v7.66h-1.25Z"/>
      <path d="M723.35,379.63v-10.91h1.25v10.91h-1.25Z"/>
      <path d="M730.49,379.82c-.66,0-1.25-.17-1.77-.51-.52-.34-.93-.81-1.23-1.41-.3-.6-.45-1.3-.45-2.08,0-.84.15-1.56.45-2.16s.71-1.07,1.23-1.39c.52-.32,1.11-.48,1.78-.48.58,0,1.08.12,1.49.35.41.24.74.55.99.95.25.4.42.85.52,1.36s.13,1.03.08,1.56h-5.54v-.77h4.71l-.37.24c.02-.32,0-.63-.05-.94-.05-.31-.15-.6-.28-.87s-.33-.48-.58-.64c-.25-.16-.57-.24-.96-.24-.49,0-.9.12-1.23.38s-.58.58-.74.99-.25.85-.25,1.32v.51c0,.53.08,1.01.24,1.43.16.42.41.75.73,1s.74.37,1.23.37.9-.12,1.22-.36c.32-.24.51-.59.58-1.06h1.3c-.08.51-.26.94-.54,1.31-.28.37-.64.65-1.08.84-.44.2-.93.3-1.48.3Z"/>
      <path d="M611.82,399.02c-.74,0-1.36-.11-1.86-.32s-.87-.5-1.13-.87c-.26-.37-.39-.8-.41-1.28h1.2c.03.49.22.85.59,1.09.37.24.86.36,1.49.36.33,0,.63-.05.91-.16.28-.11.5-.25.66-.44.17-.19.25-.4.25-.63,0-.3-.11-.53-.33-.7s-.57-.32-1.05-.45l-1.49-.48c-.65-.2-1.14-.48-1.48-.84-.34-.36-.52-.78-.52-1.28,0-.62.27-1.11.82-1.49.54-.37,1.26-.56,2.14-.56.94,0,1.67.19,2.18.58.52.38.79.86.81,1.44h-1.23c-.05-.34-.22-.59-.51-.76-.29-.17-.71-.26-1.25-.26s-.92.12-1.21.35c-.29.23-.44.49-.44.77,0,.53.45.92,1.36,1.17l1.52.51c.66.2,1.16.46,1.51.78.35.32.52.73.52,1.22,0,.38-.12.75-.38,1.09-.25.34-.61.62-1.06.83-.46.21-1,.32-1.63.32Z"/>
      <path d="M617.48,398.83v-10.91h1.25v10.91h-1.25Z"/>
      <path d="M624.62,399.02c-.66,0-1.25-.17-1.77-.51-.52-.34-.93-.81-1.23-1.41-.3-.6-.45-1.3-.45-2.08,0-.84.15-1.56.45-2.16s.71-1.07,1.23-1.39c.52-.32,1.11-.48,1.78-.48.58,0,1.08.12,1.49.35.41.24.74.55.99.95.25.4.42.85.52,1.36s.13,1.03.08,1.56h-5.54v-.77h4.71l-.37.24c.02-.32,0-.63-.05-.94-.05-.31-.15-.6-.28-.87s-.33-.48-.58-.64c-.25-.16-.57-.24-.96-.24-.49,0-.9.12-1.23.38s-.58.58-.74.99-.25.85-.25,1.32v.51c0,.53.08,1.01.24,1.43.16.42.41.75.73,1s.74.37,1.23.37.9-.12,1.22-.36c.32-.24.51-.59.58-1.06h1.3c-.08.51-.26.94-.54,1.31-.28.37-.64.65-1.08.84-.44.2-.93.3-1.48.3Z"/>
      <path d="M632.83,399.02c-.66,0-1.25-.17-1.77-.51-.52-.34-.93-.81-1.23-1.41-.3-.6-.45-1.3-.45-2.08,0-.84.15-1.56.45-2.16s.71-1.07,1.23-1.39c.52-.32,1.11-.48,1.78-.48.58,0,1.08.12,1.49.35.41.24.74.55.99.95.25.4.42.85.52,1.36s.13,1.03.08,1.56h-5.54v-.77h4.71l-.37.24c.02-.32,0-.63-.05-.94-.05-.31-.15-.6-.28-.87s-.33-.48-.58-.64c-.25-.16-.57-.24-.96-.24-.49,0-.9.12-1.23.38s-.58.58-.74.99-.25.85-.25,1.32v.51c0,.53.08,1.01.24,1.43.16.42.41.75.73,1s.74.37,1.23.37.9-.12,1.22-.36c.32-.24.51-.59.58-1.06h1.3c-.08.51-.26.94-.54,1.31-.28.37-.64.65-1.08.84-.44.2-.93.3-1.48.3Z"/>
      <path d="M638.39,402.59v-11.41h1.04l.21,1.79v9.62h-1.25ZM641.86,399.02c-.56,0-1.05-.13-1.46-.38-.41-.26-.73-.63-.96-1.12-.22-.49-.34-1.09-.34-1.8h.53c0,.47.1.88.3,1.2.2.33.45.57.77.74s.65.25,1.01.25c.38,0,.75-.11,1.1-.33.35-.22.64-.55.86-.98.22-.43.34-.96.34-1.6s-.1-1.13-.31-1.56c-.21-.43-.48-.76-.83-.99-.35-.23-.73-.34-1.15-.34-.36,0-.7.09-1.02.26-.32.18-.58.43-.78.77-.2.34-.3.76-.3,1.25h-.53c0-.74.12-1.36.37-1.87.25-.5.58-.88,1-1.14.42-.26.89-.38,1.42-.38.6,0,1.15.16,1.67.48.52.32.94.78,1.26,1.38.32.6.48,1.31.48,2.14s-.16,1.57-.48,2.17c-.32.6-.75,1.06-1.27,1.38-.52.32-1.08.48-1.69.48Z"/>
      <path d="M654.28,399.02c-.62,0-1.19-.17-1.7-.5-.52-.33-.93-.8-1.24-1.41s-.46-1.32-.46-2.14.15-1.52.46-2.12c.3-.6.71-1.06,1.21-1.38.5-.32,1.06-.48,1.66-.48.56,0,1.05.14,1.48.41.42.27.75.66.99,1.18s.35,1.13.35,1.86h-.48c0-.51-.1-.93-.3-1.28-.2-.35-.46-.61-.78-.79s-.66-.27-1.03-.27c-.42,0-.8.12-1.14.35-.34.23-.62.56-.82.99-.21.43-.31.94-.31,1.54s.1,1.13.31,1.57.48.77.82,1.01c.34.24.72.35,1.14.35.35,0,.68-.09,1-.27.32-.18.59-.45.8-.8s.31-.77.31-1.27h.48c0,.74-.12,1.37-.36,1.88-.24.51-.57.91-.98,1.17s-.88.4-1.39.4ZM656.74,398.83l-.21-1.79v-9.12h1.25v10.91h-1.04Z"/>
      <path d="M663.68,399.02c-.66,0-1.25-.17-1.77-.51-.52-.34-.93-.81-1.23-1.41-.3-.6-.45-1.3-.45-2.08,0-.84.15-1.56.45-2.16s.71-1.07,1.23-1.39c.52-.32,1.11-.48,1.78-.48.58,0,1.08.12,1.49.35.41.24.74.55.99.95.25.4.42.85.52,1.36s.13,1.03.08,1.56h-5.54v-.77h4.71l-.37.24c.02-.32,0-.63-.05-.94-.05-.31-.15-.6-.28-.87s-.33-.48-.58-.64c-.25-.16-.57-.24-.96-.24-.49,0-.9.12-1.23.38s-.58.58-.74.99-.25.85-.25,1.32v.51c0,.53.08,1.01.24,1.43.16.42.41.75.73,1s.74.37,1.23.37.9-.12,1.22-.36c.32-.24.51-.59.58-1.06h1.3c-.08.51-.26.94-.54,1.31-.28.37-.64.65-1.08.84-.44.2-.93.3-1.48.3Z"/>
      <path d="M669.24,402.59v-11.41h1.04l.21,1.79v9.62h-1.25ZM672.71,399.02c-.56,0-1.05-.13-1.46-.38-.41-.26-.73-.63-.96-1.12-.22-.49-.34-1.09-.34-1.8h.53c0,.47.1.88.3,1.2.2.33.45.57.77.74s.65.25,1.01.25c.38,0,.75-.11,1.1-.33.35-.22.64-.55.86-.98.22-.43.34-.96.34-1.6s-.1-1.13-.31-1.56c-.21-.43-.48-.76-.83-.99-.35-.23-.73-.34-1.15-.34-.36,0-.7.09-1.02.26-.32.18-.58.43-.78.77-.2.34-.3.76-.3,1.25h-.53c0-.74.12-1.36.37-1.87.25-.5.58-.88,1-1.14.42-.26.89-.38,1.42-.38.6,0,1.15.16,1.67.48.52.32.94.78,1.26,1.38.32.6.48,1.31.48,2.14s-.16,1.57-.48,2.17c-.32.6-.75,1.06-1.27,1.38-.52.32-1.08.48-1.69.48Z"/>
      <path d="M678.59,398.83v-7.66h1.25v7.66h-1.25ZM679.46,395.37c0-.97.09-1.78.28-2.42.19-.64.46-1.12.82-1.44.36-.32.8-.48,1.32-.48.17,0,.33.01.47.04.14.02.28.06.43.11l-.08,1.23c-.15-.05-.31-.09-.49-.12-.18-.03-.33-.05-.47-.05-.45,0-.82.13-1.1.39s-.48.62-.6,1.09c-.12.47-.19,1.02-.19,1.66h-.38Z"/>
      <path d="M685.08,389.37c-.26,0-.46-.07-.61-.22s-.22-.34-.22-.58.07-.42.22-.56.35-.21.61-.21.46.07.61.21c.15.14.22.33.22.56s-.08.43-.22.58c-.15.15-.35.22-.61.22ZM684.46,398.83v-7.66h1.25v7.66h-1.25Z"/>
      <path d="M687.81,391.18h1.42l2.4,6.58h-.18l2.4-6.58h1.42l-3.06,7.65h-1.36l-3.06-7.65Z"/>
      <path d="M699.84,399.02c-.66,0-1.25-.17-1.77-.51-.52-.34-.93-.81-1.23-1.41-.3-.6-.45-1.3-.45-2.08,0-.84.15-1.56.45-2.16.3-.6.71-1.07,1.23-1.39.52-.32,1.11-.48,1.78-.48.58,0,1.08.12,1.49.35.41.24.74.55.99.95.25.4.43.85.52,1.36s.13,1.03.08,1.56h-5.54v-.77h4.71l-.37.24c.02-.32,0-.63-.05-.94s-.15-.6-.28-.87-.33-.48-.58-.64-.57-.24-.96-.24c-.49,0-.9.12-1.23.38-.33.25-.58.58-.74.99-.17.41-.25.85-.25,1.32v.51c0,.53.08,1.01.24,1.43.16.42.41.75.73,1s.74.37,1.23.37.9-.12,1.22-.36c.32-.24.51-.59.58-1.06h1.3c-.08.51-.26.94-.54,1.31-.28.37-.64.65-1.08.84-.44.2-.93.3-1.48.3Z"/>
      <path d="M708.13,399.02c-.62,0-1.19-.17-1.7-.5-.52-.33-.93-.8-1.24-1.41s-.46-1.32-.46-2.14.15-1.52.46-2.12c.3-.6.71-1.06,1.21-1.38.5-.32,1.06-.48,1.66-.48.56,0,1.05.14,1.48.41.42.27.75.66.99,1.18s.35,1.13.35,1.86h-.48c0-.51-.1-.93-.3-1.28-.2-.35-.46-.61-.78-.79s-.66-.27-1.03-.27c-.42,0-.8.12-1.14.35-.34.23-.62.56-.82.99-.21.43-.31.94-.31,1.54s.1,1.13.31,1.57.48.77.82,1.01c.34.24.72.35,1.14.35.35,0,.68-.09,1-.27.32-.18.59-.45.8-.8s.31-.77.31-1.27h.48c0,.74-.12,1.37-.36,1.88-.24.51-.57.91-.98,1.17s-.88.4-1.39.4ZM710.6,398.83l-.21-1.79v-9.12h1.25v10.91h-1.04Z"/>
      <path d="M713.74,398.08c0-.25.09-.47.26-.65.18-.18.4-.27.66-.27s.49.09.68.27c.19.18.28.4.28.65s-.09.46-.28.63c-.19.17-.41.26-.68.26s-.49-.09-.66-.26c-.18-.17-.26-.38-.26-.63Z"/>
    </g>
  </g>
  <g id="Layer_5" data-name="Layer 5">
    <path class="cls-1" d="M790.3,3.22c-2.97-2.99-6.67-3.22-7.74-3.22H10.95C4.91,0,0,4.94,0,11.01v413.24c0,6.07,4.91,11.01,10.95,11.01h771.62c6.04,0,10.95-4.94,10.95-11.01V11.01c0-2.95-1.14-5.71-3.21-7.79ZM532.48,1.04v433.17h-271.45V1.04h271.45ZM1,424.25V11.01C1,5.51,5.46,1.04,10.95,1.04h249.09v433.17H10.95c-5.49,0-9.95-4.47-9.95-9.97ZM792.52,424.25c0,5.5-4.46,9.97-9.95,9.97h-249.09V1.04h249.09c.97,0,4.34.21,7.04,2.93,1.88,1.88,2.91,4.38,2.91,7.04v413.24Z"/>
  </g>
</svg>