<?xml version="1.0" encoding="UTF-8"?>
<svg id="Layer_2" data-name="Layer 2" xmlns="http://www.w3.org/2000/svg" viewBox="0 0 55 55">
  <defs>
    <style>
      .cls-1 {
        fill: #251f3a;
      }
    </style>
  </defs>
  <path class="cls-1" d="M44.37,30.1l-10.32-3.95c-2.84-1.09-5.08-3.4-6.13-6.33l-3.82-10.67c-.22-.61-.78-1.02-1.42-1.02s-1.2.41-1.42,1.02l-3.82,10.67c-1.05,2.94-3.29,5.25-6.13,6.33L.99,30.1c-.59.23-.99.81-.99,1.46s.39,1.24.99,1.46l10.33,3.95c2.84,1.09,5.08,3.4,6.13,6.33l3.82,10.67c.22.61.78,1.02,1.42,1.02s1.2-.41,1.42-1.02l3.82-10.67c1.05-2.94,3.29-5.25,6.13-6.33l10.32-3.95c.59-.23.99-.81.99-1.46s-.39-1.24-.99-1.46Z"/>
  <path class="cls-1" d="M54.01,11.03l-5.16-1.97c-1.21-.46-2.17-1.45-2.62-2.71l-1.91-5.33c-.22-.61-.78-1.02-1.42-1.02s-1.2.41-1.42,1.02l-1.91,5.33c-.45,1.26-1.4,2.24-2.62,2.71l-5.16,1.97c-.59.23-.99.81-.99,1.46s.39,1.24.99,1.46l5.16,1.97c1.22.46,2.17,1.45,2.62,2.71l1.91,5.33c.22.61.78,1.02,1.42,1.02s1.2-.41,1.42-1.02l1.91-5.33c.45-1.26,1.4-2.24,2.62-2.71l5.16-1.97c.59-.23.99-.81.99-1.46s-.39-1.24-.99-1.46Z"/>
</svg>