<?xml version="1.0" encoding="UTF-8"?>
<svg id="Layer_5" xmlns="http://www.w3.org/2000/svg" viewBox="0 0 787.25 393.8">
  <defs>
    <style>
      .cls-1 {
        fill: #edaeae;
      }

      .cls-2 {
        fill: #fff;
      }

      .cls-3 {
        fill: #332525;
      }

      .cls-4 {
        fill: #db3a34;
      }

      .cls-5 {
        fill: #bcadad;
      }

      .cls-6 {
        fill: #aee5e3;
      }

      .cls-7 {
        fill: #a9b8ed;
      }

      .cls-8 {
        fill: #11bab6;
      }

      .cls-9 {
        fill: #3550d8;
      }
    </style>
  </defs>
  <polygon class="cls-9" points="412.38 128.4 226.38 0 226.38 256.8 412.38 128.4"/>
  <polygon class="cls-3" points="37.38 128.4 223.38 256.8 223.38 0 37.38 128.4"/>
  <polygon class="cls-8" points="787.25 128.4 601.25 0 601.25 256.8 787.25 128.4"/>
  <polygon class="cls-4" points="412.25 128.4 598.25 256.8 598.25 0 412.25 128.4"/>
  <path class="cls-5" d="M166.25,193.38c-5.51,0-10-4.49-10-10s4.49-10,10-10,10,4.49,10,10-4.49,10-10,10ZM166.25,176.38c-3.86,0-7,3.14-7,7s3.14,7,7,7,7-3.14,7-7-3.14-7-7-7Z"/>
  <rect class="cls-5" x="77.25" y="183.88" width="3" height="77"/>
  <path class="cls-7" d="M288.25,193.38c-5.51,0-10-4.49-10-10s4.49-10,10-10,10,4.49,10,10-4.49,10-10,10ZM288.25,176.38c-3.86,0-7,3.14-7,7s3.14,7,7,7,7-3.14,7-7-3.14-7-7-7Z"/>
  <rect class="cls-7" x="287.56" y="192.88" width="2.38" height="68"/>
  <g>
    <path d="M.42,288.41c0-.4.14-.75.42-1.03.28-.29.63-.43,1.06-.43s.79.14,1.08.43c.3.29.45.63.45,1.03s-.15.74-.45,1.01c-.3.27-.66.41-1.08.41s-.78-.14-1.06-.41c-.28-.28-.42-.61-.42-1.01Z"/>
    <path d="M22.47,292.27c-.77,0-1.44-.19-2-.58s-.99-.93-1.29-1.62-.46-1.5-.46-2.41c0-.98.16-1.8.49-2.46s.78-1.17,1.34-1.52c.57-.34,1.21-.51,1.91-.51.94,0,1.69.23,2.26.7.57.47.96,1.08,1.18,1.83l-1.18.24c-.18-.55-.47-.98-.87-1.31-.4-.32-.86-.49-1.4-.49-.46,0-.89.13-1.28.4s-.7.66-.94,1.18c-.24.52-.36,1.17-.36,1.94,0,.7.09,1.32.28,1.87s.47.98.85,1.29.86.47,1.44.47c.7,0,1.25-.19,1.66-.56.41-.37.61-.86.61-1.47h1.19c0,.63-.14,1.17-.43,1.62-.29.45-.69.8-1.21,1.04-.52.24-1.12.36-1.81.36Z"/>
    <path d="M30.42,292.27c-.6,0-1.14-.13-1.61-.4-.47-.27-.84-.66-1.11-1.18-.27-.52-.41-1.17-.41-1.93s.14-1.42.41-1.94c.27-.52.64-.91,1.11-1.18.47-.27,1-.4,1.61-.4s1.13.13,1.6.4c.47.27.84.66,1.11,1.18.27.52.4,1.17.4,1.94s-.13,1.41-.4,1.93c-.27.52-.64.92-1.11,1.18-.47.27-1,.4-1.6.4ZM30.39,291.32c.43,0,.8-.1,1.11-.31.3-.21.53-.5.69-.89s.23-.84.23-1.37c0-.8-.17-1.43-.5-1.89-.33-.46-.82-.69-1.48-.69-.44,0-.81.1-1.11.31-.3.21-.53.5-.69.89-.16.39-.23.84-.23,1.38,0,.79.17,1.41.5,1.87.33.46.82.69,1.47.69Z"/>
    <path d="M35.65,292.1v-6.69h.94l.15,1.54v5.15h-1.09ZM40.41,292.1v-3.93c0-.64-.15-1.13-.46-1.46-.31-.33-.72-.5-1.25-.5-.4,0-.75.11-1.04.33s-.52.53-.68.94-.24.9-.24,1.46h-.42c0-.78.1-1.44.31-2,.21-.55.5-.97.9-1.26s.87-.44,1.44-.44c.53,0,.98.12,1.35.35.38.24.66.57.86,1.01.2.44.3.96.3,1.56v3.93h-1.08Z"/>
    <path d="M46.5,292.27c-.65,0-1.19-.09-1.62-.28-.43-.18-.76-.44-.99-.76-.22-.32-.34-.7-.36-1.12h1.05c.02.42.19.74.51.96.32.21.75.32,1.31.32.29,0,.56-.05.8-.14s.44-.22.58-.38c.14-.16.22-.35.22-.55,0-.26-.1-.47-.29-.62-.19-.15-.5-.28-.92-.39l-1.3-.42c-.56-.18-1-.42-1.3-.73-.3-.31-.45-.68-.45-1.12,0-.54.24-.98.71-1.3s1.1-.49,1.88-.49c.82,0,1.46.17,1.91.5s.69.76.71,1.26h-1.08c-.04-.29-.19-.52-.45-.67-.26-.15-.62-.23-1.09-.23s-.81.1-1.06.3-.38.43-.38.68c0,.46.4.8,1.19,1.02l1.33.45c.57.17,1.01.4,1.32.68.31.28.46.64.46,1.07,0,.34-.11.65-.33.95-.22.3-.53.54-.93.73-.4.19-.88.28-1.43.28Z"/>
    <path d="M50.51,286.17v-.76h4.27v.76h-4.27ZM53.51,292.27c-.36,0-.69-.07-.98-.21-.29-.14-.52-.35-.69-.63-.17-.28-.25-.63-.25-1.05v-6.83h1.08v6.8c0,.69.32,1.04.97,1.04.19,0,.38-.02.56-.06s.38-.1.61-.19l.15.78c-.24.1-.48.19-.71.25-.24.07-.48.1-.73.1Z"/>
    <path d="M56.72,292.1v-6.71h1.09v6.71h-1.09ZM57.47,289.08c0-.85.08-1.56.25-2.12.16-.56.4-.98.72-1.26.31-.28.7-.42,1.15-.42.15,0,.29.01.41.03s.25.05.37.09l-.07,1.08c-.13-.04-.27-.08-.43-.11-.15-.03-.29-.05-.41-.05-.4,0-.72.11-.96.34-.24.23-.42.54-.53.96-.11.41-.16.89-.16,1.45h-.34Z"/>
    <path d="M63.64,292.27c-.55,0-1.01-.1-1.36-.29s-.63-.45-.81-.76c-.18-.31-.27-.64-.27-.99,0-.45.11-.82.34-1.11.23-.28.54-.49.93-.63.39-.13.83-.2,1.32-.2.35,0,.7.04,1.05.1.35.07.7.17,1.03.29v.69c-.28-.11-.6-.2-.95-.27-.35-.07-.68-.1-.97-.1-.45,0-.83.09-1.13.28-.31.18-.46.5-.46.94,0,.33.12.61.35.84s.61.35,1.13.35c.36,0,.69-.08.98-.26.29-.17.52-.38.69-.64.17-.26.26-.51.26-.77h.27c0,.45-.1.86-.29,1.25-.19.38-.47.69-.83.92s-.79.35-1.29.35ZM65.92,292.1l-.14-1.47v-2.87c0-.6-.13-1.04-.38-1.3-.26-.26-.64-.4-1.16-.4-.29,0-.55.04-.79.13-.24.08-.42.21-.56.39s-.21.4-.21.68h-1.22c0-.48.12-.88.36-1.17.24-.3.57-.51.98-.64.42-.13.9-.2,1.43-.2s.97.09,1.37.26c.4.17.71.45.93.82.22.38.34.86.34,1.47v4.31h-.95Z"/>
    <path d="M70.1,283.83c-.22,0-.4-.06-.53-.19-.13-.13-.2-.3-.2-.51s.07-.37.2-.49c.13-.12.31-.18.53-.18s.4.06.53.18c.13.12.2.28.2.49s-.07.38-.2.51c-.13.13-.31.19-.53.19ZM69.55,292.1v-6.71h1.09v6.71h-1.09Z"/>
    <path d="M73.66,292.1v-6.69h.94l.15,1.54v5.15h-1.09ZM78.42,292.1v-3.93c0-.64-.15-1.13-.46-1.46-.31-.33-.72-.5-1.25-.5-.4,0-.75.11-1.04.33s-.52.53-.68.94-.24.9-.24,1.46h-.42c0-.78.1-1.44.31-2,.21-.55.5-.97.9-1.26s.87-.44,1.44-.44c.53,0,.98.12,1.35.35.38.24.66.57.86,1.01.2.44.3.96.3,1.56v3.93h-1.08Z"/>
    <path d="M81.17,286.17v-.76h4.27v.76h-4.27ZM84.16,292.27c-.36,0-.69-.07-.98-.21-.29-.14-.52-.35-.69-.63-.17-.28-.25-.63-.25-1.05v-6.83h1.08v6.8c0,.69.32,1.04.97,1.04.19,0,.38-.02.56-.06s.38-.1.61-.19l.15.78c-.24.1-.48.19-.71.25-.24.07-.48.1-.73.1Z"/>
    <path d="M90.69,283.31h1.57l3.02,6.08h-.11l3.02-6.08h1.53v8.79h-1.11v-7.66h.2l-3.22,6.55h-.73l-3.21-6.51h.13v7.62h-1.09v-8.79Z"/>
    <path d="M104.41,292.27c-.55,0-1.01-.1-1.36-.29s-.63-.45-.81-.76c-.18-.31-.27-.64-.27-.99,0-.45.11-.82.34-1.11.23-.28.54-.49.93-.63.39-.13.83-.2,1.32-.2.35,0,.7.04,1.05.1.35.07.7.17,1.03.29v.69c-.28-.11-.6-.2-.95-.27-.35-.07-.68-.1-.97-.1-.45,0-.83.09-1.13.28-.31.18-.46.5-.46.94,0,.33.12.61.35.84s.61.35,1.13.35c.36,0,.69-.08.98-.26.29-.17.52-.38.69-.64.17-.26.26-.51.26-.77h.27c0,.45-.1.86-.29,1.25-.19.38-.47.69-.83.92s-.79.35-1.29.35ZM106.7,292.1l-.14-1.47v-2.87c0-.6-.13-1.04-.38-1.3-.26-.26-.64-.4-1.16-.4-.29,0-.55.04-.79.13-.24.08-.42.21-.56.39s-.21.4-.21.68h-1.22c0-.48.12-.88.36-1.17.24-.3.57-.51.98-.64.42-.13.9-.2,1.43-.2s.97.09,1.37.26c.4.17.71.45.93.82.22.38.34.86.34,1.47v4.31h-.95Z"/>
    <path d="M110.26,295.39v-9.98h.91l.18,1.57v8.41h-1.09ZM113.3,292.27c-.49,0-.92-.11-1.28-.34-.36-.22-.64-.55-.84-.98-.2-.43-.29-.96-.29-1.58h.46c0,.42.09.77.26,1.05.17.28.4.5.68.65s.57.22.89.22c.34,0,.66-.1.97-.29.31-.19.56-.48.76-.86.2-.38.29-.84.29-1.4s-.09-.99-.27-1.37-.42-.67-.72-.87c-.3-.2-.64-.3-1.01-.3-.32,0-.62.08-.9.23-.28.15-.51.38-.68.68-.17.3-.26.66-.26,1.1h-.46c0-.65.11-1.19.32-1.63.21-.44.51-.77.88-1,.37-.22.78-.34,1.24-.34.52,0,1.01.14,1.46.42.45.28.82.68,1.1,1.2.28.52.42,1.15.42,1.88s-.14,1.37-.42,1.9c-.28.53-.65.93-1.11,1.21-.46.28-.95.42-1.48.42Z"/>
    <path d="M118.44,295.39v-9.98h.91l.18,1.57v8.41h-1.09ZM121.48,292.27c-.49,0-.92-.11-1.28-.34-.36-.22-.64-.55-.84-.98-.2-.43-.29-.96-.29-1.58h.46c0,.42.09.77.26,1.05.17.28.4.5.68.65s.57.22.89.22c.34,0,.66-.1.97-.29.31-.19.56-.48.76-.86.2-.38.29-.84.29-1.4s-.09-.99-.27-1.37-.42-.67-.72-.87c-.3-.2-.64-.3-1.01-.3-.32,0-.62.08-.9.23-.28.15-.51.38-.68.68-.17.3-.26.66-.26,1.1h-.46c0-.65.11-1.19.32-1.63.21-.44.51-.77.88-1,.37-.22.78-.34,1.24-.34.52,0,1.01.14,1.46.42.45.28.82.68,1.1,1.2.28.52.42,1.15.42,1.88s-.14,1.37-.42,1.9c-.28.53-.65.93-1.11,1.21-.46.28-.95.42-1.48.42Z"/>
    <path d="M127.24,283.83c-.22,0-.4-.06-.53-.19-.13-.13-.2-.3-.2-.51s.07-.37.2-.49c.13-.12.31-.18.53-.18s.4.06.53.18c.13.12.2.28.2.49s-.07.38-.2.51c-.13.13-.31.19-.53.19ZM126.69,292.1v-6.71h1.09v6.71h-1.09Z"/>
    <path d="M130.8,292.1v-6.69h.94l.15,1.54v5.15h-1.09ZM135.56,292.1v-3.93c0-.64-.15-1.13-.46-1.46-.31-.33-.72-.5-1.25-.5-.4,0-.75.11-1.04.33s-.52.53-.68.94-.24.9-.24,1.46h-.42c0-.78.1-1.44.31-2,.21-.55.5-.97.9-1.26s.87-.44,1.44-.44c.53,0,.98.12,1.35.35.38.24.66.57.86,1.01.2.44.3.96.3,1.56v3.93h-1.08Z"/>
    <path d="M141.61,295.55c-.69,0-1.28-.1-1.78-.29-.5-.19-.9-.45-1.17-.78-.28-.32-.42-.68-.42-1.07,0-.52.19-.91.57-1.19.38-.27.87-.41,1.47-.41l.6.38c-.5,0-.89.1-1.17.31s-.41.5-.41.86.2.67.59.92.97.38,1.72.38c.56,0,1.05-.08,1.47-.24.42-.16.75-.37.99-.63.24-.26.35-.54.35-.84,0-.21-.08-.39-.23-.54-.15-.15-.39-.23-.71-.23h-2.6c-.45,0-.84-.07-1.17-.21s-.58-.32-.76-.54c-.18-.22-.27-.47-.27-.73,0-.28.08-.52.24-.71.16-.2.37-.35.62-.45s.53-.15.82-.15l.21.41c-.14,0-.28.03-.42.09-.14.06-.26.16-.36.28s-.14.28-.14.47c0,.21.09.39.27.54.18.15.5.22.97.22h2.6c.63,0,1.13.13,1.49.4.36.27.54.64.54,1.11,0,.44-.16.86-.47,1.26-.31.4-.76.73-1.34.99-.58.26-1.28.39-2.09.39ZM141.81,290.14c-.51,0-.98-.1-1.39-.31-.41-.21-.74-.49-.98-.86s-.36-.8-.36-1.28.12-.92.36-1.29c.24-.37.57-.65.98-.86.41-.2.88-.3,1.39-.3s.95.1,1.36.3c.41.2.73.49.98.86.24.37.36.8.36,1.29s-.12.91-.36,1.28-.57.66-.98.86c-.41.21-.86.31-1.36.31ZM141.81,289.36c.51,0,.91-.16,1.2-.48.28-.32.43-.71.43-1.19s-.14-.89-.43-1.19-.68-.46-1.2-.46-.91.15-1.2.46-.44.7-.44,1.19.15.87.44,1.19c.29.32.69.48,1.2.48ZM144,286.31l-.52-.21c0-.39.08-.74.23-1.03.15-.3.37-.53.66-.69s.62-.25,1.02-.25l-.08,1.08c-.42,0-.74.09-.97.27-.22.18-.34.46-.34.84Z"/>
    <path d="M.42,305.21c0-.4.14-.75.42-1.03.28-.29.63-.43,1.06-.43s.79.14,1.08.43c.3.29.45.63.45,1.03s-.15.74-.45,1.01c-.3.27-.66.41-1.08.41s-.78-.14-1.06-.41c-.28-.28-.42-.61-.42-1.01Z"/>
    <path d="M19.41,300.11h1.11v8.79h-1.11v-8.79ZM24.47,300.11h1.51l-5.61,5.78v-1.54l4.1-4.24ZM21.95,303.82l4.27,5.08h-1.43l-3.63-4.37.78-.71Z"/>
    <path d="M26.7,300.11h1.23l2.28,7.83h-.32l2.34-6.92h.74l2.31,6.86h-.31l2.62-7.77h1.22l-3.11,8.79h-1.15l-2.03-5.96h.21l-2.1,5.96h-1.15l-2.79-8.79Z"/>
    <path d="M40.44,300.11h1.09v3.88h4.35v-3.88h1.08v8.79h-1.08v-3.98h-4.35v3.98h-1.09v-8.79Z"/>
    <path d="M50.89,300.11v7.84h3.92v.95h-5.01v-8.79h1.09Z"/>
    <path d="M62.02,309.07c-.54,0-1.04-.14-1.5-.43-.46-.29-.84-.7-1.12-1.23-.28-.53-.43-1.15-.43-1.87s.14-1.37.43-1.89.66-.92,1.12-1.2.96-.41,1.5-.41c.38,0,.72.06,1.02.17.3.11.56.27.79.47.22.2.41.43.56.68.15.25.26.52.33.8l-1.12.1c-.12-.39-.31-.69-.58-.92-.27-.23-.61-.34-1-.34-.33,0-.64.09-.93.28s-.53.47-.71.85c-.18.38-.27.84-.27,1.4,0,.52.08.97.25,1.35.17.38.39.68.68.89.29.21.62.31.99.31.52,0,.91-.13,1.18-.38.27-.25.4-.61.4-1.06h1.12c0,.47-.11.88-.33,1.25-.22.36-.53.65-.93.86s-.88.31-1.42.31Z"/>
    <path d="M66.89,308.9v-9.55h1.09v9.55h-1.09ZM71.65,308.9v-3.93c0-.64-.15-1.13-.46-1.46-.31-.33-.72-.5-1.25-.5-.4,0-.75.11-1.04.33s-.52.53-.68.94-.24.9-.24,1.46h-.42c0-.78.1-1.44.31-2,.21-.55.5-.97.9-1.26s.87-.44,1.44-.44c.53,0,.98.12,1.35.35.38.24.66.57.86,1.01.2.44.3.96.3,1.56v3.93h-1.08Z"/>
    <path d="M77.2,309.07c-.55,0-1.01-.1-1.36-.29s-.63-.45-.81-.76c-.18-.31-.27-.64-.27-.99,0-.45.11-.82.34-1.11.23-.28.54-.49.93-.63.39-.13.83-.2,1.32-.2.35,0,.7.04,1.05.1.35.07.7.17,1.03.29v.69c-.28-.11-.6-.2-.95-.27-.35-.07-.68-.1-.97-.1-.45,0-.83.09-1.13.28-.31.18-.46.5-.46.94,0,.33.12.61.35.84s.61.35,1.13.35c.36,0,.69-.08.98-.26.29-.17.52-.38.69-.64.17-.26.26-.51.26-.77h.27c0,.45-.1.86-.29,1.25-.19.38-.47.69-.83.92s-.79.35-1.29.35ZM79.48,308.9l-.14-1.47v-2.87c0-.6-.13-1.04-.38-1.3-.26-.26-.64-.4-1.16-.4-.29,0-.55.04-.79.13-.24.08-.42.21-.56.39s-.21.4-.21.68h-1.22c0-.48.12-.88.36-1.17.24-.3.57-.51.98-.64.42-.13.9-.2,1.43-.2s.97.09,1.37.26c.4.17.71.45.93.82.22.38.34.86.34,1.47v4.31h-.95Z"/>
    <path d="M83.04,308.9v-6.71h1.09v6.71h-1.09ZM83.8,305.88c0-.85.08-1.56.25-2.12.16-.56.4-.98.72-1.26.31-.28.7-.42,1.15-.42.15,0,.29.01.41.03s.25.05.37.09l-.07,1.08c-.13-.04-.27-.08-.43-.11-.15-.03-.29-.05-.41-.05-.4,0-.72.11-.96.34-.24.23-.42.54-.53.96-.11.41-.16.89-.16,1.45h-.34Z"/>
    <path d="M87.17,302.97v-.76h4.27v.76h-4.27ZM90.16,309.07c-.36,0-.69-.07-.98-.21-.29-.14-.52-.35-.69-.63-.17-.28-.25-.63-.25-1.05v-6.83h1.08v6.8c0,.69.32,1.04.97,1.04.19,0,.38-.02.56-.06s.38-.1.61-.19l.15.78c-.24.1-.48.19-.71.25-.24.07-.48.1-.73.1Z"/>
    <path d="M.42,322.01c0-.4.14-.75.42-1.03.28-.29.63-.43,1.06-.43s.79.14,1.08.43c.3.29.45.63.45,1.03s-.15.74-.45,1.01c-.3.27-.66.41-1.08.41s-.78-.14-1.06-.41c-.28-.28-.42-.61-.42-1.01Z"/>
    <path d="M22.23,325.87c-.59,0-1.13-.11-1.62-.32-.49-.21-.88-.53-1.18-.94-.3-.42-.45-.93-.46-1.54h1.06c0,.41.1.75.3,1.01s.47.46.8.59c.33.13.69.19,1.08.19.42,0,.79-.07,1.11-.2.31-.14.55-.31.72-.54s.26-.47.26-.73c0-.37-.11-.68-.34-.91s-.57-.42-1.02-.56l-1.55-.55c-.73-.26-1.28-.56-1.65-.9-.37-.34-.56-.81-.56-1.41,0-.68.26-1.24.79-1.67.52-.43,1.27-.64,2.24-.64.9,0,1.6.21,2.1.62.5.41.79.97.87,1.66h-1.08c-.07-.41-.26-.72-.57-.95-.31-.23-.75-.34-1.32-.34s-1.03.13-1.35.39c-.32.26-.48.58-.48.97,0,.32.1.58.3.77s.52.36.96.51l1.82.63c.63.21,1.13.5,1.49.88s.55.87.55,1.47c0,.47-.12.89-.37,1.27-.25.38-.62.68-1.1.9s-1.08.34-1.79.34Z"/>
    <path d="M30.2,325.87c-.58,0-1.1-.15-1.55-.44s-.81-.71-1.08-1.24c-.26-.53-.4-1.13-.4-1.82,0-.73.13-1.36.39-1.89s.62-.93,1.07-1.21.97-.42,1.56-.42c.51,0,.94.1,1.3.31.36.21.65.48.87.83.22.35.37.75.46,1.19.09.44.11.9.07,1.37h-4.84v-.67h4.12l-.32.21c.01-.28,0-.55-.05-.83s-.13-.53-.25-.76c-.12-.23-.29-.42-.51-.56-.22-.14-.5-.21-.84-.21-.43,0-.79.11-1.08.33-.29.22-.51.51-.65.86s-.22.74-.22,1.16v.45c0,.47.07.88.21,1.25.14.37.36.66.64.88.28.21.64.32,1.08.32s.79-.1,1.07-.31c.28-.21.45-.52.51-.93h1.13c-.07.44-.23.83-.48,1.14-.25.32-.56.57-.94.74-.38.17-.81.26-1.3.26Z"/>
    <path d="M37.42,325.87c-.54,0-1.04-.14-1.5-.43-.46-.29-.84-.7-1.12-1.23-.28-.53-.43-1.15-.43-1.87s.14-1.37.43-1.89.66-.92,1.12-1.2.96-.41,1.5-.41c.38,0,.72.06,1.02.17.3.11.56.27.79.47.22.2.41.43.56.68.15.25.26.52.33.8l-1.12.1c-.12-.39-.31-.69-.58-.92-.27-.23-.61-.34-1-.34-.33,0-.64.09-.93.28s-.53.47-.71.85c-.18.38-.27.84-.27,1.4,0,.52.08.97.25,1.35.17.38.39.68.68.89.29.21.62.31.99.31.52,0,.91-.13,1.18-.38.27-.25.4-.61.4-1.06h1.12c0,.47-.11.88-.33,1.25-.22.36-.53.65-.93.86s-.88.31-1.42.31Z"/>
    <path d="M44.71,325.87c-.6,0-1.14-.13-1.61-.4-.47-.27-.84-.66-1.11-1.18-.27-.52-.41-1.17-.41-1.93s.14-1.42.41-1.94c.27-.52.64-.91,1.11-1.18.47-.27,1-.4,1.61-.4s1.13.13,1.6.4c.47.27.84.66,1.11,1.18.27.52.4,1.17.4,1.94s-.13,1.41-.4,1.93c-.27.52-.64.92-1.11,1.18-.47.27-1,.4-1.6.4ZM44.68,324.92c.43,0,.8-.1,1.11-.31.3-.21.53-.5.69-.89s.23-.84.23-1.37c0-.8-.17-1.43-.5-1.89-.33-.46-.82-.69-1.48-.69-.44,0-.81.1-1.11.31-.3.21-.53.5-.69.89-.16.39-.23.84-.23,1.38,0,.79.17,1.41.5,1.87.33.46.82.69,1.47.69Z"/>
    <path d="M49.94,325.7v-6.69h.94l.15,1.54v5.15h-1.09ZM54.7,325.7v-3.93c0-.64-.15-1.13-.46-1.46-.31-.33-.72-.5-1.25-.5-.4,0-.75.11-1.04.33s-.52.53-.68.94-.24.9-.24,1.46h-.42c0-.78.1-1.44.31-2,.21-.55.5-.97.9-1.26s.87-.44,1.44-.44c.53,0,.98.12,1.35.35.38.24.66.57.86,1.01.2.44.3.96.3,1.56v3.93h-1.08Z"/>
    <path d="M60.78,325.87c-.54,0-1.04-.15-1.49-.44s-.81-.7-1.08-1.23-.41-1.15-.41-1.87.13-1.33.4-1.85c.27-.52.62-.93,1.06-1.21s.92-.42,1.45-.42c.49,0,.92.12,1.29.36.37.24.66.58.86,1.03.21.45.31.99.31,1.62h-.42c0-.44-.09-.82-.26-1.12-.17-.3-.4-.53-.68-.69-.28-.16-.58-.23-.9-.23-.36,0-.7.1-1,.3-.3.2-.54.49-.72.87-.18.38-.27.83-.27,1.35s.09.99.27,1.37.42.68.72.88c.3.21.63.31,1,.31.3,0,.6-.08.88-.24s.51-.39.7-.7c.18-.31.27-.68.27-1.11h.42c0,.65-.11,1.2-.32,1.65s-.5.79-.86,1.03-.77.35-1.21.35ZM62.94,325.7l-.18-1.57v-7.98h1.09v9.55h-.91Z"/>
    <path d="M68.55,325.87c-.55,0-1.01-.1-1.36-.29s-.63-.45-.81-.76c-.18-.31-.27-.64-.27-.99,0-.45.11-.82.34-1.11.23-.28.54-.49.93-.63.39-.13.83-.2,1.32-.2.35,0,.7.04,1.05.1.35.07.7.17,1.03.29v.69c-.28-.11-.6-.2-.95-.27-.35-.07-.68-.1-.97-.1-.45,0-.83.09-1.13.28-.31.18-.46.5-.46.94,0,.33.12.61.35.84s.61.35,1.13.35c.36,0,.69-.08.98-.26.29-.17.52-.38.69-.64.17-.26.26-.51.26-.77h.27c0,.45-.1.86-.29,1.25-.19.38-.47.69-.83.92s-.79.35-1.29.35ZM70.83,325.7l-.14-1.47v-2.87c0-.6-.13-1.04-.38-1.3-.26-.26-.64-.4-1.16-.4-.29,0-.55.04-.79.13-.24.08-.42.21-.56.39s-.21.4-.21.68h-1.22c0-.48.12-.88.36-1.17.24-.3.57-.51.98-.64.42-.13.9-.2,1.43-.2s.97.09,1.37.26c.4.17.71.45.93.82.22.38.34.86.34,1.47v4.31h-.95Z"/>
    <path d="M74.39,325.7v-6.71h1.09v6.71h-1.09ZM75.15,322.68c0-.85.08-1.56.25-2.12.16-.56.4-.98.72-1.26.31-.28.7-.42,1.15-.42.15,0,.29.01.41.03s.25.05.37.09l-.07,1.08c-.13-.04-.27-.08-.43-.11-.15-.03-.29-.05-.41-.05-.4,0-.72.11-.96.34-.24.23-.42.54-.53.96-.11.41-.16.89-.16,1.45h-.34Z"/>
    <path d="M78.35,319.01h1.22l2.18,5.74h-.25l1.69-5.74h1.12l-2.52,8.04c-.21.67-.49,1.19-.84,1.55-.35.36-.8.55-1.34.55-.29,0-.57-.04-.84-.13s-.54-.21-.82-.36v-1.01c.25.2.49.34.72.42s.47.13.72.13c.28,0,.51-.09.7-.27s.35-.4.47-.68.23-.57.32-.87l.2-.67-2.74-6.69Z"/>
    <path d="M89.29,325.7v-6.71h1.09v6.71h-1.09ZM90.05,322.68c0-.85.08-1.56.25-2.12.16-.56.4-.98.72-1.26.31-.28.7-.42,1.15-.42.15,0,.29.01.41.03s.25.05.37.09l-.07,1.08c-.13-.04-.27-.08-.43-.11-.15-.03-.29-.05-.41-.05-.4,0-.72.11-.96.34-.24.23-.42.54-.53.96-.11.41-.16.89-.16,1.45h-.34Z"/>
    <path d="M96.68,325.87c-.58,0-1.1-.15-1.55-.44s-.81-.71-1.08-1.24c-.26-.53-.4-1.13-.4-1.82,0-.73.13-1.36.39-1.89s.62-.93,1.07-1.21.97-.42,1.56-.42c.51,0,.94.1,1.3.31.36.21.65.48.87.83.22.35.37.75.46,1.19.09.44.11.9.07,1.37h-4.84v-.67h4.12l-.32.21c.01-.28,0-.55-.05-.83s-.13-.53-.25-.76c-.12-.23-.29-.42-.51-.56-.22-.14-.5-.21-.84-.21-.43,0-.79.11-1.08.33-.29.22-.51.51-.65.86s-.22.74-.22,1.16v.45c0,.47.07.88.21,1.25.14.37.36.66.64.88.28.21.64.32,1.08.32s.79-.1,1.07-.31c.28-.21.45-.52.51-.93h1.13c-.07.44-.23.83-.48,1.14-.25.32-.56.57-.94.74-.38.17-.81.26-1.3.26Z"/>
    <path d="M103.95,325.87c-.65,0-1.19-.09-1.62-.28-.43-.18-.76-.44-.99-.76-.22-.32-.34-.7-.36-1.12h1.05c.02.42.19.74.51.96.32.21.75.32,1.31.32.29,0,.56-.05.8-.14s.44-.22.58-.38c.14-.16.22-.35.22-.55,0-.26-.1-.47-.29-.62-.19-.15-.5-.28-.92-.39l-1.3-.42c-.56-.18-1-.42-1.3-.73-.3-.31-.45-.68-.45-1.12,0-.54.24-.98.71-1.3s1.1-.49,1.88-.49c.82,0,1.46.17,1.91.5s.69.76.71,1.26h-1.08c-.04-.29-.19-.52-.45-.67-.26-.15-.62-.23-1.09-.23s-.81.1-1.06.3-.38.43-.38.68c0,.46.4.8,1.19,1.02l1.33.45c.57.17,1.01.4,1.32.68.31.28.46.64.46,1.07,0,.34-.11.65-.33.95-.22.3-.53.54-.93.73-.4.19-.88.28-1.43.28Z"/>
    <path d="M111.23,325.87c-.58,0-1.1-.15-1.55-.44s-.81-.71-1.08-1.24c-.26-.53-.4-1.13-.4-1.82,0-.73.13-1.36.39-1.89s.62-.93,1.07-1.21.97-.42,1.56-.42c.51,0,.94.1,1.3.31.36.21.65.48.87.83.22.35.37.75.46,1.19.09.44.11.9.07,1.37h-4.84v-.67h4.12l-.32.21c.01-.28,0-.55-.05-.83s-.13-.53-.25-.76c-.12-.23-.29-.42-.51-.56-.22-.14-.5-.21-.84-.21-.43,0-.79.11-1.08.33-.29.22-.51.51-.65.86s-.22.74-.22,1.16v.45c0,.47.07.88.21,1.25.14.37.36.66.64.88.28.21.64.32,1.08.32s.79-.1,1.07-.31c.28-.21.45-.52.51-.93h1.13c-.07.44-.23.83-.48,1.14-.25.32-.56.57-.94.74-.38.17-.81.26-1.3.26Z"/>
    <path d="M117.95,325.87c-.55,0-1.01-.1-1.36-.29s-.63-.45-.81-.76c-.18-.31-.27-.64-.27-.99,0-.45.11-.82.34-1.11.23-.28.54-.49.93-.63.39-.13.83-.2,1.32-.2.35,0,.7.04,1.05.1.35.07.7.17,1.03.29v.69c-.28-.11-.6-.2-.95-.27-.35-.07-.68-.1-.97-.1-.45,0-.83.09-1.13.28-.31.18-.46.5-.46.94,0,.33.12.61.35.84s.61.35,1.13.35c.36,0,.69-.08.98-.26.29-.17.52-.38.69-.64.17-.26.26-.51.26-.77h.27c0,.45-.1.86-.29,1.25-.19.38-.47.69-.83.92s-.79.35-1.29.35ZM120.23,325.7l-.14-1.47v-2.87c0-.6-.13-1.04-.38-1.3-.26-.26-.64-.4-1.16-.4-.29,0-.55.04-.79.13-.24.08-.42.21-.56.39s-.21.4-.21.68h-1.22c0-.48.12-.88.36-1.17.24-.3.57-.51.98-.64.42-.13.9-.2,1.43-.2s.97.09,1.37.26c.4.17.71.45.93.82.22.38.34.86.34,1.47v4.31h-.95Z"/>
    <path d="M123.8,325.7v-6.71h1.09v6.71h-1.09ZM124.55,322.68c0-.85.08-1.56.25-2.12.16-.56.4-.98.72-1.26.31-.28.7-.42,1.15-.42.15,0,.29.01.41.03s.25.05.37.09l-.07,1.08c-.13-.04-.27-.08-.43-.11-.15-.03-.29-.05-.41-.05-.4,0-.72.11-.96.34-.24.23-.42.54-.53.96-.11.41-.16.89-.16,1.45h-.34Z"/>
    <path d="M131.21,325.87c-.54,0-1.04-.14-1.5-.43-.46-.29-.84-.7-1.12-1.23-.28-.53-.43-1.15-.43-1.87s.14-1.37.43-1.89.66-.92,1.12-1.2.96-.41,1.5-.41c.38,0,.72.06,1.02.17.3.11.56.27.79.47.22.2.41.43.56.68.15.25.26.52.33.8l-1.12.1c-.12-.39-.31-.69-.58-.92-.27-.23-.61-.34-1-.34-.33,0-.64.09-.93.28s-.53.47-.71.85c-.18.38-.27.84-.27,1.4,0,.52.08.97.25,1.35.17.38.39.68.68.89.29.21.62.31.99.31.52,0,.91-.13,1.18-.38.27-.25.4-.61.4-1.06h1.12c0,.47-.11.88-.33,1.25-.22.36-.53.65-.93.86s-.88.31-1.42.31Z"/>
    <path d="M136.08,325.7v-9.55h1.09v9.55h-1.09ZM140.84,325.7v-3.93c0-.64-.15-1.13-.46-1.46-.31-.33-.72-.5-1.25-.5-.4,0-.75.11-1.04.33s-.52.53-.68.94-.24.9-.24,1.46h-.42c0-.78.1-1.44.31-2,.21-.55.5-.97.9-1.26s.87-.44,1.44-.44c.53,0,.98.12,1.35.35.38.24.66.57.86,1.01.2.44.3.96.3,1.56v3.93h-1.08Z"/>
    <path d="M.42,338.81c0-.4.14-.75.42-1.03.28-.29.63-.43,1.06-.43s.79.14,1.08.43c.3.29.45.63.45,1.03s-.15.74-.45,1.01c-.3.27-.66.41-1.08.41s-.78-.14-1.06-.41c-.28-.28-.42-.61-.42-1.01Z"/>
    <path d="M19.22,333.71h1.09v5.61c0,.83.21,1.42.62,1.79.42.37.96.55,1.63.55s1.21-.18,1.62-.55c.41-.37.62-.96.62-1.79v-5.61h1.09v5.61c0,.74-.14,1.35-.41,1.85s-.66.87-1.16,1.12c-.5.25-1.09.37-1.76.37s-1.27-.12-1.77-.37-.89-.62-1.17-1.12-.41-1.11-.41-1.85v-5.61Z"/>
    <path d="M30.96,342.67c-.65,0-1.19-.09-1.62-.28-.43-.18-.76-.44-.99-.76-.22-.32-.34-.7-.36-1.12h1.05c.02.42.19.74.51.96.32.21.75.32,1.31.32.29,0,.56-.05.8-.14s.44-.22.58-.38c.14-.16.22-.35.22-.55,0-.26-.1-.47-.29-.62-.19-.15-.5-.28-.92-.39l-1.3-.42c-.56-.18-1-.42-1.3-.73-.3-.31-.45-.68-.45-1.12,0-.54.24-.98.71-1.3s1.1-.49,1.88-.49c.82,0,1.46.17,1.91.5s.69.76.71,1.26h-1.08c-.04-.29-.19-.52-.45-.67-.26-.15-.62-.23-1.09-.23s-.81.1-1.06.3-.38.43-.38.68c0,.46.4.8,1.19,1.02l1.33.45c.57.17,1.01.4,1.32.68.31.28.46.64.46,1.07,0,.34-.11.65-.33.95-.22.3-.53.54-.93.73-.4.19-.88.28-1.43.28Z"/>
    <path d="M38.24,342.67c-.58,0-1.1-.15-1.55-.44s-.81-.71-1.08-1.24c-.26-.53-.4-1.13-.4-1.82,0-.73.13-1.36.39-1.89s.62-.93,1.07-1.21.97-.42,1.56-.42c.51,0,.94.1,1.3.31.36.21.65.48.87.83.22.35.37.75.46,1.19.09.44.11.9.07,1.37h-4.84v-.67h4.12l-.32.21c.01-.28,0-.55-.05-.83s-.13-.53-.25-.76c-.12-.23-.29-.42-.51-.56-.22-.14-.5-.21-.84-.21-.43,0-.79.11-1.08.33-.29.22-.51.51-.65.86s-.22.74-.22,1.16v.45c0,.47.07.88.21,1.25.14.37.36.66.64.88.28.21.64.32,1.08.32s.79-.1,1.07-.31c.28-.21.45-.52.51-.93h1.13c-.07.44-.23.83-.48,1.14-.25.32-.56.57-.94.74-.38.17-.81.26-1.3.26Z"/>
    <path d="M43.1,342.5v-6.71h1.09v6.71h-1.09ZM43.86,339.48c0-.85.08-1.56.25-2.12.16-.56.4-.98.72-1.26.31-.28.7-.42,1.15-.42.15,0,.29.01.41.03s.25.05.37.09l-.07,1.08c-.13-.04-.27-.08-.43-.11-.15-.03-.29-.05-.41-.05-.4,0-.72.11-.96.34-.24.23-.42.54-.53.96-.11.41-.16.89-.16,1.45h-.34Z"/>
    <path d="M52.1,334.23c-.22,0-.4-.06-.53-.19-.13-.13-.2-.3-.2-.51s.07-.37.2-.49c.13-.12.31-.18.53-.18s.4.06.53.18c.13.12.2.28.2.49s-.07.38-.2.51c-.13.13-.31.19-.53.19ZM51.56,342.5v-6.71h1.09v6.71h-1.09Z"/>
    <path d="M55.66,342.5v-6.69h.94l.15,1.54v5.15h-1.09ZM60.42,342.5v-3.93c0-.64-.15-1.13-.46-1.46-.31-.33-.72-.5-1.25-.5-.4,0-.75.11-1.04.33s-.52.53-.68.94-.24.9-.24,1.46h-.42c0-.78.1-1.44.31-2,.21-.55.5-.97.9-1.26s.87-.44,1.44-.44c.53,0,.98.12,1.35.35.38.24.66.57.86,1.01.2.44.3.96.3,1.56v3.93h-1.08Z"/>
    <path d="M63.17,336.57v-.76h4.27v.76h-4.27ZM66.17,342.67c-.36,0-.69-.07-.98-.21-.29-.14-.52-.35-.69-.63-.17-.28-.25-.63-.25-1.05v-6.83h1.08v6.8c0,.69.32,1.04.97,1.04.19,0,.38-.02.56-.06s.38-.1.61-.19l.15.78c-.24.1-.48.19-.71.25-.24.07-.48.1-.73.1Z"/>
    <path d="M71.7,342.67c-.58,0-1.1-.15-1.55-.44s-.81-.71-1.08-1.24c-.26-.53-.4-1.13-.4-1.82,0-.73.13-1.36.39-1.89s.62-.93,1.07-1.21.97-.42,1.56-.42c.51,0,.94.1,1.3.31.36.21.65.48.87.83.22.35.37.75.46,1.19.09.44.11.9.07,1.37h-4.84v-.67h4.12l-.32.21c.01-.28,0-.55-.05-.83s-.13-.53-.25-.76c-.12-.23-.29-.42-.51-.56-.22-.14-.5-.21-.84-.21-.43,0-.79.11-1.08.33-.29.22-.51.51-.65.86s-.22.74-.22,1.16v.45c0,.47.07.88.21,1.25.14.37.36.66.64.88.28.21.64.32,1.08.32s.79-.1,1.07-.31c.28-.21.45-.52.51-.93h1.13c-.07.44-.23.83-.48,1.14-.25.32-.56.57-.94.74-.38.17-.81.26-1.3.26Z"/>
    <path d="M76.56,342.5v-6.71h1.09v6.71h-1.09ZM77.32,339.48c0-.85.08-1.56.25-2.12.16-.56.4-.98.72-1.26.31-.28.7-.42,1.15-.42.15,0,.29.01.41.03s.25.05.37.09l-.07,1.08c-.13-.04-.27-.08-.43-.11-.15-.03-.29-.05-.41-.05-.4,0-.72.11-.96.34-.24.23-.42.54-.53.96-.11.41-.16.89-.16,1.45h-.34Z"/>
    <path d="M80.46,335.81h1.25l2.1,5.75h-.15l2.1-5.75h1.25l-2.67,6.69h-1.19l-2.67-6.69Z"/>
    <path d="M89.27,334.23c-.22,0-.4-.06-.53-.19-.13-.13-.2-.3-.2-.51s.07-.37.2-.49c.13-.12.31-.18.53-.18s.4.06.53.18c.13.12.2.28.2.49s-.07.38-.2.51c-.13.13-.31.19-.53.19ZM88.73,342.5v-6.71h1.09v6.71h-1.09Z"/>
    <path d="M95.15,342.67c-.58,0-1.1-.15-1.55-.44s-.81-.71-1.08-1.24c-.26-.53-.4-1.13-.4-1.82,0-.73.13-1.36.39-1.89s.62-.93,1.07-1.21.97-.42,1.56-.42c.51,0,.94.1,1.3.31.36.21.65.48.87.83.22.35.37.75.46,1.19.09.44.11.9.07,1.37h-4.84v-.67h4.12l-.32.21c.01-.28,0-.55-.05-.83s-.13-.53-.25-.76c-.12-.23-.29-.42-.51-.56-.22-.14-.5-.21-.84-.21-.43,0-.79.11-1.08.33-.29.22-.51.51-.65.86s-.22.74-.22,1.16v.45c0,.47.07.88.21,1.25.14.37.36.66.64.88.28.21.64.32,1.08.32s.79-.1,1.07-.31c.28-.21.45-.52.51-.93h1.13c-.07.44-.23.83-.48,1.14-.25.32-.56.57-.94.74-.38.17-.81.26-1.3.26Z"/>
    <path d="M98.86,335.81h1.13l1.71,5.59h-.14l1.67-5.26h.91l1.65,5.28h-.13l1.71-5.6h1.09l-2.2,6.69h-1.06l-1.62-4.94h.17l-1.61,4.94h-1.06l-2.21-6.69Z"/>
    <path d="M112.57,342.67c-.65,0-1.19-.09-1.62-.28-.43-.18-.76-.44-.99-.76-.22-.32-.34-.7-.36-1.12h1.05c.02.42.19.74.51.96.32.21.75.32,1.31.32.29,0,.56-.05.8-.14s.44-.22.58-.38c.14-.16.22-.35.22-.55,0-.26-.1-.47-.29-.62-.19-.15-.5-.28-.92-.39l-1.3-.42c-.56-.18-1-.42-1.3-.73-.3-.31-.45-.68-.45-1.12,0-.54.24-.98.71-1.3s1.1-.49,1.88-.49c.82,0,1.46.17,1.91.5s.69.76.71,1.26h-1.08c-.04-.29-.19-.52-.45-.67-.26-.15-.62-.23-1.09-.23s-.81.1-1.06.3-.38.43-.38.68c0,.46.4.8,1.19,1.02l1.33.45c.57.17,1.01.4,1.32.68.31.28.46.64.46,1.07,0,.34-.11.65-.33.95-.22.3-.53.54-.93.73-.4.19-.88.28-1.43.28Z"/>
    <path d="M.42,355.61c0-.4.14-.75.42-1.03.28-.29.63-.43,1.06-.43s.79.14,1.08.43c.3.29.45.63.45,1.03s-.15.74-.45,1.01c-.3.27-.66.41-1.08.41s-.78-.14-1.06-.41c-.28-.28-.42-.61-.42-1.01Z"/>
    <path d="M19.22,350.51h1.09v5.61c0,.83.21,1.42.62,1.79.42.37.96.55,1.63.55s1.21-.18,1.62-.55c.41-.37.62-.96.62-1.79v-5.61h1.09v5.61c0,.74-.14,1.35-.41,1.85s-.66.87-1.16,1.12c-.5.25-1.09.37-1.76.37s-1.27-.12-1.77-.37-.89-.62-1.17-1.12-.41-1.11-.41-1.85v-5.61Z"/>
    <path d="M30.96,359.47c-.65,0-1.19-.09-1.62-.28-.43-.18-.76-.44-.99-.76-.22-.32-.34-.7-.36-1.12h1.05c.02.42.19.74.51.96.32.21.75.32,1.31.32.29,0,.56-.05.8-.14s.44-.22.58-.38c.14-.16.22-.35.22-.55,0-.26-.1-.47-.29-.62-.19-.15-.5-.28-.92-.39l-1.3-.42c-.56-.18-1-.42-1.3-.73-.3-.31-.45-.68-.45-1.12,0-.54.24-.98.71-1.3s1.1-.49,1.88-.49c.82,0,1.46.17,1.91.5s.69.76.71,1.26h-1.08c-.04-.29-.19-.52-.45-.67-.26-.15-.62-.23-1.09-.23s-.81.1-1.06.3-.38.43-.38.68c0,.46.4.8,1.19,1.02l1.33.45c.57.17,1.01.4,1.32.68.31.28.46.64.46,1.07,0,.34-.11.65-.33.95-.22.3-.53.54-.93.73-.4.19-.88.28-1.43.28Z"/>
    <path d="M38.24,359.47c-.58,0-1.1-.15-1.55-.44s-.81-.71-1.08-1.24c-.26-.53-.4-1.13-.4-1.82,0-.73.13-1.36.39-1.89s.62-.93,1.07-1.21.97-.42,1.56-.42c.51,0,.94.1,1.3.31.36.21.65.48.87.83.22.35.37.75.46,1.19.09.44.11.9.07,1.37h-4.84v-.67h4.12l-.32.21c.01-.28,0-.55-.05-.83s-.13-.53-.25-.76c-.12-.23-.29-.42-.51-.56-.22-.14-.5-.21-.84-.21-.43,0-.79.11-1.08.33-.29.22-.51.51-.65.86s-.22.74-.22,1.16v.45c0,.47.07.88.21,1.25.14.37.36.66.64.88.28.21.64.32,1.08.32s.79-.1,1.07-.31c.28-.21.45-.52.51-.93h1.13c-.07.44-.23.83-.48,1.14-.25.32-.56.57-.94.74-.38.17-.81.26-1.3.26Z"/>
    <path d="M43.1,359.3v-6.71h1.09v6.71h-1.09ZM43.86,356.28c0-.85.08-1.56.25-2.12.16-.56.4-.98.72-1.26.31-.28.7-.42,1.15-.42.15,0,.29.01.41.03s.25.05.37.09l-.07,1.08c-.13-.04-.27-.08-.43-.11-.15-.03-.29-.05-.41-.05-.4,0-.72.11-.96.34-.24.23-.42.54-.53.96-.11.41-.16.89-.16,1.45h-.34Z"/>
    <path d="M53.91,359.47c-.6,0-1.14-.13-1.61-.4-.47-.27-.84-.66-1.11-1.18-.27-.52-.41-1.17-.41-1.93s.14-1.42.41-1.94c.27-.52.64-.91,1.11-1.18.47-.27,1-.4,1.61-.4s1.13.13,1.6.4c.47.27.84.66,1.11,1.18.27.52.4,1.17.4,1.94s-.13,1.41-.4,1.93c-.27.52-.64.92-1.11,1.18-.47.27-1,.4-1.6.4ZM53.88,358.52c.43,0,.8-.1,1.11-.31.3-.21.53-.5.69-.89s.23-.84.23-1.37c0-.8-.17-1.43-.5-1.89-.33-.46-.82-.69-1.48-.69-.44,0-.81.1-1.11.31-.3.21-.53.5-.69.89-.16.39-.23.84-.23,1.38,0,.79.17,1.41.5,1.87.33.46.82.69,1.47.69Z"/>
    <path d="M59.14,359.3v-9.55h1.09v7.98l-.32,1.57h-.77ZM62.2,359.47c-.45,0-.85-.12-1.21-.35-.36-.23-.65-.58-.86-1.03s-.32-1-.32-1.65h.42c0,.43.09.8.27,1.11s.41.54.7.7.58.24.9.24c.36,0,.69-.1.99-.31.3-.21.54-.5.72-.88s.27-.84.27-1.37-.09-.97-.27-1.35c-.18-.38-.42-.67-.72-.87-.3-.2-.64-.3-1-.3-.32,0-.62.08-.9.23-.28.16-.51.39-.69.69-.18.3-.26.68-.26,1.12h-.42c0-.63.1-1.18.31-1.62.21-.45.5-.79.86-1.03.37-.24.8-.36,1.29-.36.53,0,1.01.14,1.45.42s.79.69,1.06,1.21c.27.52.4,1.14.4,1.85s-.14,1.34-.41,1.87c-.27.53-.63.94-1.08,1.23-.45.29-.95.44-1.49.44Z"/>
    <path d="M69.84,359.47c-.65,0-1.19-.09-1.62-.28-.43-.18-.76-.44-.99-.76-.22-.32-.34-.7-.36-1.12h1.05c.02.42.19.74.51.96.32.21.75.32,1.31.32.29,0,.56-.05.8-.14s.44-.22.58-.38c.14-.16.22-.35.22-.55,0-.26-.1-.47-.29-.62-.19-.15-.5-.28-.92-.39l-1.3-.42c-.56-.18-1-.42-1.3-.73-.3-.31-.45-.68-.45-1.12,0-.54.24-.98.71-1.3s1.1-.49,1.88-.49c.82,0,1.46.17,1.91.5s.69.76.71,1.26h-1.08c-.04-.29-.19-.52-.45-.67-.26-.15-.62-.23-1.09-.23s-.81.1-1.06.3-.38.43-.38.68c0,.46.4.8,1.19,1.02l1.33.45c.57.17,1.01.4,1.32.68.31.28.46.64.46,1.07,0,.34-.11.65-.33.95-.22.3-.53.54-.93.73-.4.19-.88.28-1.43.28Z"/>
    <path d="M77.11,359.47c-.58,0-1.1-.15-1.55-.44s-.81-.71-1.08-1.24c-.26-.53-.4-1.13-.4-1.82,0-.73.13-1.36.39-1.89s.62-.93,1.07-1.21.97-.42,1.56-.42c.51,0,.94.1,1.3.31.36.21.65.48.87.83.22.35.37.75.46,1.19.09.44.11.9.07,1.37h-4.84v-.67h4.12l-.32.21c.01-.28,0-.55-.05-.83s-.13-.53-.25-.76c-.12-.23-.29-.42-.51-.56-.22-.14-.5-.21-.84-.21-.43,0-.79.11-1.08.33-.29.22-.51.51-.65.86s-.22.74-.22,1.16v.45c0,.47.07.88.21,1.25.14.37.36.66.64.88.28.21.64.32,1.08.32s.79-.1,1.07-.31c.28-.21.45-.52.51-.93h1.13c-.07.44-.23.83-.48,1.14-.25.32-.56.57-.94.74-.38.17-.81.26-1.3.26Z"/>
    <path d="M81.98,359.3v-6.71h1.09v6.71h-1.09ZM82.74,356.28c0-.85.08-1.56.25-2.12.16-.56.4-.98.72-1.26.31-.28.7-.42,1.15-.42.15,0,.29.01.41.03s.25.05.37.09l-.07,1.08c-.13-.04-.27-.08-.43-.11-.15-.03-.29-.05-.41-.05-.4,0-.72.11-.96.34-.24.23-.42.54-.53.96-.11.41-.16.89-.16,1.45h-.34Z"/>
    <path d="M85.88,352.61h1.25l2.1,5.75h-.15l2.1-5.75h1.25l-2.67,6.69h-1.19l-2.67-6.69Z"/>
    <path d="M95.94,359.47c-.55,0-1.01-.1-1.36-.29s-.63-.45-.81-.76c-.18-.31-.27-.64-.27-.99,0-.45.11-.82.34-1.11.23-.28.54-.49.93-.63.39-.13.83-.2,1.32-.2.35,0,.7.04,1.05.1.35.07.7.17,1.03.29v.69c-.28-.11-.6-.2-.95-.27-.35-.07-.68-.1-.97-.1-.45,0-.83.09-1.13.28-.31.18-.46.5-.46.94,0,.33.12.61.35.84s.61.35,1.13.35c.36,0,.69-.08.98-.26.29-.17.52-.38.69-.64.17-.26.26-.51.26-.77h.27c0,.45-.1.86-.29,1.25-.19.38-.47.69-.83.92s-.79.35-1.29.35ZM98.22,359.3l-.14-1.47v-2.87c0-.6-.13-1.04-.38-1.3-.26-.26-.64-.4-1.16-.4-.29,0-.55.04-.79.13-.24.08-.42.21-.56.39s-.21.4-.21.68h-1.22c0-.48.12-.88.36-1.17.24-.3.57-.51.98-.64.42-.13.9-.2,1.43-.2s.97.09,1.37.26c.4.17.71.45.93.82.22.38.34.86.34,1.47v4.31h-.95Z"/>
    <path d="M100.84,353.37v-.76h4.27v.76h-4.27ZM103.84,359.47c-.36,0-.69-.07-.98-.21-.29-.14-.52-.35-.69-.63-.17-.28-.25-.63-.25-1.05v-6.83h1.08v6.8c0,.69.32,1.04.97,1.04.19,0,.38-.02.56-.06s.38-.1.61-.19l.15.78c-.24.1-.48.19-.71.25-.24.07-.48.1-.73.1Z"/>
    <path d="M107.66,351.03c-.22,0-.4-.06-.53-.19-.13-.13-.2-.3-.2-.51s.07-.37.2-.49c.13-.12.31-.18.53-.18s.4.06.53.18c.13.12.2.28.2.49s-.07.38-.2.51c-.13.13-.31.19-.53.19ZM107.12,359.3v-6.71h1.09v6.71h-1.09Z"/>
    <path d="M113.64,359.47c-.6,0-1.14-.13-1.61-.4-.47-.27-.84-.66-1.11-1.18-.27-.52-.41-1.17-.41-1.93s.14-1.42.41-1.94c.27-.52.64-.91,1.11-1.18.47-.27,1-.4,1.61-.4s1.13.13,1.6.4c.47.27.84.66,1.11,1.18.27.52.4,1.17.4,1.94s-.13,1.41-.4,1.93c-.27.52-.64.92-1.11,1.18-.47.27-1,.4-1.6.4ZM113.61,358.52c.43,0,.8-.1,1.11-.31.3-.21.53-.5.69-.89s.23-.84.23-1.37c0-.8-.17-1.43-.5-1.89-.33-.46-.82-.69-1.48-.69-.44,0-.81.1-1.11.31-.3.21-.53.5-.69.89-.16.39-.23.84-.23,1.38,0,.79.17,1.41.5,1.87.33.46.82.69,1.47.69Z"/>
    <path d="M118.87,359.3v-6.69h.94l.15,1.54v5.15h-1.09ZM123.63,359.3v-3.93c0-.64-.15-1.13-.46-1.46-.31-.33-.72-.5-1.25-.5-.4,0-.75.11-1.04.33s-.52.53-.68.94-.24.9-.24,1.46h-.42c0-.78.1-1.44.31-2,.21-.55.5-.97.9-1.26s.87-.44,1.44-.44c.53,0,.98.12,1.35.35.38.24.66.57.86,1.01.2.44.3.96.3,1.56v3.93h-1.08Z"/>
  </g>
  <g>
    <path d="M217.42,288.41c0-.4.14-.75.42-1.03.28-.29.63-.43,1.06-.43s.79.14,1.08.43c.3.29.45.63.45,1.03s-.15.74-.45,1.01c-.3.27-.66.41-1.08.41s-.78-.14-1.06-.41c-.28-.28-.42-.61-.42-1.01Z"/>
    <path d="M236.41,292.11v-8.79h3.07c1,0,1.76.24,2.28.72.52.48.77,1.11.77,1.89s-.26,1.39-.77,1.87-1.27.72-2.28.72h-1.97v3.6h-1.09ZM237.51,287.74h1.89c.66,0,1.16-.16,1.5-.49.34-.32.51-.75.51-1.26s-.16-.95-.49-1.27c-.33-.31-.81-.47-1.44-.47h-1.97v3.49ZM241.34,292.11l-2.52-3.99h1.19l2.74,3.99h-1.41Z"/>
    <path d="M247.31,292.27c-.58,0-1.1-.15-1.55-.44s-.81-.71-1.08-1.24c-.26-.53-.4-1.13-.4-1.82,0-.73.13-1.36.39-1.89s.62-.93,1.07-1.21.97-.42,1.56-.42c.51,0,.94.1,1.3.31.36.21.65.48.87.83.22.35.37.75.46,1.19.09.44.11.9.07,1.37h-4.84v-.67h4.12l-.32.21c.01-.28,0-.55-.05-.83s-.13-.53-.25-.76c-.12-.23-.29-.42-.51-.56-.22-.14-.5-.21-.84-.21-.43,0-.79.11-1.08.33-.29.22-.51.51-.65.86s-.22.74-.22,1.16v.45c0,.47.07.88.21,1.25.14.37.36.66.64.88.28.21.64.32,1.08.32s.79-.1,1.07-.31c.28-.21.45-.52.51-.93h1.13c-.07.44-.23.83-.48,1.14-.25.32-.56.57-.94.74-.38.17-.81.26-1.3.26Z"/>
    <path d="M254.59,292.27c-.65,0-1.19-.09-1.62-.28-.43-.18-.76-.44-.99-.76-.22-.32-.34-.7-.36-1.12h1.05c.02.42.19.74.51.96.32.21.75.32,1.31.32.29,0,.56-.05.8-.14s.44-.22.58-.38c.14-.16.22-.35.22-.55,0-.26-.1-.47-.29-.62-.19-.15-.5-.28-.92-.39l-1.3-.42c-.56-.18-1-.42-1.3-.73-.3-.31-.45-.68-.45-1.12,0-.54.24-.98.71-1.3s1.1-.49,1.88-.49c.82,0,1.46.17,1.91.5s.69.76.71,1.26h-1.08c-.04-.29-.19-.52-.45-.67-.26-.15-.62-.23-1.09-.23s-.81.1-1.06.3-.38.43-.38.68c0,.46.4.8,1.19,1.02l1.33.45c.57.17,1.01.4,1.32.68.31.28.46.64.46,1.07,0,.34-.11.65-.33.95-.22.3-.53.54-.93.73-.4.19-.88.28-1.43.28Z"/>
    <path d="M261.86,292.27c-.58,0-1.1-.15-1.55-.44s-.81-.71-1.08-1.24c-.26-.53-.4-1.13-.4-1.82,0-.73.13-1.36.39-1.89s.62-.93,1.07-1.21.97-.42,1.56-.42c.51,0,.94.1,1.3.31.36.21.65.48.87.83.22.35.37.75.46,1.19.09.44.11.9.07,1.37h-4.84v-.67h4.12l-.32.21c.01-.28,0-.55-.05-.83s-.13-.53-.25-.76c-.12-.23-.29-.42-.51-.56-.22-.14-.5-.21-.84-.21-.43,0-.79.11-1.08.33-.29.22-.51.51-.65.86s-.22.74-.22,1.16v.45c0,.47.07.88.21,1.25.14.37.36.66.64.88.28.21.64.32,1.08.32s.79-.1,1.07-.31c.28-.21.45-.52.51-.93h1.13c-.07.44-.23.83-.48,1.14-.25.32-.56.57-.94.74-.38.17-.81.26-1.3.26Z"/>
    <path d="M268.59,292.27c-.55,0-1.01-.1-1.36-.29s-.63-.45-.81-.76c-.18-.31-.27-.64-.27-.99,0-.45.11-.82.34-1.11.23-.28.54-.49.93-.63.39-.13.83-.2,1.32-.2.35,0,.7.04,1.05.1.35.07.7.17,1.03.29v.69c-.28-.11-.6-.2-.95-.27-.35-.07-.68-.1-.97-.1-.45,0-.83.09-1.13.28-.31.18-.46.5-.46.94,0,.33.12.61.35.84s.61.35,1.13.35c.36,0,.69-.08.98-.26.29-.17.52-.38.69-.64.17-.26.26-.51.26-.77h.27c0,.45-.1.86-.29,1.25-.19.38-.47.69-.83.92s-.79.35-1.29.35ZM270.87,292.11l-.14-1.47v-2.87c0-.6-.13-1.04-.38-1.3-.26-.26-.64-.4-1.16-.4-.29,0-.55.04-.79.13-.24.08-.42.21-.56.39s-.21.4-.21.68h-1.22c0-.48.12-.88.36-1.17.24-.3.57-.51.98-.64.42-.13.9-.2,1.43-.2s.97.09,1.37.26c.4.17.71.45.93.82.22.38.34.86.34,1.47v4.31h-.95Z"/>
    <path d="M274.43,292.11v-6.71h1.09v6.71h-1.09ZM275.19,289.08c0-.85.08-1.56.25-2.12.16-.56.4-.98.72-1.26.31-.28.7-.42,1.15-.42.15,0,.29.01.41.03s.25.05.37.09l-.07,1.08c-.13-.04-.27-.08-.43-.11-.15-.03-.29-.05-.41-.05-.4,0-.72.11-.96.34-.24.23-.42.54-.53.96-.11.41-.16.89-.16,1.45h-.34Z"/>
    <path d="M281.84,292.27c-.54,0-1.04-.14-1.5-.43-.46-.29-.84-.7-1.12-1.23-.28-.53-.43-1.15-.43-1.87s.14-1.37.43-1.89.66-.92,1.12-1.2.96-.41,1.5-.41c.38,0,.72.06,1.02.17.3.11.56.27.79.47.22.2.41.43.56.68.15.25.26.52.33.8l-1.12.1c-.12-.39-.31-.69-.58-.92-.27-.23-.61-.34-1-.34-.33,0-.64.09-.93.28s-.53.47-.71.85c-.18.38-.27.84-.27,1.4,0,.52.08.97.25,1.35.17.38.39.68.68.89.29.21.62.31.99.31.52,0,.91-.13,1.18-.38.27-.25.4-.61.4-1.06h1.12c0,.47-.11.88-.33,1.25-.22.36-.53.65-.93.86s-.88.31-1.42.31Z"/>
    <path d="M286.72,292.11v-9.55h1.09v9.55h-1.09ZM291.48,292.11v-3.93c0-.64-.15-1.13-.46-1.46-.31-.33-.72-.5-1.25-.5-.4,0-.75.11-1.04.33s-.52.53-.68.94-.24.9-.24,1.46h-.42c0-.78.1-1.44.31-2,.21-.55.5-.97.9-1.26s.87-.44,1.44-.44c.53,0,.98.12,1.35.35.38.24.66.57.86,1.01.2.44.3.96.3,1.56v3.93h-1.08Z"/>
    <path d="M297.55,286.17v-.76h4.27v.76h-4.27ZM300.55,292.27c-.36,0-.69-.07-.98-.21-.29-.14-.52-.35-.69-.63-.17-.28-.25-.63-.25-1.05v-6.83h1.08v6.8c0,.69.32,1.04.97,1.04.19,0,.38-.02.56-.06s.38-.1.61-.19l.15.78c-.24.1-.48.19-.71.25-.24.07-.48.1-.73.1Z"/>
    <path d="M303.75,292.11v-6.71h1.09v6.71h-1.09ZM304.51,289.08c0-.85.08-1.56.25-2.12.16-.56.4-.98.72-1.26.31-.28.7-.42,1.15-.42.15,0,.29.01.41.03s.25.05.37.09l-.07,1.08c-.13-.04-.27-.08-.43-.11-.15-.03-.29-.05-.41-.05-.4,0-.72.11-.96.34-.24.23-.42.54-.53.96-.11.41-.16.89-.16,1.45h-.34Z"/>
    <path d="M309.43,283.83c-.22,0-.4-.06-.53-.19-.13-.13-.2-.3-.2-.51s.07-.37.2-.49c.13-.12.31-.18.53-.18s.4.06.53.18c.13.12.2.28.2.49s-.07.38-.2.51c-.13.13-.31.19-.53.19ZM308.88,292.11v-6.71h1.09v6.71h-1.09Z"/>
    <path d="M314.85,292.27c-.55,0-1.01-.1-1.36-.29s-.63-.45-.81-.76c-.18-.31-.27-.64-.27-.99,0-.45.11-.82.34-1.11.23-.28.54-.49.93-.63.39-.13.83-.2,1.32-.2.35,0,.7.04,1.05.1.35.07.7.17,1.03.29v.69c-.28-.11-.6-.2-.95-.27-.35-.07-.68-.1-.97-.1-.45,0-.83.09-1.13.28-.31.18-.46.5-.46.94,0,.33.12.61.35.84s.61.35,1.13.35c.36,0,.69-.08.98-.26.29-.17.52-.38.69-.64.17-.26.26-.51.26-.77h.27c0,.45-.1.86-.29,1.25-.19.38-.47.69-.83.92s-.79.35-1.29.35ZM317.13,292.11l-.14-1.47v-2.87c0-.6-.13-1.04-.38-1.3-.26-.26-.64-.4-1.16-.4-.29,0-.55.04-.79.13-.24.08-.42.21-.56.39s-.21.4-.21.68h-1.22c0-.48.12-.88.36-1.17.24-.3.57-.51.98-.64.42-.13.9-.2,1.43-.2s.97.09,1.37.26c.4.17.71.45.93.82.22.38.34.86.34,1.47v4.31h-.95Z"/>
    <path d="M320.69,292.11v-6.69h.94l.15,1.54v5.15h-1.09ZM325.45,292.11v-3.93c0-.64-.15-1.13-.46-1.46-.31-.33-.72-.5-1.25-.5-.4,0-.75.11-1.04.33s-.52.53-.68.94-.24.9-.24,1.46h-.42c0-.78.1-1.44.31-2,.21-.55.5-.97.9-1.26s.87-.44,1.44-.44c.53,0,.98.12,1.35.35.38.24.66.57.86,1.01.2.44.3.96.3,1.56v3.93h-1.08Z"/>
    <path d="M331.51,295.55c-.69,0-1.28-.1-1.78-.29-.5-.19-.9-.45-1.17-.78-.28-.32-.42-.68-.42-1.07,0-.52.19-.91.57-1.19.38-.27.87-.41,1.47-.41l.6.38c-.5,0-.89.1-1.17.31s-.41.5-.41.86.2.67.59.92.97.38,1.72.38c.56,0,1.05-.08,1.47-.24.42-.16.75-.37.99-.63.24-.26.35-.54.35-.84,0-.21-.08-.39-.23-.54-.15-.15-.39-.23-.71-.23h-2.6c-.45,0-.84-.07-1.17-.21s-.58-.32-.76-.54c-.18-.22-.27-.47-.27-.73,0-.28.08-.52.24-.71.16-.2.37-.35.62-.45s.53-.15.82-.15l.21.41c-.14,0-.28.03-.42.09-.14.06-.26.16-.36.28s-.14.28-.14.47c0,.21.09.39.27.54.18.15.5.22.97.22h2.6c.63,0,1.13.13,1.49.4.36.27.54.64.54,1.11,0,.44-.16.86-.47,1.26-.31.4-.76.73-1.34.99-.58.26-1.28.39-2.09.39ZM331.7,290.15c-.51,0-.98-.1-1.39-.31-.41-.21-.74-.49-.98-.86s-.36-.8-.36-1.28.12-.92.36-1.29c.24-.37.57-.65.98-.86.41-.2.88-.3,1.39-.3s.95.1,1.36.3c.41.2.73.49.98.86.24.37.36.8.36,1.29s-.12.91-.36,1.28-.57.66-.98.86c-.41.21-.86.31-1.36.31ZM331.7,289.36c.51,0,.91-.16,1.2-.48.28-.32.43-.71.43-1.19s-.14-.89-.43-1.19-.68-.46-1.2-.46-.91.15-1.2.46-.44.7-.44,1.19.15.87.44,1.19c.29.32.69.48,1.2.48ZM333.9,286.31l-.52-.21c0-.39.08-.74.23-1.03.15-.3.37-.53.66-.69s.62-.25,1.02-.25l-.08,1.08c-.42,0-.74.09-.97.27-.22.18-.34.46-.34.84Z"/>
    <path d="M336.85,285.4h1.09v4.17c0,.56.14.98.41,1.27.27.29.66.43,1.17.43.42,0,.79-.11,1.1-.34.31-.22.55-.53.72-.93.17-.39.26-.85.26-1.35h.41c0,.75-.11,1.39-.33,1.92-.22.53-.52.94-.92,1.22s-.86.42-1.39.42c-.5,0-.94-.09-1.32-.28-.38-.19-.67-.47-.88-.85s-.32-.86-.32-1.45v-4.26ZM341.59,285.4h1.09v6.71h-1.09v-6.71Z"/>
    <path d="M345.52,292.11v-9.55h1.09v9.55h-1.09Z"/>
    <path d="M351.3,292.27c-.55,0-1.01-.1-1.36-.29s-.63-.45-.81-.76c-.18-.31-.27-.64-.27-.99,0-.45.11-.82.34-1.11.23-.28.54-.49.93-.63.39-.13.83-.2,1.32-.2.35,0,.7.04,1.05.1.35.07.7.17,1.03.29v.69c-.28-.11-.6-.2-.95-.27-.35-.07-.68-.1-.97-.1-.45,0-.83.09-1.13.28-.31.18-.46.5-.46.94,0,.33.12.61.35.84s.61.35,1.13.35c.36,0,.69-.08.98-.26.29-.17.52-.38.69-.64.17-.26.26-.51.26-.77h.27c0,.45-.1.86-.29,1.25-.19.38-.47.69-.83.92s-.79.35-1.29.35ZM353.59,292.11l-.14-1.47v-2.87c0-.6-.13-1.04-.38-1.3-.26-.26-.64-.4-1.16-.4-.29,0-.55.04-.79.13-.24.08-.42.21-.56.39s-.21.4-.21.68h-1.22c0-.48.12-.88.36-1.17.24-.3.57-.51.98-.64.42-.13.9-.2,1.43-.2s.97.09,1.37.26c.4.17.71.45.93.82.22.38.34.86.34,1.47v4.31h-.95Z"/>
    <path d="M356.21,286.17v-.76h4.27v.76h-4.27ZM359.21,292.27c-.36,0-.69-.07-.98-.21-.29-.14-.52-.35-.69-.63-.17-.28-.25-.63-.25-1.05v-6.83h1.08v6.8c0,.69.32,1.04.97,1.04.19,0,.38-.02.56-.06s.38-.1.61-.19l.15.78c-.24.1-.48.19-.71.25-.24.07-.48.1-.73.1Z"/>
    <path d="M363.03,283.83c-.22,0-.4-.06-.53-.19-.13-.13-.2-.3-.2-.51s.07-.37.2-.49c.13-.12.31-.18.53-.18s.4.06.53.18c.13.12.2.28.2.49s-.07.38-.2.51c-.13.13-.31.19-.53.19ZM362.48,292.11v-6.71h1.09v6.71h-1.09Z"/>
    <path d="M369.01,292.27c-.6,0-1.14-.13-1.61-.4-.47-.27-.84-.66-1.11-1.18-.27-.52-.41-1.17-.41-1.93s.14-1.42.41-1.94c.27-.52.64-.91,1.11-1.18.47-.27,1-.4,1.61-.4s1.13.13,1.6.4c.47.27.84.66,1.11,1.18.27.52.4,1.17.4,1.94s-.13,1.41-.4,1.93c-.27.52-.64.92-1.11,1.18-.47.27-1,.4-1.6.4ZM368.98,291.32c.43,0,.8-.1,1.11-.31.3-.21.53-.5.69-.89s.23-.84.23-1.37c0-.8-.17-1.43-.5-1.89-.33-.46-.82-.69-1.48-.69-.44,0-.81.1-1.11.31-.3.21-.53.5-.69.89-.16.39-.23.84-.23,1.38,0,.79.17,1.41.5,1.87.33.46.82.69,1.47.69Z"/>
    <path d="M374.23,292.11v-6.69h.94l.15,1.54v5.15h-1.09ZM378.99,292.11v-3.93c0-.64-.15-1.13-.46-1.46-.31-.33-.72-.5-1.25-.5-.4,0-.75.11-1.04.33s-.52.53-.68.94-.24.9-.24,1.46h-.42c0-.78.1-1.44.31-2,.21-.55.5-.97.9-1.26s.87-.44,1.44-.44c.53,0,.98.12,1.35.35.38.24.66.57.86,1.01.2.44.3.96.3,1.56v3.93h-1.08Z"/>
    <path d="M217.42,305.21c0-.4.14-.75.42-1.03.28-.29.63-.43,1.06-.43s.79.14,1.08.43c.3.29.45.63.45,1.03s-.15.74-.45,1.01c-.3.27-.66.41-1.08.41s-.78-.14-1.06-.41c-.28-.28-.42-.61-.42-1.01Z"/>
    <path d="M236.39,308.9v-8.79h2.83c.97,0,1.7.24,2.22.73.51.49.77,1.15.77,1.98s-.26,1.48-.77,1.96c-.51.48-1.25.72-2.22.72h-1.72v3.39h-1.11ZM237.49,304.57h1.72c.61,0,1.07-.16,1.39-.47.31-.31.47-.73.47-1.27s-.16-.97-.47-1.29c-.31-.32-.78-.48-1.39-.48h-1.72v3.51Z"/>
    <path d="M246.49,309.07c-.58,0-1.1-.15-1.55-.44s-.81-.71-1.08-1.24c-.26-.53-.4-1.13-.4-1.82,0-.73.13-1.36.39-1.89s.62-.93,1.07-1.21.97-.42,1.56-.42c.51,0,.94.1,1.3.31.36.21.65.48.87.83.22.35.37.75.46,1.19.09.44.11.9.07,1.37h-4.84v-.67h4.12l-.32.21c.01-.28,0-.55-.05-.83s-.13-.53-.25-.76c-.12-.23-.29-.42-.51-.56-.22-.14-.5-.21-.84-.21-.43,0-.79.11-1.08.33-.29.22-.51.51-.65.86s-.22.74-.22,1.16v.45c0,.47.07.88.21,1.25.14.37.36.66.64.88.28.21.64.32,1.08.32s.79-.1,1.07-.31c.28-.21.45-.52.51-.93h1.13c-.07.44-.23.83-.48,1.14-.25.32-.56.57-.94.74-.38.17-.81.26-1.3.26Z"/>
    <path d="M251.35,308.9v-6.71h1.09v6.71h-1.09ZM252.11,305.88c0-.85.08-1.56.25-2.12.16-.56.4-.98.72-1.26.31-.28.7-.42,1.15-.42.15,0,.29.01.41.03s.25.05.37.09l-.07,1.08c-.13-.04-.27-.08-.43-.11-.15-.03-.29-.05-.41-.05-.4,0-.72.11-.96.34-.24.23-.42.54-.53.96-.11.41-.16.89-.16,1.45h-.34Z"/>
    <path d="M258.82,309.07c-.65,0-1.19-.09-1.62-.28-.43-.18-.76-.44-.99-.76-.22-.32-.34-.7-.36-1.12h1.05c.02.42.19.74.51.96.32.21.75.32,1.31.32.29,0,.56-.05.8-.14s.44-.22.58-.38c.14-.16.22-.35.22-.55,0-.26-.1-.47-.29-.62-.19-.15-.5-.28-.92-.39l-1.3-.42c-.56-.18-1-.42-1.3-.73-.3-.31-.45-.68-.45-1.12,0-.54.24-.98.71-1.3s1.1-.49,1.88-.49c.82,0,1.46.17,1.91.5s.69.76.71,1.26h-1.08c-.04-.29-.19-.52-.45-.67-.26-.15-.62-.23-1.09-.23s-.81.1-1.06.3-.38.43-.38.68c0,.46.4.8,1.19,1.02l1.33.45c.57.17,1.01.4,1.32.68.31.28.46.64.46,1.07,0,.34-.11.65-.33.95-.22.3-.53.54-.93.73-.4.19-.88.28-1.43.28Z"/>
    <path d="M266.19,309.07c-.6,0-1.14-.13-1.61-.4-.47-.27-.84-.66-1.11-1.18-.27-.52-.41-1.17-.41-1.93s.14-1.42.41-1.94c.27-.52.64-.91,1.11-1.18.47-.27,1-.4,1.61-.4s1.13.13,1.6.4c.47.27.84.66,1.11,1.18.27.52.4,1.17.4,1.94s-.13,1.41-.4,1.93c-.27.52-.64.92-1.11,1.18-.47.27-1,.4-1.6.4ZM266.16,308.12c.43,0,.8-.1,1.11-.31.3-.21.53-.5.69-.89s.23-.84.23-1.37c0-.8-.17-1.43-.5-1.89-.33-.46-.82-.69-1.48-.69-.44,0-.81.1-1.11.31-.3.21-.53.5-.69.89-.16.39-.23.84-.23,1.38,0,.79.17,1.41.5,1.87.33.46.82.69,1.47.69Z"/>
    <path d="M271.42,308.9v-6.69h.94l.15,1.54v5.15h-1.09ZM276.18,308.9v-3.93c0-.64-.15-1.13-.46-1.46-.31-.33-.72-.5-1.25-.5-.4,0-.75.11-1.04.33s-.52.53-.68.94-.24.9-.24,1.46h-.42c0-.78.1-1.44.31-2,.21-.55.5-.97.9-1.26s.87-.44,1.44-.44c.53,0,.98.12,1.35.35.38.24.66.57.86,1.01.2.44.3.96.3,1.56v3.93h-1.08Z"/>
    <path d="M281.73,309.07c-.55,0-1.01-.1-1.36-.29s-.63-.45-.81-.76c-.18-.31-.27-.64-.27-.99,0-.45.11-.82.34-1.11.23-.28.54-.49.93-.63.39-.13.83-.2,1.32-.2.35,0,.7.04,1.05.1.35.07.7.17,1.03.29v.69c-.28-.11-.6-.2-.95-.27-.35-.07-.68-.1-.97-.1-.45,0-.83.09-1.13.28-.31.18-.46.5-.46.94,0,.33.12.61.35.84s.61.35,1.13.35c.36,0,.69-.08.98-.26.29-.17.52-.38.69-.64.17-.26.26-.51.26-.77h.27c0,.45-.1.86-.29,1.25-.19.38-.47.69-.83.92s-.79.35-1.29.35ZM284.01,308.9l-.14-1.47v-2.87c0-.6-.13-1.04-.38-1.3-.26-.26-.64-.4-1.16-.4-.29,0-.55.04-.79.13-.24.08-.42.21-.56.39s-.21.4-.21.68h-1.22c0-.48.12-.88.36-1.17.24-.3.57-.51.98-.64.42-.13.9-.2,1.43-.2s.97.09,1.37.26c.4.17.71.45.93.82.22.38.34.86.34,1.47v4.31h-.95Z"/>
    <path d="M289.98,309.07c-.65,0-1.19-.09-1.62-.28-.43-.18-.76-.44-.99-.76-.22-.32-.34-.7-.36-1.12h1.05c.02.42.19.74.51.96.32.21.75.32,1.31.32.29,0,.56-.05.8-.14s.44-.22.58-.38c.14-.16.22-.35.22-.55,0-.26-.1-.47-.29-.62-.19-.15-.5-.28-.92-.39l-1.3-.42c-.56-.18-1-.42-1.3-.73-.3-.31-.45-.68-.45-1.12,0-.54.24-.98.71-1.3s1.1-.49,1.88-.49c.82,0,1.46.17,1.91.5s.69.76.71,1.26h-1.08c-.04-.29-.19-.52-.45-.67-.26-.15-.62-.23-1.09-.23s-.81.1-1.06.3-.38.43-.38.68c0,.46.4.8,1.19,1.02l1.33.45c.57.17,1.01.4,1.32.68.31.28.46.64.46,1.07,0,.34-.11.65-.33.95-.22.3-.53.54-.93.73-.4.19-.88.28-1.43.28Z"/>
  </g>
  <path class="cls-1" d="M535.25,193.38c-5.51,0-10-4.49-10-10s4.49-10,10-10,10,4.49,10,10-4.49,10-10,10ZM535.25,176.38c-3.86,0-7,3.14-7,7s3.14,7,7,7,7-3.14,7-7-3.14-7-7-7Z"/>
  <rect class="cls-5" x="79.38" y="182.1" width="78.37" height="3"/>
  <rect class="cls-1" x="534.12" y="191.88" width="2.53" height="69"/>
  <path class="cls-6" d="M656.38,192.1c-5.51,0-10-4.49-10-10s4.49-10,10-10,10,4.49,10,10-4.49,10-10,10ZM656.38,175.1c-3.86,0-7,3.14-7,7s3.14,7,7,7,7-3.14,7-7-3.14-7-7-7Z"/>
  <rect class="cls-6" x="664.38" y="180.6" width="52.87" height="3"/>
  <rect class="cls-6" x="715.88" y="181.6" width="3" height="73.77"/>
  <g>
    <path d="M450.42,288.41c0-.4.14-.75.42-1.03.28-.29.63-.43,1.06-.43s.79.14,1.08.43c.3.29.45.63.45,1.03s-.15.74-.45,1.01c-.3.27-.66.41-1.08.41s-.78-.14-1.06-.41c-.28-.28-.42-.61-.42-1.01Z"/>
    <path d="M468.2,283.31h1.23l2.28,7.83h-.32l2.34-6.92h.74l2.31,6.86h-.31l2.62-7.77h1.22l-3.11,8.79h-1.15l-2.03-5.96h.21l-2.1,5.96h-1.15l-2.79-8.79Z"/>
    <path d="M482.55,283.83c-.22,0-.4-.06-.53-.19-.13-.13-.2-.3-.2-.51s.07-.37.2-.49c.13-.12.31-.18.53-.18s.4.06.53.18c.13.12.2.28.2.49s-.07.38-.2.51c-.13.13-.31.19-.53.19ZM482,292.11v-6.71h1.09v6.71h-1.09Z"/>
    <path d="M486.1,292.11v-6.71h1.09v6.71h-1.09ZM486.86,289.08c0-.85.08-1.56.25-2.12.16-.56.4-.98.72-1.26.31-.28.7-.42,1.15-.42.15,0,.29.01.41.03s.25.05.37.09l-.07,1.08c-.13-.04-.27-.08-.43-.11-.15-.03-.29-.05-.41-.05-.4,0-.72.11-.96.34-.24.23-.42.54-.53.96-.11.41-.16.89-.16,1.45h-.34Z"/>
    <path d="M493.49,292.27c-.58,0-1.1-.15-1.55-.44s-.81-.71-1.08-1.24c-.26-.53-.4-1.13-.4-1.82,0-.73.13-1.36.39-1.89s.62-.93,1.07-1.21.97-.42,1.56-.42c.51,0,.94.1,1.3.31.36.21.65.48.87.83.22.35.37.75.46,1.19.09.44.11.9.07,1.37h-4.84v-.67h4.12l-.32.21c.01-.28,0-.55-.05-.83s-.13-.53-.25-.76c-.12-.23-.29-.42-.51-.56-.22-.14-.5-.21-.84-.21-.43,0-.79.11-1.08.33-.29.22-.51.51-.65.86s-.22.74-.22,1.16v.45c0,.47.07.88.21,1.25.14.37.36.66.64.88.28.21.64.32,1.08.32s.79-.1,1.07-.31c.28-.21.45-.52.51-.93h1.13c-.07.44-.23.83-.48,1.14-.25.32-.56.57-.94.74-.38.17-.81.26-1.3.26Z"/>
    <path d="M497.62,286.17v-.76h3.57v.76h-3.57ZM498.72,292.11v-7.73c0-.44.09-.81.26-1.09.17-.28.4-.49.69-.63.29-.14.61-.2.96-.2.19,0,.39.01.58.04.2.03.4.07.59.13l-.21.87c-.14-.06-.28-.1-.42-.13-.14-.03-.27-.04-.4-.04-.15,0-.3.03-.45.08-.15.06-.27.16-.37.31-.1.15-.15.38-.15.67v7.71h-1.09Z"/>
    <path d="M503.15,292.11v-6.71h1.09v6.71h-1.09ZM503.9,289.08c0-.85.08-1.56.25-2.12.16-.56.4-.98.72-1.26.31-.28.7-.42,1.15-.42.15,0,.29.01.41.03s.25.05.37.09l-.07,1.08c-.13-.04-.27-.08-.43-.11-.15-.03-.29-.05-.41-.05-.4,0-.72.11-.96.34-.24.23-.42.54-.53.96-.11.41-.16.89-.16,1.45h-.34Z"/>
    <path d="M510.07,292.27c-.55,0-1.01-.1-1.36-.29s-.63-.45-.81-.76c-.18-.31-.27-.64-.27-.99,0-.45.11-.82.34-1.11.23-.28.54-.49.93-.63.39-.13.83-.2,1.32-.2.35,0,.7.04,1.05.1.35.07.7.17,1.03.29v.69c-.28-.11-.6-.2-.95-.27-.35-.07-.68-.1-.97-.1-.45,0-.83.09-1.13.28-.31.18-.46.5-.46.94,0,.33.12.61.35.84s.61.35,1.13.35c.36,0,.69-.08.98-.26.29-.17.52-.38.69-.64.17-.26.26-.51.26-.77h.27c0,.45-.1.86-.29,1.25-.19.38-.47.69-.83.92s-.79.35-1.29.35ZM512.35,292.11l-.14-1.47v-2.87c0-.6-.13-1.04-.38-1.3-.26-.26-.64-.4-1.16-.4-.29,0-.55.04-.79.13-.24.08-.42.21-.56.39s-.21.4-.21.68h-1.22c0-.48.12-.88.36-1.17.24-.3.57-.51.98-.64.42-.13.9-.2,1.43-.2s.97.09,1.37.26c.4.17.71.45.93.82.22.38.34.86.34,1.47v4.31h-.95Z"/>
    <path d="M515.92,292.11v-6.69h.94l.13,1.34c.21-.49.5-.86.89-1.12.38-.26.84-.39,1.37-.39s.98.12,1.35.35c.38.24.66.57.86,1.01.2.44.3.96.3,1.56v3.93h-1.08v-3.93c0-.64-.15-1.13-.46-1.46-.31-.33-.72-.5-1.25-.5-.4,0-.75.11-1.04.33s-.52.53-.68.94-.24.9-.24,1.46v3.16h-1.09ZM525.32,292.11v-3.93c0-.64-.15-1.13-.46-1.46-.31-.33-.72-.5-1.24-.5-.61,0-1.07.23-1.39.7-.32.47-.48,1.12-.48,1.94h-.5c0-.6.06-1.13.18-1.58.12-.45.29-.83.52-1.13.23-.3.51-.53.83-.68.33-.15.7-.22,1.11-.22.53,0,.98.12,1.35.35.38.24.66.57.86,1.01.2.44.3.96.3,1.56v3.93h-1.09Z"/>
    <path d="M529.63,283.83c-.22,0-.4-.06-.53-.19-.13-.13-.2-.3-.2-.51s.07-.37.2-.49c.13-.12.31-.18.53-.18s.4.06.53.18c.13.12.2.28.2.49s-.07.38-.2.51c-.13.13-.31.19-.53.19ZM529.08,292.11v-6.71h1.09v6.71h-1.09Z"/>
    <path d="M533.18,292.11v-6.69h.94l.15,1.54v5.15h-1.09ZM537.94,292.11v-3.93c0-.64-.15-1.13-.46-1.46-.31-.33-.72-.5-1.25-.5-.4,0-.75.11-1.04.33s-.52.53-.68.94-.24.9-.24,1.46h-.42c0-.78.1-1.44.31-2,.21-.55.5-.97.9-1.26s.87-.44,1.44-.44c.53,0,.98.12,1.35.35.38.24.66.57.86,1.01.2.44.3.96.3,1.56v3.93h-1.08Z"/>
    <path d="M544,295.55c-.69,0-1.28-.1-1.78-.29-.5-.19-.9-.45-1.17-.78-.28-.32-.42-.68-.42-1.07,0-.52.19-.91.57-1.19.38-.27.87-.41,1.47-.41l.6.38c-.5,0-.89.1-1.17.31s-.41.5-.41.86.2.67.59.92.97.38,1.72.38c.56,0,1.05-.08,1.47-.24.42-.16.75-.37.99-.63.24-.26.35-.54.35-.84,0-.21-.08-.39-.23-.54-.15-.15-.39-.23-.71-.23h-2.6c-.45,0-.84-.07-1.17-.21s-.58-.32-.76-.54c-.18-.22-.27-.47-.27-.73,0-.28.08-.52.24-.71.16-.2.37-.35.62-.45s.53-.15.82-.15l.21.41c-.14,0-.28.03-.42.09-.14.06-.26.16-.36.28s-.14.28-.14.47c0,.21.09.39.27.54.18.15.5.22.97.22h2.6c.63,0,1.13.13,1.49.4.36.27.54.64.54,1.11,0,.44-.16.86-.47,1.26-.31.4-.76.73-1.34.99-.58.26-1.28.39-2.09.39ZM544.19,290.15c-.51,0-.98-.1-1.39-.31-.41-.21-.74-.49-.98-.86s-.36-.8-.36-1.28.12-.92.36-1.29c.24-.37.57-.65.98-.86.41-.2.88-.3,1.39-.3s.95.1,1.36.3c.41.2.73.49.98.86.24.37.36.8.36,1.29s-.12.91-.36,1.28-.57.66-.98.86c-.41.21-.86.31-1.36.31ZM544.19,289.36c.51,0,.91-.16,1.2-.48.28-.32.43-.71.43-1.19s-.14-.89-.43-1.19-.68-.46-1.2-.46-.91.15-1.2.46-.44.7-.44,1.19.15.87.44,1.19c.29.32.69.48,1.2.48ZM546.39,286.31l-.52-.21c0-.39.08-.74.23-1.03.15-.3.37-.53.66-.69s.62-.25,1.02-.25l-.08,1.08c-.42,0-.74.09-.97.27-.22.18-.34.46-.34.84Z"/>
    <path d="M555.24,281.93l.78.55c-.53.54-.98,1.1-1.33,1.68-.36.58-.63,1.18-.81,1.79s-.27,1.23-.27,1.86c0,.94.2,1.86.61,2.76.4.9,1,1.75,1.8,2.56l-.78.57c-.91-.84-1.6-1.76-2.07-2.77-.47-1.01-.7-2.05-.7-3.12s.23-2.12.7-3.13c.47-1.01,1.16-1.93,2.07-2.75Z"/>
    <path d="M557.84,292.11v-9.55h1.09v9.55h-1.09Z"/>
    <path d="M564.18,292.27c-.6,0-1.14-.13-1.61-.4-.47-.27-.84-.66-1.11-1.18-.27-.52-.41-1.17-.41-1.93s.14-1.42.41-1.94c.27-.52.64-.91,1.11-1.18.47-.27,1-.4,1.61-.4s1.13.13,1.6.4c.47.27.84.66,1.11,1.18.27.52.4,1.17.4,1.94s-.13,1.41-.4,1.93c-.27.52-.64.92-1.11,1.18-.47.27-1,.4-1.6.4ZM564.15,291.32c.43,0,.8-.1,1.11-.31.3-.21.53-.5.69-.89s.23-.84.23-1.37c0-.8-.17-1.43-.5-1.89-.33-.46-.82-.69-1.48-.69-.44,0-.81.1-1.11.31-.3.21-.53.5-.69.89-.16.39-.23.84-.23,1.38,0,.79.17,1.41.5,1.87.33.46.82.69,1.47.69Z"/>
    <path d="M568.25,285.41h1.13l1.71,5.59h-.14l1.67-5.26h.91l1.65,5.28h-.13l1.71-5.6h1.09l-2.2,6.69h-1.06l-1.62-4.94h.17l-1.61,4.94h-1.06l-2.21-6.69Z"/>
    <path d="M471.28,309.07c-.55,0-1.01-.1-1.36-.29s-.63-.45-.81-.76c-.18-.31-.27-.64-.27-.99,0-.45.11-.82.34-1.11.23-.28.54-.49.93-.63.39-.13.83-.2,1.32-.2.35,0,.7.04,1.05.1.35.07.7.17,1.03.29v.69c-.28-.11-.6-.2-.95-.27-.35-.07-.68-.1-.97-.1-.45,0-.83.09-1.13.28-.31.18-.46.5-.46.94,0,.33.12.61.35.84s.61.35,1.13.35c.36,0,.69-.08.98-.26.29-.17.52-.38.69-.64.17-.26.26-.51.26-.77h.27c0,.45-.1.86-.29,1.25-.19.38-.47.69-.83.92s-.79.35-1.29.35ZM473.56,308.9l-.14-1.47v-2.87c0-.6-.13-1.04-.38-1.3-.26-.26-.64-.4-1.16-.4-.29,0-.55.04-.79.13-.24.08-.42.21-.56.39s-.21.4-.21.68h-1.22c0-.48.12-.88.36-1.17.24-.3.57-.51.98-.64.42-.13.9-.2,1.43-.2s.97.09,1.37.26c.4.17.71.45.93.82.22.38.34.86.34,1.47v4.31h-.95Z"/>
    <path d="M477.12,308.9v-6.69h.94l.15,1.54v5.15h-1.09ZM481.88,308.9v-3.93c0-.64-.15-1.13-.46-1.46-.31-.33-.72-.5-1.25-.5-.4,0-.75.11-1.04.33s-.52.53-.68.94-.24.9-.24,1.46h-.42c0-.78.1-1.44.31-2,.21-.55.5-.97.9-1.26s.87-.44,1.44-.44c.53,0,.98.12,1.35.35.38.24.66.57.86,1.01.2.44.3.96.3,1.56v3.93h-1.08Z"/>
    <path d="M487.96,309.07c-.54,0-1.04-.15-1.49-.44s-.81-.7-1.08-1.23-.41-1.15-.41-1.87.13-1.33.4-1.85c.27-.52.62-.93,1.06-1.21s.92-.42,1.45-.42c.49,0,.92.12,1.29.36.37.24.66.58.86,1.03.21.45.31.99.31,1.62h-.42c0-.44-.09-.82-.26-1.12-.17-.3-.4-.53-.68-.69-.28-.16-.58-.23-.9-.23-.36,0-.7.1-1,.3-.3.2-.54.49-.72.87-.18.38-.27.83-.27,1.35s.09.99.27,1.37.42.68.72.88c.3.21.63.31,1,.31.3,0,.6-.08.88-.24s.51-.39.7-.7c.18-.31.27-.68.27-1.11h.42c0,.65-.11,1.2-.32,1.65s-.5.79-.86,1.03-.77.35-1.21.35ZM490.12,308.9l-.18-1.57v-7.98h1.09v9.55h-.91Z"/>
    <path d="M497.19,308.9v-9.55h1.09v9.55h-1.09ZM501.95,308.9v-3.93c0-.64-.15-1.13-.46-1.46-.31-.33-.72-.5-1.25-.5-.4,0-.75.11-1.04.33s-.52.53-.68.94-.24.9-.24,1.46h-.42c0-.78.1-1.44.31-2,.21-.55.5-.97.9-1.26s.87-.44,1.44-.44c.53,0,.98.12,1.35.35.38.24.66.57.86,1.01.2.44.3.96.3,1.56v3.93h-1.08Z"/>
    <path d="M506.25,300.63c-.22,0-.4-.06-.53-.19-.13-.13-.2-.3-.2-.51s.07-.37.2-.49c.13-.12.31-.18.53-.18s.4.06.53.18c.13.12.2.28.2.49s-.07.38-.2.51c-.13.13-.31.19-.53.19ZM505.71,308.9v-6.71h1.09v6.71h-1.09Z"/>
    <path d="M512.18,312.35c-.69,0-1.28-.1-1.78-.29-.5-.19-.9-.45-1.17-.78-.28-.32-.42-.68-.42-1.07,0-.52.19-.91.57-1.19.38-.27.87-.41,1.47-.41l.6.38c-.5,0-.89.1-1.17.31s-.41.5-.41.86.2.67.59.92.97.38,1.72.38c.56,0,1.05-.08,1.47-.24.42-.16.75-.37.99-.63.24-.26.35-.54.35-.84,0-.21-.08-.39-.23-.54-.15-.15-.39-.23-.71-.23h-2.6c-.45,0-.84-.07-1.17-.21s-.58-.32-.76-.54c-.18-.22-.27-.47-.27-.73,0-.28.08-.52.24-.71.16-.2.37-.35.62-.45s.53-.15.82-.15l.21.41c-.14,0-.28.03-.42.09-.14.06-.26.16-.36.28s-.14.28-.14.47c0,.21.09.39.27.54.18.15.5.22.97.22h2.6c.63,0,1.13.13,1.49.4.36.27.54.64.54,1.11,0,.44-.16.86-.47,1.26-.31.4-.76.73-1.34.99-.58.26-1.28.39-2.09.39ZM512.37,306.94c-.51,0-.98-.1-1.39-.31-.41-.21-.74-.49-.98-.86s-.36-.8-.36-1.28.12-.92.36-1.29c.24-.37.57-.65.98-.86.41-.2.88-.3,1.39-.3s.95.1,1.36.3c.41.2.73.49.98.86.24.37.36.8.36,1.29s-.12.91-.36,1.28-.57.66-.98.86c-.41.21-.86.31-1.36.31ZM512.37,306.16c.51,0,.91-.16,1.2-.48.28-.32.43-.71.43-1.19s-.14-.89-.43-1.19-.68-.46-1.2-.46-.91.15-1.2.46-.44.7-.44,1.19.15.87.44,1.19c.29.32.69.48,1.2.48ZM514.57,303.11l-.52-.21c0-.39.08-.74.23-1.03.15-.3.37-.53.66-.69s.62-.25,1.02-.25l-.08,1.08c-.42,0-.74.09-.97.27-.22.18-.34.46-.34.84Z"/>
    <path d="M517.71,308.9v-9.55h1.09v9.55h-1.09ZM522.47,308.9v-3.93c0-.64-.15-1.13-.46-1.46-.31-.33-.72-.5-1.25-.5-.4,0-.75.11-1.04.33s-.52.53-.68.94-.24.9-.24,1.46h-.42c0-.78.1-1.44.31-2,.21-.55.5-.97.9-1.26s.87-.44,1.44-.44c.53,0,.98.12,1.35.35.38.24.66.57.86,1.01.2.44.3.96.3,1.56v3.93h-1.08Z"/>
    <path d="M525.28,305.31v-.95h3.81v.95h-3.81Z"/>
    <path d="M530.31,302.97v-.76h3.57v.76h-3.57ZM531.4,308.9v-7.73c0-.44.09-.81.26-1.09.17-.28.4-.49.69-.63.29-.14.61-.2.96-.2.19,0,.39.01.58.04.2.03.4.07.59.13l-.21.87c-.14-.06-.28-.1-.42-.13-.14-.03-.27-.04-.4-.04-.15,0-.3.03-.45.08-.15.06-.27.16-.37.31-.1.15-.15.38-.15.67v7.71h-1.09ZM536.44,300.63c-.22,0-.4-.06-.53-.19s-.2-.3-.2-.51.06-.37.2-.49c.13-.12.31-.18.53-.18s.4.06.53.18c.13.12.2.28.2.49s-.07.38-.2.51-.31.19-.53.19ZM535.9,308.9v-6.71h1.09v6.71h-1.09Z"/>
    <path d="M542.4,309.07c-.54,0-1.04-.15-1.49-.44s-.81-.7-1.08-1.23-.41-1.15-.41-1.87.13-1.33.4-1.85c.27-.52.62-.93,1.06-1.21s.92-.42,1.45-.42c.49,0,.92.12,1.29.36.37.24.66.58.86,1.03.21.45.31.99.31,1.62h-.42c0-.44-.09-.82-.26-1.12-.17-.3-.4-.53-.68-.69-.28-.16-.58-.23-.9-.23-.36,0-.7.1-1,.3-.3.2-.54.49-.72.87-.18.38-.27.83-.27,1.35s.09.99.27,1.37.42.68.72.88c.3.21.63.31,1,.31.3,0,.6-.08.88-.24s.51-.39.7-.7c.18-.31.27-.68.27-1.11h.42c0,.65-.11,1.2-.32,1.65s-.5.79-.86,1.03-.77.35-1.21.35ZM544.56,308.9l-.18-1.57v-7.98h1.09v9.55h-.91Z"/>
    <path d="M550.63,309.07c-.58,0-1.1-.15-1.55-.44s-.81-.71-1.08-1.24c-.26-.53-.4-1.13-.4-1.82,0-.73.13-1.36.39-1.89s.62-.93,1.07-1.21.97-.42,1.56-.42c.51,0,.94.1,1.3.31.36.21.65.48.87.83.22.35.37.75.46,1.19.09.44.11.9.07,1.37h-4.84v-.67h4.12l-.32.21c.01-.28,0-.55-.05-.83s-.13-.53-.25-.76c-.12-.23-.29-.42-.51-.56-.22-.14-.5-.21-.84-.21-.43,0-.79.11-1.08.33-.29.22-.51.51-.65.86s-.22.74-.22,1.16v.45c0,.47.07.88.21,1.25.14.37.36.66.64.88.28.21.64.32,1.08.32s.79-.1,1.07-.31c.28-.21.45-.52.51-.93h1.13c-.07.44-.23.83-.48,1.14-.25.32-.56.57-.94.74-.38.17-.81.26-1.3.26Z"/>
    <path d="M555.49,308.9v-9.55h1.09v9.55h-1.09Z"/>
    <path d="M560.03,300.63c-.22,0-.4-.06-.53-.19-.13-.13-.2-.3-.2-.51s.07-.37.2-.49c.13-.12.31-.18.53-.18s.4.06.53.18c.13.12.2.28.2.49s-.07.38-.2.51c-.13.13-.31.19-.53.19ZM559.48,308.9v-6.71h1.09v6.71h-1.09Z"/>
    <path d="M562.65,302.97v-.76h4.27v.76h-4.27ZM565.64,309.07c-.36,0-.69-.07-.98-.21-.29-.14-.52-.35-.69-.63-.17-.28-.25-.63-.25-1.05v-6.83h1.08v6.8c0,.69.32,1.04.97,1.04.19,0,.38-.02.56-.06s.38-.1.61-.19l.15.78c-.24.1-.48.19-.71.25-.24.07-.48.1-.73.1Z"/>
    <path d="M567.74,302.21h1.22l2.18,5.74h-.25l1.69-5.74h1.12l-2.52,8.04c-.21.67-.49,1.19-.84,1.55-.35.36-.8.55-1.34.55-.29,0-.57-.04-.84-.13s-.54-.21-.82-.36v-1.01c.25.2.49.34.72.42s.47.13.72.13c.28,0,.51-.09.7-.27s.35-.4.47-.68.23-.57.32-.87l.2-.67-2.74-6.69Z"/>
    <path d="M575.14,310.5l-.8-.57c.8-.81,1.4-1.66,1.81-2.56.41-.9.61-1.82.61-2.76,0-.63-.09-1.25-.27-1.86s-.45-1.21-.81-1.79c-.36-.58-.81-1.14-1.34-1.68l.8-.55c.91.83,1.59,1.74,2.06,2.75.47,1.01.71,2.05.71,3.13,0,.71-.1,1.42-.31,2.11-.21.69-.52,1.36-.93,2-.41.64-.92,1.24-1.52,1.79Z"/>
    <path d="M450.42,322.01c0-.4.14-.75.42-1.03.28-.29.63-.43,1.06-.43s.79.14,1.08.43c.3.29.45.63.45,1.03s-.15.74-.45,1.01c-.3.27-.66.41-1.08.41s-.78-.14-1.06-.41c-.28-.28-.42-.61-.42-1.01Z"/>
    <path d="M469.22,316.91h1.09v5.61c0,.83.21,1.42.62,1.79.42.37.96.55,1.63.55s1.21-.18,1.62-.55c.41-.37.62-.96.62-1.79v-5.61h1.09v5.61c0,.74-.14,1.35-.41,1.85s-.66.87-1.16,1.12c-.5.25-1.09.37-1.76.37s-1.27-.12-1.77-.37-.89-.62-1.17-1.12-.41-1.11-.41-1.85v-5.61Z"/>
    <path d="M478.56,325.71v-8.79h1.09v8.79h-1.09Z"/>
    <path d="M488.21,325.87c-.65,0-1.19-.09-1.62-.28-.43-.18-.76-.44-.99-.76-.22-.32-.34-.7-.36-1.12h1.05c.02.42.19.74.51.96.32.21.75.32,1.31.32.29,0,.56-.05.8-.14s.44-.22.58-.38c.14-.16.22-.35.22-.55,0-.26-.1-.47-.29-.62-.19-.15-.5-.28-.92-.39l-1.3-.42c-.56-.18-1-.42-1.3-.73-.3-.31-.45-.68-.45-1.12,0-.54.24-.98.71-1.3s1.1-.49,1.88-.49c.82,0,1.46.17,1.91.5s.69.76.71,1.26h-1.08c-.04-.29-.19-.52-.45-.67-.26-.15-.62-.23-1.09-.23s-.81.1-1.06.3-.38.43-.38.68c0,.46.4.8,1.19,1.02l1.33.45c.57.17,1.01.4,1.32.68.31.28.46.64.46,1.07,0,.34-.11.65-.33.95-.22.3-.53.54-.93.73-.4.19-.88.28-1.43.28Z"/>
    <path d="M492.22,319.77v-.76h4.27v.76h-4.27ZM495.22,325.87c-.36,0-.69-.07-.98-.21-.29-.14-.52-.35-.69-.63-.17-.28-.25-.63-.25-1.05v-6.83h1.08v6.8c0,.69.32,1.04.97,1.04.19,0,.38-.02.56-.06s.38-.1.61-.19l.15.78c-.24.1-.48.19-.71.25-.24.07-.48.1-.73.1Z"/>
    <path d="M497.32,319.01h1.22l2.18,5.74h-.25l1.69-5.74h1.12l-2.52,8.04c-.21.67-.49,1.19-.84,1.55-.35.36-.8.55-1.34.55-.29,0-.57-.04-.84-.13s-.54-.21-.82-.36v-1.01c.25.2.49.34.72.42s.47.13.72.13c.28,0,.51-.09.7-.27s.35-.4.47-.68.23-.57.32-.87l.2-.67-2.74-6.69Z"/>
    <path d="M504.94,325.71v-9.55h1.09v9.55h-1.09Z"/>
    <path d="M511.18,325.87c-.58,0-1.1-.15-1.55-.44s-.81-.71-1.08-1.24c-.26-.53-.4-1.13-.4-1.82,0-.73.13-1.36.39-1.89s.62-.93,1.07-1.21.97-.42,1.56-.42c.51,0,.94.1,1.3.31.36.21.65.48.87.83.22.35.37.75.46,1.19.09.44.11.9.07,1.37h-4.84v-.67h4.12l-.32.21c.01-.28,0-.55-.05-.83s-.13-.53-.25-.76c-.12-.23-.29-.42-.51-.56-.22-.14-.5-.21-.84-.21-.43,0-.79.11-1.08.33-.29.22-.51.51-.65.86s-.22.74-.22,1.16v.45c0,.47.07.88.21,1.25.14.37.36.66.64.88.28.21.64.32,1.08.32s.79-.1,1.07-.31c.28-.21.45-.52.51-.93h1.13c-.07.44-.23.83-.48,1.14-.25.32-.56.57-.94.74-.38.17-.81.26-1.3.26Z"/>
    <path d="M521.74,329.15c-.69,0-1.28-.1-1.78-.29-.5-.19-.9-.45-1.17-.78-.28-.32-.42-.68-.42-1.07,0-.52.19-.91.57-1.19.38-.27.87-.41,1.47-.41l.6.38c-.5,0-.89.1-1.17.31s-.41.5-.41.86.2.67.59.92.97.38,1.72.38c.56,0,1.05-.08,1.47-.24.42-.16.75-.37.99-.63.24-.26.35-.54.35-.84,0-.21-.08-.39-.23-.54-.15-.15-.39-.23-.71-.23h-2.6c-.45,0-.84-.07-1.17-.21s-.58-.32-.76-.54c-.18-.22-.27-.47-.27-.73,0-.28.08-.52.24-.71.16-.2.37-.35.62-.45s.53-.15.82-.15l.21.41c-.14,0-.28.03-.42.09-.14.06-.26.16-.36.28s-.14.28-.14.47c0,.21.09.39.27.54.18.15.5.22.97.22h2.6c.63,0,1.13.13,1.49.4.36.27.54.64.54,1.11,0,.44-.16.86-.47,1.26-.31.4-.76.73-1.34.99-.58.26-1.28.39-2.09.39ZM521.93,323.75c-.51,0-.98-.1-1.39-.31-.41-.21-.74-.49-.98-.86s-.36-.8-.36-1.28.12-.92.36-1.29c.24-.37.57-.65.98-.86.41-.2.88-.3,1.39-.3s.95.1,1.36.3c.41.2.73.49.98.86.24.37.36.8.36,1.29s-.12.91-.36,1.28-.57.66-.98.86c-.41.21-.86.31-1.36.31ZM521.93,322.96c.51,0,.91-.16,1.2-.48.28-.32.43-.71.43-1.19s-.14-.89-.43-1.19-.68-.46-1.2-.46-.91.15-1.2.46-.44.7-.44,1.19.15.87.44,1.19c.29.32.69.48,1.2.48ZM524.13,319.91l-.52-.21c0-.39.08-.74.23-1.03.15-.3.37-.53.66-.69s.62-.25,1.02-.25l-.08,1.08c-.42,0-.74.09-.97.27-.22.18-.34.46-.34.84Z"/>
    <path d="M527.08,319h1.09v4.17c0,.56.14.98.41,1.27.27.29.66.43,1.17.43.42,0,.79-.11,1.1-.34.31-.22.55-.53.72-.93.17-.39.26-.85.26-1.35h.41c0,.75-.11,1.39-.33,1.92-.22.53-.52.94-.92,1.22s-.86.42-1.39.42c-.5,0-.94-.09-1.32-.28-.38-.19-.67-.47-.88-.85s-.32-.86-.32-1.45v-4.26ZM531.82,319h1.09v6.71h-1.09v-6.71Z"/>
    <path d="M536.37,317.43c-.22,0-.4-.06-.53-.19-.13-.13-.2-.3-.2-.51s.07-.37.2-.49c.13-.12.31-.18.53-.18s.4.06.53.18c.13.12.2.28.2.49s-.07.38-.2.51c-.13.13-.31.19-.53.19ZM535.82,325.71v-6.71h1.09v6.71h-1.09Z"/>
    <path d="M542.32,325.87c-.54,0-1.04-.15-1.49-.44s-.81-.7-1.08-1.23-.41-1.15-.41-1.87.13-1.33.4-1.85c.27-.52.62-.93,1.06-1.21s.92-.42,1.45-.42c.49,0,.92.12,1.29.36.37.24.66.58.86,1.03.21.45.31.99.31,1.62h-.42c0-.44-.09-.82-.26-1.12-.17-.3-.4-.53-.68-.69-.28-.16-.58-.23-.9-.23-.36,0-.7.1-1,.3-.3.2-.54.49-.72.87-.18.38-.27.83-.27,1.35s.09.99.27,1.37.42.68.72.88c.3.21.63.31,1,.31.3,0,.6-.08.88-.24s.51-.39.7-.7c.18-.31.27-.68.27-1.11h.42c0,.65-.11,1.2-.32,1.65s-.5.79-.86,1.03-.77.35-1.21.35ZM544.47,325.71l-.18-1.57v-7.98h1.09v9.55h-.91Z"/>
    <path d="M550.54,325.87c-.58,0-1.1-.15-1.55-.44s-.81-.71-1.08-1.24c-.26-.53-.4-1.13-.4-1.82,0-.73.13-1.36.39-1.89s.62-.93,1.07-1.21.97-.42,1.56-.42c.51,0,.94.1,1.3.31.36.21.65.48.87.83.22.35.37.75.46,1.19.09.44.11.9.07,1.37h-4.84v-.67h4.12l-.32.21c.01-.28,0-.55-.05-.83s-.13-.53-.25-.76c-.12-.23-.29-.42-.51-.56-.22-.14-.5-.21-.84-.21-.43,0-.79.11-1.08.33-.29.22-.51.51-.65.86s-.22.74-.22,1.16v.45c0,.47.07.88.21,1.25.14.37.36.66.64.88.28.21.64.32,1.08.32s.79-.1,1.07-.31c.28-.21.45-.52.51-.93h1.13c-.07.44-.23.83-.48,1.14-.25.32-.56.57-.94.74-.38.17-.81.26-1.3.26Z"/>
    <path d="M450.42,338.81c0-.4.14-.75.42-1.03.28-.29.63-.43,1.06-.43s.79.14,1.08.43c.3.29.45.63.45,1.03s-.15.74-.45,1.01c-.3.27-.66.41-1.08.41s-.78-.14-1.06-.41c-.28-.28-.42-.61-.42-1.01Z"/>
    <path d="M469.22,333.71h1.09v5.61c0,.83.21,1.42.62,1.79.42.37.96.55,1.63.55s1.21-.18,1.62-.55c.41-.37.62-.96.62-1.79v-5.61h1.09v5.61c0,.74-.14,1.35-.41,1.85s-.66.87-1.16,1.12c-.5.25-1.09.37-1.76.37s-1.27-.12-1.77-.37-.89-.62-1.17-1.12-.41-1.11-.41-1.85v-5.61Z"/>
    <path d="M480.96,342.67c-.65,0-1.19-.09-1.62-.28-.43-.18-.76-.44-.99-.76-.22-.32-.34-.7-.36-1.12h1.05c.02.42.19.74.51.96.32.21.75.32,1.31.32.29,0,.56-.05.8-.14s.44-.22.58-.38c.14-.16.22-.35.22-.55,0-.26-.1-.47-.29-.62-.19-.15-.5-.28-.92-.39l-1.3-.42c-.56-.18-1-.42-1.3-.73-.3-.31-.45-.68-.45-1.12,0-.54.24-.98.71-1.3s1.1-.49,1.88-.49c.82,0,1.46.17,1.91.5s.69.76.71,1.26h-1.08c-.04-.29-.19-.52-.45-.67-.26-.15-.62-.23-1.09-.23s-.81.1-1.06.3-.38.43-.38.68c0,.46.4.8,1.19,1.02l1.33.45c.57.17,1.01.4,1.32.68.31.28.46.64.46,1.07,0,.34-.11.65-.33.95-.22.3-.53.54-.93.73-.4.19-.88.28-1.43.28Z"/>
    <path d="M488.24,342.67c-.58,0-1.1-.15-1.55-.44s-.81-.71-1.08-1.24c-.26-.53-.4-1.13-.4-1.82,0-.73.13-1.36.39-1.89s.62-.93,1.07-1.21.97-.42,1.56-.42c.51,0,.94.1,1.3.31.36.21.65.48.87.83.22.35.37.75.46,1.19.09.44.11.9.07,1.37h-4.84v-.67h4.12l-.32.21c.01-.28,0-.55-.05-.83s-.13-.53-.25-.76c-.12-.23-.29-.42-.51-.56-.22-.14-.5-.21-.84-.21-.43,0-.79.11-1.08.33-.29.22-.51.51-.65.86s-.22.74-.22,1.16v.45c0,.47.07.88.21,1.25.14.37.36.66.64.88.28.21.64.32,1.08.32s.79-.1,1.07-.31c.28-.21.45-.52.51-.93h1.13c-.07.44-.23.83-.48,1.14-.25.32-.56.57-.94.74-.38.17-.81.26-1.3.26Z"/>
    <path d="M493.1,342.5v-6.71h1.09v6.71h-1.09ZM493.86,339.48c0-.85.08-1.56.25-2.12.16-.56.4-.98.72-1.26.31-.28.7-.42,1.15-.42.15,0,.29.01.41.03s.25.05.37.09l-.07,1.08c-.13-.04-.27-.08-.43-.11-.15-.03-.29-.05-.41-.05-.4,0-.72.11-.96.34-.24.23-.42.54-.53.96-.11.41-.16.89-.16,1.45h-.34Z"/>
    <path d="M500.55,336.57v-.76h4.27v.76h-4.27ZM503.55,342.67c-.36,0-.69-.07-.98-.21-.29-.14-.52-.35-.69-.63-.17-.28-.25-.63-.25-1.05v-6.83h1.08v6.8c0,.69.32,1.04.97,1.04.19,0,.38-.02.56-.06s.38-.1.61-.19l.15.78c-.24.1-.48.19-.71.25-.24.07-.48.1-.73.1Z"/>
    <path d="M509.08,342.67c-.58,0-1.1-.15-1.55-.44s-.81-.71-1.08-1.24c-.26-.53-.4-1.13-.4-1.82,0-.73.13-1.36.39-1.89s.62-.93,1.07-1.21.97-.42,1.56-.42c.51,0,.94.1,1.3.31.36.21.65.48.87.83.22.35.37.75.46,1.19.09.44.11.9.07,1.37h-4.84v-.67h4.12l-.32.21c.01-.28,0-.55-.05-.83s-.13-.53-.25-.76c-.12-.23-.29-.42-.51-.56-.22-.14-.5-.21-.84-.21-.43,0-.79.11-1.08.33-.29.22-.51.51-.65.86s-.22.74-.22,1.16v.45c0,.47.07.88.21,1.25.14.37.36.66.64.88.28.21.64.32,1.08.32s.79-.1,1.07-.31c.28-.21.45-.52.51-.93h1.13c-.07.44-.23.83-.48,1.14-.25.32-.56.57-.94.74-.38.17-.81.26-1.3.26Z"/>
    <path d="M516.35,342.67c-.65,0-1.19-.09-1.62-.28-.43-.18-.76-.44-.99-.76-.22-.32-.34-.7-.36-1.12h1.05c.02.42.19.74.51.96.32.21.75.32,1.31.32.29,0,.56-.05.8-.14s.44-.22.58-.38c.14-.16.22-.35.22-.55,0-.26-.1-.47-.29-.62-.19-.15-.5-.28-.92-.39l-1.3-.42c-.56-.18-1-.42-1.3-.73-.3-.31-.45-.68-.45-1.12,0-.54.24-.98.71-1.3s1.1-.49,1.88-.49c.82,0,1.46.17,1.91.5s.69.76.71,1.26h-1.08c-.04-.29-.19-.52-.45-.67-.26-.15-.62-.23-1.09-.23s-.81.1-1.06.3-.38.43-.38.68c0,.46.4.8,1.19,1.02l1.33.45c.57.17,1.01.4,1.32.68.31.28.46.64.46,1.07,0,.34-.11.65-.33.95-.22.3-.53.54-.93.73-.4.19-.88.28-1.43.28Z"/>
    <path d="M520.36,336.57v-.76h4.27v.76h-4.27ZM523.36,342.67c-.36,0-.69-.07-.98-.21-.29-.14-.52-.35-.69-.63-.17-.28-.25-.63-.25-1.05v-6.83h1.08v6.8c0,.69.32,1.04.97,1.04.19,0,.38-.02.56-.06s.38-.1.61-.19l.15.78c-.24.1-.48.19-.71.25-.24.07-.48.1-.73.1Z"/>
    <path d="M527.18,334.23c-.22,0-.4-.06-.53-.19-.13-.13-.2-.3-.2-.51s.07-.37.2-.49c.13-.12.31-.18.53-.18s.4.06.53.18c.13.12.2.28.2.49s-.07.38-.2.51c-.13.13-.31.19-.53.19ZM526.63,342.5v-6.71h1.09v6.71h-1.09Z"/>
    <path d="M530.73,342.5v-6.69h.94l.15,1.54v5.15h-1.09ZM535.49,342.5v-3.93c0-.64-.15-1.13-.46-1.46-.31-.33-.72-.5-1.25-.5-.4,0-.75.11-1.04.33s-.52.53-.68.94-.24.9-.24,1.46h-.42c0-.78.1-1.44.31-2,.21-.55.5-.97.9-1.26s.87-.44,1.44-.44c.53,0,.98.12,1.35.35.38.24.66.57.86,1.01.2.44.3.96.3,1.56v3.93h-1.08Z"/>
    <path d="M541.55,345.95c-.69,0-1.28-.1-1.78-.29-.5-.19-.9-.45-1.17-.78-.28-.32-.42-.68-.42-1.07,0-.52.19-.91.57-1.19.38-.27.87-.41,1.47-.41l.6.38c-.5,0-.89.1-1.17.31s-.41.5-.41.86.2.67.59.92.97.38,1.72.38c.56,0,1.05-.08,1.47-.24.42-.16.75-.37.99-.63.24-.26.35-.54.35-.84,0-.21-.08-.39-.23-.54-.15-.15-.39-.23-.71-.23h-2.6c-.45,0-.84-.07-1.17-.21s-.58-.32-.76-.54c-.18-.22-.27-.47-.27-.73,0-.28.08-.52.24-.71.16-.2.37-.35.62-.45s.53-.15.82-.15l.21.41c-.14,0-.28.03-.42.09-.14.06-.26.16-.36.28s-.14.28-.14.47c0,.21.09.39.27.54.18.15.5.22.97.22h2.6c.63,0,1.13.13,1.49.4.36.27.54.64.54,1.11,0,.44-.16.86-.47,1.26-.31.4-.76.73-1.34.99-.58.26-1.28.39-2.09.39ZM541.74,340.55c-.51,0-.98-.1-1.39-.31-.41-.21-.74-.49-.98-.86s-.36-.8-.36-1.28.12-.92.36-1.29c.24-.37.57-.65.98-.86.41-.2.88-.3,1.39-.3s.95.1,1.36.3c.41.2.73.49.98.86.24.37.36.8.36,1.29s-.12.91-.36,1.28-.57.66-.98.86c-.41.21-.86.31-1.36.31ZM541.74,339.76c.51,0,.91-.16,1.2-.48.28-.32.43-.71.43-1.19s-.14-.89-.43-1.19-.68-.46-1.2-.46-.91.15-1.2.46-.44.7-.44,1.19.15.87.44,1.19c.29.32.69.48,1.2.48ZM543.94,336.71l-.52-.21c0-.39.08-.74.23-1.03.15-.3.37-.53.66-.69s.62-.25,1.02-.25l-.08,1.08c-.42,0-.74.09-.97.27-.22.18-.34.46-.34.84Z"/>
  </g>
  <g>
    <path d="M664.92,286.91c0-.4.14-.75.42-1.03.28-.29.63-.43,1.06-.43s.79.14,1.08.43c.3.29.45.63.45,1.03s-.15.74-.45,1.01c-.3.27-.66.41-1.08.41s-.78-.14-1.06-.41c-.28-.28-.42-.61-.42-1.01Z"/>
    <path d="M683.91,290.61v-8.79h5.35v.94h-4.26v2.93h3.96v.94h-3.96v3.99h-1.09Z"/>
    <path d="M691.87,282.33c-.22,0-.4-.06-.53-.19-.13-.13-.2-.3-.2-.51s.07-.37.2-.49c.13-.12.31-.18.53-.18s.4.06.53.18c.13.12.2.28.2.49s-.07.38-.2.51c-.13.13-.31.19-.53.19ZM691.32,290.61v-6.71h1.09v6.71h-1.09Z"/>
    <path d="M695.42,290.61v-6.69h.94l.15,1.54v5.15h-1.09ZM700.18,290.61v-3.93c0-.64-.15-1.13-.46-1.46-.31-.33-.72-.5-1.25-.5-.4,0-.75.11-1.04.33s-.52.53-.68.94-.24.9-.24,1.46h-.42c0-.78.1-1.44.31-2,.21-.55.5-.97.9-1.26s.87-.44,1.44-.44c.53,0,.98.12,1.35.35.38.24.66.57.86,1.01.2.44.3.96.3,1.56v3.93h-1.08Z"/>
    <path d="M705.73,290.77c-.55,0-1.01-.1-1.36-.29s-.63-.45-.81-.76c-.18-.31-.27-.64-.27-.99,0-.45.11-.82.34-1.11.23-.28.54-.49.93-.63.39-.13.83-.2,1.32-.2.35,0,.7.04,1.05.1.35.07.7.17,1.03.29v.69c-.28-.11-.6-.2-.95-.27-.35-.07-.68-.1-.97-.1-.45,0-.83.09-1.13.28-.31.18-.46.5-.46.94,0,.33.12.61.35.84s.61.35,1.13.35c.36,0,.69-.08.98-.26.29-.17.52-.38.69-.64.17-.26.26-.51.26-.77h.27c0,.45-.1.86-.29,1.25-.19.38-.47.69-.83.92s-.79.35-1.29.35ZM708.01,290.61l-.14-1.47v-2.87c0-.6-.13-1.04-.38-1.3-.26-.26-.64-.4-1.16-.4-.29,0-.55.04-.79.13-.24.08-.42.21-.56.39s-.21.4-.21.68h-1.22c0-.48.12-.88.36-1.17.24-.3.57-.51.98-.64.42-.13.9-.2,1.43-.2s.97.09,1.37.26c.4.17.71.45.93.82.22.38.34.86.34,1.47v4.31h-.95Z"/>
    <path d="M711.58,290.61v-9.55h1.09v9.55h-1.09Z"/>
    <path d="M721.22,290.77c-.54,0-1.04-.15-1.49-.44s-.81-.7-1.08-1.23-.41-1.15-.41-1.87.13-1.33.4-1.85c.27-.52.62-.93,1.06-1.21s.92-.42,1.45-.42c.49,0,.92.12,1.29.36.37.24.66.58.86,1.03.21.45.31.99.31,1.62h-.42c0-.44-.09-.82-.26-1.12-.17-.3-.4-.53-.68-.69-.28-.16-.58-.23-.9-.23-.36,0-.7.1-1,.3-.3.2-.54.49-.72.87-.18.38-.27.83-.27,1.35s.09.99.27,1.37.42.68.72.88c.3.21.63.31,1,.31.3,0,.6-.08.88-.24s.51-.39.7-.7c.18-.31.27-.68.27-1.11h.42c0,.65-.11,1.2-.32,1.65s-.5.79-.86,1.03-.77.35-1.21.35ZM723.37,290.61l-.18-1.57v-7.98h1.09v9.55h-.91Z"/>
    <path d="M729.44,290.77c-.58,0-1.1-.15-1.55-.44s-.81-.71-1.08-1.24c-.26-.53-.4-1.13-.4-1.82,0-.73.13-1.36.39-1.89s.62-.93,1.07-1.21.97-.42,1.56-.42c.51,0,.94.1,1.3.31.36.21.65.48.87.83.22.35.37.75.46,1.19.09.44.11.9.07,1.37h-4.84v-.67h4.12l-.32.21c.01-.28,0-.55-.05-.83s-.13-.53-.25-.76c-.12-.23-.29-.42-.51-.56-.22-.14-.5-.21-.84-.21-.43,0-.79.11-1.08.33-.29.22-.51.51-.65.86s-.22.74-.22,1.16v.45c0,.47.07.88.21,1.25.14.37.36.66.64.88.28.21.64.32,1.08.32s.79-.1,1.07-.31c.28-.21.45-.52.51-.93h1.13c-.07.44-.23.83-.48,1.14-.25.32-.56.57-.94.74-.38.17-.81.26-1.3.26Z"/>
    <path d="M736.71,290.77c-.65,0-1.19-.09-1.62-.28-.43-.18-.76-.44-.99-.76-.22-.32-.34-.7-.36-1.12h1.05c.02.42.19.74.51.96.32.21.75.32,1.31.32.29,0,.56-.05.8-.14s.44-.22.58-.38c.14-.16.22-.35.22-.55,0-.26-.1-.47-.29-.62-.19-.15-.5-.28-.92-.39l-1.3-.42c-.56-.18-1-.42-1.3-.73-.3-.31-.45-.68-.45-1.12,0-.54.24-.98.71-1.3s1.1-.49,1.88-.49c.82,0,1.46.17,1.91.5s.69.76.71,1.26h-1.08c-.04-.29-.19-.52-.45-.67-.26-.15-.62-.23-1.09-.23s-.81.1-1.06.3-.38.43-.38.68c0,.46.4.8,1.19,1.02l1.33.45c.57.17,1.01.4,1.32.68.31.28.46.64.46,1.07,0,.34-.11.65-.33.95-.22.3-.53.54-.93.73-.4.19-.88.28-1.43.28Z"/>
    <path d="M742.28,282.33c-.22,0-.4-.06-.53-.19-.13-.13-.2-.3-.2-.51s.07-.37.2-.49c.13-.12.31-.18.53-.18s.4.06.53.18c.13.12.2.28.2.49s-.07.38-.2.51c-.13.13-.31.19-.53.19ZM741.73,290.61v-6.71h1.09v6.71h-1.09Z"/>
    <path d="M748.2,294.05c-.69,0-1.28-.1-1.78-.29-.5-.19-.9-.45-1.17-.78-.28-.32-.42-.68-.42-1.07,0-.52.19-.91.57-1.19.38-.27.87-.41,1.47-.41l.6.38c-.5,0-.89.1-1.17.31s-.41.5-.41.86.2.67.59.92.97.38,1.72.38c.56,0,1.05-.08,1.47-.24.42-.16.75-.37.99-.63.24-.26.35-.54.35-.84,0-.21-.08-.39-.23-.54-.15-.15-.39-.23-.71-.23h-2.6c-.45,0-.84-.07-1.17-.21s-.58-.32-.76-.54c-.18-.22-.27-.47-.27-.73,0-.28.08-.52.24-.71.16-.2.37-.35.62-.45s.53-.15.82-.15l.21.41c-.14,0-.28.03-.42.09-.14.06-.26.16-.36.28s-.14.28-.14.47c0,.21.09.39.27.54.18.15.5.22.97.22h2.6c.63,0,1.13.13,1.49.4.36.27.54.64.54,1.11,0,.44-.16.86-.47,1.26-.31.4-.76.73-1.34.99-.58.26-1.28.39-2.09.39ZM748.4,288.65c-.51,0-.98-.1-1.39-.31-.41-.21-.74-.49-.98-.86s-.36-.8-.36-1.28.12-.92.36-1.29c.24-.37.57-.65.98-.86.41-.2.88-.3,1.39-.3s.95.1,1.36.3c.41.2.73.49.98.86.24.37.36.8.36,1.29s-.12.91-.36,1.28-.57.66-.98.86c-.41.21-.86.31-1.36.31ZM748.4,287.86c.51,0,.91-.16,1.2-.48.28-.32.43-.71.43-1.19s-.14-.89-.43-1.19-.68-.46-1.2-.46-.91.15-1.2.46-.44.7-.44,1.19.15.87.44,1.19c.29.32.69.48,1.2.48ZM750.59,284.81l-.52-.21c0-.39.08-.74.23-1.03.15-.3.37-.53.66-.69s.62-.25,1.02-.25l-.08,1.08c-.42,0-.74.09-.97.27-.22.18-.34.46-.34.84Z"/>
    <path d="M753.74,290.61v-6.69h.94l.15,1.54v5.15h-1.09ZM758.5,290.61v-3.93c0-.64-.15-1.13-.46-1.46-.31-.33-.72-.5-1.25-.5-.4,0-.75.11-1.04.33s-.52.53-.68.94-.24.9-.24,1.46h-.42c0-.78.1-1.44.31-2,.21-.55.5-.97.9-1.26s.87-.44,1.44-.44c.53,0,.98.12,1.35.35.38.24.66.57.86,1.01.2.44.3.96.3,1.56v3.93h-1.08Z"/>
    <path d="M664.92,303.71c0-.4.14-.75.42-1.03.28-.29.63-.43,1.06-.43s.79.14,1.08.43c.3.29.45.63.45,1.03s-.15.74-.45,1.01c-.3.27-.66.41-1.08.41s-.78-.14-1.06-.41c-.28-.28-.42-.61-.42-1.01Z"/>
    <path d="M683.91,307.4v-8.79h3.07c1,0,1.76.24,2.28.72.52.48.77,1.11.77,1.89s-.26,1.39-.77,1.87-1.27.72-2.28.72h-1.97v3.6h-1.09ZM685.01,303.04h1.89c.66,0,1.16-.16,1.5-.49.34-.32.51-.75.51-1.26s-.16-.95-.49-1.27c-.33-.31-.81-.47-1.44-.47h-1.97v3.49ZM688.84,307.4l-2.52-3.99h1.19l2.74,3.99h-1.41Z"/>
    <path d="M694.81,307.57c-.58,0-1.1-.15-1.55-.44s-.81-.71-1.08-1.24c-.26-.53-.4-1.13-.4-1.82,0-.73.13-1.36.39-1.89s.62-.93,1.07-1.21.97-.42,1.56-.42c.51,0,.94.1,1.3.31.36.21.65.48.87.83.22.35.37.75.46,1.19.09.44.11.9.07,1.37h-4.84v-.67h4.12l-.32.21c.01-.28,0-.55-.05-.83s-.13-.53-.25-.76c-.12-.23-.29-.42-.51-.56-.22-.14-.5-.21-.84-.21-.43,0-.79.11-1.08.33-.29.22-.51.51-.65.86s-.22.74-.22,1.16v.45c0,.47.07.88.21,1.25.14.37.36.66.64.88.28.21.64.32,1.08.32s.79-.1,1.07-.31c.28-.21.45-.52.51-.93h1.13c-.07.44-.23.83-.48,1.14-.25.32-.56.57-.94.74-.38.17-.81.26-1.3.26Z"/>
    <path d="M698.95,301.47v-.76h3.57v.76h-3.57ZM700.04,307.4v-7.73c0-.44.09-.81.26-1.09.17-.28.4-.49.69-.63.29-.14.61-.2.96-.2.19,0,.39.01.58.04.2.03.4.07.59.13l-.21.87c-.14-.06-.28-.1-.42-.13-.14-.03-.27-.04-.4-.04-.15,0-.3.03-.45.08-.15.06-.27.16-.37.31-.1.15-.15.38-.15.67v7.71h-1.09ZM704.47,307.4v-9.55h1.09v9.55h-1.09Z"/>
    <path d="M710.72,307.57c-.58,0-1.1-.15-1.55-.44s-.81-.71-1.08-1.24c-.26-.53-.4-1.13-.4-1.82,0-.73.13-1.36.39-1.89s.62-.93,1.07-1.21.97-.42,1.56-.42c.51,0,.94.1,1.3.31.36.21.65.48.87.83.22.35.37.75.46,1.19.09.44.11.9.07,1.37h-4.84v-.67h4.12l-.32.21c.01-.28,0-.55-.05-.83s-.13-.53-.25-.76c-.12-.23-.29-.42-.51-.56-.22-.14-.5-.21-.84-.21-.43,0-.79.11-1.08.33-.29.22-.51.51-.65.86s-.22.74-.22,1.16v.45c0,.47.07.88.21,1.25.14.37.36.66.64.88.28.21.64.32,1.08.32s.79-.1,1.07-.31c.28-.21.45-.52.51-.93h1.13c-.07.44-.23.83-.48,1.14-.25.32-.56.57-.94.74-.38.17-.81.26-1.3.26Z"/>
    <path d="M717.93,307.57c-.54,0-1.04-.14-1.5-.43-.46-.29-.84-.7-1.12-1.23-.28-.53-.43-1.15-.43-1.87s.14-1.37.43-1.89.66-.92,1.12-1.2.96-.41,1.5-.41c.38,0,.72.06,1.02.17.3.11.56.27.79.47.22.2.41.43.56.68.15.25.26.52.33.8l-1.12.1c-.12-.39-.31-.69-.58-.92-.27-.23-.61-.34-1-.34-.33,0-.64.09-.93.28s-.53.47-.71.85c-.18.38-.27.84-.27,1.4,0,.52.08.97.25,1.35.17.38.39.68.68.89.29.21.62.31.99.31.52,0,.91-.13,1.18-.38.27-.25.4-.61.4-1.06h1.12c0,.47-.11.88-.33,1.25-.22.36-.53.65-.93.86s-.88.31-1.42.31Z"/>
    <path d="M721.87,301.47v-.76h4.27v.76h-4.27ZM724.86,307.57c-.36,0-.69-.07-.98-.21-.29-.14-.52-.35-.69-.63-.17-.28-.25-.63-.25-1.05v-6.83h1.08v6.8c0,.69.32,1.04.97,1.04.19,0,.38-.02.56-.06s.38-.1.61-.19l.15.78c-.24.1-.48.19-.71.25-.24.07-.48.1-.73.1Z"/>
    <path d="M728.69,299.13c-.22,0-.4-.06-.53-.19-.13-.13-.2-.3-.2-.51s.07-.37.2-.49c.13-.12.31-.18.53-.18s.4.06.53.18c.13.12.2.28.2.49s-.07.38-.2.51c-.13.13-.31.19-.53.19ZM728.14,307.4v-6.71h1.09v6.71h-1.09Z"/>
    <path d="M734.66,307.57c-.6,0-1.14-.13-1.61-.4-.47-.27-.84-.66-1.11-1.18-.27-.52-.41-1.17-.41-1.93s.14-1.42.41-1.94c.27-.52.64-.91,1.11-1.18.47-.27,1-.4,1.61-.4s1.13.13,1.6.4c.47.27.84.66,1.11,1.18.27.52.4,1.17.4,1.94s-.13,1.41-.4,1.93c-.27.52-.64.92-1.11,1.18-.47.27-1,.4-1.6.4ZM734.64,306.62c.43,0,.8-.1,1.11-.31.3-.21.53-.5.69-.89s.23-.84.23-1.37c0-.8-.17-1.43-.5-1.89-.33-.46-.82-.69-1.48-.69-.44,0-.81.1-1.11.31-.3.21-.53.5-.69.89-.16.39-.23.84-.23,1.38,0,.79.17,1.41.5,1.87.33.46.82.69,1.47.69Z"/>
    <path d="M739.89,307.4v-6.69h.94l.15,1.54v5.15h-1.09ZM744.65,307.4v-3.93c0-.64-.15-1.13-.46-1.46-.31-.33-.72-.5-1.25-.5-.4,0-.75.11-1.04.33s-.52.53-.68.94-.24.9-.24,1.46h-.42c0-.78.1-1.44.31-2,.21-.55.5-.97.9-1.26s.87-.44,1.44-.44c.53,0,.98.12,1.35.35.38.24.66.57.86,1.01.2.44.3.96.3,1.56v3.93h-1.08Z"/>
  </g>
  <g>
    <path class="cls-2" d="M105.62,126.02h4.27c1.24,0,2.34.25,3.29.74.95.49,1.69,1.19,2.23,2.09.54.9.81,1.98.81,3.23s-.27,2.3-.81,3.2c-.54.9-1.28,1.6-2.23,2.09-.95.49-2.04.73-3.29.73h-4.27v-12.08ZM108.5,128.66v6.8h1.4c.65,0,1.22-.15,1.7-.45.48-.3.85-.7,1.11-1.21.26-.51.39-1.09.39-1.74s-.13-1.26-.39-1.77c-.26-.51-.63-.91-1.11-1.2s-1.04-.44-1.7-.44h-1.4Z"/>
    <path class="cls-2" d="M118.48,138.1v-12.08h2.88v12.08h-2.88Z"/>
    <path class="cls-2" d="M128.96,138.38c-.86,0-1.67-.15-2.4-.44-.74-.29-1.34-.75-1.8-1.37-.46-.62-.72-1.43-.76-2.43h2.84c0,.37.09.67.28.91.19.24.44.42.76.53s.68.17,1.07.17c.31,0,.6-.03.88-.08.27-.05.49-.15.66-.29.17-.14.25-.33.25-.57,0-.29-.09-.51-.27-.66-.18-.14-.5-.31-.96-.5l-2.63-1.14c-.86-.37-1.54-.81-2.02-1.31-.48-.5-.72-1.19-.72-2.06,0-1.02.42-1.84,1.25-2.47.83-.63,1.97-.94,3.42-.94s2.6.35,3.38,1.04,1.23,1.68,1.32,2.97h-2.83c-.07-.4-.25-.73-.53-1-.28-.27-.73-.41-1.35-.41-.45,0-.81.08-1.09.25-.28.17-.41.37-.41.62,0,.23.09.41.27.54.18.13.44.28.8.43l2.78,1.18c.92.4,1.61.87,2.07,1.41s.68,1.19.68,1.94c0,.81-.19,1.49-.58,2.03-.39.54-.95.95-1.68,1.22s-1.62.41-2.67.41Z"/>
    <path class="cls-2" d="M141.1,138.38c-1.06,0-1.98-.24-2.79-.71-.8-.47-1.43-1.18-1.88-2.12-.45-.94-.68-2.1-.68-3.48s.22-2.56.67-3.49c.45-.94,1.07-1.64,1.88-2.12.8-.48,1.73-.72,2.79-.72,1.52,0,2.69.36,3.48,1.08.8.72,1.27,1.65,1.42,2.8l-3.06.53c-.14-.52-.36-.94-.65-1.28-.3-.34-.69-.51-1.19-.51-.44,0-.84.13-1.17.4-.34.27-.6.67-.79,1.22s-.28,1.24-.28,2.09.1,1.51.29,2.06c.19.54.46.95.8,1.21.34.26.72.4,1.16.4.62,0,1.08-.16,1.39-.49.31-.33.46-.72.46-1.19h3.04c0,.93-.19,1.72-.56,2.36-.38.65-.93,1.13-1.65,1.47-.73.33-1.62.5-2.67.5Z"/>
    <path class="cls-2" d="M153.26,138.38c-1.15,0-2.15-.24-3-.72s-1.52-1.2-1.99-2.14c-.47-.94-.71-2.11-.71-3.5s.24-2.6.71-3.52c.47-.93,1.14-1.62,1.99-2.07s1.86-.68,3-.68,2.17.24,3.03.71c.86.47,1.53,1.18,2,2.11.47.93.71,2.08.71,3.46s-.24,2.59-.71,3.53c-.47.94-1.14,1.65-2,2.12-.86.47-1.87.71-3.03.71ZM153.26,135.8c.84,0,1.51-.33,2.02-.99s.76-1.6.76-2.8c0-1.13-.25-2.03-.76-2.69-.5-.66-1.18-.99-2.02-.99s-1.48.33-1.98.99c-.5.66-.76,1.56-.76,2.7s.25,2.12.76,2.79,1.16.99,1.98.99Z"/>
    <path class="cls-2" d="M165,134.9l2.61-8.88h3.01l-4,12.08h-3.04l-3.92-12.08h3.04l2.56,8.88h-.25Z"/>
    <path class="cls-2" d="M172.43,138.1v-12.08h8.07v2.49h-5.19v2.32h4.87v2.5h-4.87v2.24h5.19v2.52h-8.07Z"/>
    <path class="cls-2" d="M183.47,138.1v-12.08h4.72c1.51,0,2.69.35,3.52,1.04.84.69,1.26,1.62,1.26,2.79s-.42,2.05-1.26,2.74c-.84.69-2.01,1.03-3.52,1.03h-1.84v4.48h-2.88ZM186.35,131.74h1.51c.71,0,1.25-.15,1.61-.45.36-.3.54-.68.54-1.14s-.15-.87-.45-1.18c-.3-.31-.76-.46-1.36-.46h-1.84v3.23ZM189.77,138.1l-2.94-5.83h3.04l3.67,5.83h-3.77Z"/>
  </g>
  <g>
    <path class="cls-2" d="M257.9,126.02h4.27c1.24,0,2.34.25,3.29.74.95.49,1.69,1.19,2.23,2.09.54.9.81,1.98.81,3.23s-.27,2.3-.81,3.2c-.54.9-1.28,1.6-2.23,2.09-.95.49-2.04.73-3.29.73h-4.27v-12.08ZM260.78,128.66v6.8h1.4c.65,0,1.22-.15,1.7-.45.48-.3.85-.7,1.11-1.21.26-.51.39-1.09.39-1.74s-.13-1.26-.39-1.77c-.26-.51-.63-.91-1.11-1.2s-1.04-.44-1.7-.44h-1.4Z"/>
    <path class="cls-2" d="M270.74,138.1v-12.08h8.07v2.49h-5.19v2.32h4.87v2.5h-4.87v2.24h5.19v2.52h-8.07Z"/>
    <path class="cls-2" d="M281.78,138.1v-12.08h7.88v2.49h-5v2.37h4.47v2.46h-4.47v4.76h-2.88Z"/>
    <path class="cls-2" d="M292.04,138.1v-12.08h2.88v12.08h-2.88Z"/>
    <path class="cls-2" d="M297.92,126.02h3.01l4.85,7.31h-.2v-7.31h2.88v12.08h-2.78l-5.35-8.03h.48v8.03h-2.88v-12.08Z"/>
    <path class="cls-2" d="M311.49,138.1v-12.08h8.07v2.49h-5.19v2.32h4.87v2.5h-4.87v2.24h5.19v2.52h-8.07Z"/>
  </g>
  <g>
    <path class="cls-2" d="M484.62,126.02h4.27c1.24,0,2.34.25,3.29.74.95.49,1.69,1.19,2.23,2.09.54.9.81,1.98.81,3.23s-.27,2.3-.81,3.2c-.54.9-1.28,1.6-2.23,2.09-.95.49-2.04.73-3.29.73h-4.27v-12.08ZM487.5,128.66v6.8h1.4c.65,0,1.22-.15,1.7-.45.48-.3.85-.7,1.11-1.21.26-.51.39-1.09.39-1.74s-.13-1.26-.39-1.77c-.26-.51-.63-.91-1.11-1.2s-1.04-.44-1.7-.44h-1.4Z"/>
    <path class="cls-2" d="M497.46,138.1v-12.08h8.07v2.49h-5.19v2.32h4.87v2.5h-4.87v2.24h5.19v2.52h-8.07Z"/>
    <path class="cls-2" d="M512.64,134.9l2.61-8.88h3.01l-4,12.08h-3.04l-3.92-12.08h3.04l2.56,8.88h-.25Z"/>
    <path class="cls-2" d="M520.08,138.1v-12.08h8.07v2.49h-5.19v2.32h4.87v2.5h-4.87v2.24h5.19v2.52h-8.07Z"/>
    <path class="cls-2" d="M533.99,126.02v9.56h4.56v2.52h-7.44v-12.08h2.88Z"/>
    <path class="cls-2" d="M545.46,138.38c-1.15,0-2.15-.24-3-.72s-1.52-1.2-1.99-2.14c-.47-.94-.71-2.11-.71-3.5s.24-2.6.71-3.52c.47-.93,1.14-1.62,1.99-2.07s1.86-.68,3-.68,2.17.24,3.03.71c.86.47,1.53,1.18,2,2.11.47.93.71,2.08.71,3.46s-.24,2.59-.71,3.53c-.47.94-1.14,1.65-2,2.12-.86.47-1.87.71-3.03.71ZM545.46,135.8c.84,0,1.51-.33,2.02-.99s.76-1.6.76-2.8c0-1.13-.25-2.03-.76-2.69-.5-.66-1.18-.99-2.02-.99s-1.48.33-1.98.99c-.5.66-.76,1.56-.76,2.7s.25,2.12.76,2.79,1.16.99,1.98.99Z"/>
    <path class="cls-2" d="M553.42,138.1v-12.08h4.63c1.39,0,2.5.33,3.31,1,.82.67,1.22,1.66,1.22,2.97s-.41,2.29-1.22,2.97c-.82.68-1.92,1.01-3.31,1.01h-1.74v4.13h-2.9ZM556.32,131.44h1.74c.52,0,.92-.15,1.18-.44.27-.29.4-.63.4-1.02s-.13-.74-.4-1.04c-.27-.29-.66-.44-1.18-.44h-1.74v2.93Z"/>
  </g>
  <g>
    <path class="cls-2" d="M639.4,124.52h4.27c1.24,0,2.34.25,3.29.74.95.49,1.69,1.19,2.23,2.09.54.9.81,1.98.81,3.23s-.27,2.3-.81,3.2c-.54.9-1.28,1.6-2.23,2.09-.95.49-2.04.73-3.29.73h-4.27v-12.08ZM642.28,127.16v6.8h1.4c.65,0,1.22-.15,1.7-.45.48-.3.85-.7,1.11-1.21.26-.51.39-1.09.39-1.74s-.13-1.26-.39-1.77c-.26-.51-.63-.91-1.11-1.2s-1.04-.44-1.7-.44h-1.4Z"/>
    <path class="cls-2" d="M652.24,136.6v-12.08h8.07v2.49h-5.19v2.32h4.87v2.5h-4.87v2.24h5.19v2.52h-8.07Z"/>
    <path class="cls-2" d="M666.16,124.52v9.56h4.56v2.52h-7.44v-12.08h2.88Z"/>
    <path class="cls-2" d="M672.67,136.6v-12.08h2.88v12.08h-2.88Z"/>
    <path class="cls-2" d="M682.76,133.4l2.61-8.88h3.01l-4,12.08h-3.04l-3.92-12.08h3.04l2.56,8.88h-.25Z"/>
    <path class="cls-2" d="M690.2,136.6v-12.08h8.07v2.49h-5.19v2.32h4.87v2.5h-4.87v2.24h5.19v2.52h-8.07Z"/>
    <path class="cls-2" d="M701.23,136.6v-12.08h4.72c1.51,0,2.69.35,3.52,1.04.84.69,1.26,1.62,1.26,2.79s-.42,2.05-1.26,2.74c-.84.69-2.01,1.03-3.52,1.03h-1.84v4.48h-2.88ZM704.11,130.24h1.51c.71,0,1.25-.15,1.61-.45.36-.3.54-.68.54-1.14s-.15-.87-.45-1.18c-.3-.31-.76-.46-1.36-.46h-1.84v3.23ZM707.53,136.6l-2.94-5.83h3.04l3.67,5.83h-3.77Z"/>
  </g>
</svg>