<?xml version="1.0" encoding="UTF-8"?>
<svg id="Layer_2" data-name="Layer 2" xmlns="http://www.w3.org/2000/svg" viewBox="0 0 55.84 46.13">
  <defs>
    <style>
      .cls-1 {
        fill: #db3a34;
      }

      .cls-2 {
        fill: #ffc0c0;
      }
    </style>
  </defs>
  <path class="cls-2" d="M51.06,10.24c.24-2.88-.81-5.66-2.9-7.62-2.11-1.98-4.99-2.88-7.89-2.45-8.89,1.31-13.79,7.52-14.69,18.46-1.93-4.93-5.11-8.29-9.52-9.99-2.58-1-5.46-.68-7.71.85-2.27,1.55-3.59,4.04-3.61,6.83-.07,8.55,6.5,13.74,19.48,15.45v10.5c.2.02.4.04.6.05.96.05,1.87-.02,2.75-.18v-9.98l.28.03-.03-.65.38-.1c14.3-3.88,22-11.01,22.86-21.2Z"/>
  <path class="cls-1" d="M24.22,42.28c-1.92-.2-3.94-.94-6.3-2.32-4.51-2.62-8.51-.81-12.23,1.26l1.82,3.25c3.72-2.08,5.94-2.8,8.54-1.29,3.1,1.8,5.91,2.74,8.59,2.87.26.01.53.02.79.02,2.37,0,4.63-.52,6.72-1.55l.1-.05c4.54-2.6,9.73-2.15,13.87,1.19l2.33-2.9c-5.29-4.26-12.18-4.85-18-1.55-.93.45-1.89.76-2.89.95-.88.16-1.79.23-2.75.18-.2,0-.4-.03-.6-.05Z"/>
</svg>