<?xml version="1.0" encoding="UTF-8"?>
<svg id="Layer_11" data-name="Layer 11" xmlns="http://www.w3.org/2000/svg" viewBox="0 0 120 120">
  <defs>
    <style>
      .cls-1 {
        fill: #db3a34;
      }

      .cls-2 {
        fill: #ffc0c0;
      }
    </style>
  </defs>
  <circle class="cls-2" cx="60" cy="60" r="60"/>
  <g>
    <path class="cls-1" d="M61.12,61.92h-29.44v-3h30.15c.66-1.78,1.72-3.37,3.08-4.65H27.28v12.31h34.26c-.31-1.07-.48-2.2-.48-3.37,0-.43.02-.86.07-1.28Z"/>
    <path class="cls-1" d="M84.88,58.92h2.73v3h-2.01c.04.42.07.85.07,1.28,0,1.17-.18,2.3-.48,3.37h6.85v-12.31h-10.23c1.36,1.28,2.42,2.87,3.08,4.65Z"/>
    <path class="cls-1" d="M27.28,38.44v12.31h64.75v-12.31H27.28ZM87.61,46.09H31.68v-3h55.93v3Z"/>
    <rect class="cls-2" x="31.68" y="43.09" width="55.93" height="3"/>
    <path class="cls-2" d="M57.61,75.45v-.13h-26v3h25.54c-.25-1-.08-2.02.46-2.87Z"/>
    <path class="cls-2" d="M85.6,61.92h2.01v-3h-2.73c-.66-1.78-1.72-3.37-3.08-4.65-2.2-2.08-5.17-3.37-8.44-3.37s-6.24,1.29-8.44,3.37c-1.36,1.28-2.42,2.87-3.08,4.65h-30.15v3h29.44c-.04.42-.07.85-.07,1.28,0,1.17.18,2.3.48,3.37.59,2.08,1.71,3.94,3.22,5.42.8.07,1.63.22,2.5.5v-10.46s0-.08,0-.12c.16-2.7,2.09-4.96,4.6-5.37,1.44-.24,2.98.17,4.2,1.11,1.31,1.01,2.14,2.54,2.29,4.2,0,.06,0,.12,0,.18v6.27c2.18.14,4.1.41,5.72.93.47-.83.83-1.73,1.1-2.66.31-1.07.48-2.2.48-3.37,0-.43-.02-.86-.07-1.28Z"/>
    <path class="cls-2" d="M74.35,69.45v-7.32c-.09-.71-.5-1.13-.74-1.32-.34-.26-.75-.38-1.1-.33-.57.09-1.19.72-1.26,1.61v12.64c0,.85-.43,1.64-1.15,2.09-.72.46-1.61.51-2.38.14-3.78-1.8-5.42-.98-6.53.34,5.03,1.93,9.57,5.71,14.25,11.88l7.51-.87,2.54-8.62c.53-2.5.4-4.29-.38-5.3-1.26-1.64-4.8-2.02-8.09-2.17-1.49-.07-2.65-1.29-2.65-2.78Z"/>
    <polygon class="cls-2" points="69.44 73.36 69.44 73.36 69.44 73.36 69.44 73.36"/>
    <path class="cls-1" d="M78.35,62.03c0-.06,0-.12,0-.18-.15-1.66-.98-3.19-2.29-4.2-1.23-.95-2.76-1.35-4.2-1.11-2.51.42-4.44,2.68-4.6,5.37,0,.04,0,.08,0,.12v10.46c-.88-.28-1.71-.43-2.5-.5-1.2-.1-2.31.04-3.33.41v-1.73H27.36v12.31h34.06v-1.2c3.7,1.82,7.11,4.93,10.83,9.83.76,1.01,1.96,1.6,3.21,1.6.15,0,.31,0,.46-.03l7.5-.88c1.6-.19,2.92-1.3,3.37-2.85l2.56-8.69s.03-.1.04-.15c.81-3.8.45-6.63-1.11-8.65-1.02-1.32-2.44-2.17-4.19-2.73-1.63-.52-3.54-.79-5.72-.93v-6.27ZM69.44,73.36h0s0,0,0,0c0,0,0,0,0,0ZM31.61,75.32h26v.13c-.54.86-.72,1.88-.46,2.87h-25.54v-3ZM85.1,74.4c.78,1.01.91,2.8.38,5.3l-2.54,8.62-7.51.87c-4.68-6.17-9.21-9.96-14.25-11.88,1.11-1.31,2.75-2.14,6.53-.34.77.37,1.66.31,2.38-.14.72-.46,1.15-1.24,1.15-2.09v-12.64c.07-.89.69-1.52,1.26-1.61.35-.05.75.07,1.1.33.24.19.65.6.74,1.32v7.32c0,1.49,1.17,2.71,2.65,2.78,3.29.15,6.83.53,8.09,2.17Z"/>
  </g>
</svg>