<?xml version="1.0" encoding="UTF-8"?>
<svg id="Layer_2" data-name="Layer 2" xmlns="http://www.w3.org/2000/svg" viewBox="0 0 55 55">
  <defs>
    <style>
      .cls-1 {
        fill: #251f3a;
      }
    </style>
  </defs>
  <path id="path2" class="cls-1" d="M38.47,37.63c.58-2.02.71-3.71.71-4.97,0-5.24-2.99-8.7-2.99-8.7h7.12c.81,1.75,1.43,4.45,1.43,8.17,0,1.53-.45,5.53-2.87,10.05l8.87,11.93h-10.24l-3.75-5.06c-3.69,3.41-8.97,5.95-16.5,5.95-9.49,0-15.98-6.67-15.98-15.64,0-14.5,14.05-15.49,14.05-15.49l-3.11-3.68c-4.22-5.06-4.07-11.4-1.28-15.32C16.44,1.32,19.84,0,24.97,0c10.53,0,12.53,9.94,12.53,9.94h-8.53s-.28-5.09-4.95-5.09c-4.42,0-5.69,3.18-5.33,5.93.15,1.15.64,2.23,1.23,2.97,0,0,8.87,11.01,10.26,12.65l-5.92.03c-1.35,0-2.83-.09-4.25.38-1.46.48-2.75,1.37-3.76,2.57-1.87,2.21-2.66,5.27-2.49,8.2.17,3.03,1.11,6.21,3.2,8.41,1.9,2,4.92,2.95,7.57,2.95,4.15,0,7.21-1.52,9.39-3.65l-10.37-14.03h10.22l4.69,6.37Z"/>
</svg>