<?xml version="1.0" encoding="UTF-8"?>
<svg xmlns="http://www.w3.org/2000/svg" viewBox="0 0 566.33 267.08">
  <defs>
    <style>
      .cls-1 {
        fill: none;
      }

      .cls-2 {
        fill: #cad2f7;
      }

      .cls-3 {
        fill: #251f3a;
      }
    </style>
  </defs>
  <g id="Text">
    <g>
      <path d="M325.78,59.84v-10.38h3.66c1.17,0,2.08.29,2.73.86.65.58.98,1.39.98,2.45s-.33,1.86-.98,2.43c-.65.58-1.56.86-2.73.86h-1.76v3.78h-1.9ZM327.68,54.42h1.76c.59,0,1.03-.16,1.33-.46.3-.31.45-.7.45-1.18s-.15-.89-.45-1.21c-.3-.31-.74-.47-1.33-.47h-1.76v3.33Z"/>
      <path d="M335.11,59.84v-7.79h1.89v7.79h-1.89ZM336.54,56.43c0-1.02.12-1.86.34-2.53.23-.67.54-1.16.92-1.48.39-.32.82-.48,1.29-.48.13,0,.25,0,.36.02.12.02.23.04.34.07l-.03,1.89c-.14-.03-.29-.06-.45-.08s-.3-.03-.43-.03c-.42,0-.76.1-1.04.3-.28.2-.49.5-.63.88-.14.39-.21.87-.21,1.44h-.46Z"/>
      <path d="M344.29,60.06c-.66,0-1.27-.17-1.82-.51-.55-.34-.99-.82-1.32-1.44-.33-.62-.5-1.34-.5-2.16s.16-1.59.49-2.2c.33-.61.77-1.08,1.32-1.41.55-.33,1.16-.49,1.82-.49.62,0,1.15.12,1.6.37.45.25.81.58,1.09,1.01.27.42.46.9.56,1.44s.1,1.08.02,1.65h-5.39v-1.02h4.06l-.37.24c.02-.25,0-.5-.04-.76-.04-.26-.12-.49-.23-.7-.11-.21-.27-.39-.48-.52-.21-.13-.47-.2-.79-.2-.38,0-.71.1-.98.29-.27.19-.47.45-.61.78-.14.33-.21.7-.21,1.12v.75c0,.44.07.82.2,1.16.13.34.33.6.58.79s.59.29.98.29c.37,0,.68-.08.93-.26s.41-.43.48-.77h1.9c-.08.5-.27.94-.56,1.32-.3.38-.68.68-1.15.9-.47.22-1,.32-1.6.32Z"/>
      <path d="M349.12,55.84v-1.65h4.5v1.65h-4.5Z"/>
      <path d="M358.9,60.06c-.71,0-1.35-.15-1.92-.46-.57-.3-1.03-.76-1.36-1.36s-.5-1.36-.5-2.28.17-1.7.5-2.3c.34-.61.79-1.06,1.36-1.36s1.21-.45,1.92-.45,1.33.15,1.9.45,1.02.75,1.36,1.36c.34.61.5,1.38.5,2.3s-.17,1.67-.5,2.28c-.34.61-.79,1.06-1.36,1.36-.57.3-1.2.46-1.9.46ZM358.84,58.42c.37,0,.71-.09,1-.28.29-.18.52-.46.69-.82.17-.36.25-.81.25-1.35,0-.82-.16-1.44-.48-1.86-.32-.42-.76-.62-1.32-.62-.38,0-.71.09-1.01.28-.29.18-.52.46-.69.83s-.25.83-.25,1.38c0,.81.16,1.42.49,1.83.33.41.77.62,1.33.62Z"/>
      <path d="M364.9,59.84v-10.98h1.89v9.06l-.66,1.92h-1.23ZM368.87,60.06c-.49,0-.93-.14-1.33-.41-.4-.27-.72-.68-.96-1.22-.24-.54-.36-1.22-.36-2.04h.58c0,.39.09.73.26,1.02.18.29.4.52.68.68.28.16.57.24.86.24.37,0,.7-.1.98-.3.29-.2.52-.49.68-.85.17-.36.25-.79.25-1.28s-.08-.89-.25-1.24c-.17-.35-.39-.63-.68-.83-.29-.2-.62-.3-1-.3-.31,0-.61.08-.88.23-.27.15-.49.37-.66.66-.17.29-.25.63-.25,1.04h-.58c0-.78.11-1.45.34-1.98.23-.54.55-.95.97-1.22.42-.27.92-.41,1.49-.41.63,0,1.2.17,1.72.5.51.33.92.81,1.23,1.42.31.61.46,1.33.46,2.15s-.16,1.56-.48,2.18c-.32.62-.75,1.1-1.28,1.45-.54.34-1.14.52-1.79.52Z"/>
      <path d="M377.62,60.06c-.75,0-1.39-.1-1.92-.31s-.95-.5-1.24-.89-.44-.85-.44-1.4h1.74c.02.38.17.66.46.84.29.18.68.26,1.18.26.27,0,.51-.04.72-.12.21-.08.38-.19.49-.33s.18-.29.18-.46c0-.22-.08-.39-.24-.52-.16-.12-.41-.24-.76-.35l-1.7-.61c-.61-.22-1.08-.51-1.4-.86s-.49-.78-.49-1.28c0-.66.3-1.19.89-1.59s1.39-.6,2.39-.6,1.76.22,2.3.65c.54.43.82.99.84,1.65h-1.78c-.03-.26-.15-.46-.37-.61s-.55-.22-.99-.22c-.4,0-.71.08-.94.24-.23.16-.34.35-.34.57,0,.37.31.65.94.83l1.84.69c.6.2,1.06.46,1.39.78.33.32.5.72.5,1.22,0,.41-.14.8-.41,1.16s-.66.66-1.15.89c-.49.23-1.06.34-1.7.34Z"/>
      <path d="M386.06,60.06c-.66,0-1.27-.17-1.82-.51-.55-.34-.99-.82-1.32-1.44-.33-.62-.5-1.34-.5-2.16s.16-1.59.49-2.2c.33-.61.77-1.08,1.32-1.41.55-.33,1.16-.49,1.82-.49.62,0,1.15.12,1.6.37.45.25.81.58,1.09,1.01.27.42.46.9.56,1.44s.1,1.08.02,1.65h-5.39v-1.02h4.06l-.37.24c.02-.25,0-.5-.04-.76-.04-.26-.12-.49-.23-.7-.11-.21-.27-.39-.48-.52-.21-.13-.47-.2-.79-.2-.38,0-.71.1-.98.29-.27.19-.47.45-.61.78-.14.33-.21.7-.21,1.12v.75c0,.44.07.82.2,1.16.13.34.33.6.58.79s.59.29.98.29c.37,0,.68-.08.93-.26s.41-.43.48-.77h1.9c-.08.5-.27.94-.56,1.32-.3.38-.68.68-1.15.9-.47.22-1,.32-1.6.32Z"/>
      <path d="M391.65,59.84v-7.79h1.89v7.79h-1.89ZM393.07,56.43c0-1.02.12-1.86.34-2.53.23-.67.54-1.16.92-1.48.39-.32.82-.48,1.29-.48.13,0,.25,0,.36.02.12.02.23.04.34.07l-.03,1.89c-.14-.03-.29-.06-.45-.08s-.3-.03-.43-.03c-.42,0-.76.1-1.04.3-.28.2-.49.5-.63.88-.14.39-.21.87-.21,1.44h-.46Z"/>
      <path d="M396.63,52.08h2.18l1.86,6.14h-.14l1.86-6.14h2.18l-2.9,7.76h-2.13l-2.9-7.76Z"/>
      <path d="M408.63,60.06c-.67,0-1.22-.12-1.67-.35-.45-.23-.78-.54-1-.92-.22-.38-.34-.79-.34-1.23,0-.49.13-.9.39-1.24s.62-.58,1.1-.75,1.04-.25,1.68-.25c.42,0,.82.03,1.2.1s.75.15,1.12.26v1.1c-.29-.1-.61-.17-.96-.22-.35-.05-.67-.08-.98-.08-.45,0-.82.08-1.1.25-.29.17-.43.45-.43.84,0,.29.12.54.35.74s.61.31,1.12.31c.39,0,.72-.08.99-.26.27-.17.48-.38.62-.64.14-.26.21-.51.21-.77h.45c0,.56-.1,1.08-.31,1.55s-.52.85-.92,1.13c-.41.28-.91.42-1.52.42ZM411.17,59.84l-.24-1.89v-3.12c0-.54-.11-.95-.33-1.21-.22-.26-.6-.39-1.12-.39-.3,0-.57.05-.79.14s-.4.22-.52.39c-.12.17-.18.37-.18.61h-2.06c0-.59.14-1.07.42-1.44.28-.37.69-.64,1.22-.82.53-.17,1.17-.26,1.91-.26.67,0,1.26.11,1.76.32s.89.55,1.17,1,.42,1.02.42,1.72v4.94h-1.65Z"/>
      <path d="M414.61,53.33v-1.25h5.09v1.25h-5.09ZM418.21,60.06c-.46,0-.88-.08-1.26-.26-.38-.17-.69-.43-.91-.78-.23-.35-.34-.8-.34-1.34v-7.66h1.89v7.6c0,.64.3.96.91.96.19,0,.37-.02.56-.06s.4-.11.64-.19l.27,1.33c-.3.12-.59.22-.87.3-.28.08-.58.12-.89.12Z"/>
      <path d="M423.01,50.66c-.37,0-.65-.1-.86-.29-.21-.2-.31-.47-.31-.81s.1-.6.31-.8.49-.3.86-.3.64.1.85.3.32.47.32.8-.1.62-.32.81c-.21.19-.5.29-.85.29ZM422.06,59.84v-7.79h1.89v7.79h-1.89Z"/>
      <path d="M430.21,60.06c-.71,0-1.35-.15-1.92-.46-.57-.3-1.03-.76-1.36-1.36s-.5-1.36-.5-2.28.17-1.7.5-2.3c.34-.61.79-1.06,1.36-1.36s1.21-.45,1.92-.45,1.33.15,1.9.45,1.02.75,1.36,1.36c.34.61.5,1.38.5,2.3s-.17,1.67-.5,2.28c-.34.61-.79,1.06-1.36,1.36-.57.3-1.2.46-1.9.46ZM430.14,58.42c.37,0,.71-.09,1-.28.29-.18.52-.46.69-.82.17-.36.25-.81.25-1.35,0-.82-.16-1.44-.48-1.86-.32-.42-.76-.62-1.32-.62-.38,0-.71.09-1.01.28-.29.18-.52.46-.69.83s-.25.83-.25,1.38c0,.81.16,1.42.49,1.83.33.41.77.62,1.33.62Z"/>
      <path d="M436.21,59.84v-7.76h1.65l.24,1.54v6.22h-1.89ZM441.53,59.84v-4.54c0-.58-.14-1.01-.42-1.3-.28-.29-.64-.44-1.09-.44-.38,0-.71.1-1,.31-.29.21-.52.52-.68.94s-.25.94-.25,1.56h-.62c0-1.01.13-1.85.38-2.52.25-.67.61-1.17,1.06-1.5.46-.33,1-.5,1.62-.5s1.17.14,1.6.43.75.69.97,1.2c.22.52.32,1.12.32,1.81v4.54h-1.89Z"/>
      <path d="M453.12,60.06c-.63,0-1.23-.16-1.78-.49-.55-.33-1-.79-1.34-1.41-.34-.61-.51-1.35-.51-2.22s.17-1.59.5-2.2.77-1.08,1.31-1.4c.54-.33,1.11-.49,1.72-.49.5,0,.96.13,1.38.38.42.25.76.64,1.02,1.16.26.52.38,1.19.38,2h-.7c0-.39-.08-.72-.24-1-.16-.27-.37-.48-.63-.63-.26-.14-.56-.22-.88-.22-.38,0-.72.1-1.01.29s-.53.47-.7.83-.26.79-.26,1.28c0,.54.1.99.3,1.35s.45.62.76.79c.31.17.62.26.94.26.29,0,.57-.07.83-.2.26-.13.47-.32.64-.56.16-.25.24-.54.24-.89h.37c0,.66-.08,1.24-.23,1.75-.15.5-.4.9-.75,1.18-.34.29-.8.43-1.37.43ZM457.52,63.85c-.87-.22-1.49-.56-1.86-1.02-.37-.46-.56-1.11-.56-1.94v-6.9l.67-1.92h1.22v8.96c0,.31.03.56.1.74.06.18.17.32.33.42.16.1.37.19.64.28l-.54,1.38Z"/>
      <path d="M459.82,52.05h1.89v4.77c0,.51.13.89.38,1.14.25.25.59.38,1.03.38.37,0,.71-.1,1.02-.29s.55-.48.74-.86c.18-.38.28-.85.28-1.42h.51c0,.95-.12,1.74-.37,2.36-.25.62-.58,1.09-1.02,1.4-.43.31-.93.46-1.5.46s-1.06-.1-1.5-.3-.8-.51-1.06-.95c-.26-.44-.39-1.01-.39-1.73v-4.96ZM465.15,52.05h1.89v7.79h-1.89v-7.79Z"/>
      <path d="M472.91,60.06c-.66,0-1.27-.17-1.82-.51-.55-.34-.99-.82-1.32-1.44-.33-.62-.5-1.34-.5-2.16s.16-1.59.49-2.2.77-1.08,1.32-1.41c.55-.33,1.16-.49,1.82-.49.62,0,1.15.12,1.6.37.45.25.81.58,1.09,1.01.27.42.46.9.56,1.44.1.53.1,1.08.02,1.65h-5.39v-1.02h4.06l-.37.24c.02-.25,0-.5-.04-.76-.04-.26-.12-.49-.23-.7-.11-.21-.27-.39-.48-.52s-.47-.2-.79-.2c-.38,0-.71.1-.98.29-.27.19-.47.45-.61.78-.14.33-.21.7-.21,1.12v.75c0,.44.07.82.2,1.16s.33.6.58.79.58.29.98.29c.37,0,.68-.08.93-.26.25-.17.41-.43.48-.77h1.9c-.08.5-.27.94-.56,1.32-.3.38-.68.68-1.15.9-.47.22-1,.32-1.6.32Z"/>
      <path d="M481.39,60.06c-.75,0-1.39-.1-1.92-.31s-.95-.5-1.24-.89-.43-.85-.44-1.4h1.74c.02.38.17.66.46.84.29.18.68.26,1.18.26.27,0,.51-.04.72-.12s.38-.19.49-.33.18-.29.18-.46c0-.22-.08-.39-.24-.52-.16-.12-.41-.24-.76-.35l-1.7-.61c-.61-.22-1.07-.51-1.4-.86s-.49-.78-.49-1.28c0-.66.3-1.19.89-1.59.59-.4,1.39-.6,2.39-.6s1.76.22,2.3.65.82.99.84,1.65h-1.78c-.03-.26-.15-.46-.37-.61s-.55-.22-.99-.22c-.4,0-.71.08-.94.24-.23.16-.34.35-.34.57,0,.37.31.65.94.83l1.84.69c.6.2,1.06.46,1.39.78.33.32.5.72.5,1.22,0,.41-.14.8-.41,1.16-.27.37-.66.66-1.15.89-.49.23-1.06.34-1.7.34Z"/>
      <path d="M485.96,53.33v-1.25h5.09v1.25h-5.09ZM489.56,60.06c-.46,0-.88-.08-1.26-.26-.38-.17-.69-.43-.91-.78-.23-.35-.34-.8-.34-1.34v-7.66h1.89v7.6c0,.64.3.96.91.96.19,0,.37-.02.56-.06s.4-.11.64-.19l.27,1.33c-.3.12-.59.22-.87.3-.28.08-.58.12-.89.12Z"/>
      <path d="M494.35,50.66c-.37,0-.65-.1-.86-.29-.21-.2-.31-.47-.31-.81s.1-.6.31-.8.49-.3.86-.3.64.1.85.3.32.47.32.8-.1.62-.32.81c-.21.19-.5.29-.85.29ZM493.41,59.84v-7.79h1.89v7.79h-1.89Z"/>
      <path d="M501.55,60.06c-.71,0-1.35-.15-1.92-.46-.57-.3-1.03-.76-1.36-1.36s-.5-1.36-.5-2.28.17-1.7.5-2.3c.34-.61.79-1.06,1.36-1.36s1.21-.45,1.92-.45,1.33.15,1.9.45,1.02.75,1.36,1.36c.34.61.5,1.38.5,2.3s-.17,1.67-.5,2.28c-.34.61-.79,1.06-1.36,1.36-.57.3-1.2.46-1.9.46ZM501.49,58.42c.37,0,.71-.09,1-.28.29-.18.52-.46.69-.82.17-.36.25-.81.25-1.35,0-.82-.16-1.44-.48-1.86-.32-.42-.76-.62-1.32-.62-.38,0-.71.09-1.01.28-.29.18-.52.46-.69.83s-.25.83-.25,1.38c0,.81.16,1.42.49,1.83.33.41.77.62,1.33.62Z"/>
      <path d="M507.55,59.84v-7.76h1.65l.24,1.54v6.22h-1.89ZM512.88,59.84v-4.54c0-.58-.14-1.01-.42-1.3-.28-.29-.64-.44-1.09-.44-.38,0-.71.1-1,.31-.29.21-.52.52-.68.94s-.25.94-.25,1.56h-.62c0-1.01.13-1.85.38-2.52.25-.67.61-1.17,1.06-1.5.46-.33,1-.5,1.62-.5s1.17.14,1.6.43.75.69.97,1.2c.22.52.32,1.12.32,1.81v4.54h-1.89Z"/>
      <path d="M520.41,60.06c-.75,0-1.39-.1-1.92-.31s-.95-.5-1.24-.89-.44-.85-.44-1.4h1.74c.02.38.17.66.46.84.29.18.68.26,1.18.26.27,0,.51-.04.72-.12.21-.08.38-.19.49-.33s.18-.29.18-.46c0-.22-.08-.39-.24-.52-.16-.12-.41-.24-.76-.35l-1.7-.61c-.61-.22-1.08-.51-1.4-.86s-.49-.78-.49-1.28c0-.66.3-1.19.89-1.59s1.39-.6,2.39-.6,1.76.22,2.3.65c.54.43.82.99.84,1.65h-1.78c-.03-.26-.15-.46-.37-.61s-.55-.22-.99-.22c-.4,0-.71.08-.94.24-.23.16-.34.35-.34.57,0,.37.31.65.94.83l1.84.69c.6.2,1.06.46,1.39.78.33.32.5.72.5,1.22,0,.41-.14.8-.41,1.16s-.66.66-1.15.89c-.49.23-1.06.34-1.7.34Z"/>
      <path d="M324.82,74.82c0-.46.16-.85.48-1.18.32-.33.72-.49,1.22-.49s.9.16,1.24.49c.34.33.51.72.51,1.18s-.17.84-.51,1.16c-.34.31-.75.47-1.24.47s-.9-.16-1.22-.47c-.32-.31-.48-.7-.48-1.15Z"/>
      <path d="M343.73,68.99h1.25v6.42c0,.94.24,1.62.71,2.04s1.1.63,1.86.63,1.38-.21,1.85-.63c.47-.42.71-1.1.71-2.04v-6.42h1.25v6.42c0,.84-.16,1.55-.47,2.12-.31.57-.75.99-1.32,1.28-.57.29-1.24.43-2.02.43s-1.45-.14-2.02-.43-1.02-.71-1.33-1.28c-.31-.57-.47-1.27-.47-2.12v-6.42Z"/>
      <path d="M357.15,79.23c-.74,0-1.36-.11-1.86-.32-.5-.21-.87-.5-1.13-.87-.26-.37-.39-.8-.41-1.28h1.2c.03.49.22.85.59,1.09.37.24.86.36,1.49.36.33,0,.63-.05.91-.16.28-.11.5-.25.66-.44s.25-.4.25-.63c0-.3-.11-.53-.33-.7s-.57-.32-1.05-.45l-1.49-.48c-.64-.2-1.14-.48-1.48-.84-.34-.36-.52-.78-.52-1.28,0-.62.27-1.11.82-1.49.54-.37,1.26-.56,2.14-.56.94,0,1.67.19,2.18.58.52.38.79.86.81,1.44h-1.23c-.05-.34-.22-.59-.51-.76-.29-.17-.71-.26-1.25-.26s-.92.12-1.21.35c-.29.23-.44.49-.44.77,0,.53.45.92,1.36,1.17l1.52.51c.66.2,1.16.46,1.51.78.35.32.52.73.52,1.22,0,.38-.13.75-.38,1.09-.25.34-.61.62-1.06.83s-1,.32-1.63.32Z"/>
      <path d="M365.46,79.23c-.66,0-1.25-.17-1.77-.51-.52-.34-.93-.81-1.23-1.41-.3-.6-.45-1.3-.45-2.08,0-.84.15-1.56.45-2.16.3-.6.71-1.07,1.23-1.39.52-.32,1.11-.48,1.78-.48.58,0,1.08.12,1.49.35.41.24.74.55.99.95.25.4.43.85.52,1.36s.13,1.03.08,1.56h-5.54v-.77h4.71l-.37.24c.02-.32,0-.63-.05-.94s-.15-.6-.28-.87-.33-.48-.58-.64-.57-.24-.96-.24c-.49,0-.9.12-1.23.38-.33.25-.58.58-.74.99-.17.41-.25.85-.25,1.32v.51c0,.53.08,1.01.24,1.43.16.42.41.75.73,1s.74.37,1.23.37.9-.12,1.22-.36c.32-.24.51-.59.58-1.06h1.3c-.08.51-.26.94-.54,1.31-.28.37-.64.65-1.08.84-.44.2-.93.3-1.48.3Z"/>
      <path d="M371.02,79.04v-7.66h1.25v7.66h-1.25ZM371.89,75.58c0-.97.09-1.78.28-2.42.19-.64.46-1.12.82-1.44.36-.32.8-.48,1.32-.48.17,0,.33.01.47.04.14.02.28.06.43.11l-.08,1.23c-.15-.05-.31-.09-.49-.12-.18-.03-.33-.05-.47-.05-.45,0-.82.13-1.1.39s-.48.62-.6,1.09c-.12.47-.19,1.02-.19,1.66h-.38Z"/>
      <path d="M376.33,72.34l-.9-.48c.3-.16.56-.33.77-.52.21-.19.35-.42.41-.68-.24-.03-.44-.11-.6-.25-.16-.14-.24-.32-.24-.55s.09-.43.26-.59c.18-.16.4-.24.66-.24.22,0,.42.06.58.17.16.11.28.27.37.46s.13.4.13.64c0,.38-.12.76-.38,1.12s-.61.67-1.06.92Z"/>
      <path d="M382.96,79.23c-.74,0-1.36-.11-1.86-.32s-.87-.5-1.13-.87c-.26-.37-.39-.8-.41-1.28h1.2c.03.49.22.85.59,1.09.37.24.86.36,1.49.36.33,0,.63-.05.91-.16.28-.11.5-.25.66-.44.17-.19.25-.4.25-.63,0-.3-.11-.53-.33-.7s-.57-.32-1.05-.45l-1.49-.48c-.65-.2-1.14-.48-1.48-.84-.34-.36-.52-.78-.52-1.28,0-.62.27-1.11.82-1.49.54-.37,1.26-.56,2.14-.56.94,0,1.67.19,2.18.58.52.38.79.86.81,1.44h-1.23c-.05-.34-.22-.59-.51-.76-.29-.17-.71-.26-1.25-.26s-.92.12-1.21.35c-.29.23-.44.49-.44.77,0,.53.45.92,1.36,1.17l1.52.51c.66.2,1.16.46,1.51.78.35.32.52.73.52,1.22,0,.38-.12.75-.38,1.09-.25.34-.61.62-1.06.83-.46.21-1,.32-1.63.32Z"/>
      <path d="M391.21,79.04l3.46-10.05h1.52l3.38,10.05h-1.31l-.85-2.58h-4l-.88,2.58h-1.31ZM393.73,75.49h3.36l-1.68-4.98-1.68,4.98Z"/>
      <path d="M401.61,68.99h2.94c1.01,0,1.89.21,2.64.62.75.41,1.33,1,1.74,1.75.41.75.62,1.64.62,2.66s-.21,1.89-.62,2.64c-.41.75-.99,1.34-1.74,1.76-.75.42-1.63.63-2.64.63h-2.94v-10.05ZM402.85,70.09v7.86h1.7c.76,0,1.41-.17,1.96-.51.55-.34.97-.81,1.26-1.4.3-.59.44-1.27.44-2.02s-.15-1.43-.44-2.02c-.3-.59-.72-1.05-1.26-1.39-.55-.34-1.2-.51-1.96-.51h-1.7Z"/>
      <path d="M412.17,68.99h1.25v4.43h4.98v-4.43h1.23v10.05h-1.23v-4.54h-4.98v4.54h-1.25v-10.05Z"/>
      <path d="M422.86,68.99h2.94c1.01,0,1.89.21,2.64.62.75.41,1.33,1,1.74,1.75.41.75.62,1.64.62,2.66s-.21,1.89-.62,2.64c-.41.75-.99,1.34-1.74,1.76-.75.42-1.63.63-2.64.63h-2.94v-10.05ZM424.11,70.09v7.86h1.7c.76,0,1.41-.17,1.96-.51.55-.34.97-.81,1.26-1.4.3-.59.44-1.27.44-2.02s-.15-1.43-.44-2.02c-.3-.59-.72-1.05-1.26-1.39-.55-.34-1.2-.51-1.96-.51h-1.7Z"/>
      <path d="M436.15,72.26v-.86h4.88v.86h-4.88ZM439.57,79.23c-.42,0-.79-.08-1.12-.24-.33-.16-.59-.4-.78-.72-.19-.32-.29-.72-.29-1.2v-7.81h1.23v7.78c0,.79.37,1.18,1.1,1.18.22,0,.43-.02.64-.07s.44-.12.69-.22l.18.9c-.27.12-.54.21-.81.29-.27.07-.55.11-.84.11Z"/>
      <path d="M441.97,71.39h1.39l2.5,6.56h-.29l1.94-6.56h1.28l-2.88,9.18c-.24.77-.56,1.36-.96,1.78-.4.42-.91.62-1.54.62-.34,0-.65-.05-.96-.14-.3-.1-.61-.23-.93-.42v-1.15c.28.22.56.38.82.48.26.1.54.14.83.14.32,0,.59-.1.8-.3s.4-.46.54-.78c.14-.32.27-.65.37-1l.22-.77-3.14-7.65Z"/>
      <path d="M450.69,82.8v-11.41h1.04l.21,1.79v9.62h-1.25ZM454.16,79.23c-.56,0-1.05-.13-1.46-.38-.41-.26-.73-.63-.96-1.12-.22-.49-.34-1.09-.34-1.8h.53c0,.47.1.88.3,1.2s.46.57.77.74c.32.17.65.25,1.01.25.38,0,.75-.11,1.1-.33.35-.22.64-.55.86-.98.22-.43.34-.96.34-1.6s-.1-1.13-.31-1.56c-.21-.43-.48-.76-.83-.99-.35-.23-.73-.34-1.15-.34-.36,0-.7.09-1.02.26-.32.18-.58.43-.78.77s-.3.76-.3,1.25h-.53c0-.74.12-1.36.37-1.87.25-.5.58-.88,1-1.14.42-.26.89-.38,1.42-.38.6,0,1.15.16,1.67.48.52.32.94.78,1.26,1.38.32.6.48,1.31.48,2.14s-.16,1.57-.48,2.17c-.32.6-.75,1.06-1.27,1.38s-1.09.48-1.69.48Z"/>
      <path d="M462.69,79.23c-.66,0-1.25-.17-1.77-.51-.52-.34-.93-.81-1.23-1.41-.3-.6-.45-1.3-.45-2.08,0-.84.15-1.56.45-2.16.3-.6.71-1.07,1.23-1.39.52-.32,1.11-.48,1.78-.48.58,0,1.08.12,1.49.35.41.24.74.55.99.95.25.4.43.85.52,1.36s.13,1.03.08,1.56h-5.54v-.77h4.71l-.37.24c.02-.32,0-.63-.05-.94s-.15-.6-.28-.87-.33-.48-.58-.64-.57-.24-.96-.24c-.49,0-.9.12-1.23.38-.33.25-.58.58-.74.99-.17.41-.25.85-.25,1.32v.51c0,.53.08,1.01.24,1.43.16.42.41.75.73,1s.74.37,1.23.37.9-.12,1.22-.36c.32-.24.51-.59.58-1.06h1.3c-.08.51-.26.94-.54,1.31-.28.37-.64.65-1.08.84-.44.2-.93.3-1.48.3Z"/>
      <path d="M324.82,94.02c0-.46.16-.85.48-1.18.32-.33.72-.49,1.22-.49s.9.16,1.24.49c.34.33.51.72.51,1.18s-.17.84-.51,1.16c-.34.31-.75.47-1.24.47s-.9-.16-1.22-.47c-.32-.31-.48-.7-.48-1.15Z"/>
      <path d="M343.94,98.24v-10.05h6.19v1.07h-4.94v3.38h4.66v1.07h-4.66v3.44h4.94v1.09h-6.19Z"/>
      <path d="M351.74,98.24l2.9-3.82-2.9-3.84h1.52l2.19,2.9,2.11-2.9h1.52l-2.91,3.84,2.9,3.82h-1.52l-2.19-2.91-2.1,2.91h-1.52Z"/>
      <path d="M361.13,102v-11.41h1.04l.21,1.79v9.62h-1.25ZM364.6,98.43c-.56,0-1.05-.13-1.46-.38-.41-.26-.73-.63-.96-1.12-.22-.49-.34-1.09-.34-1.8h.53c0,.47.1.88.3,1.2s.46.57.77.74c.32.17.65.25,1.01.25.38,0,.75-.11,1.1-.33.35-.22.64-.55.86-.98.22-.43.34-.96.34-1.6s-.1-1.13-.31-1.56c-.21-.43-.48-.76-.83-.99-.35-.23-.73-.34-1.15-.34-.36,0-.7.09-1.02.26-.32.18-.58.43-.78.77s-.3.76-.3,1.25h-.53c0-.74.12-1.36.37-1.87.25-.5.58-.88,1-1.14.42-.26.89-.38,1.42-.38.6,0,1.15.16,1.67.48.52.32.94.78,1.26,1.38.32.6.48,1.31.48,2.14s-.16,1.57-.48,2.17c-.32.6-.75,1.06-1.27,1.38s-1.09.48-1.69.48Z"/>
      <path d="M373.13,98.43c-.66,0-1.25-.17-1.77-.51-.52-.34-.93-.81-1.23-1.41-.3-.6-.45-1.3-.45-2.08,0-.84.15-1.56.45-2.16.3-.6.71-1.07,1.23-1.39.52-.32,1.11-.48,1.78-.48.58,0,1.08.12,1.49.35.41.24.74.55.99.95.25.4.43.85.52,1.36s.13,1.03.08,1.56h-5.54v-.77h4.71l-.37.24c.02-.32,0-.63-.05-.94s-.15-.6-.28-.87-.33-.48-.58-.64-.57-.24-.96-.24c-.49,0-.9.12-1.23.38-.33.25-.58.58-.74.99-.17.41-.25.85-.25,1.32v.51c0,.53.08,1.01.24,1.43.16.42.41.75.73,1s.74.37,1.23.37.9-.12,1.22-.36c.32-.24.51-.59.58-1.06h1.3c-.08.51-.26.94-.54,1.31-.28.37-.64.65-1.08.84-.44.2-.93.3-1.48.3Z"/>
      <path d="M378.69,98.24v-7.66h1.25v7.66h-1.25ZM379.56,94.78c0-.97.09-1.78.28-2.42.19-.64.46-1.12.82-1.44.36-.32.8-.48,1.32-.48.17,0,.33.01.47.04.14.02.28.06.43.11l-.08,1.23c-.15-.05-.31-.09-.49-.12-.18-.03-.33-.05-.47-.05-.45,0-.82.13-1.1.39s-.48.62-.6,1.09c-.12.47-.19,1.02-.19,1.66h-.38Z"/>
      <path d="M385.18,88.78c-.26,0-.46-.07-.61-.22s-.22-.34-.22-.58.07-.42.22-.56.35-.21.61-.21.46.07.61.21c.15.14.22.33.22.56s-.08.43-.22.58c-.15.15-.35.22-.61.22ZM384.56,98.24v-7.66h1.25v7.66h-1.25Z"/>
      <path d="M391.9,98.43c-.66,0-1.25-.17-1.77-.51-.52-.34-.93-.81-1.23-1.41-.3-.6-.45-1.3-.45-2.08,0-.84.15-1.56.45-2.16.3-.6.71-1.07,1.23-1.39.52-.32,1.11-.48,1.78-.48.58,0,1.08.12,1.49.35.41.24.74.55.99.95.25.4.43.85.52,1.36s.13,1.03.08,1.56h-5.54v-.77h4.71l-.37.24c.02-.32,0-.63-.05-.94s-.15-.6-.28-.87-.33-.48-.58-.64-.57-.24-.96-.24c-.49,0-.9.12-1.23.38-.33.25-.58.58-.74.99-.17.41-.25.85-.25,1.32v.51c0,.53.08,1.01.24,1.43.16.42.41.75.73,1s.74.37,1.23.37.9-.12,1.22-.36c.32-.24.51-.59.58-1.06h1.3c-.08.51-.26.94-.54,1.31-.28.37-.64.65-1.08.84-.44.2-.93.3-1.48.3Z"/>
      <path d="M397.46,98.24v-7.65h1.07l.18,1.76v5.89h-1.25ZM402.9,98.24v-4.5c0-.73-.17-1.29-.52-1.67-.35-.38-.83-.57-1.43-.57-.46,0-.86.13-1.19.38-.34.25-.59.61-.78,1.08-.18.47-.27,1.02-.27,1.67h-.48c0-.89.12-1.65.35-2.28.23-.63.58-1.11,1.03-1.44.45-.33,1-.5,1.64-.5.6,0,1.12.13,1.55.4.43.27.76.65.99,1.16.23.5.34,1.1.34,1.78v4.5h-1.23Z"/>
      <path d="M409.81,98.43c-.61,0-1.19-.17-1.72-.5-.53-.33-.96-.8-1.28-1.4s-.49-1.31-.49-2.14.16-1.56.49-2.16.75-1.05,1.28-1.37c.53-.31,1.1-.47,1.72-.47.43,0,.82.07,1.16.2.34.13.64.31.9.54.26.23.47.49.64.78.17.29.29.6.37.92l-1.28.11c-.13-.44-.36-.79-.67-1.05-.31-.26-.69-.39-1.14-.39-.38,0-.74.11-1.07.32s-.6.54-.81.97c-.21.43-.31.96-.31,1.6,0,.59.09,1.11.28,1.54s.45.77.78,1.01c.33.24.71.36,1.13.36.59,0,1.04-.15,1.35-.44.31-.29.46-.69.46-1.21h1.28c0,.53-.13,1.01-.38,1.42-.25.42-.61.74-1.07.98s-1,.36-1.63.36Z"/>
      <path d="M418.03,98.43c-.66,0-1.25-.17-1.77-.51-.52-.34-.93-.81-1.23-1.41-.3-.6-.45-1.3-.45-2.08,0-.84.15-1.56.45-2.16s.71-1.07,1.23-1.39c.52-.32,1.11-.48,1.78-.48.58,0,1.08.12,1.49.35.41.24.74.55.99.95.25.4.42.85.52,1.36s.13,1.03.08,1.56h-5.54v-.77h4.71l-.37.24c.02-.32,0-.63-.05-.94-.05-.31-.15-.6-.28-.87s-.33-.48-.58-.64c-.25-.16-.57-.24-.96-.24-.49,0-.9.12-1.23.38s-.58.58-.74.99-.25.85-.25,1.32v.51c0,.53.08,1.01.24,1.43.16.42.41.75.73,1s.74.37,1.23.37.9-.12,1.22-.36c.32-.24.51-.59.58-1.06h1.3c-.08.51-.26.94-.54,1.31-.28.37-.64.65-1.08.84-.44.2-.93.3-1.48.3Z"/>
      <path d="M426.06,90.59h1.3l1.95,6.38h-.16l1.9-6.02h1.04l1.89,6.03h-.14l1.95-6.4h1.25l-2.51,7.65h-1.22l-1.86-5.65h.19l-1.84,5.65h-1.22l-2.53-7.65Z"/>
      <path d="M439.68,88.78c-.26,0-.46-.07-.61-.22s-.22-.34-.22-.58.08-.42.22-.56.35-.21.61-.21.46.07.61.21.22.33.22.56-.07.43-.22.58-.35.22-.61.22ZM439.06,98.24v-7.66h1.25v7.66h-1.25Z"/>
      <path d="M442.68,91.46v-.86h4.88v.86h-4.88ZM446.1,98.43c-.42,0-.79-.08-1.12-.24-.33-.16-.59-.4-.78-.72-.19-.32-.29-.72-.29-1.2v-7.81h1.23v7.78c0,.79.37,1.18,1.1,1.18.22,0,.43-.02.64-.07s.44-.12.69-.22l.18.9c-.27.12-.54.21-.81.29-.27.07-.55.11-.84.11Z"/>
      <path d="M449.76,98.24v-10.91h1.25v10.91h-1.25ZM455.21,98.24v-4.5c0-.73-.17-1.29-.52-1.67-.35-.38-.83-.57-1.43-.57-.46,0-.86.13-1.19.38-.34.25-.59.61-.78,1.08-.18.47-.27,1.02-.27,1.67h-.48c0-.89.12-1.65.35-2.28.23-.63.58-1.11,1.03-1.44.45-.33,1-.5,1.64-.5.6,0,1.12.13,1.55.4.43.27.76.65.99,1.16.23.5.34,1.1.34,1.78v4.5h-1.23Z"/>
      <path d="M462.02,98.24l3.46-10.05h1.52l3.38,10.05h-1.31l-.85-2.58h-4l-.88,2.58h-1.31ZM464.53,94.69h3.36l-1.68-4.98-1.68,4.98Z"/>
      <path d="M472.41,88.19h2.94c1.01,0,1.89.21,2.64.62s1.33,1,1.74,1.75c.41.75.62,1.64.62,2.66s-.21,1.89-.62,2.64c-.41.75-.99,1.34-1.74,1.76s-1.63.63-2.64.63h-2.94v-10.05ZM473.66,89.3v7.86h1.7c.76,0,1.41-.17,1.96-.51.55-.34.97-.81,1.26-1.4s.44-1.27.44-2.02-.15-1.43-.44-2.02-.72-1.05-1.26-1.39c-.55-.34-1.2-.51-1.96-.51h-1.7Z"/>
      <path d="M482.97,88.19h1.25v4.43h4.98v-4.43h1.23v10.05h-1.23v-4.54h-4.98v4.54h-1.25v-10.05Z"/>
      <path d="M493.67,88.19h2.94c1.01,0,1.89.21,2.64.62.75.41,1.33,1,1.74,1.75.41.75.62,1.64.62,2.66s-.21,1.89-.62,2.64c-.41.75-.99,1.34-1.74,1.76-.75.42-1.63.63-2.64.63h-2.94v-10.05ZM494.92,89.3v7.86h1.7c.76,0,1.41-.17,1.96-.51.55-.34.97-.81,1.26-1.4.3-.59.44-1.27.44-2.02s-.15-1.43-.44-2.02c-.3-.59-.72-1.05-1.26-1.39-.55-.34-1.2-.51-1.96-.51h-1.7Z"/>
      <path d="M324.82,113.22c0-.46.16-.85.48-1.18.32-.33.72-.49,1.22-.49s.9.16,1.24.49c.34.33.51.72.51,1.18s-.17.84-.51,1.16c-.34.31-.75.47-1.24.47s-.9-.16-1.22-.47c-.32-.31-.48-.7-.48-1.15Z"/>
      <path d="M343.95,107.39h1.79l3.46,6.94h-.13l3.46-6.94h1.74v10.05h-1.26v-8.75h.22l-3.68,7.49h-.83l-3.66-7.44h.14v8.7h-1.25v-10.05Z"/>
      <path d="M359.63,117.63c-.63,0-1.15-.11-1.56-.34-.41-.22-.72-.51-.92-.87s-.3-.73-.3-1.13c0-.52.13-.94.39-1.26s.61-.56,1.06-.72c.45-.15.95-.23,1.51-.23.4,0,.8.04,1.2.12.4.08.8.19,1.18.33v.78c-.32-.13-.68-.23-1.08-.3-.4-.08-.77-.11-1.11-.11-.51,0-.94.11-1.3.32-.35.21-.53.57-.53,1.08,0,.37.13.69.4.96.27.27.7.4,1.29.4.42,0,.79-.1,1.12-.29.33-.19.6-.44.79-.73.2-.29.29-.59.29-.88h.3c0,.51-.11.99-.33,1.42-.22.44-.54.79-.95,1.06-.41.27-.9.4-1.47.4ZM362.24,117.44l-.16-1.68v-3.28c0-.69-.15-1.18-.44-1.48-.29-.3-.73-.45-1.32-.45-.33,0-.63.05-.9.14-.27.1-.48.24-.64.44-.16.2-.24.46-.24.77h-1.39c0-.55.14-1,.41-1.34.27-.34.65-.58,1.12-.74.48-.15,1.02-.23,1.64-.23s1.11.1,1.56.3c.45.2.81.51,1.06.94.26.43.38.99.38,1.68v4.93h-1.09Z"/>
      <path d="M366.31,117.44v-7.65h1.07l.18,1.76v5.89h-1.25ZM371.75,117.44v-4.5c0-.73-.17-1.29-.52-1.67-.35-.38-.83-.57-1.43-.57-.46,0-.86.13-1.19.38-.34.25-.59.61-.78,1.08-.18.47-.27,1.02-.27,1.67h-.48c0-.89.12-1.65.35-2.28.23-.63.58-1.11,1.03-1.44.45-.33,1-.5,1.64-.5.6,0,1.12.13,1.55.4.43.27.76.65.99,1.16.23.5.34,1.1.34,1.78v4.5h-1.23Z"/>
      <path d="M378.1,117.63c-.63,0-1.15-.11-1.56-.34-.41-.22-.72-.51-.92-.87s-.3-.73-.3-1.13c0-.52.13-.94.39-1.26s.61-.56,1.06-.72c.45-.15.95-.23,1.51-.23.4,0,.8.04,1.2.12.4.08.8.19,1.18.33v.78c-.32-.13-.68-.23-1.08-.3-.4-.08-.77-.11-1.11-.11-.51,0-.94.11-1.3.32-.35.21-.53.57-.53,1.08,0,.37.13.69.4.96.27.27.7.4,1.29.4.42,0,.79-.1,1.12-.29.33-.19.6-.44.79-.73.2-.29.29-.59.29-.88h.3c0,.51-.11.99-.33,1.42-.22.44-.54.79-.95,1.06-.41.27-.9.4-1.47.4ZM380.7,117.44l-.16-1.68v-3.28c0-.69-.15-1.18-.44-1.48-.29-.3-.73-.45-1.32-.45-.33,0-.63.05-.9.14-.27.1-.48.24-.64.44-.16.2-.24.46-.24.77h-1.39c0-.55.14-1,.41-1.34.27-.34.65-.58,1.12-.74.48-.15,1.02-.23,1.64-.23s1.11.1,1.56.3c.45.2.81.51,1.06.94.26.43.38.99.38,1.68v4.93h-1.09Z"/>
      <path d="M387.48,121.38c-.78,0-1.46-.11-2.04-.33-.58-.22-1.02-.52-1.34-.89-.32-.37-.48-.78-.48-1.23,0-.59.22-1.04.65-1.36.43-.31,1-.47,1.68-.47l.69.43c-.58,0-1.02.12-1.34.36s-.47.57-.47.98.22.77.67,1.06c.45.29,1.1.43,1.97.43.64,0,1.2-.09,1.68-.28.48-.18.86-.42,1.13-.72.27-.3.4-.61.4-.96,0-.24-.09-.45-.26-.62-.18-.17-.45-.26-.81-.26h-2.98c-.52,0-.96-.08-1.34-.24s-.67-.36-.87-.62c-.2-.26-.3-.54-.3-.84,0-.32.09-.59.27-.82s.42-.39.71-.51.6-.18.94-.18l.24.46c-.16,0-.32.04-.48.11-.16.07-.3.18-.41.32s-.16.32-.16.53c0,.25.1.45.3.62.2.17.57.25,1.1.25h2.98c.72,0,1.29.15,1.7.46.41.3.62.73.62,1.27,0,.5-.18.98-.54,1.44-.36.46-.87.84-1.54,1.14-.67.3-1.46.44-2.39.44ZM387.7,115.2c-.59,0-1.12-.12-1.59-.35-.47-.23-.84-.56-1.12-.98-.27-.42-.41-.91-.41-1.46s.14-1.05.41-1.47c.28-.42.65-.75,1.12-.98.47-.23,1-.35,1.59-.35s1.09.12,1.56.35c.47.23.84.56,1.12.98.28.42.42.91.42,1.47s-.14,1.04-.42,1.46c-.28.42-.65.75-1.12.98-.47.23-.99.35-1.56.35ZM387.7,114.3c.59,0,1.04-.18,1.37-.54.33-.36.49-.82.49-1.36s-.16-1.01-.49-1.36c-.33-.35-.78-.52-1.37-.52s-1.04.17-1.37.52c-.33.35-.5.8-.5,1.36s.17,1,.5,1.36c.33.36.79.54,1.37.54ZM390.22,110.82l-.59-.24c0-.45.09-.84.26-1.18.18-.34.43-.6.75-.79s.71-.28,1.16-.28l-.1,1.23c-.48,0-.85.1-1.1.31s-.38.52-.38.96Z"/>
      <path d="M394.51,107.98c-.26,0-.46-.07-.61-.22s-.22-.34-.22-.58.07-.42.22-.56.35-.21.61-.21.46.07.61.21c.15.14.22.33.22.56s-.08.43-.22.58c-.15.15-.35.22-.61.22ZM393.89,117.44v-7.66h1.25v7.66h-1.25Z"/>
      <path d="M398.58,117.44v-7.65h1.07l.18,1.76v5.89h-1.25ZM404.02,117.44v-4.5c0-.73-.17-1.29-.52-1.67-.35-.38-.83-.57-1.43-.57-.46,0-.86.13-1.19.38-.34.25-.59.61-.78,1.08-.18.47-.27,1.02-.27,1.67h-.48c0-.89.12-1.65.35-2.28.23-.63.58-1.11,1.03-1.44.45-.33,1-.5,1.64-.5.6,0,1.12.13,1.55.4.43.27.76.65.99,1.16.23.5.34,1.1.34,1.78v4.5h-1.23Z"/>
      <path d="M410.93,121.38c-.78,0-1.46-.11-2.04-.33-.58-.22-1.02-.52-1.34-.89-.32-.37-.48-.78-.48-1.23,0-.59.22-1.04.65-1.36.43-.31,1-.47,1.68-.47l.69.43c-.58,0-1.02.12-1.34.36-.31.24-.47.57-.47.98s.22.77.67,1.06,1.1.43,1.97.43c.64,0,1.2-.09,1.68-.28.48-.18.86-.42,1.13-.72s.4-.61.4-.96c0-.24-.09-.45-.26-.62-.18-.17-.45-.26-.81-.26h-2.98c-.52,0-.96-.08-1.34-.24s-.67-.36-.87-.62c-.2-.26-.3-.54-.3-.84,0-.32.09-.59.27-.82.18-.22.42-.39.71-.51.29-.12.6-.18.94-.18l.24.46c-.16,0-.32.04-.48.11-.16.07-.3.18-.41.32-.11.14-.16.32-.16.53,0,.25.1.45.3.62.2.17.57.25,1.1.25h2.98c.72,0,1.29.15,1.7.46.41.3.62.73.62,1.27,0,.5-.18.98-.54,1.44-.36.46-.87.84-1.54,1.14-.67.3-1.46.44-2.39.44ZM411.16,115.2c-.59,0-1.12-.12-1.59-.35-.47-.23-.85-.56-1.12-.98-.28-.42-.41-.91-.41-1.46s.14-1.05.41-1.47c.27-.42.65-.75,1.12-.98.47-.23,1-.35,1.59-.35s1.09.12,1.56.35c.47.23.84.56,1.12.98.28.42.42.91.42,1.47s-.14,1.04-.42,1.46c-.28.42-.65.75-1.12.98s-.99.35-1.56.35ZM411.16,114.3c.59,0,1.04-.18,1.37-.54.33-.36.49-.82.49-1.36s-.16-1.01-.49-1.36c-.33-.35-.78-.52-1.37-.52s-1.04.17-1.37.52c-.33.35-.5.8-.5,1.36s.17,1,.5,1.36c.33.36.79.54,1.37.54ZM413.67,110.82l-.59-.24c0-.45.09-.84.26-1.18s.43-.6.75-.79.71-.28,1.16-.28l-.1,1.23c-.48,0-.85.1-1.1.31s-.38.52-.38.96Z"/>
      <path d="M419.86,117.44l3.46-10.05h1.52l3.38,10.05h-1.31l-.85-2.58h-4l-.88,2.58h-1.31ZM422.38,113.89h3.36l-1.68-4.98-1.68,4.98Z"/>
      <path d="M430.26,107.39h2.94c1.01,0,1.89.21,2.64.62.75.41,1.33,1,1.74,1.75.41.75.62,1.64.62,2.66s-.21,1.89-.62,2.64c-.41.75-.99,1.34-1.74,1.76-.75.42-1.63.63-2.64.63h-2.94v-10.05ZM431.5,108.5v7.86h1.7c.76,0,1.41-.17,1.96-.51.55-.34.97-.81,1.26-1.4.3-.59.44-1.27.44-2.02s-.15-1.43-.44-2.02c-.3-.59-.72-1.05-1.26-1.39-.55-.34-1.2-.51-1.96-.51h-1.7Z"/>
      <path d="M440.81,107.39h1.25v4.43h4.98v-4.43h1.23v10.05h-1.23v-4.54h-4.98v4.54h-1.25v-10.05Z"/>
      <path d="M451.51,107.39h2.94c1.01,0,1.89.21,2.64.62.75.41,1.33,1,1.74,1.75.41.75.62,1.64.62,2.66s-.21,1.89-.62,2.64c-.41.75-.99,1.34-1.74,1.76-.75.42-1.63.63-2.64.63h-2.94v-10.05ZM452.76,108.5v7.86h1.7c.76,0,1.41-.17,1.96-.51.55-.34.97-.81,1.26-1.4.3-.59.44-1.27.44-2.02s-.15-1.43-.44-2.02c-.3-.59-.72-1.05-1.26-1.39-.55-.34-1.2-.51-1.96-.51h-1.7Z"/>
      <path d="M325.78,155.84v-10.38h3.66c1.17,0,2.08.29,2.73.86.65.58.98,1.39.98,2.45s-.33,1.86-.98,2.43c-.65.58-1.56.86-2.73.86h-1.76v3.78h-1.9ZM327.68,150.42h1.76c.59,0,1.03-.16,1.33-.46.3-.31.45-.7.45-1.18s-.15-.89-.45-1.21c-.3-.31-.74-.47-1.33-.47h-1.76v3.33Z"/>
      <path d="M338.17,156.06c-.71,0-1.35-.15-1.92-.46-.57-.3-1.03-.76-1.36-1.36s-.5-1.36-.5-2.28.17-1.7.5-2.3c.34-.61.79-1.06,1.36-1.36s1.21-.45,1.92-.45,1.33.15,1.9.45,1.02.75,1.36,1.36c.34.61.5,1.38.5,2.3s-.17,1.67-.5,2.28c-.34.61-.79,1.06-1.36,1.36-.57.3-1.2.46-1.9.46ZM338.1,154.42c.37,0,.71-.09,1-.28.29-.18.52-.46.69-.82.17-.36.25-.81.25-1.35,0-.82-.16-1.44-.48-1.86-.32-.42-.76-.62-1.32-.62-.38,0-.71.09-1.01.28-.29.18-.52.46-.69.83s-.25.83-.25,1.38c0,.81.16,1.42.49,1.83.33.41.77.62,1.33.62Z"/>
      <path d="M347.06,156.06c-.75,0-1.39-.1-1.92-.31s-.95-.5-1.24-.89-.44-.85-.44-1.4h1.74c.02.38.17.66.46.84.29.18.68.26,1.18.26.27,0,.51-.04.72-.12.21-.08.38-.19.49-.33s.18-.29.18-.46c0-.22-.08-.39-.24-.52-.16-.12-.41-.24-.76-.35l-1.7-.61c-.61-.22-1.08-.51-1.4-.86s-.49-.78-.49-1.28c0-.66.3-1.19.89-1.59s1.39-.6,2.39-.6,1.76.22,2.3.65c.54.43.82.99.84,1.65h-1.78c-.03-.26-.15-.46-.37-.61s-.55-.22-.99-.22c-.4,0-.71.08-.94.24-.23.16-.34.35-.34.57,0,.37.31.65.94.83l1.84.69c.6.2,1.06.46,1.39.78.33.32.5.72.5,1.22,0,.41-.14.8-.41,1.16s-.66.66-1.15.89c-.49.23-1.06.34-1.7.34Z"/>
      <path d="M351.63,149.33v-1.25h5.09v1.25h-5.09ZM355.23,156.06c-.46,0-.88-.08-1.26-.26-.38-.17-.69-.43-.91-.78-.23-.35-.34-.8-.34-1.34v-7.66h1.89v7.6c0,.64.3.96.91.96.19,0,.37-.02.56-.06s.4-.11.64-.19l.27,1.33c-.3.12-.59.22-.87.3-.28.08-.58.12-.89.12Z"/>
      <path d="M358.17,151.84v-1.65h4.5v1.65h-4.5Z"/>
      <path d="M367.95,156.06c-.71,0-1.35-.15-1.92-.46-.57-.3-1.03-.76-1.36-1.36s-.5-1.36-.5-2.28.17-1.7.5-2.3c.34-.61.79-1.06,1.36-1.36s1.21-.45,1.92-.45,1.33.15,1.9.45,1.02.75,1.36,1.36c.34.61.5,1.38.5,2.3s-.17,1.67-.5,2.28c-.34.61-.79,1.06-1.36,1.36-.57.3-1.2.46-1.9.46ZM367.89,154.42c.37,0,.71-.09,1-.28.29-.18.52-.46.69-.82.17-.36.25-.81.25-1.35,0-.82-.16-1.44-.48-1.86-.32-.42-.76-.62-1.32-.62-.38,0-.71.09-1.01.28-.29.18-.52.46-.69.83s-.25.83-.25,1.38c0,.81.16,1.42.49,1.83.33.41.77.62,1.33.62Z"/>
      <path d="M373.95,155.84v-10.98h1.89v9.06l-.66,1.92h-1.23ZM377.92,156.06c-.49,0-.93-.14-1.33-.41-.4-.27-.72-.68-.96-1.22-.24-.54-.36-1.22-.36-2.04h.58c0,.39.09.73.26,1.02.18.29.4.52.68.68.28.16.57.24.86.24.37,0,.7-.1.98-.3.29-.2.52-.49.68-.85.17-.36.25-.79.25-1.28s-.08-.89-.25-1.24c-.17-.35-.39-.63-.68-.83-.29-.2-.62-.3-1-.3-.31,0-.61.08-.88.23-.27.15-.49.37-.66.66-.17.29-.25.63-.25,1.04h-.58c0-.78.11-1.45.34-1.98.23-.54.55-.95.97-1.22.42-.27.92-.41,1.49-.41.63,0,1.2.17,1.72.5.51.33.92.81,1.23,1.42.31.61.46,1.33.46,2.15s-.16,1.56-.48,2.18c-.32.62-.75,1.1-1.28,1.45-.54.34-1.14.52-1.79.52Z"/>
      <path d="M386.67,156.06c-.75,0-1.39-.1-1.92-.31s-.95-.5-1.24-.89-.44-.85-.44-1.4h1.74c.02.38.17.66.46.84.29.18.68.26,1.18.26.27,0,.51-.04.72-.12.21-.08.38-.19.49-.33s.18-.29.18-.46c0-.22-.08-.39-.24-.52-.16-.12-.41-.24-.76-.35l-1.7-.61c-.61-.22-1.08-.51-1.4-.86s-.49-.78-.49-1.28c0-.66.3-1.19.89-1.59s1.39-.6,2.39-.6,1.76.22,2.3.65c.54.43.82.99.84,1.65h-1.78c-.03-.26-.15-.46-.37-.61s-.55-.22-.99-.22c-.4,0-.71.08-.94.24-.23.16-.34.35-.34.57,0,.37.31.65.94.83l1.84.69c.6.2,1.06.46,1.39.78.33.32.5.72.5,1.22,0,.41-.14.8-.41,1.16s-.66.66-1.15.89c-.49.23-1.06.34-1.7.34Z"/>
      <path d="M395.11,156.06c-.66,0-1.27-.17-1.82-.51-.55-.34-.99-.82-1.32-1.44-.33-.62-.5-1.34-.5-2.16s.16-1.59.49-2.2c.33-.61.77-1.08,1.32-1.41.55-.33,1.16-.49,1.82-.49.62,0,1.15.12,1.6.37.45.25.81.58,1.09,1.01.27.42.46.9.56,1.44s.1,1.08.02,1.65h-5.39v-1.02h4.06l-.37.24c.02-.25,0-.5-.04-.76-.04-.26-.12-.49-.23-.7-.11-.21-.27-.39-.48-.52-.21-.13-.47-.2-.79-.2-.38,0-.71.1-.98.29-.27.19-.47.45-.61.78-.14.33-.21.7-.21,1.12v.75c0,.44.07.82.2,1.16.13.34.33.6.58.79s.59.29.98.29c.37,0,.68-.08.93-.26s.41-.43.48-.77h1.9c-.08.5-.27.94-.56,1.32-.3.38-.68.68-1.15.9-.47.22-1,.32-1.6.32Z"/>
      <path d="M400.69,155.84v-7.79h1.89v7.79h-1.89ZM402.12,152.43c0-1.02.12-1.86.34-2.53.23-.67.54-1.16.92-1.48.39-.32.82-.48,1.29-.48.13,0,.25,0,.36.02.12.02.23.04.34.07l-.03,1.89c-.14-.03-.29-.06-.45-.08s-.3-.03-.43-.03c-.42,0-.76.1-1.04.3-.28.2-.49.5-.63.88-.14.39-.21.87-.21,1.44h-.46Z"/>
      <path d="M405.68,148.08h2.18l1.86,6.14h-.14l1.86-6.14h2.18l-2.9,7.76h-2.13l-2.9-7.76Z"/>
      <path d="M417.68,156.06c-.67,0-1.22-.12-1.67-.35-.45-.23-.78-.54-1-.92-.22-.38-.34-.79-.34-1.23,0-.49.13-.9.39-1.24s.62-.58,1.1-.75,1.04-.25,1.68-.25c.42,0,.82.03,1.2.1s.75.15,1.12.26v1.1c-.29-.1-.61-.17-.96-.22-.35-.05-.67-.08-.98-.08-.45,0-.82.08-1.1.25-.29.17-.43.45-.43.84,0,.29.12.54.35.74s.61.31,1.12.31c.39,0,.72-.08.99-.26.27-.17.48-.38.62-.64.14-.26.21-.51.21-.77h.45c0,.56-.1,1.08-.31,1.55s-.52.85-.92,1.13c-.41.28-.91.42-1.52.42ZM420.22,155.84l-.24-1.89v-3.12c0-.54-.11-.95-.33-1.21-.22-.26-.6-.39-1.12-.39-.3,0-.57.05-.79.14s-.4.22-.52.39c-.12.17-.18.37-.18.61h-2.06c0-.59.14-1.07.42-1.44.28-.37.69-.64,1.22-.82.53-.17,1.17-.26,1.91-.26.67,0,1.26.11,1.76.32s.89.55,1.17,1,.42,1.02.42,1.72v4.94h-1.65Z"/>
      <path d="M423.66,149.33v-1.25h5.09v1.25h-5.09ZM427.26,156.06c-.46,0-.88-.08-1.26-.26-.38-.17-.69-.43-.91-.78-.23-.35-.34-.8-.34-1.34v-7.66h1.89v7.6c0,.64.3.96.91.96.19,0,.37-.02.56-.06s.4-.11.64-.19l.27,1.33c-.3.12-.59.22-.87.3-.28.08-.58.12-.89.12Z"/>
      <path d="M432.05,146.66c-.37,0-.65-.1-.86-.29-.21-.2-.31-.47-.31-.81s.1-.6.31-.8.49-.3.86-.3.64.1.85.3.32.47.32.8-.1.62-.32.81c-.21.19-.5.29-.85.29ZM431.11,155.84v-7.79h1.89v7.79h-1.89Z"/>
      <path d="M439.25,156.06c-.71,0-1.35-.15-1.92-.46-.57-.3-1.03-.76-1.36-1.36s-.5-1.36-.5-2.28.17-1.7.5-2.3c.34-.61.79-1.06,1.36-1.36s1.21-.45,1.92-.45,1.33.15,1.9.45,1.02.75,1.36,1.36c.34.61.5,1.38.5,2.3s-.17,1.67-.5,2.28c-.34.61-.79,1.06-1.36,1.36-.57.3-1.2.46-1.9.46ZM439.19,154.42c.37,0,.71-.09,1-.28.29-.18.52-.46.69-.82.17-.36.25-.81.25-1.35,0-.82-.16-1.44-.48-1.86-.32-.42-.76-.62-1.32-.62-.38,0-.71.09-1.01.28-.29.18-.52.46-.69.83s-.25.83-.25,1.38c0,.81.16,1.42.49,1.83.33.41.77.62,1.33.62Z"/>
      <path d="M445.25,155.84v-7.76h1.65l.24,1.54v6.22h-1.89ZM450.58,155.84v-4.54c0-.58-.14-1.01-.42-1.3-.28-.29-.64-.44-1.09-.44-.38,0-.71.1-1,.31-.29.21-.52.52-.68.94s-.25.94-.25,1.56h-.62c0-1.01.13-1.85.38-2.52.25-.67.61-1.17,1.06-1.5.46-.33,1-.5,1.62-.5s1.17.14,1.6.43.75.69.97,1.2c.22.52.32,1.12.32,1.81v4.54h-1.89Z"/>
      <path d="M462.17,156.06c-.63,0-1.23-.16-1.78-.49-.55-.33-1-.79-1.34-1.41-.34-.61-.51-1.35-.51-2.22s.17-1.59.5-2.2.77-1.08,1.31-1.4c.54-.33,1.11-.49,1.72-.49.5,0,.96.13,1.38.38.42.25.76.64,1.02,1.16.26.52.38,1.19.38,2h-.7c0-.39-.08-.72-.24-1-.16-.27-.37-.48-.63-.63-.26-.14-.56-.22-.88-.22-.38,0-.72.1-1.01.29s-.53.47-.7.83-.26.79-.26,1.28c0,.54.1.99.3,1.35s.45.62.76.79c.31.17.62.26.94.26.29,0,.57-.07.83-.2.26-.13.47-.32.64-.56.16-.25.24-.54.24-.89h.37c0,.66-.08,1.24-.23,1.75-.15.5-.4.9-.75,1.18-.34.29-.8.43-1.37.43ZM466.57,159.85c-.87-.22-1.49-.56-1.86-1.02-.37-.46-.56-1.11-.56-1.94v-6.9l.67-1.92h1.22v8.96c0,.31.03.56.1.74.06.18.17.32.33.42.16.1.37.19.64.28l-.54,1.38Z"/>
      <path d="M468.87,148.05h1.89v4.77c0,.51.13.89.38,1.14.25.25.59.38,1.03.38.37,0,.71-.1,1.02-.29s.55-.48.74-.86c.18-.38.28-.85.28-1.42h.51c0,.95-.12,1.74-.37,2.36-.25.62-.58,1.09-1.02,1.4-.43.31-.93.46-1.5.46s-1.06-.1-1.5-.3-.8-.51-1.06-.95c-.26-.44-.39-1.01-.39-1.73v-4.96ZM474.2,148.05h1.89v7.79h-1.89v-7.79Z"/>
      <path d="M481.96,156.06c-.66,0-1.27-.17-1.82-.51-.55-.34-.99-.82-1.32-1.44-.33-.62-.5-1.34-.5-2.16s.16-1.59.49-2.2.77-1.08,1.32-1.41c.55-.33,1.16-.49,1.82-.49.62,0,1.15.12,1.6.37.45.25.81.58,1.09,1.01.27.42.46.9.56,1.44.1.53.1,1.08.02,1.65h-5.39v-1.02h4.06l-.37.24c.02-.25,0-.5-.04-.76-.04-.26-.12-.49-.23-.7-.11-.21-.27-.39-.48-.52s-.47-.2-.79-.2c-.38,0-.71.1-.98.29-.27.19-.47.45-.61.78-.14.33-.21.7-.21,1.12v.75c0,.44.07.82.2,1.16s.33.6.58.79.58.29.98.29c.37,0,.68-.08.93-.26.25-.17.41-.43.48-.77h1.9c-.08.5-.27.94-.56,1.32-.3.38-.68.68-1.15.9-.47.22-1,.32-1.6.32Z"/>
      <path d="M490.44,156.06c-.75,0-1.39-.1-1.92-.31s-.95-.5-1.24-.89-.43-.85-.44-1.4h1.74c.02.38.17.66.46.84.29.18.68.26,1.18.26.27,0,.51-.04.72-.12s.38-.19.49-.33.18-.29.18-.46c0-.22-.08-.39-.24-.52-.16-.12-.41-.24-.76-.35l-1.7-.61c-.61-.22-1.07-.51-1.4-.86s-.49-.78-.49-1.28c0-.66.3-1.19.89-1.59.59-.4,1.39-.6,2.39-.6s1.76.22,2.3.65.82.99.84,1.65h-1.78c-.03-.26-.15-.46-.37-.61s-.55-.22-.99-.22c-.4,0-.71.08-.94.24-.23.16-.34.35-.34.57,0,.37.31.65.94.83l1.84.69c.6.2,1.06.46,1.39.78.33.32.5.72.5,1.22,0,.41-.14.8-.41,1.16-.27.37-.66.66-1.15.89-.49.23-1.06.34-1.7.34Z"/>
      <path d="M495.01,149.33v-1.25h5.09v1.25h-5.09ZM498.61,156.06c-.46,0-.88-.08-1.26-.26-.38-.17-.69-.43-.91-.78-.23-.35-.34-.8-.34-1.34v-7.66h1.89v7.6c0,.64.3.96.91.96.19,0,.37-.02.56-.06s.4-.11.64-.19l.27,1.33c-.3.12-.59.22-.87.3-.28.08-.58.12-.89.12Z"/>
      <path d="M503.4,146.66c-.37,0-.65-.1-.86-.29-.21-.2-.31-.47-.31-.81s.1-.6.31-.8.49-.3.86-.3.64.1.85.3.32.47.32.8-.1.62-.32.81c-.21.19-.5.29-.85.29ZM502.45,155.84v-7.79h1.89v7.79h-1.89Z"/>
      <path d="M510.6,156.06c-.71,0-1.35-.15-1.92-.46-.57-.3-1.03-.76-1.36-1.36s-.5-1.36-.5-2.28.17-1.7.5-2.3c.34-.61.79-1.06,1.36-1.36s1.21-.45,1.92-.45,1.33.15,1.9.45,1.02.75,1.36,1.36c.34.61.5,1.38.5,2.3s-.17,1.67-.5,2.28c-.34.61-.79,1.06-1.36,1.36-.57.3-1.2.46-1.9.46ZM510.53,154.42c.37,0,.71-.09,1-.28.29-.18.52-.46.69-.82.17-.36.25-.81.25-1.35,0-.82-.16-1.44-.48-1.86-.32-.42-.76-.62-1.32-.62-.38,0-.71.09-1.01.28-.29.18-.52.46-.69.83s-.25.83-.25,1.38c0,.81.16,1.42.49,1.83.33.41.77.62,1.33.62Z"/>
      <path d="M516.6,155.84v-7.76h1.65l.24,1.54v6.22h-1.89ZM521.92,155.84v-4.54c0-.58-.14-1.01-.42-1.3-.28-.29-.64-.44-1.09-.44-.38,0-.71.1-1,.31-.29.21-.52.52-.68.94s-.25.94-.25,1.56h-.62c0-1.01.13-1.85.38-2.52.25-.67.61-1.17,1.06-1.5.46-.33,1-.5,1.62-.5s1.17.14,1.6.43.75.69.97,1.2c.22.52.32,1.12.32,1.81v4.54h-1.89Z"/>
      <path d="M529.46,156.06c-.75,0-1.39-.1-1.92-.31s-.95-.5-1.24-.89-.44-.85-.44-1.4h1.74c.02.38.17.66.46.84.29.18.68.26,1.18.26.27,0,.51-.04.72-.12.21-.08.38-.19.49-.33s.18-.29.18-.46c0-.22-.08-.39-.24-.52-.16-.12-.41-.24-.76-.35l-1.7-.61c-.61-.22-1.08-.51-1.4-.86s-.49-.78-.49-1.28c0-.66.3-1.19.89-1.59s1.39-.6,2.39-.6,1.76.22,2.3.65c.54.43.82.99.84,1.65h-1.78c-.03-.26-.15-.46-.37-.61s-.55-.22-.99-.22c-.4,0-.71.08-.94.24-.23.16-.34.35-.34.57,0,.37.31.65.94.83l1.84.69c.6.2,1.06.46,1.39.78.33.32.5.72.5,1.22,0,.41-.14.8-.41,1.16s-.66.66-1.15.89c-.49.23-1.06.34-1.7.34Z"/>
      <path d="M324.82,170.82c0-.46.16-.85.48-1.18.32-.33.72-.49,1.22-.49s.9.16,1.24.49c.34.33.51.72.51,1.18s-.17.84-.51,1.16c-.34.31-.75.47-1.24.47s-.9-.16-1.22-.47c-.32-.31-.48-.7-.48-1.15Z"/>
      <path d="M343.94,175.04v-10.05h6.19v1.07h-4.94v3.38h4.66v1.07h-4.66v3.44h4.94v1.09h-6.19Z"/>
      <path d="M351.62,167.39h1.42l2.4,6.58h-.18l2.4-6.58h1.42l-3.06,7.65h-1.36l-3.06-7.65Z"/>
      <path d="M363.64,175.23c-.66,0-1.25-.17-1.77-.51-.52-.34-.93-.81-1.23-1.41-.3-.6-.45-1.3-.45-2.08,0-.84.15-1.56.45-2.16.3-.6.71-1.07,1.23-1.39.52-.32,1.11-.48,1.78-.48.58,0,1.08.12,1.49.35.41.24.74.55.99.95.25.4.43.85.52,1.36s.13,1.03.08,1.56h-5.54v-.77h4.71l-.37.24c.02-.32,0-.63-.05-.94s-.15-.6-.28-.87-.33-.48-.58-.64-.57-.24-.96-.24c-.49,0-.9.12-1.23.38-.33.25-.58.58-.74.99-.17.41-.25.85-.25,1.32v.51c0,.53.08,1.01.24,1.43.16.42.41.75.73,1s.74.37,1.23.37.9-.12,1.22-.36c.32-.24.51-.59.58-1.06h1.3c-.08.51-.26.94-.54,1.31-.28.37-.64.65-1.08.84-.44.2-.93.3-1.48.3Z"/>
      <path d="M369.2,175.04v-7.66h1.25v7.66h-1.25ZM370.06,171.58c0-.97.09-1.78.28-2.42.19-.64.46-1.12.82-1.44.36-.32.8-.48,1.32-.48.17,0,.33.01.47.04.14.02.28.06.43.11l-.08,1.23c-.15-.05-.31-.09-.49-.12-.18-.03-.33-.05-.47-.05-.45,0-.82.13-1.1.39s-.48.62-.6,1.09c-.12.47-.19,1.02-.19,1.66h-.38Z"/>
      <path d="M377.11,175.23c-.63,0-1.15-.11-1.56-.34-.41-.22-.72-.51-.92-.87-.2-.36-.3-.73-.3-1.13,0-.52.13-.94.39-1.26.26-.33.61-.56,1.06-.72s.95-.23,1.51-.23c.4,0,.8.04,1.2.12.4.08.8.19,1.18.33v.78c-.32-.13-.68-.23-1.08-.3-.4-.08-.77-.11-1.11-.11-.51,0-.94.11-1.3.32-.35.21-.53.57-.53,1.08,0,.37.13.69.4.96s.7.4,1.29.4c.42,0,.79-.1,1.12-.29.33-.19.6-.44.79-.73.19-.29.29-.59.29-.88h.3c0,.51-.11.99-.33,1.42s-.54.79-.95,1.06c-.41.27-.9.4-1.47.4ZM379.72,175.04l-.16-1.68v-3.28c0-.69-.15-1.18-.44-1.48-.29-.3-.73-.45-1.32-.45-.33,0-.63.05-.9.14s-.48.24-.64.44c-.16.2-.24.46-.24.77h-1.39c0-.55.14-1,.41-1.34.27-.34.65-.58,1.12-.74.48-.15,1.02-.23,1.64-.23s1.11.1,1.56.3.81.51,1.06.94c.26.43.38.99.38,1.68v4.93h-1.09Z"/>
      <path d="M383.79,175.04v-7.65h1.07l.18,1.76v5.89h-1.25ZM389.23,175.04v-4.5c0-.73-.17-1.29-.52-1.67-.35-.38-.83-.57-1.43-.57-.46,0-.86.13-1.19.38-.34.25-.59.61-.78,1.08-.18.47-.27,1.02-.27,1.67h-.48c0-.89.12-1.65.35-2.28.23-.63.58-1.11,1.03-1.44.45-.33,1-.5,1.64-.5.6,0,1.12.13,1.55.4.43.27.76.65.99,1.16.23.5.34,1.1.34,1.78v4.5h-1.23Z"/>
      <path d="M396.18,175.23c-.62,0-1.19-.17-1.7-.5-.52-.33-.93-.8-1.24-1.41-.31-.61-.46-1.32-.46-2.14s.15-1.52.46-2.12c.3-.6.71-1.06,1.21-1.38.5-.32,1.06-.48,1.66-.48.56,0,1.05.14,1.48.41.42.27.75.66.99,1.18.24.51.35,1.13.35,1.86h-.48c0-.51-.1-.93-.3-1.28s-.46-.61-.78-.79c-.32-.18-.66-.27-1.03-.27-.42,0-.8.12-1.14.35-.34.23-.62.56-.82.99-.21.43-.31.94-.31,1.54s.1,1.13.31,1.57c.21.44.48.77.82,1.01.34.24.72.35,1.14.35.35,0,.68-.09,1-.27.32-.18.59-.45.8-.8s.31-.77.31-1.27h.48c0,.74-.12,1.37-.36,1.88-.24.51-.57.91-.98,1.17-.41.27-.88.4-1.39.4ZM398.65,175.04l-.21-1.79v-9.12h1.25v10.91h-1.04Z"/>
      <path d="M405.89,168.26v-.86h4.08v.86h-4.08ZM407.14,175.04v-8.83c0-.51.1-.92.29-1.24.19-.32.46-.56.78-.72s.69-.23,1.1-.23c.22,0,.44.02.67.05.23.03.45.08.68.14l-.24.99c-.16-.06-.32-.11-.48-.14-.16-.03-.31-.05-.45-.05-.17,0-.34.03-.51.1-.17.06-.31.18-.42.36s-.17.43-.17.76v8.82h-1.25ZM412.91,165.58c-.26,0-.46-.07-.61-.22s-.22-.34-.22-.58.08-.42.22-.56.35-.21.61-.21.46.07.61.21.22.33.22.56-.07.43-.22.58-.35.22-.61.22ZM412.29,175.04v-7.66h1.25v7.66h-1.25Z"/>
      <path d="M416.98,175.04v-7.66h1.25v7.66h-1.25ZM417.85,171.58c0-.97.09-1.78.28-2.42.19-.64.46-1.12.82-1.44.36-.32.8-.48,1.32-.48.17,0,.33.01.47.04.14.02.28.06.43.11l-.08,1.23c-.15-.05-.31-.09-.49-.12-.18-.03-.33-.05-.47-.05-.45,0-.82.13-1.1.39s-.48.62-.6,1.09c-.12.47-.19,1.02-.19,1.66h-.38Z"/>
      <path d="M425.52,175.23c-.74,0-1.36-.11-1.86-.32-.5-.21-.87-.5-1.13-.87-.26-.37-.39-.8-.41-1.28h1.2c.03.49.22.85.59,1.09.37.24.86.36,1.49.36.33,0,.63-.05.91-.16.28-.11.5-.25.66-.44s.25-.4.25-.63c0-.3-.11-.53-.33-.7s-.57-.32-1.05-.45l-1.49-.48c-.64-.2-1.14-.48-1.48-.84-.34-.36-.52-.78-.52-1.28,0-.62.27-1.11.82-1.49.54-.37,1.26-.56,2.14-.56.94,0,1.67.19,2.18.58.52.38.79.86.81,1.44h-1.23c-.05-.34-.22-.59-.51-.76-.29-.17-.71-.26-1.25-.26s-.92.12-1.21.35c-.29.23-.44.49-.44.77,0,.53.45.92,1.36,1.17l1.52.51c.66.2,1.16.46,1.51.78.35.32.52.73.52,1.22,0,.38-.13.75-.38,1.09-.25.34-.61.62-1.06.83s-1,.32-1.63.32Z"/>
      <path d="M430.1,168.26v-.86h4.88v.86h-4.88ZM433.53,175.23c-.42,0-.79-.08-1.12-.24-.33-.16-.59-.4-.78-.72-.19-.32-.29-.72-.29-1.2v-7.81h1.23v7.78c0,.79.37,1.18,1.1,1.18.22,0,.43-.02.64-.07s.44-.12.69-.22l.18.9c-.27.12-.54.21-.81.29-.27.07-.55.11-.84.11Z"/>
      <path d="M441.69,165.58c-.26,0-.46-.07-.61-.22s-.22-.34-.22-.58.07-.42.22-.56.35-.21.61-.21.46.07.61.21c.15.14.22.33.22.56s-.08.43-.22.58c-.15.15-.35.22-.61.22ZM441.07,175.04v-7.66h1.25v7.66h-1.25Z"/>
      <path d="M445.76,175.04v-7.65h1.07l.14,1.54c.24-.55.58-.98,1.01-1.28.43-.3.96-.45,1.56-.45s1.12.13,1.55.4c.43.27.76.65.99,1.16.23.5.34,1.1.34,1.78v4.5h-1.23v-4.5c0-.73-.17-1.29-.52-1.67-.35-.38-.83-.57-1.43-.57-.46,0-.86.13-1.19.38-.34.25-.59.61-.78,1.08-.18.47-.27,1.02-.27,1.67v3.62h-1.25ZM456.51,175.04v-4.5c0-.73-.17-1.29-.52-1.67-.35-.38-.82-.57-1.41-.57-.69,0-1.22.27-1.59.8-.37.54-.55,1.28-.55,2.22h-.58c0-.69.07-1.29.2-1.81.14-.52.33-.95.6-1.29.26-.34.58-.6.95-.77.37-.17.8-.26,1.27-.26.6,0,1.12.13,1.55.4.43.27.76.65.99,1.16.23.5.34,1.1.34,1.78v4.5h-1.25Z"/>
      <path d="M460.73,178.8v-11.41h1.04l.21,1.79v9.62h-1.25ZM464.2,175.23c-.56,0-1.05-.13-1.46-.38-.41-.26-.73-.63-.96-1.12-.22-.49-.34-1.09-.34-1.8h.53c0,.47.1.88.3,1.2s.46.57.77.74c.32.17.65.25,1.01.25.38,0,.75-.11,1.1-.33.35-.22.64-.55.86-.98.22-.43.34-.96.34-1.6s-.1-1.13-.31-1.56c-.21-.43-.48-.76-.83-.99-.35-.23-.73-.34-1.15-.34-.36,0-.7.09-1.02.26-.32.18-.58.43-.78.77s-.3.76-.3,1.25h-.53c0-.74.12-1.36.37-1.87.25-.5.58-.88,1-1.14.42-.26.89-.38,1.42-.38.6,0,1.15.16,1.67.48.52.32.94.78,1.26,1.38.32.6.48,1.31.48,2.14s-.16,1.57-.48,2.17c-.32.6-.75,1.06-1.27,1.38s-1.09.48-1.69.48Z"/>
      <path d="M470.08,175.04v-7.66h1.25v7.66h-1.25ZM470.94,171.58c0-.97.09-1.78.28-2.42.19-.64.46-1.12.82-1.44.36-.32.8-.48,1.32-.48.17,0,.33.01.47.04.14.02.28.06.43.11l-.08,1.23c-.15-.05-.31-.09-.49-.12-.18-.03-.33-.05-.47-.05-.45,0-.82.13-1.1.39s-.48.62-.6,1.09c-.12.47-.19,1.02-.19,1.66h-.38Z"/>
      <path d="M478.52,175.23c-.66,0-1.25-.17-1.77-.51-.52-.34-.93-.81-1.23-1.41-.3-.6-.45-1.3-.45-2.08,0-.84.15-1.56.45-2.16.3-.6.71-1.07,1.23-1.39.52-.32,1.11-.48,1.78-.48.58,0,1.08.12,1.49.35.41.24.74.55.99.95.25.4.43.85.52,1.36s.13,1.03.08,1.56h-5.54v-.77h4.71l-.37.24c.02-.32,0-.63-.05-.94s-.15-.6-.28-.87-.33-.48-.58-.64-.57-.24-.96-.24c-.49,0-.9.12-1.23.38-.33.25-.58.58-.74.99-.17.41-.25.85-.25,1.32v.51c0,.53.08,1.01.24,1.43.16.42.41.75.73,1s.74.37,1.23.37.9-.12,1.22-.36c.32-.24.51-.59.58-1.06h1.3c-.08.51-.26.94-.54,1.31-.28.37-.64.65-1.08.84-.44.2-.93.3-1.48.3Z"/>
      <path d="M486.83,175.23c-.74,0-1.36-.11-1.86-.32-.5-.21-.87-.5-1.13-.87-.26-.37-.39-.8-.41-1.28h1.2c.03.49.22.85.59,1.09.37.24.86.36,1.49.36.33,0,.63-.05.91-.16.28-.11.5-.25.66-.44s.25-.4.25-.63c0-.3-.11-.53-.33-.7s-.57-.32-1.05-.45l-1.49-.48c-.64-.2-1.14-.48-1.48-.84-.34-.36-.52-.78-.52-1.28,0-.62.27-1.11.82-1.49.54-.37,1.26-.56,2.14-.56.94,0,1.67.19,2.18.58.52.38.79.86.81,1.44h-1.23c-.05-.34-.22-.59-.51-.76-.29-.17-.71-.26-1.25-.26s-.92.12-1.21.35c-.29.23-.44.49-.44.77,0,.53.45.92,1.36,1.17l1.52.51c.66.2,1.16.46,1.51.78.35.32.52.73.52,1.22,0,.38-.13.75-.38,1.09-.25.34-.61.62-1.06.83s-1,.32-1.63.32Z"/>
      <path d="M495.24,175.23c-.74,0-1.36-.11-1.86-.32-.5-.21-.87-.5-1.13-.87-.26-.37-.39-.8-.41-1.28h1.2c.03.49.22.85.59,1.09.37.24.86.36,1.49.36.33,0,.63-.05.91-.16.28-.11.5-.25.66-.44s.25-.4.25-.63c0-.3-.11-.53-.33-.7s-.57-.32-1.05-.45l-1.49-.48c-.64-.2-1.14-.48-1.48-.84-.34-.36-.52-.78-.52-1.28,0-.62.27-1.11.82-1.49.54-.37,1.26-.56,2.14-.56.94,0,1.67.19,2.18.58.52.38.79.86.81,1.44h-1.23c-.05-.34-.22-.59-.51-.76-.29-.17-.71-.26-1.25-.26s-.92.12-1.21.35c-.29.23-.44.49-.44.77,0,.53.45.92,1.36,1.17l1.52.51c.66.2,1.16.46,1.51.78.35.32.52.73.52,1.22,0,.38-.13.75-.38,1.09-.25.34-.61.62-1.06.83s-1,.32-1.63.32Z"/>
      <path d="M501.6,165.58c-.26,0-.46-.07-.61-.22s-.22-.34-.22-.58.07-.42.22-.56.35-.21.61-.21.46.07.61.21c.15.14.22.33.22.56s-.08.43-.22.58c-.15.15-.35.22-.61.22ZM500.97,175.04v-7.66h1.25v7.66h-1.25Z"/>
      <path d="M508.43,175.23c-.69,0-1.3-.15-1.84-.46-.54-.3-.96-.75-1.27-1.35-.31-.6-.46-1.33-.46-2.21s.15-1.62.46-2.21.73-1.04,1.27-1.35c.54-.3,1.15-.46,1.84-.46s1.29.15,1.83.46c.54.3.96.75,1.26,1.35s.46,1.33.46,2.21-.15,1.61-.46,2.21c-.31.6-.73,1.05-1.26,1.35-.54.3-1.15.46-1.83.46ZM508.4,174.14c.5,0,.92-.12,1.26-.36s.61-.57.79-1.01.27-.96.27-1.56c0-.91-.19-1.63-.57-2.16-.38-.52-.94-.79-1.69-.79-.5,0-.92.12-1.27.36s-.61.58-.78,1.02c-.18.44-.27.96-.27,1.57,0,.9.19,1.62.57,2.14.38.53.94.79,1.68.79Z"/>
      <path d="M514.41,175.04v-7.65h1.07l.18,1.76v5.89h-1.25ZM519.85,175.04v-4.5c0-.73-.17-1.29-.52-1.67-.35-.38-.83-.57-1.43-.57-.46,0-.86.13-1.19.38-.34.25-.59.61-.78,1.08-.18.47-.27,1.02-.27,1.67h-.48c0-.89.12-1.65.35-2.28.23-.63.58-1.11,1.03-1.44.45-.33,1-.5,1.64-.5.6,0,1.12.13,1.55.4.43.27.76.65.99,1.16.23.5.34,1.1.34,1.78v4.5h-1.23Z"/>
      <path d="M526.81,175.23c-.74,0-1.36-.11-1.86-.32s-.87-.5-1.13-.87c-.26-.37-.39-.8-.41-1.28h1.2c.03.49.22.85.59,1.09.37.24.86.36,1.49.36.33,0,.63-.05.91-.16.28-.11.5-.25.66-.44.17-.19.25-.4.25-.63,0-.3-.11-.53-.33-.7s-.57-.32-1.05-.45l-1.49-.48c-.65-.2-1.14-.48-1.48-.84-.34-.36-.52-.78-.52-1.28,0-.62.27-1.11.82-1.49.54-.37,1.26-.56,2.14-.56.94,0,1.67.19,2.18.58.52.38.79.86.81,1.44h-1.23c-.05-.34-.22-.59-.51-.76-.29-.17-.71-.26-1.25-.26s-.92.12-1.21.35c-.29.23-.44.49-.44.77,0,.53.45.92,1.36,1.17l1.52.51c.66.2,1.16.46,1.51.78.35.32.52.73.52,1.22,0,.38-.12.75-.38,1.09-.25.34-.61.62-1.06.83-.46.21-1,.32-1.63.32Z"/>
      <path d="M324.82,190.02c0-.46.16-.85.48-1.18.32-.33.72-.49,1.22-.49s.9.16,1.24.49c.34.33.51.72.51,1.18s-.17.84-.51,1.16c-.34.31-.75.47-1.24.47s-.9-.16-1.22-.47c-.32-.31-.48-.7-.48-1.15Z"/>
      <path d="M343.94,194.24v-10.05h6.19v1.07h-4.94v3.38h4.66v1.07h-4.66v3.44h4.94v1.09h-6.19Z"/>
      <path d="M351.74,194.24l2.9-3.82-2.9-3.84h1.52l2.19,2.9,2.11-2.9h1.52l-2.91,3.84,2.9,3.82h-1.52l-2.19-2.91-2.1,2.91h-1.52Z"/>
      <path d="M361.13,198v-11.41h1.04l.21,1.79v9.62h-1.25ZM364.6,194.43c-.56,0-1.05-.13-1.46-.38-.41-.26-.73-.63-.96-1.12-.22-.49-.34-1.09-.34-1.8h.53c0,.47.1.88.3,1.2s.46.57.77.74c.32.17.65.25,1.01.25.38,0,.75-.11,1.1-.33.35-.22.64-.55.86-.98.22-.43.34-.96.34-1.6s-.1-1.13-.31-1.56c-.21-.43-.48-.76-.83-.99-.35-.23-.73-.34-1.15-.34-.36,0-.7.09-1.02.26-.32.18-.58.43-.78.77s-.3.76-.3,1.25h-.53c0-.74.12-1.36.37-1.87.25-.5.58-.88,1-1.14.42-.26.89-.38,1.42-.38.6,0,1.15.16,1.67.48.52.32.94.78,1.26,1.38.32.6.48,1.31.48,2.14s-.16,1.57-.48,2.17c-.32.6-.75,1.06-1.27,1.38s-1.09.48-1.69.48Z"/>
      <path d="M373.13,194.43c-.66,0-1.25-.17-1.77-.51-.52-.34-.93-.81-1.23-1.41-.3-.6-.45-1.3-.45-2.08,0-.84.15-1.56.45-2.16.3-.6.71-1.07,1.23-1.39.52-.32,1.11-.48,1.78-.48.58,0,1.08.12,1.49.35.41.24.74.55.99.95.25.4.43.85.52,1.36s.13,1.03.08,1.56h-5.54v-.77h4.71l-.37.24c.02-.32,0-.63-.05-.94s-.15-.6-.28-.87-.33-.48-.58-.64-.57-.24-.96-.24c-.49,0-.9.12-1.23.38-.33.25-.58.58-.74.99-.17.41-.25.85-.25,1.32v.51c0,.53.08,1.01.24,1.43.16.42.41.75.73,1s.74.37,1.23.37.9-.12,1.22-.36c.32-.24.51-.59.58-1.06h1.3c-.08.51-.26.94-.54,1.31-.28.37-.64.65-1.08.84-.44.2-.93.3-1.48.3Z"/>
      <path d="M378.69,194.24v-7.66h1.25v7.66h-1.25ZM379.56,190.78c0-.97.09-1.78.28-2.42.19-.64.46-1.12.82-1.44.36-.32.8-.48,1.32-.48.17,0,.33.01.47.04.14.02.28.06.43.11l-.08,1.23c-.15-.05-.31-.09-.49-.12-.18-.03-.33-.05-.47-.05-.45,0-.82.13-1.1.39s-.48.62-.6,1.09c-.12.47-.19,1.02-.19,1.66h-.38Z"/>
      <path d="M385.18,184.78c-.26,0-.46-.07-.61-.22s-.22-.34-.22-.58.07-.42.22-.56.35-.21.61-.21.46.07.61.21c.15.14.22.33.22.56s-.08.43-.22.58c-.15.15-.35.22-.61.22ZM384.56,194.24v-7.66h1.25v7.66h-1.25Z"/>
      <path d="M391.9,194.43c-.66,0-1.25-.17-1.77-.51-.52-.34-.93-.81-1.23-1.41-.3-.6-.45-1.3-.45-2.08,0-.84.15-1.56.45-2.16.3-.6.71-1.07,1.23-1.39.52-.32,1.11-.48,1.78-.48.58,0,1.08.12,1.49.35.41.24.74.55.99.95.25.4.43.85.52,1.36s.13,1.03.08,1.56h-5.54v-.77h4.71l-.37.24c.02-.32,0-.63-.05-.94s-.15-.6-.28-.87-.33-.48-.58-.64-.57-.24-.96-.24c-.49,0-.9.12-1.23.38-.33.25-.58.58-.74.99-.17.41-.25.85-.25,1.32v.51c0,.53.08,1.01.24,1.43.16.42.41.75.73,1s.74.37,1.23.37.9-.12,1.22-.36c.32-.24.51-.59.58-1.06h1.3c-.08.51-.26.94-.54,1.31-.28.37-.64.65-1.08.84-.44.2-.93.3-1.48.3Z"/>
      <path d="M397.46,194.24v-7.65h1.07l.18,1.76v5.89h-1.25ZM402.9,194.24v-4.5c0-.73-.17-1.29-.52-1.67-.35-.38-.83-.57-1.43-.57-.46,0-.86.13-1.19.38-.34.25-.59.61-.78,1.08-.18.47-.27,1.02-.27,1.67h-.48c0-.89.12-1.65.35-2.28.23-.63.58-1.11,1.03-1.44.45-.33,1-.5,1.64-.5.6,0,1.12.13,1.55.4.43.27.76.65.99,1.16.23.5.34,1.1.34,1.78v4.5h-1.23Z"/>
      <path d="M409.81,194.43c-.61,0-1.19-.17-1.72-.5-.53-.33-.96-.8-1.28-1.4s-.49-1.31-.49-2.14.16-1.56.49-2.16.75-1.05,1.28-1.37c.53-.31,1.1-.47,1.72-.47.43,0,.82.07,1.16.2.34.13.64.31.9.54.26.23.47.49.64.78.17.29.29.6.37.92l-1.28.11c-.13-.44-.36-.79-.67-1.05-.31-.26-.69-.39-1.14-.39-.38,0-.74.11-1.07.32s-.6.54-.81.97c-.21.43-.31.96-.31,1.6,0,.59.09,1.11.28,1.54s.45.77.78,1.01c.33.24.71.36,1.13.36.59,0,1.04-.15,1.35-.44.31-.29.46-.69.46-1.21h1.28c0,.53-.13,1.01-.38,1.42-.25.42-.61.74-1.07.98s-1,.36-1.63.36Z"/>
      <path d="M418.03,194.43c-.66,0-1.25-.17-1.77-.51-.52-.34-.93-.81-1.23-1.41-.3-.6-.45-1.3-.45-2.08,0-.84.15-1.56.45-2.16s.71-1.07,1.23-1.39c.52-.32,1.11-.48,1.78-.48.58,0,1.08.12,1.49.35.41.24.74.55.99.95.25.4.42.85.52,1.36s.13,1.03.08,1.56h-5.54v-.77h4.71l-.37.24c.02-.32,0-.63-.05-.94-.05-.31-.15-.6-.28-.87s-.33-.48-.58-.64c-.25-.16-.57-.24-.96-.24-.49,0-.9.12-1.23.38s-.58.58-.74.99-.25.85-.25,1.32v.51c0,.53.08,1.01.24,1.43.16.42.41.75.73,1s.74.37,1.23.37.9-.12,1.22-.36c.32-.24.51-.59.58-1.06h1.3c-.08.51-.26.94-.54,1.31-.28.37-.64.65-1.08.84-.44.2-.93.3-1.48.3Z"/>
      <path d="M427.39,194.24v-7.66h1.25v7.66h-1.25ZM428.25,190.78c0-.97.09-1.78.28-2.42s.46-1.12.82-1.44c.36-.32.8-.48,1.32-.48.17,0,.33.01.47.04.14.02.28.06.43.11l-.08,1.23c-.15-.05-.31-.09-.49-.12-.18-.03-.33-.05-.47-.05-.45,0-.82.13-1.1.39s-.48.62-.6,1.09c-.12.47-.19,1.02-.19,1.66h-.38Z"/>
      <path d="M435.83,194.43c-.66,0-1.25-.17-1.77-.51-.52-.34-.93-.81-1.23-1.41-.3-.6-.45-1.3-.45-2.08,0-.84.15-1.56.45-2.16.3-.6.71-1.07,1.23-1.39.52-.32,1.11-.48,1.78-.48.58,0,1.08.12,1.49.35.41.24.74.55.99.95.25.4.43.85.52,1.36s.13,1.03.08,1.56h-5.54v-.77h4.71l-.37.24c.02-.32,0-.63-.05-.94s-.15-.6-.28-.87-.33-.48-.58-.64-.57-.24-.96-.24c-.49,0-.9.12-1.23.38-.33.25-.58.58-.74.99-.17.41-.25.85-.25,1.32v.51c0,.53.08,1.01.24,1.43.16.42.41.75.73,1s.74.37,1.23.37.9-.12,1.22-.36c.32-.24.51-.59.58-1.06h1.3c-.08.51-.26.94-.54,1.31-.28.37-.64.65-1.08.84-.44.2-.93.3-1.48.3Z"/>
      <path d="M443.52,194.43c-.63,0-1.15-.11-1.56-.34-.41-.22-.72-.51-.92-.87-.2-.36-.3-.73-.3-1.13,0-.52.13-.94.39-1.26.26-.33.61-.56,1.06-.72s.95-.23,1.51-.23c.4,0,.8.04,1.2.12.4.08.8.19,1.18.33v.78c-.32-.13-.68-.23-1.08-.3-.4-.08-.77-.11-1.11-.11-.51,0-.94.11-1.3.32-.35.21-.53.57-.53,1.08,0,.37.13.69.4.96s.7.4,1.29.4c.42,0,.79-.1,1.12-.29.33-.19.6-.44.79-.73.19-.29.29-.59.29-.88h.3c0,.51-.11.99-.33,1.42s-.54.79-.95,1.06c-.41.27-.9.4-1.47.4ZM446.13,194.24l-.16-1.68v-3.28c0-.69-.15-1.18-.44-1.48-.29-.3-.73-.45-1.32-.45-.33,0-.63.05-.9.14s-.48.24-.64.44c-.16.2-.24.46-.24.77h-1.39c0-.55.14-1,.41-1.34.27-.34.65-.58,1.12-.74.48-.15,1.02-.23,1.64-.23s1.11.1,1.56.3.81.51,1.06.94c.26.43.38.99.38,1.68v4.93h-1.09Z"/>
      <path d="M452.93,194.43c-.62,0-1.19-.17-1.7-.5-.52-.33-.93-.8-1.24-1.41s-.46-1.32-.46-2.14.15-1.52.46-2.12c.3-.6.71-1.06,1.21-1.38.5-.32,1.06-.48,1.66-.48.56,0,1.05.14,1.48.41.42.27.75.66.99,1.18s.35,1.13.35,1.86h-.48c0-.51-.1-.93-.3-1.28-.2-.35-.46-.61-.78-.79s-.66-.27-1.03-.27c-.42,0-.8.12-1.14.35-.34.23-.62.56-.82.99-.21.43-.31.94-.31,1.54s.1,1.13.31,1.57.48.77.82,1.01c.34.24.72.35,1.14.35.35,0,.68-.09,1-.27.32-.18.59-.45.8-.8s.31-.77.31-1.27h.48c0,.74-.12,1.37-.36,1.88-.24.51-.57.91-.98,1.17s-.88.4-1.39.4ZM455.4,194.24l-.21-1.79v-9.12h1.25v10.91h-1.04Z"/>
      <path d="M460.38,184.78c-.26,0-.46-.07-.61-.22s-.22-.34-.22-.58.08-.42.22-.56.35-.21.61-.21.46.07.61.21.22.33.22.56-.07.43-.22.58-.35.22-.61.22ZM459.76,194.24v-7.66h1.25v7.66h-1.25Z"/>
      <path d="M464.44,194.24v-7.65h1.07l.18,1.76v5.89h-1.25ZM469.88,194.24v-4.5c0-.73-.17-1.29-.52-1.67-.35-.38-.83-.57-1.43-.57-.46,0-.86.13-1.19.38-.34.25-.59.61-.78,1.08-.18.47-.27,1.02-.27,1.67h-.48c0-.89.12-1.65.35-2.28.23-.63.58-1.11,1.03-1.44.45-.33,1-.5,1.64-.5.6,0,1.12.13,1.55.4.43.27.76.65.99,1.16.23.5.34,1.1.34,1.78v4.5h-1.23Z"/>
      <path d="M476.8,198.17c-.78,0-1.46-.11-2.04-.33-.58-.22-1.02-.52-1.34-.89-.32-.37-.48-.78-.48-1.23,0-.59.22-1.04.65-1.36.43-.31,1-.47,1.68-.47l.69.43c-.58,0-1.02.12-1.34.36-.31.24-.47.57-.47.98s.22.77.67,1.06,1.1.43,1.97.43c.64,0,1.2-.09,1.68-.28.48-.18.86-.42,1.13-.72s.4-.61.4-.96c0-.24-.09-.45-.26-.62-.18-.17-.45-.26-.81-.26h-2.98c-.52,0-.96-.08-1.34-.24s-.67-.36-.87-.62c-.2-.26-.3-.54-.3-.84,0-.32.09-.59.27-.82.18-.22.42-.39.71-.51.29-.12.6-.18.94-.18l.24.46c-.16,0-.32.04-.48.11-.16.07-.3.18-.41.32-.11.14-.16.32-.16.53,0,.25.1.45.3.62.2.17.57.25,1.1.25h2.98c.72,0,1.29.15,1.7.46.41.3.62.73.62,1.27,0,.5-.18.98-.54,1.44-.36.46-.87.84-1.54,1.14-.67.3-1.46.44-2.39.44ZM477.03,192c-.59,0-1.12-.12-1.59-.35-.47-.23-.85-.56-1.12-.98-.28-.42-.41-.91-.41-1.46s.14-1.05.41-1.47c.27-.42.65-.75,1.12-.98.47-.23,1-.35,1.59-.35s1.09.12,1.56.35c.47.23.84.56,1.12.98.28.42.42.91.42,1.47s-.14,1.04-.42,1.46c-.28.42-.65.75-1.12.98s-.99.35-1.56.35ZM477.03,191.1c.59,0,1.04-.18,1.37-.54.33-.36.49-.82.49-1.36s-.16-1.01-.49-1.36c-.33-.35-.78-.52-1.37-.52s-1.04.17-1.37.52c-.33.35-.5.8-.5,1.36s.17,1,.5,1.36c.33.36.79.54,1.37.54ZM479.54,187.62l-.59-.24c0-.45.09-.84.26-1.18s.43-.6.75-.79.71-.28,1.16-.28l-.1,1.23c-.48,0-.85.1-1.1.31s-.38.52-.38.96Z"/>
      <path d="M489.7,194.43c-.69,0-1.3-.15-1.84-.46-.54-.3-.96-.75-1.27-1.35-.31-.6-.46-1.33-.46-2.21s.15-1.62.46-2.21.73-1.04,1.27-1.35c.54-.3,1.15-.46,1.84-.46s1.29.15,1.83.46c.54.3.96.75,1.26,1.35s.46,1.33.46,2.21-.15,1.61-.46,2.21c-.31.6-.73,1.05-1.26,1.35-.54.3-1.15.46-1.83.46ZM489.67,193.34c.5,0,.92-.12,1.26-.36s.61-.57.79-1.01.27-.96.27-1.56c0-.91-.19-1.63-.57-2.16-.38-.52-.94-.79-1.69-.79-.5,0-.92.12-1.27.36s-.61.58-.78,1.02c-.18.44-.27.96-.27,1.57,0,.9.19,1.62.57,2.14.38.53.94.79,1.68.79Z"/>
      <path d="M495.68,194.24v-7.65h1.07l.18,1.76v5.89h-1.25ZM501.12,194.24v-4.5c0-.73-.17-1.29-.52-1.67-.35-.38-.83-.57-1.43-.57-.46,0-.86.13-1.19.38-.34.25-.59.61-.78,1.08-.18.47-.27,1.02-.27,1.67h-.48c0-.89.12-1.65.35-2.28.23-.63.58-1.11,1.03-1.44.45-.33,1-.5,1.64-.5.6,0,1.12.13,1.55.4.43.27.76.65.99,1.16.23.5.34,1.1.34,1.78v4.5h-1.23Z"/>
      <path d="M511.88,194.43c-.74,0-1.36-.11-1.86-.32s-.87-.5-1.13-.87c-.26-.37-.39-.8-.41-1.28h1.2c.03.49.22.85.59,1.09.37.24.86.36,1.49.36.33,0,.63-.05.91-.16.28-.11.5-.25.66-.44.17-.19.25-.4.25-.63,0-.3-.11-.53-.33-.7s-.57-.32-1.05-.45l-1.49-.48c-.65-.2-1.14-.48-1.48-.84-.34-.36-.52-.78-.52-1.28,0-.62.27-1.11.82-1.49.54-.37,1.26-.56,2.14-.56.94,0,1.67.19,2.18.58.52.38.79.86.81,1.44h-1.23c-.05-.34-.22-.59-.51-.76-.29-.17-.71-.26-1.25-.26s-.92.12-1.21.35c-.29.23-.44.49-.44.77,0,.53.45.92,1.36,1.17l1.52.51c.66.2,1.16.46,1.51.78.35.32.52.73.52,1.22,0,.38-.12.75-.38,1.09-.25.34-.61.62-1.06.83-.46.21-1,.32-1.63.32Z"/>
      <path d="M520.23,194.43c-.61,0-1.19-.17-1.72-.5-.53-.33-.96-.8-1.28-1.4-.33-.6-.49-1.31-.49-2.14s.16-1.56.49-2.16c.33-.6.75-1.05,1.28-1.37.53-.31,1.1-.47,1.72-.47.43,0,.82.07,1.16.2.34.13.64.31.9.54.26.23.47.49.64.78.17.29.29.6.37.92l-1.28.11c-.13-.44-.36-.79-.67-1.05-.31-.26-.69-.39-1.14-.39-.38,0-.73.11-1.07.32-.33.22-.6.54-.81.97-.21.43-.31.96-.31,1.6,0,.59.09,1.11.28,1.54s.45.77.78,1.01.71.36,1.13.36c.59,0,1.04-.15,1.35-.44.31-.29.46-.69.46-1.21h1.28c0,.53-.12,1.01-.38,1.42s-.61.74-1.07.98c-.46.24-1,.36-1.63.36Z"/>
      <path d="M525.8,194.24v-7.66h1.25v7.66h-1.25ZM526.66,190.78c0-.97.09-1.78.28-2.42.19-.64.46-1.12.82-1.44.36-.32.8-.48,1.32-.48.17,0,.33.01.47.04.14.02.28.06.43.11l-.08,1.23c-.15-.05-.31-.09-.49-.12-.18-.03-.33-.05-.47-.05-.45,0-.82.13-1.1.39s-.48.62-.6,1.09c-.12.47-.19,1.02-.19,1.66h-.38Z"/>
      <path d="M534.24,194.43c-.66,0-1.25-.17-1.77-.51-.52-.34-.93-.81-1.23-1.41-.3-.6-.45-1.3-.45-2.08,0-.84.15-1.56.45-2.16.3-.6.71-1.07,1.23-1.39.52-.32,1.11-.48,1.78-.48.58,0,1.08.12,1.49.35.41.24.74.55.99.95.25.4.43.85.52,1.36s.13,1.03.08,1.56h-5.54v-.77h4.71l-.37.24c.02-.32,0-.63-.05-.94s-.15-.6-.28-.87-.33-.48-.58-.64-.57-.24-.96-.24c-.49,0-.9.12-1.23.38-.33.25-.58.58-.74.99-.17.41-.25.85-.25,1.32v.51c0,.53.08,1.01.24,1.43.16.42.41.75.73,1s.74.37,1.23.37.9-.12,1.22-.36c.32-.24.51-.59.58-1.06h1.3c-.08.51-.26.94-.54,1.31-.28.37-.64.65-1.08.84-.44.2-.93.3-1.48.3Z"/>
      <path d="M542.45,194.43c-.66,0-1.25-.17-1.77-.51-.52-.34-.93-.81-1.23-1.41-.3-.6-.45-1.3-.45-2.08,0-.84.15-1.56.45-2.16.3-.6.71-1.07,1.23-1.39.52-.32,1.11-.48,1.78-.48.58,0,1.08.12,1.49.35.41.24.74.55.99.95.25.4.43.85.52,1.36s.13,1.03.08,1.56h-5.54v-.77h4.71l-.37.24c.02-.32,0-.63-.05-.94s-.15-.6-.28-.87-.33-.48-.58-.64-.57-.24-.96-.24c-.49,0-.9.12-1.23.38-.33.25-.58.58-.74.99-.17.41-.25.85-.25,1.32v.51c0,.53.08,1.01.24,1.43.16.42.41.75.73,1s.74.37,1.23.37.9-.12,1.22-.36c.32-.24.51-.59.58-1.06h1.3c-.08.51-.26.94-.54,1.31-.28.37-.64.65-1.08.84-.44.2-.93.3-1.48.3Z"/>
      <path d="M548.01,194.24v-7.65h1.07l.18,1.76v5.89h-1.25ZM553.45,194.24v-4.5c0-.73-.17-1.29-.52-1.67-.35-.38-.83-.57-1.43-.57-.46,0-.86.13-1.19.38-.34.25-.59.61-.78,1.08-.18.47-.27,1.02-.27,1.67h-.48c0-.89.12-1.65.35-2.28.23-.63.58-1.11,1.03-1.44.45-.33,1-.5,1.64-.5.6,0,1.12.13,1.55.4.43.27.76.65.99,1.16.23.5.34,1.1.34,1.78v4.5h-1.23Z"/>
      <path d="M560.42,194.43c-.74,0-1.36-.11-1.86-.32s-.87-.5-1.13-.87c-.26-.37-.39-.8-.41-1.28h1.2c.03.49.22.85.59,1.09.37.24.86.36,1.49.36.33,0,.63-.05.91-.16.28-.11.5-.25.66-.44.17-.19.25-.4.25-.63,0-.3-.11-.53-.33-.7s-.57-.32-1.05-.45l-1.49-.48c-.65-.2-1.14-.48-1.48-.84-.34-.36-.52-.78-.52-1.28,0-.62.27-1.11.82-1.49.54-.37,1.26-.56,2.14-.56.94,0,1.67.19,2.18.58.52.38.79.86.81,1.44h-1.23c-.05-.34-.22-.59-.51-.76-.29-.17-.71-.26-1.25-.26s-.92.12-1.21.35c-.29.23-.44.49-.44.77,0,.53.45.92,1.36,1.17l1.52.51c.66.2,1.16.46,1.51.78.35.32.52.73.52,1.22,0,.38-.12.75-.38,1.09-.25.34-.61.62-1.06.83-.46.21-1,.32-1.63.32Z"/>
      <path d="M324.82,209.22c0-.46.16-.85.48-1.18.32-.33.72-.49,1.22-.49s.9.16,1.24.49c.34.33.51.72.51,1.18s-.17.84-.51,1.16c-.34.31-.75.47-1.24.47s-.9-.16-1.22-.47c-.32-.31-.48-.7-.48-1.15Z"/>
      <path d="M343.95,203.39h2.94c1.01,0,1.89.21,2.64.62.75.41,1.33,1,1.74,1.75.41.75.62,1.64.62,2.66s-.21,1.89-.62,2.64c-.41.75-.99,1.34-1.74,1.76-.75.42-1.63.63-2.64.63h-2.94v-10.05ZM345.2,204.5v7.86h1.7c.76,0,1.41-.17,1.96-.51.55-.34.97-.81,1.26-1.4.3-.59.44-1.27.44-2.02s-.15-1.43-.44-2.02c-.3-.59-.72-1.05-1.26-1.39-.55-.34-1.2-.51-1.96-.51h-1.7Z"/>
      <path d="M357.17,213.63c-.66,0-1.25-.17-1.77-.51-.52-.34-.93-.81-1.23-1.41-.3-.6-.45-1.3-.45-2.08,0-.84.15-1.56.45-2.16.3-.6.71-1.07,1.23-1.39.52-.32,1.11-.48,1.78-.48.58,0,1.08.12,1.49.35.41.24.74.55.99.95.25.4.43.85.52,1.36s.13,1.03.08,1.56h-5.54v-.77h4.71l-.37.24c.02-.32,0-.63-.05-.94s-.15-.6-.28-.87-.33-.48-.58-.64-.57-.24-.96-.24c-.49,0-.9.12-1.23.38-.33.25-.58.58-.74.99-.17.41-.25.85-.25,1.32v.51c0,.53.08,1.01.24,1.43.16.42.41.75.73,1s.74.37,1.23.37.9-.12,1.22-.36c.32-.24.51-.59.58-1.06h1.3c-.08.51-.26.94-.54,1.31-.28.37-.64.65-1.08.84-.44.2-.93.3-1.48.3Z"/>
      <path d="M365.48,213.63c-.74,0-1.36-.11-1.86-.32-.5-.21-.87-.5-1.13-.87-.26-.37-.39-.8-.41-1.28h1.2c.03.49.22.85.59,1.09.37.24.86.36,1.49.36.33,0,.63-.05.91-.16.28-.11.5-.25.66-.44s.25-.4.25-.63c0-.3-.11-.53-.33-.7s-.57-.32-1.05-.45l-1.49-.48c-.64-.2-1.14-.48-1.48-.84-.34-.36-.52-.78-.52-1.28,0-.62.27-1.11.82-1.49.54-.37,1.26-.56,2.14-.56.94,0,1.67.19,2.18.58.52.38.79.86.81,1.44h-1.23c-.05-.34-.22-.59-.51-.76-.29-.17-.71-.26-1.25-.26s-.92.12-1.21.35c-.29.23-.44.49-.44.77,0,.53.45.92,1.36,1.17l1.52.51c.66.2,1.16.46,1.51.78.35.32.52.73.52,1.22,0,.38-.13.75-.38,1.09-.25.34-.61.62-1.06.83s-1,.32-1.63.32Z"/>
      <path d="M371.84,203.98c-.26,0-.46-.07-.61-.22s-.22-.34-.22-.58.07-.42.22-.56.35-.21.61-.21.46.07.61.21c.15.14.22.33.22.56s-.08.43-.22.58c-.15.15-.35.22-.61.22ZM371.22,213.44v-7.66h1.25v7.66h-1.25Z"/>
      <path d="M375.9,213.44v-7.66h1.25v7.66h-1.25ZM376.77,209.98c0-.97.09-1.78.28-2.42.19-.64.46-1.12.82-1.44.36-.32.8-.48,1.32-.48.17,0,.33.01.47.04.14.02.28.06.43.11l-.08,1.23c-.15-.05-.31-.09-.49-.12-.18-.03-.33-.05-.47-.05-.45,0-.82.13-1.1.39s-.48.62-.6,1.09c-.12.47-.19,1.02-.19,1.66h-.38Z"/>
      <path d="M384.34,213.63c-.66,0-1.25-.17-1.77-.51-.52-.34-.93-.81-1.23-1.41-.3-.6-.45-1.3-.45-2.08,0-.84.15-1.56.45-2.16.3-.6.71-1.07,1.23-1.39.52-.32,1.11-.48,1.78-.48.58,0,1.08.12,1.49.35.41.24.74.55.99.95.25.4.43.85.52,1.36s.13,1.03.08,1.56h-5.54v-.77h4.71l-.37.24c.02-.32,0-.63-.05-.94s-.15-.6-.28-.87-.33-.48-.58-.64-.57-.24-.96-.24c-.49,0-.9.12-1.23.38-.33.25-.58.58-.74.99-.17.41-.25.85-.25,1.32v.51c0,.53.08,1.01.24,1.43.16.42.41.75.73,1s.74.37,1.23.37.9-.12,1.22-.36c.32-.24.51-.59.58-1.06h1.3c-.08.51-.26.94-.54,1.31-.28.37-.64.65-1.08.84-.44.2-.93.3-1.48.3Z"/>
      <path d="M392.64,213.63c-.62,0-1.19-.17-1.7-.5-.52-.33-.93-.8-1.24-1.41s-.46-1.32-.46-2.14.15-1.52.46-2.12c.3-.6.71-1.06,1.21-1.38.5-.32,1.06-.48,1.66-.48.56,0,1.05.14,1.48.41.42.27.75.66.99,1.18s.35,1.13.35,1.86h-.48c0-.51-.1-.93-.3-1.28-.2-.35-.46-.61-.78-.79s-.66-.27-1.03-.27c-.42,0-.8.12-1.14.35-.34.23-.62.56-.82.99-.21.43-.31.94-.31,1.54s.1,1.13.31,1.57.48.77.82,1.01c.34.24.72.35,1.14.35.35,0,.68-.09,1-.27.32-.18.59-.45.8-.8s.31-.77.31-1.27h.48c0,.74-.12,1.37-.36,1.88-.24.51-.57.91-.98,1.17s-.88.4-1.39.4ZM395.1,213.44l-.21-1.79v-9.12h1.25v10.91h-1.04Z"/>
      <path d="M402.35,206.66v-.86h4.08v.86h-4.08ZM403.6,213.44v-8.83c0-.51.1-.92.29-1.24.19-.32.46-.56.78-.72s.7-.23,1.1-.23c.22,0,.44.02.67.05.23.03.45.08.68.14l-.24.99c-.16-.06-.32-.11-.48-.14-.16-.03-.31-.05-.45-.05-.17,0-.34.03-.51.1-.17.06-.31.18-.42.36-.11.18-.17.43-.17.76v8.82h-1.25Z"/>
      <path d="M411.32,213.63c-.66,0-1.25-.17-1.77-.51-.52-.34-.93-.81-1.23-1.41-.3-.6-.45-1.3-.45-2.08,0-.84.15-1.56.45-2.16.3-.6.71-1.07,1.23-1.39.52-.32,1.11-.48,1.78-.48.58,0,1.08.12,1.49.35.41.24.74.55.99.95.25.4.43.85.52,1.36s.13,1.03.08,1.56h-5.54v-.77h4.71l-.37.24c.02-.32,0-.63-.05-.94s-.15-.6-.28-.87-.33-.48-.58-.64-.57-.24-.96-.24c-.49,0-.9.12-1.23.38-.33.25-.58.58-.74.99-.17.41-.25.85-.25,1.32v.51c0,.53.08,1.01.24,1.43.16.42.41.75.73,1s.74.37,1.23.37.9-.12,1.22-.36c.32-.24.51-.59.58-1.06h1.3c-.08.51-.26.94-.54,1.31-.28.37-.64.65-1.08.84-.44.2-.93.3-1.48.3Z"/>
      <path d="M419.01,213.63c-.63,0-1.15-.11-1.56-.34-.41-.22-.72-.51-.92-.87-.2-.36-.3-.73-.3-1.13,0-.52.13-.94.39-1.26.26-.33.61-.56,1.06-.72s.95-.23,1.51-.23c.4,0,.8.04,1.2.12.4.08.8.19,1.18.33v.78c-.32-.13-.68-.23-1.08-.3-.4-.08-.77-.11-1.11-.11-.51,0-.94.11-1.3.32-.35.21-.53.57-.53,1.08,0,.37.13.69.4.96s.7.4,1.29.4c.42,0,.79-.1,1.12-.29.33-.19.6-.44.79-.73.19-.29.29-.59.29-.88h.3c0,.51-.11.99-.33,1.42s-.54.79-.95,1.06c-.41.27-.9.4-1.47.4ZM421.62,213.44l-.16-1.68v-3.28c0-.69-.15-1.18-.44-1.48-.29-.3-.73-.45-1.32-.45-.33,0-.63.05-.9.14s-.48.24-.64.44c-.16.2-.24.46-.24.77h-1.39c0-.55.14-1,.41-1.34.27-.34.65-.58,1.12-.74.48-.15,1.02-.23,1.64-.23s1.11.1,1.56.3.81.51,1.06.94c.26.43.38.99.38,1.68v4.93h-1.09Z"/>
      <path d="M424.61,206.66v-.86h4.88v.86h-4.88ZM428.04,213.63c-.42,0-.79-.08-1.12-.24-.33-.16-.59-.4-.78-.72-.19-.32-.29-.72-.29-1.2v-7.81h1.23v7.78c0,.79.37,1.18,1.1,1.18.22,0,.43-.02.64-.07s.44-.12.69-.22l.18.9c-.27.12-.54.21-.81.29-.27.07-.55.11-.84.11Z"/>
      <path d="M431.48,205.78h1.25v4.77c0,.64.16,1.13.47,1.46.31.33.76.5,1.34.5.48,0,.9-.13,1.25-.38s.63-.61.82-1.06c.19-.45.29-.97.29-1.55h.46c0,.86-.12,1.59-.37,2.2-.25.61-.6,1.07-1.05,1.4-.45.32-.98.48-1.59.48-.58,0-1.08-.11-1.51-.32-.43-.21-.77-.54-1.01-.97-.24-.43-.36-.98-.36-1.65v-4.86ZM436.9,205.78h1.25v7.66h-1.25v-7.66Z"/>
      <path d="M441.39,213.44v-7.66h1.25v7.66h-1.25ZM442.25,209.98c0-.97.09-1.78.28-2.42s.46-1.12.82-1.44c.36-.32.8-.48,1.32-.48.17,0,.33.01.47.04.14.02.28.06.43.11l-.08,1.23c-.15-.05-.31-.09-.49-.12-.18-.03-.33-.05-.47-.05-.45,0-.82.13-1.1.39s-.48.62-.6,1.09c-.12.47-.19,1.02-.19,1.66h-.38Z"/>
      <path d="M449.83,213.63c-.66,0-1.25-.17-1.77-.51-.52-.34-.93-.81-1.23-1.41-.3-.6-.45-1.3-.45-2.08,0-.84.15-1.56.45-2.16.3-.6.71-1.07,1.23-1.39.52-.32,1.11-.48,1.78-.48.58,0,1.08.12,1.49.35.41.24.74.55.99.95.25.4.43.85.52,1.36s.13,1.03.08,1.56h-5.54v-.77h4.71l-.37.24c.02-.32,0-.63-.05-.94s-.15-.6-.28-.87-.33-.48-.58-.64-.57-.24-.96-.24c-.49,0-.9.12-1.23.38-.33.25-.58.58-.74.99-.17.41-.25.85-.25,1.32v.51c0,.53.08,1.01.24,1.43.16.42.41.75.73,1s.74.37,1.23.37.9-.12,1.22-.36c.32-.24.51-.59.58-1.06h1.3c-.08.51-.26.94-.54,1.31-.28.37-.64.65-1.08.84-.44.2-.93.3-1.48.3Z"/>
      <path d="M458.14,213.63c-.74,0-1.36-.11-1.86-.32-.5-.21-.87-.5-1.13-.87-.26-.37-.39-.8-.41-1.28h1.2c.03.49.22.85.59,1.09.37.24.86.36,1.49.36.33,0,.63-.05.91-.16.28-.11.5-.25.66-.44s.25-.4.25-.63c0-.3-.11-.53-.33-.7s-.57-.32-1.05-.45l-1.49-.48c-.64-.2-1.14-.48-1.48-.84-.34-.36-.52-.78-.52-1.28,0-.62.27-1.11.82-1.49.54-.37,1.26-.56,2.14-.56.94,0,1.67.19,2.18.58.52.38.79.86.81,1.44h-1.23c-.05-.34-.22-.59-.51-.76-.29-.17-.71-.26-1.25-.26s-.92.12-1.21.35c-.29.23-.44.49-.44.77,0,.53.45.92,1.36,1.17l1.52.51c.66.2,1.16.46,1.51.78.35.32.52.73.52,1.22,0,.38-.13.75-.38,1.09-.25.34-.61.62-1.06.83s-1,.32-1.63.32Z"/>
    </g>
  </g>
  <g id="Layer_9" data-name="Layer 9">
    <g>
      <path class="cls-1" d="M197.43,93.29v-55.92H50.18v80.87h43.64v-38.89c0-5.87,3.95-10.83,9.33-12.38,0-.03,0-.07,0-.1,0-11.39,9.27-20.66,20.66-20.66s20.66,9.27,20.66,20.66c0,.08,0,.16,0,.23,5.15,1.69,8.88,6.54,8.88,12.25v24.23c4.55.3,8.16,4.09,8.16,8.71,0,2.3-.9,4.39-2.36,5.95h17.09c3.35-10.93,11.11-19.94,21.2-24.95Z"/>
      <path class="cls-1" d="M174.95,123.73h-46.37v9.81h8.65v6.91h38.48c-.82-3.25-1.29-6.64-1.29-10.14,0-2.24.19-4.44.53-6.58Z"/>
      <path class="cls-1" d="M269.93,0H21.17C9.48,0,0,9.48,0,21.17v224.74c0,11.69,9.48,21.17,21.17,21.17h248.76c11.69,0,21.17-9.48,21.17-21.17V21.17c0-11.69-9.48-21.17-21.17-21.17ZM265.55,160.64h-21.78c-2.68,2.47-5.68,4.6-8.94,6.31,11.34,3.6,19.59,14.23,19.59,26.75v41.52h-6v-41.52c0-12.16-9.9-22.06-22.06-22.06h-21.24c-12.16,0-22.06,9.9-22.06,22.06v41.52h-6v-41.52c0-12.52,8.24-23.15,19.59-26.75-3.26-1.7-6.26-3.83-8.94-6.31H25.55v-20.18h84.83v-6.91h8.65v-9.81H45.41V31.86h156.79v59.42c4.25-1.48,8.8-2.29,13.55-2.29,22.79,0,41.32,18.54,41.32,41.32,0,3.5-.46,6.89-1.29,10.14h9.77v20.18Z"/>
      <path class="cls-3" d="M257.06,130.31c0-22.79-18.54-41.32-41.32-41.32-4.74,0-9.3.81-13.55,2.29V31.86H45.41v91.87h73.62v9.81h-8.65v6.91H25.55v20.18h162.17c2.68,2.47,5.68,4.6,8.94,6.31-11.34,3.6-19.59,14.23-19.59,26.75v41.52h6v-41.52c0-12.16,9.9-22.06,22.06-22.06h21.24c12.16,0,22.06,9.9,22.06,22.06v41.52h6v-41.52c0-12.52-8.24-23.15-19.59-26.75,3.26-1.7,6.26-3.83,8.94-6.31h21.78v-20.18h-9.77c.82-3.25,1.29-6.64,1.29-10.14ZM104.46,98.62c-1.73,1.6-2.82,3.88-2.82,6.41s1.09,4.82,2.82,6.41v5.71h-7.65v-37.82c0-4.29,2.75-7.94,6.57-9.31,1.02,6.59,5.17,12.16,10.88,15.14-5.68,1.8-9.81,7.11-9.81,13.38v.08ZM150.33,103.89c-3.64,1.05-6.32,4.41-6.32,8.39,0,1.81.55,3.48,1.49,4.88h-2.36v-18.61c0-6.26-4.13-11.58-9.81-13.38,5.66-2.96,9.79-8.46,10.85-14.99,3.6,1.48,6.15,5.03,6.15,9.16v24.55ZM152.76,106.54c3.17,0,5.74,2.58,5.74,5.74s-2.58,5.74-5.74,5.74-5.74-2.58-5.74-5.74,2.58-5.74,5.74-5.74ZM123.8,84.52c-9.74,0-17.66-7.92-17.66-17.66s7.92-17.66,17.66-17.66,17.66,7.92,17.66,17.66-7.92,17.66-17.66,17.66ZM104.64,105.04c0-3.17,2.58-5.74,5.74-5.74s5.74,2.58,5.74,5.74-2.58,5.74-5.74,5.74-5.74-2.58-5.74-5.74ZM107.46,117.16v-3.89c.91.33,1.89.51,2.92.51,3.11,0,5.83-1.63,7.38-4.08v.88c0,1.43,1.16,2.58,2.58,2.58h8.16c1.43,0,2.58-1.16,2.58-2.58v-13c0-1.43-1.16-2.58-2.58-2.58h-8.16c-1.43,0-2.58,1.16-2.58,2.58v2.81c-1.55-2.45-4.28-4.08-7.38-4.08-.96,0-1.89.16-2.76.45.86-5.23,5.4-9.23,10.87-9.23h10.62c6.08,0,11.03,4.95,11.03,11.03v18.61h-32.68ZM119.51,98.26c0-.62.5-1.12,1.12-1.12s1.12.5,1.12,1.12-.5,1.12-1.12,1.12-1.12-.5-1.12-1.12ZM137.22,140.45v-6.91h-8.65v-9.81h46.37c-.34,2.14-.53,4.34-.53,6.58,0,3.5.46,6.89,1.29,10.14h-38.48ZM159.14,118.23c1.46-1.56,2.36-3.65,2.36-5.95,0-4.62-3.61-8.41-8.16-8.71v-24.23c0-5.71-3.73-10.55-8.88-12.25,0-.08,0-.16,0-.23,0-11.39-9.27-20.66-20.66-20.66s-20.66,9.27-20.66,20.66c0,.03,0,.07,0,.1-5.38,1.55-9.33,6.51-9.33,12.38v38.89h-43.64V37.36h147.25v55.92c-10.09,5.01-17.85,14.02-21.2,24.95h-17.09ZM215.74,165.64c-12.87,0-24.15-6.92-30.32-17.23.2.01.41.04.61.04.29,0,.58-.01.87-.04,4.66-.46,6.89-4.44,7.13-4.89.39-.73.11-1.64-.63-2.03-.73-.39-1.64-.11-2.03.63-.06.12-1.61,2.99-4.77,3.31-1.05.1-2.09-.1-3.03-.53-2.02-4.45-3.16-9.38-3.16-14.58,0-19.48,15.85-35.32,35.32-35.32s35.32,15.85,35.32,35.32-15.85,35.32-35.32,35.32Z"/>
      <path class="cls-1" d="M114.27,85.17c-5.71-2.98-9.86-8.55-10.88-15.14-3.82,1.37-6.57,5.02-6.57,9.31v37.82h7.65v-5.71c-1.73-1.6-2.82-3.88-2.82-6.41s1.09-4.82,2.82-6.41v-.08c0-6.26,4.13-11.58,9.81-13.38Z"/>
      <path class="cls-2" d="M140.14,98.55c0-6.08-4.95-11.03-11.03-11.03h-10.62c-5.47,0-10.01,4-10.87,9.23.87-.29,1.79-.45,2.76-.45,3.11,0,5.83,1.63,7.38,4.08v-2.81c0-1.43,1.16-2.58,2.58-2.58h8.16c1.43,0,2.58,1.16,2.58,2.58v13c0,1.43-1.16,2.58-2.58,2.58h-8.16c-1.43,0-2.58-1.16-2.58-2.58v-.88c-1.55,2.45-4.28,4.08-7.38,4.08-1.02,0-2-.19-2.92-.51v3.89h32.68v-18.61Z"/>
      <path class="cls-1" d="M144.19,70.18c-1.06,6.52-5.19,12.03-10.85,14.99,5.68,1.8,9.81,7.11,9.81,13.38v18.61h2.36c-.94-1.39-1.49-3.07-1.49-4.88,0-3.98,2.68-7.34,6.32-8.39v-24.55c0-4.13-2.55-7.68-6.15-9.16Z"/>
      <path class="cls-2" d="M147.01,112.28c0,3.17,2.58,5.74,5.74,5.74s5.74-2.58,5.74-5.74-2.58-5.74-5.74-5.74-5.74,2.58-5.74,5.74Z"/>
      <path class="cls-2" d="M123.8,49.19c-9.74,0-17.66,7.92-17.66,17.66s7.92,17.66,17.66,17.66,17.66-7.92,17.66-17.66-7.92-17.66-17.66-17.66ZM116.51,67.69c-1.58,0-2.86-1.28-2.86-2.86s1.28-2.86,2.86-2.86,2.86,1.28,2.86,2.86-1.28,2.86-2.86,2.86ZM127.59,73.46c-.12.23-1.23,2.21-3.57,2.45-.15.01-.29.02-.44.02-1.66,0-3.21-.93-4.03-2.46-.2-.36-.06-.82.3-1.02.36-.2.82-.06,1.02.3.61,1.13,1.79,1.78,3,1.66,1.58-.16,2.35-1.59,2.39-1.65.19-.37.65-.51,1.01-.31.37.19.51.65.31,1.01ZM131.09,67.69c-1.58,0-2.86-1.28-2.86-2.86s1.28-2.86,2.86-2.86,2.86,1.28,2.86,2.86-1.28,2.86-2.86,2.86Z"/>
      <path class="cls-3" d="M116.51,61.96c-1.58,0-2.86,1.28-2.86,2.86s1.28,2.86,2.86,2.86,2.86-1.28,2.86-2.86-1.28-2.86-2.86-2.86Z"/>
      <path class="cls-3" d="M131.09,61.96c-1.58,0-2.86,1.28-2.86,2.86s1.28,2.86,2.86,2.86,2.86-1.28,2.86-2.86-1.28-2.86-2.86-2.86Z"/>
      <path class="cls-3" d="M127.28,72.44c-.37-.19-.82-.05-1.01.31-.03.06-.81,1.5-2.39,1.65-1.21.12-2.39-.53-3-1.66-.2-.36-.65-.5-1.02-.3-.36.2-.5.65-.3,1.02.83,1.53,2.38,2.46,4.03,2.46.14,0,.29,0,.44-.02,2.33-.23,3.45-2.22,3.57-2.45.19-.37.05-.82-.31-1.01Z"/>
      <path class="cls-2" d="M116.12,105.04c0-3.17-2.58-5.74-5.74-5.74s-5.74,2.58-5.74,5.74,2.58,5.74,5.74,5.74,5.74-2.58,5.74-5.74Z"/>
      <circle class="cls-1" cx="120.63" cy="98.26" r="1.12"/>
      <path class="cls-1" d="M215.74,94.99c-19.48,0-35.32,15.85-35.32,35.32,0,5.2,1.14,10.13,3.16,14.58.94.43,1.97.63,3.03.53,3.16-.31,4.71-3.18,4.77-3.31.39-.73,1.29-1.01,2.03-.63.73.39,1.01,1.29.63,2.03-.24.45-2.47,4.43-7.13,4.89-.29.03-.58.04-.87.04-.21,0-.41-.03-.61-.04,6.18,10.31,17.45,17.23,30.32,17.23,19.48,0,35.32-15.85,35.32-35.32s-15.85-35.32-35.32-35.32ZM194.21,129.46c-3.16,0-5.73-2.57-5.73-5.73s2.57-5.73,5.73-5.73,5.73,2.57,5.73,5.73-2.57,5.73-5.73,5.73Z"/>
      <path class="cls-3" d="M194.21,118.01c-3.16,0-5.73,2.57-5.73,5.73s2.57,5.73,5.73,5.73,5.73-2.57,5.73-5.73-2.57-5.73-5.73-5.73Z"/>
    </g>
  </g>
</svg>