<?xml version="1.0" encoding="UTF-8"?>
<svg id="Layer_2" data-name="Layer 2" xmlns="http://www.w3.org/2000/svg" viewBox="0 0 55.84 46.13">
  <defs>
    <style>
      .cls-1 {
        fill: #db3a34;
      }

      .cls-2 {
        fill: #ffc0c0;
      }
    </style>
  </defs>
  <g>
    <path class="cls-1" d="M27.93,29c-2.06,0-4.02-.44-5.8-1.22-3.97.84-6.91,3.77-6.91,7.25v11.1h25.43v-11.1c0-3.49-2.95-6.42-6.92-7.25-1.78.78-3.74,1.22-5.8,1.22Z"/>
    <path class="cls-2" d="M42.43,14.5c0-8-6.51-14.5-14.5-14.5s-14.5,6.51-14.5,14.5c0,5.93,3.59,11.04,8.7,13.28,1.78.78,3.74,1.22,5.8,1.22s4.02-.44,5.8-1.22c5.11-2.24,8.7-7.35,8.7-13.28ZM27.93,26.9c-6.83,0-12.4-5.56-12.4-12.4S21.09,2.11,27.93,2.11s12.4,5.56,12.4,12.4-5.56,12.4-12.4,12.4Z"/>
    <path class="cls-2" d="M6.63,20.27c-3.66,0-6.63,2.97-6.63,6.63s2.97,6.63,6.63,6.63,6.63-2.97,6.63-6.63-2.97-6.63-6.63-6.63Z"/>
    <path class="cls-2" d="M49.21,20.27c-3.66,0-6.63,2.97-6.63,6.63s2.97,6.63,6.63,6.63,6.63-2.97,6.63-6.63-2.97-6.63-6.63-6.63Z"/>
  </g>
  <circle class="cls-2" cx="27.92" cy="14.5" r="14.16"/>
  <path class="cls-1" d="M29.85,19.29h-3.82c-.34,0-.62.28-.62.62v1.91c0,1.4,1.13,2.53,2.53,2.53s2.53-1.13,2.53-2.53v-1.91c0-.34-.28-.62-.62-.62Z"/>
  <path class="cls-1" d="M25.78,14.31c-.79-1.45-2.26-2.34-3.84-2.34-.14,0-.28,0-.41.02-2.22.22-3.28,2.11-3.39,2.33-.18.35-.05.78.3.96.35.18.78.05.96-.3.03-.06.77-1.42,2.27-1.57,1.16-.11,2.27.51,2.85,1.58.19.35.62.48.97.29.35-.19.48-.62.29-.97Z"/>
  <path class="cls-1" d="M37.73,14.31c-.79-1.45-2.26-2.34-3.84-2.34-.14,0-.28,0-.41.02-2.22.22-3.28,2.11-3.39,2.33-.18.35-.05.78.3.96.35.18.78.05.96-.3.03-.06.77-1.42,2.27-1.57,1.16-.11,2.27.51,2.85,1.58.19.35.62.48.97.29.35-.19.48-.62.29-.97Z"/>
</svg>