<svg width="12" height="13" viewBox="0 0 12 13" fill="none" xmlns="http://www.w3.org/2000/svg">
<path d="M8 4.5C8.79565 4.5 9.55871 4.81607 10.1213 5.37868C10.6839 5.94129 11 6.70435 11 7.5V11H9V7.5C9 7.23478 8.89464 6.98043 8.70711 6.79289C8.51957 6.60536 8.26522 6.5 8 6.5C7.73478 6.5 7.48043 6.60536 7.29289 6.79289C7.10536 6.98043 7 7.23478 7 7.5V11H5V7.5C5 6.70435 5.31607 5.94129 5.87868 5.37868C6.44129 4.81607 7.20435 4.5 8 4.5Z" stroke="#fff3e7" stroke-linecap="round" stroke-linejoin="round"/>
<path d="M3 5H1V11H3V5Z" stroke="#fff3e7" stroke-linecap="round" stroke-linejoin="round"/>
<path d="M2 3.5C2.55228 3.5 3 3.05228 3 2.5C3 1.94772 2.55228 1.5 2 1.5C1.44772 1.5 1 1.94772 1 2.5C1 3.05228 1.44772 3.5 2 3.5Z" stroke="#fff3e7" stroke-linecap="round" stroke-linejoin="round"/>
</svg>
