<?xml version="1.0" encoding="UTF-8"?>
<svg id="Layer_7" data-name="Layer 7" xmlns="http://www.w3.org/2000/svg" version="1.1" viewBox="0 0 118.8 72">
  <defs>
    <style>
      .cls-1 {
        fill: #db3a34;
        stroke-width: 0px;
      }
    </style>
  </defs>
  <g>
    <path class="cls-1" d="M111.7,0h-50.1v21.2h26.8c1,0,1.8.8,1.8,1.8v.6c0,1-.8,1.8-1.8,1.8h-26.8v46.6h18.2c3.9,0,7.1-3.2,7.1-7.1v-18.2h24.8c3.9,0,7.1-3.2,7.1-7.1V7.1c0-3.9-3.2-7.1-7.1-7.1Z"/>
    <path class="cls-1" d="M0,7.1v32.5c0,3.9,3.2,7.1,7.1,7.1h26.9v4.2H6.9c-3.8,0-6.9,3.2-6.9,7.1v6.9c0,3.9,3.1,7.1,6.9,7.1h50.4V25.4h-27c-1,0-1.8-.8-1.8-1.8v-.6c0-1,.8-1.8,1.8-1.8h27V0H7.1C3.2,0,0,3.2,0,7.1Z"/>
  </g>
  <path class="cls-1" d="M111.9,50.9h-13.8c-3.8,0-6.9,3.2-6.9,7.1v6.9c0,3.9,3.1,7.1,6.9,7.1h13.8c3.8,0,6.9-3.2,6.9-7.1v-6.9c0-3.9-3.1-7.1-6.9-7.1Z"/>
</svg>