<svg width="119" height="72" viewBox="0 0 119 72" fill="none" xmlns="http://www.w3.org/2000/svg">
<g clip-path="url(#clip0_2144_163)">
<path d="M111.7 0H61.5996V21.2H88.3996C89.3996 21.2 90.1996 22 90.1996 23V23.6C90.1996 24.6 89.3996 25.4 88.3996 25.4H61.5996V72H79.7996C83.6996 72 86.8996 68.8 86.8996 64.9V46.7H111.7C115.6 46.7 118.8 43.5 118.8 39.6V7.1C118.8 3.2 115.6 0 111.7 0Z" fill="#FFFAEE"/>
<path d="M0 7.1V39.6C0 43.5 3.2 46.7 7.1 46.7H34V50.9H6.9C3.1 50.9 0 54.1 0 58V64.9C0 68.8 3.1 72 6.9 72H57.3V25.4H30.3C29.3 25.4 28.5 24.6 28.5 23.6V23C28.5 22 29.3 21.2 30.3 21.2H57.3V0H7.1C3.2 0 0 3.2 0 7.1Z" fill="#FFFAEE"/>
<path d="M111.9 50.8999H98.1002C94.3002 50.8999 91.2002 54.0999 91.2002 57.9999V64.8999C91.2002 68.7999 94.3002 71.9999 98.1002 71.9999H111.9C115.7 71.9999 118.8 68.7999 118.8 64.8999V57.9999C118.8 54.0999 115.7 50.8999 111.9 50.8999Z" fill="#FFFAEE"/>
</g>
<defs>
<clipPath id="clip0_2144_163">
<rect width="118.8" height="72" fill="white"/>
</clipPath>
</defs>
</svg>
