<svg width="62" height="38" viewBox="0 0 62 38" fill="none" xmlns="http://www.w3.org/2000/svg">
<g clip-path="url(#clip0_2120_749)">
<path d="M58.3 0H32.1602V11.1731H46.1223C46.6545 11.1731 47.0823 11.6058 47.0823 12.1442V12.4503C47.0823 12.9886 46.6545 13.4214 46.1223 13.4214H32.1602V38.0053H41.6561C43.6961 38.0053 45.3553 36.3322 45.3553 34.2633V24.6367H58.3C60.3401 24.6367 61.9993 22.9636 61.9993 20.8947V3.74194C61.9993 1.67833 60.3453 0 58.3 0Z" fill="black"/>
<path d="M0 3.74194V20.8947C0 22.9583 1.65396 24.6367 3.69923 24.6367H17.7344V26.8797H3.62097C1.62265 26.8797 0 28.5528 0 30.6217V34.2633C0 36.3269 1.62265 38.0053 3.62097 38.0053H29.9434V13.4161H15.877C15.3448 13.4161 14.9169 12.9833 14.9169 12.445V12.1389C14.9169 11.6006 15.3448 11.1678 15.877 11.1678H29.9434V0H3.69923C1.65396 0 0 1.67306 0 3.74194Z" fill="black"/>
<path d="M58.3791 26.8796H51.1737C49.1754 26.8796 47.5527 28.5527 47.5527 30.6216V34.2632C47.5527 36.3269 49.1754 38.0052 51.1737 38.0052H58.3791C60.3774 38.0052 62.0001 36.3321 62.0001 34.2632V30.6216C62.0001 28.558 60.3774 26.8796 58.3791 26.8796Z" fill="black"/>
</g>
<defs>
<clipPath id="clip0_2120_749">
<rect width="62" height="38" fill="white"/>
</clipPath>
</defs>
</svg>
