<?xml version="1.0" encoding="UTF-8"?>
<svg id="Layer_2" data-name="Layer 2" xmlns="http://www.w3.org/2000/svg" viewBox="0 0 55 55">
  <defs>
    <style>
      .cls-1 {
        fill: #251f3a;
      }
    </style>
  </defs>
  <path class="cls-1" d="M18.57,9.7h17.87c1.02,0,1.84-.82,1.84-1.84v-3.2c0-1.02-.82-1.84-1.84-1.84h-5.08c-.52-1.63-2.05-2.82-3.86-2.82s-3.33,1.19-3.86,2.82h-5.08c-1.02,0-1.84.82-1.84,1.84v3.2c0,1.02.82,1.84,1.84,1.84Z"/>
  <path class="cls-1" d="M46.73,5.75h-6.99v2.12c0,1.83-1.49,3.31-3.31,3.31h-17.87c-1.83,0-3.31-1.49-3.31-3.31v-2.12h-6.99c-1.02,0-1.84.82-1.84,1.84v45.57c0,1.02.82,1.84,1.84,1.84h38.47c1.02,0,1.84-.82,1.84-1.84V7.59c0-1.02-.82-1.84-1.84-1.84ZM25.96,45.26h-15.12v-2.21h15.12v2.21ZM25.96,33.46h-15.12v-2.21h15.12v2.21ZM25.96,22.47h-15.12v-2.21h15.12v2.21ZM36,47.4l-4.68-4.09,1.45-1.66,2.89,2.52,5.33-7.09,1.77,1.33-6.76,8.99ZM36,35.61l-4.68-4.09,1.45-1.66,2.89,2.52,5.33-7.09,1.77,1.33-6.76,8.99ZM36,24.61l-4.68-4.09,1.45-1.66,2.89,2.52,5.33-7.09,1.77,1.33-6.76,8.99Z"/>
</svg>