<svg width="963" height="229" viewBox="0 0 963 229" fill="none" xmlns="http://www.w3.org/2000/svg">
<rect x="307.871" y="98.6602" width="74.7532" height="39.4153" rx="19.7077" transform="rotate(45 307.871 98.6602)" fill="#0044F2"/>
<path d="M334.141 124.93L346.795 137.584C354.491 145.28 354.491 157.758 346.795 165.455V165.455C339.098 173.151 326.62 173.151 318.924 165.455L306.27 152.801L334.141 124.93Z" fill="#90ACF5"/>
<path d="M448.825 109.506C451.824 104.522 459.05 104.522 462.049 109.506L465.944 115.978C467.022 117.768 468.779 119.045 470.815 119.517L478.174 121.221C483.841 122.533 486.074 129.405 482.261 133.798L477.309 139.502C475.939 141.08 475.268 143.147 475.448 145.228L476.101 152.754C476.604 158.549 470.759 162.796 465.403 160.527L458.448 157.58C456.523 156.765 454.351 156.765 452.427 157.58L445.471 160.527C440.115 162.796 434.27 158.549 434.773 152.754L435.426 145.228C435.607 143.147 434.935 141.08 433.565 139.502L428.614 133.798C424.801 129.405 427.033 122.533 432.7 121.221L440.059 119.517C442.095 119.045 443.852 117.768 444.93 115.978L448.825 109.506Z" fill="#0044F2"/>
<path d="M606.443 109.506C609.442 104.522 616.668 104.522 619.667 109.506L623.562 115.978C624.64 117.768 626.397 119.045 628.433 119.517L635.792 121.221C641.459 122.533 643.692 129.405 639.879 133.798L634.927 139.502C633.557 141.08 632.886 143.147 633.067 145.228L633.72 152.754C634.223 158.549 628.377 162.796 623.021 160.527L616.066 157.58C614.142 156.765 611.969 156.765 610.045 157.58L603.09 160.527C597.734 162.796 591.888 158.549 592.391 152.754L593.044 145.228C593.225 143.147 592.553 141.08 591.183 139.502L586.232 133.798C582.419 129.405 584.652 122.533 590.318 121.221L597.677 119.517C599.713 119.045 601.471 117.768 602.548 115.978L606.443 109.506Z" fill="#0044F2"/>
<path d="M686.205 109.506C689.204 104.522 696.43 104.522 699.429 109.506L703.324 115.978C704.402 117.768 706.159 119.045 708.195 119.517L715.554 121.221C721.221 122.533 723.454 129.405 719.64 133.798L714.689 139.502C713.319 141.08 712.648 143.147 712.828 145.228L713.481 152.754C713.984 158.549 708.139 162.796 702.783 160.527L695.827 157.58C693.903 156.765 691.731 156.765 689.807 157.58L682.851 160.527C677.495 162.796 671.65 158.549 672.153 152.754L672.806 145.228C672.986 143.147 672.315 141.08 670.945 139.502L665.994 133.798C662.18 129.405 664.413 122.533 670.08 121.221L677.439 119.517C679.475 119.045 681.232 117.768 682.31 115.978L686.205 109.506Z" fill="#0044F2"/>
<path d="M765.968 109.506C768.967 104.522 776.192 104.522 779.192 109.506L783.087 115.978C784.164 117.768 785.922 119.045 787.958 119.517L795.317 121.221C800.983 122.533 803.216 129.405 799.403 133.798L794.451 139.502C793.082 141.08 792.41 143.147 792.591 145.228L793.244 152.754C793.747 158.549 787.901 162.796 782.545 160.527L775.59 157.58C773.666 156.765 771.493 156.765 769.569 157.58L762.614 160.527C757.258 162.796 751.412 158.549 751.915 152.754L752.568 145.228C752.749 143.147 752.078 141.08 750.708 139.502L745.756 133.798C741.943 129.405 744.176 122.533 749.843 121.221L757.202 119.517C759.237 119.045 760.995 117.768 762.073 115.978L765.968 109.506Z" fill="#0044F2"/>
<rect x="369.52" y="124.757" width="38.0715" height="7.7172" fill="#0044F2"/>
<rect x="369.52" y="144.822" width="38.0715" height="7.7172" fill="#0044F2"/>
<rect x="834.72" y="124.757" width="38.0715" height="7.7172" fill="#0044F2"/>
<rect x="834.72" y="144.822" width="38.0715" height="7.7172" fill="#0044F2"/>
<path d="M939.6 103.343C939.667 102.405 940.471 101.699 941.395 101.767L943.6 101.929C944.524 101.998 945.219 102.813 945.152 103.751L944.341 115.109L951.443 104.481C951.963 103.703 953.006 103.499 953.773 104.027L955.603 105.287C956.37 105.815 956.57 106.874 956.05 107.652L949.597 117.308L958.867 112.749C959.701 112.339 960.705 112.692 961.109 113.539L962.073 115.558C962.477 116.404 962.128 117.423 961.294 117.833L943.522 126.574L942.612 139.301C942.545 140.239 941.742 140.944 940.818 140.876L938.613 140.714C937.689 140.646 936.994 139.83 937.061 138.892L937.287 135.73L936.338 137.15C935.817 137.929 934.774 138.132 934.007 137.604L932.178 136.344C931.411 135.816 931.211 134.757 931.731 133.979L933.33 131.586L929.692 133.375C928.858 133.786 927.854 133.432 927.45 132.586L926.486 130.566C926.082 129.72 926.431 128.701 927.265 128.291L938.202 122.912L939.6 103.343Z" fill="#58D0C8"/>
<path d="M926.367 167.117C920.786 172.288 911.959 167.116 913.582 159.625L921.723 122.036C922.848 116.843 928.622 114.259 933.159 116.917L953.018 128.555C957.555 131.213 958.236 137.581 954.368 141.166L926.367 167.117Z" fill="#58D0C8"/>
<path d="M533.841 75V217.329" stroke="#B7CCFF" stroke-width="5"/>
<ellipse cx="197.161" cy="37.5" rx="41" ry="37.5" fill="#58D0C8"/>
<path d="M145.753 74.3216L160.398 48.9425L173.826 65.926L145.753 74.3216Z" fill="#58D0C8"/>
<path d="M201.78 13.1245C201.828 12.4568 202.404 11.9548 203.066 12.0032L204.646 12.1187C205.308 12.1671 205.805 12.7476 205.757 13.4153L205.176 21.499L210.264 13.9346C210.637 13.3806 211.384 13.2361 211.934 13.6119L213.244 14.5082C213.794 14.884 213.937 15.6377 213.564 16.1917L208.942 23.064L215.583 19.8191C216.18 19.5272 216.899 19.7789 217.189 20.3814L217.879 21.8184C218.169 22.4208 217.919 23.1458 217.322 23.4377L204.589 29.6588L203.938 38.717C203.89 39.3847 203.314 39.8867 202.652 39.8382L201.073 39.7228C200.411 39.6743 199.913 39.0939 199.961 38.4262L200.123 36.1755L199.443 37.1863C199.07 37.7403 198.323 37.8848 197.773 37.5091L196.463 36.6127C195.913 36.2369 195.77 35.4832 196.143 34.9292L197.288 33.2263L194.682 34.4997C194.084 34.7916 193.365 34.5399 193.076 33.9375L192.385 32.5004C192.096 31.898 192.346 31.173 192.943 30.8811L200.779 27.0526L201.78 13.1245Z" fill="#FFFAEE"/>
<path d="M192.3 58.5143C188.302 62.1952 181.978 58.5136 183.14 53.182L188.973 26.4293C189.779 22.7334 193.915 20.8937 197.165 22.7858L211.393 31.0686C214.643 32.9607 215.131 37.4928 212.36 40.0444L192.3 58.5143Z" fill="#FFFAEE"/>
<g clip-path="url(#clip0_230_108)">
<path d="M0.964844 228.149V33.5272C0.964844 22.1255 11.4819 12.8511 24.4112 12.8511C37.3404 12.8511 47.8575 22.1255 47.8575 33.5272V70.5173H82.136V33.5272C82.136 22.1255 92.6531 12.8511 105.582 12.8511C118.512 12.8511 129.029 22.1255 129.029 33.5272V68.8156L129.009 69.6664V228.149H0.964844Z" fill="#58D0C8"/>
<path d="M105.589 13.7017C117.984 13.7017 128.07 22.5962 128.07 33.527V67.9645H128.051V227.298H1.92974V33.527C1.92974 22.5962 12.0158 13.7017 24.4112 13.7017C36.8065 13.7017 46.8926 22.5962 46.8926 33.527V71.368H83.1009V33.527C83.1009 22.5962 93.187 13.7017 105.582 13.7017M105.589 12C92.1064 12 81.1776 21.6375 81.1776 33.527V69.6662H48.8288V33.527C48.8224 21.6375 37.8936 12 24.4112 12C10.9287 12 0 21.6375 0 33.527V229H129.974V69.6662H129.994V33.527C129.994 21.6375 119.065 12 105.582 12L105.589 12Z" fill="#58D0C8"/>
<path d="M108.316 87.5913H21.6641V190.796H108.316V87.5913Z" fill="#FFFAEE" stroke="#58D0C8" stroke-width="3" stroke-miterlimit="10"/>
<path d="M46.1465 229V217.729H85.4874V229" stroke="#FFFAEE" stroke-width="3" stroke-miterlimit="10"/>
<path d="M78.3475 208.21H52.9521V217.723H78.3475V208.21Z" fill="#FFFAEE" stroke="#FFFAEE" stroke-width="3" stroke-miterlimit="10"/>
<path d="M58.585 216.17C60.5649 216.17 62.17 214.565 62.17 212.585C62.17 210.605 60.5649 209 58.585 209C56.6051 209 55 210.605 55 212.585C55 214.565 56.6051 216.17 58.585 216.17Z" fill="#FFFAEE" stroke="#58D0C8" stroke-width="2" stroke-miterlimit="10"/>
<path d="M73.1485 216.17C75.1284 216.17 76.7335 214.565 76.7335 212.585C76.7335 210.605 75.1284 209 73.1485 209C71.1685 209 69.5635 210.605 69.5635 212.585C69.5635 214.565 71.1685 216.17 73.1485 216.17Z" fill="#FFFAEE" stroke="#58D0C8" stroke-width="2" stroke-miterlimit="10"/>
<circle cx="9" cy="9" r="10" transform="matrix(-1 0 0 1 91 99)" fill="#FFFAEE" stroke="#58D0C8" stroke-width="2"/>
<circle cx="9" cy="9" r="10" transform="matrix(-1 0 0 1 58 99)" fill="#FFFAEE" stroke="#58D0C8" stroke-width="2"/>
<circle cx="7" cy="7" r="7" transform="matrix(-1 0 0 1 89 101)" fill="#58D0C8"/>
<circle cx="7" cy="7" r="7" transform="matrix(-1 0 0 1 56 101)" fill="#58D0C8"/>
<path d="M61.367 116.218C63.1215 121 67.4285 121.499 69.5626 116.262C69.8143 115.644 69.3323 115 68.6651 115H62.2709C61.6234 115 61.144 115.61 61.367 116.218Z" fill="#58D0C8" stroke="#58D0C8" stroke-linecap="round"/>
<rect x="36.5" y="140.5" width="56" height="64" rx="16.5" stroke="#58D0C8" stroke-width="3"/>
</g>
<defs>
<clipPath id="clip0_230_108">
<rect width="130" height="217" fill="white" transform="translate(0 12)"/>
</clipPath>
</defs>
</svg>
