<?xml version="1.0" encoding="UTF-8"?>
<svg id="Layer_9" data-name="Layer 9" xmlns="http://www.w3.org/2000/svg" viewBox="0 0 120 120">
  <defs>
    <style>
      .cls-1 {
        fill: none;
      }

      .cls-2 {
        fill: #db3a34;
      }

      .cls-3 {
        fill: #ffc0c0;
      }
    </style>
  </defs>
  <circle class="cls-3" cx="60" cy="60" r="60"/>
  <g>
    <path class="cls-1" d="M47.03,52.4c.58,0,1.04-.26,1.4-.78.35-.52.52-1.53.52-3.03,0-1.42-.17-2.38-.52-2.87-.35-.49-.82-.73-1.4-.73s-1,.25-1.32.73c-.32.49-.48,1.45-.48,2.87,0,1.5.16,2.51.48,3.03.32.52.76.78,1.32.78Z"/>
    <path class="cls-1" d="M71.48,67.52c-.56,0-1,.27-1.33.8-.33.53-.5,1.52-.5,2.98s.17,2.44.5,2.94.78.75,1.33.75,1.01-.25,1.35-.75c.34-.5.51-1.48.51-2.94s-.17-2.46-.51-2.98c-.34-.53-.79-.8-1.35-.8Z"/>
    <path class="cls-2" d="M79.1,65.82c-.82-1.43-1.9-2.49-3.24-3.18-1.34-.69-2.8-1.03-4.38-1.03s-3,.34-4.33,1.03c-1.33.69-2.4,1.75-3.2,3.18s-1.2,3.25-1.2,5.47.4,3.99,1.2,5.42c.8,1.43,1.87,2.49,3.2,3.18,1.33.69,2.78,1.04,4.33,1.04s3.04-.34,4.38-1.04c1.34-.69,2.42-1.75,3.24-3.18.82-1.43,1.23-3.23,1.23-5.42s-.41-4.04-1.23-5.47ZM72.83,74.24c-.34.5-.79.75-1.35.75s-1-.25-1.33-.75-.5-1.48-.5-2.94.17-2.46.5-2.98c.33-.53.78-.8,1.33-.8s1.01.27,1.35.8c.34.53.51,1.52.51,2.98s-.17,2.44-.51,2.94Z"/>
    <path class="cls-2" d="M42.7,57.24c1.33.69,2.78,1.04,4.33,1.04s3.1-.35,4.44-1.04c1.34-.69,2.41-1.75,3.21-3.2.8-1.44,1.2-3.26,1.2-5.46s-.4-3.95-1.2-5.35c-.8-1.41-1.87-2.46-3.21-3.15s-2.82-1.04-4.44-1.04-3,.34-4.33,1.04-2.39,1.74-3.19,3.15c-.8,1.41-1.2,3.19-1.2,5.35s.4,4.02,1.2,5.46c.8,1.44,1.86,2.5,3.19,3.2ZM45.71,45.72c.32-.49.76-.73,1.32-.73s1.04.25,1.4.73c.35.49.52,1.45.52,2.87,0,1.5-.17,2.51-.52,3.03-.35.52-.82.78-1.4.78s-1-.26-1.32-.78c-.32-.52-.48-1.53-.48-3.03,0-1.42.16-2.38.48-2.87Z"/>
    <polygon class="cls-2" points="68.15 39.95 40.7 80.21 50.33 80.21 77.69 39.95 68.15 39.95"/>
  </g>
</svg>