<?xml version="1.0" encoding="UTF-8"?>
<svg id="Layer_5" data-name="Layer 5" xmlns="http://www.w3.org/2000/svg" viewBox="0 0 120 120">
  <defs>
    <style>
      .cls-1 {
        fill: #db3a34;
      }

      .cls-2 {
        fill: #ffc0c0;
      }
    </style>
  </defs>
  <circle class="cls-2" cx="60" cy="60" r="60"/>
  <g>
    <path class="cls-1" d="M60.7,71.33v-27.65c0-.39.31-.7.7-.7h18.22c.39,0,.7.31.7.7v21.03h4.21v-21.03c0-2.7-2.2-4.91-4.91-4.91h-18.22c-1.37,0-2.61.57-3.5,1.48-.89-.91-2.13-1.48-3.5-1.48h-18.22c-2.7,0-4.91,2.2-4.91,4.91v36.44c0,2.7,2.2,4.91,4.91,4.91h17.72v-4.21h-17.72c-.39,0-.7-.31-.7-.7v-36.44c0-.39.31-.7.7-.7h18.22c.39,0,.7.31.7.7v27.65h5.61Z"/>
    <path class="cls-1" d="M71.78,69.2c-.51-.23-1.09-.14-1.51.24l-5.04,4.54c-.39.35-.88.54-1.41.54h-3.83c-1.16,0-2.1.94-2.1,2.1v4.91c0,1.16.94,2.1,2.1,2.1h3.92c.48,0,.94.16,1.31.46l5.1,4.08c.26.2.56.31.87.31.21,0,.41-.05.61-.14.49-.24.79-.72.79-1.26v-16.59c0-.56-.32-1.05-.83-1.28Z"/>
    <path class="cls-1" d="M77.2,71.31l-2.18,3.6c.1.06,2.5,1.6,2.5,4.51s-2.4,4.45-2.48,4.5l2.16,3.61c.18-.11,4.52-2.78,4.52-8.11s-4.34-8-4.52-8.11Z"/>
    <path class="cls-1" d="M81.76,66.94l-1.5,3.93c.17.07,4.27,1.82,4.27,8.55s-4.09,8.48-4.24,8.54l1.48,3.94c.28-.11,6.97-2.73,6.97-12.48s-6.69-12.37-6.97-12.48Z"/>
  </g>
</svg>