<svg width="35" height="24" viewBox="0 0 35 24" fill="none" xmlns="http://www.w3.org/2000/svg">
<path d="M6.41699 9.32227C9.32992 9.3224 11.788 11.303 12.5713 14.0156C10.9465 15.2682 9.80091 17.122 9.44824 19.2393H1.55566C0.696552 19.2393 0 18.5427 0 17.6836V15.8682C0 12.2533 2.87315 9.32227 6.41699 9.32227ZM28.583 9.32227C32.1268 9.32227 35 12.2533 35 15.8682V17.6836C35 18.5427 34.3034 19.2393 33.4443 19.2393H25.5527C25.2001 17.1217 24.0539 15.2682 22.4287 14.0156C23.212 11.303 25.6701 9.32246 28.583 9.32227ZM6.41699 0C8.77941 0.000167448 10.6943 1.95442 10.6943 4.36426C10.6941 6.77388 8.77926 8.72737 6.41699 8.72754C4.05459 8.72754 2.13892 6.77398 2.13867 4.36426C2.13867 1.95432 4.05443 0 6.41699 0ZM28.583 0C30.9456 0 32.8613 1.95432 32.8613 4.36426C32.8611 6.77398 30.9454 8.72754 28.583 8.72754C26.2208 8.72731 24.3059 6.77384 24.3057 4.36426C24.3057 1.95446 26.2206 0.000232825 28.583 0Z" fill="black"/>
<path d="M21.7785 9.12432C21.7785 11.5343 19.8632 13.4879 17.5007 13.4879C15.1381 13.4879 13.2229 11.5343 13.2229 9.12432C13.2229 6.71438 15.1381 4.76074 17.5007 4.76074C19.8632 4.76074 21.7785 6.71438 21.7785 9.12432Z" fill="black"/>
<path d="M11.084 20.6283C11.084 17.0134 13.9568 14.0829 17.5007 14.0829C21.0445 14.0829 23.9174 17.0134 23.9174 20.6283V22.4446C23.9174 23.3037 23.2209 24.0002 22.3618 24.0002H12.6395C11.7804 24.0002 11.084 23.3037 11.084 22.4446V20.6283Z" fill="black"/>
</svg>
