<?xml version="1.0" encoding="UTF-8"?>
<svg id="Layer_2" data-name="Layer 2" xmlns="http://www.w3.org/2000/svg" viewBox="0 0 55.84 46.13">
  <defs>
    <style>
      .cls-1 {
        fill: #db3a34;
      }

      .cls-2 {
        fill: #ffc0c0;
      }
    </style>
  </defs>
  <path class="cls-1" d="M27,17.09h18.71v-8.97c0-3.16-2.56-5.72-5.72-5.72H5.76C2.6,2.4.04,4.96.04,8.12v19.62c0,3.16,2.56,5.72,5.72,5.72h3.62l-2.03,3.5c-.82,1.42.77,3.01,2.18,2.18l9.76-5.68h3.58v-12.24c0-2.28,1.85-4.12,4.12-4.12Z"/>
  <path class="cls-2" d="M51.67,17.09h-24.67c-2.28,0-4.12,1.85-4.12,4.12v14.14c0,2.28,1.85,4.12,4.12,4.12h14.92l7.04,4.09c1.02.59,2.17-.55,1.57-1.57l-1.47-2.52h2.61c2.28,0,4.12-1.85,4.12-4.12v-14.14c0-2.28-1.85-4.12-4.12-4.12Z"/>
</svg>