<?xml version="1.0" encoding="UTF-8"?>
<svg id="Layer_5" data-name="Layer 5" xmlns="http://www.w3.org/2000/svg" viewBox="0 0 120 120">
  <defs>
    <style>
      .cls-1 {
        fill: #db3a34;
      }

      .cls-2 {
        fill: #ffc0c0;
      }
    </style>
  </defs>
  <circle class="cls-2" cx="60" cy="60" r="60"/>
  <g>
    <path class="cls-1" d="M61.89,70.1c-1.38,0-2.72-.26-4-.76l-16.73-6.63v10.69c0,5.19,9.28,9.39,20.73,9.39s20.73-4.21,20.73-9.39v-10.69l-16.73,6.63c-1.28.51-2.63.76-4,.76Z"/>
    <path class="cls-1" d="M94.1,51.87l-29.34-11.63c-1.84-.73-3.89-.73-5.74,0l-29.34,11.63c-.69.27-1.14.93-1.14,1.67s.45,1.4,1.14,1.67l4.11,1.63v11.65c-.91.62-1.51,1.67-1.51,2.86,0,1.09.5,2.06,1.29,2.69l-1.25,6c-.17.81.04,1.64.56,2.28.52.64,1.3,1.01,2.12,1.01h1.48c.82,0,1.6-.37,2.12-1.01.52-.64.72-1.48.56-2.28l-1.25-6c.79-.63,1.29-1.6,1.29-2.69,0-1.19-.6-2.24-1.51-2.86v-10.1l21.25,8.42c1.9.75,4.02.75,5.93,0l29.25-11.59c.69-.27,1.14-.93,1.14-1.67,0-.74-.45-1.4-1.14-1.67Z"/>
  </g>
</svg>