<?xml version="1.0" encoding="UTF-8"?>
<svg xmlns="http://www.w3.org/2000/svg" viewBox="0 0 720.29 281.54">
  <defs>
    <style>
      .cls-1 {
        font-size: 6px;
      }

      .cls-1, .cls-2, .cls-3 {
        font-family: Karla-Bold, Karla;
        font-variation-settings: 'wght' 700;
        font-weight: 700;
      }

      .cls-4, .cls-2 {
        font-size: 16px;
      }

      .cls-4, .cls-5, .cls-6, .cls-7 {
        fill: #251f3a;
      }

      .cls-4, .cls-8 {
        font-family: Karla-Regular, Karla;
        font-variation-settings: 'wght' 400;
      }

      .cls-9, .cls-10 {
        fill: #b7efc5;
      }

      .cls-2 {
        fill: #37a753;
      }

      .cls-11 {
        letter-spacing: -.08em;
      }

      .cls-5, .cls-12, .cls-13, .cls-6, .cls-10, .cls-8, .cls-14 {
        stroke: #251f3a;
        stroke-miterlimit: 10;
      }

      .cls-5, .cls-13 {
        stroke-width: 4px;
      }

      .cls-12, .cls-15, .cls-13 {
        fill: none;
      }

      .cls-12, .cls-6, .cls-10 {
        stroke-width: 2px;
      }

      .cls-16 {
        font-family: Karla-Medium, Karla;
        font-size: 8px;
        font-variation-settings: 'wght' 500;
        font-weight: 500;
      }

      .cls-3 {
        font-size: 11px;
      }

      .cls-17 {
        fill: #fffaee;
      }

      .cls-18 {
        letter-spacing: 0em;
      }

      .cls-8 {
        font-size: 12px;
        stroke-width: .25px;
      }
    </style>
  </defs>
  <g id="Layer_12" data-name="Layer 12">
    <circle class="cls-9" cx="506.91" cy="84.38" r="8.77"/>
    <ellipse class="cls-15" cx="511.64" cy="149.41" rx="12.29" ry="11.68"/>
    <path class="cls-9" d="M504.42,93.15h4.99c3.26,0,5.91,2.65,5.91,5.91v10.16h-16.81v-10.16c0-3.26,2.65-5.91,5.91-5.91Z"/>
  </g>
  <g id="Layer_2" data-name="Layer 2">
    <g>
      <g>
        <path class="cls-7" d="M506.91,94.1c-5.42,0-9.83-4.41-9.83-9.83s4.41-9.83,9.83-9.83,9.83,4.41,9.83,9.83-4.41,9.83-9.83,9.83ZM506.91,75.86c-4.63,0-8.4,3.77-8.4,8.4s3.77,8.4,8.4,8.4,8.4-3.77,8.4-8.4-3.77-8.4-8.4-8.4Z"/>
        <path class="cls-7" d="M516.11,109.22h-1.43v-9.88c0-2.89-2.35-5.25-5.25-5.25h-5.05c-2.89,0-5.25,2.35-5.25,5.25v9.88h-1.43v-9.88c0-3.68,2.99-6.68,6.68-6.68h5.05c3.68,0,6.68,2.99,6.68,6.68v9.88Z"/>
      </g>
      <g>
        <g>
          <circle class="cls-7" cx="503.44" cy="83.3" r="1.24"/>
          <path class="cls-7" d="M503.44,84.66c-.75,0-1.36-.61-1.36-1.36s.61-1.36,1.36-1.36,1.36.61,1.36,1.36-.61,1.36-1.36,1.36ZM503.44,82.17c-.62,0-1.12.5-1.12,1.12s.5,1.12,1.12,1.12,1.12-.5,1.12-1.12-.5-1.12-1.12-1.12Z"/>
        </g>
        <g>
          <circle class="cls-7" cx="510.38" cy="83.3" r="1.24"/>
          <path class="cls-7" d="M510.38,84.66c-.75,0-1.36-.61-1.36-1.36s.61-1.36,1.36-1.36,1.36.61,1.36,1.36-.61,1.36-1.36,1.36ZM510.38,82.17c-.62,0-1.12.5-1.12,1.12s.5,1.12,1.12,1.12,1.12-.5,1.12-1.12-.5-1.12-1.12-1.12Z"/>
        </g>
      </g>
      <path class="cls-7" d="M506.81,88.58c-.79,0-1.53-.44-1.92-1.17-.09-.17-.03-.39.14-.48.17-.09.39-.03.48.14.29.54.85.85,1.43.79.75-.07,1.12-.76,1.14-.79.09-.17.31-.24.48-.15.17.09.24.31.15.48-.06.11-.59,1.05-1.7,1.16-.07,0-.14.01-.21.01Z"/>
    </g>
    <g>
      <path class="cls-10" d="M193.46,17.54h-67.79l-13.53-15.99-13.53,15.99H21.03c-5.3,0-9.59,2.98-9.59,6.66v32.65c0,3.68,4.29,6.66,9.59,6.66h172.42c5.3,0,9.59-2.98,9.59-6.66V24.2c0-3.68-4.29-6.66-9.59-6.66Z"/>
      <text class="cls-8" transform="translate(43.69 45.45)"><tspan x="0" y="0">I like B better because...</tspan></text>
    </g>
    <g>
      <rect class="cls-12" x="117.06" y="79.26" width="96.42" height="93.72" rx="9.9" ry="9.9"/>
      <rect class="cls-7" x="143.52" y="129.72" width="42.69" height="5.21"/>
      <rect class="cls-7" x="137.96" y="120.99" width="53.81" height="5.21"/>
      <g>
        <circle class="cls-7" cx="25.42" cy="160.19" r="3.28"/>
        <path class="cls-7" d="M34.94,157.92c1.25,0,2.28,1.02,2.28,2.28s-1.02,2.28-2.28,2.28-2.28-1.02-2.28-2.28,1.02-2.28,2.28-2.28M34.94,156.92c-1.81,0-3.28,1.47-3.28,3.28s1.47,3.28,3.28,3.28,3.28-1.47,3.28-3.28-1.47-3.28-3.28-3.28h0Z"/>
        <path class="cls-7" d="M44.45,157.92c1.26,0,2.28,1.02,2.28,2.28s-1.02,2.28-2.28,2.28-2.28-1.02-2.28-2.28,1.02-2.28,2.28-2.28M44.45,156.92c-1.81,0-3.28,1.47-3.28,3.28s1.47,3.28,3.28,3.28,3.28-1.47,3.28-3.28-1.47-3.28-3.28-3.28h0Z"/>
        <path class="cls-7" d="M53.97,157.92c1.26,0,2.28,1.02,2.28,2.28s-1.02,2.28-2.28,2.28-2.28-1.02-2.28-2.28,1.02-2.28,2.28-2.28M53.97,156.92c-1.81,0-3.28,1.47-3.28,3.28s1.47,3.28,3.28,3.28,3.28-1.47,3.28-3.28-1.47-3.28-3.28-3.28h0Z"/>
        <path class="cls-7" d="M63.49,157.92c1.25,0,2.28,1.02,2.28,2.28s-1.02,2.28-2.28,2.28-2.28-1.02-2.28-2.28,1.02-2.28,2.28-2.28M63.49,156.92c-1.81,0-3.28,1.47-3.28,3.28s1.47,3.28,3.28,3.28,3.28-1.47,3.28-3.28-1.47-3.28-3.28-3.28h0Z"/>
        <path class="cls-7" d="M73.01,157.92c1.26,0,2.28,1.02,2.28,2.28s-1.02,2.28-2.28,2.28-2.28-1.02-2.28-2.28,1.02-2.28,2.28-2.28M73.01,156.92c-1.81,0-3.28,1.47-3.28,3.28s1.47,3.28,3.28,3.28,3.28-1.47,3.28-3.28-1.47-3.28-3.28-3.28h0Z"/>
      </g>
      <text class="cls-16" transform="translate(125.28 163.55)"><tspan x="0" y="0">PREV</tspan></text>
      <text class="cls-1" transform="translate(160.19 163.04)"><tspan x="0" y="0">1/6</tspan></text>
      <text class="cls-16" transform="translate(186.57 163.55)"><tspan x="0" y="0">NEXT</tspan></text>
      <line class="cls-14" x1="117.06" y1="151.52" x2="213.49" y2="151.52"/>
      <g>
        <rect class="cls-12" x="1" y="79.26" width="96.42" height="93.72" rx="9.9" ry="9.9"/>
        <g>
          <g>
            <rect class="cls-7" x="22.42" y="121.06" width="53.81" height="5.21"/>
            <rect class="cls-7" x="22.42" y="129.78" width="32.14" height="5.21"/>
          </g>
          <text class="cls-3" transform="translate(24.64 111.27)"><tspan x="0" y="0">DESIGN A</tspan></text>
        </g>
      </g>
      <text class="cls-3" transform="translate(140.06 111.27)"><tspan x="0" y="0">DESIGN B</tspan></text>
    </g>
    <text class="cls-2" transform="translate(1 214.92)"><tspan x="0" y="0">Qualitative Preference </tspan><tspan class="cls-11" x="172.69" y="0">T</tspan><tspan class="cls-18" x="179.86" y="0">esting</tspan></text>
    <text class="cls-2" transform="translate(394.24 214.92)"><tspan x="0" y="0">Remote Wizard of Oz</tspan></text>
    <text class="cls-4" transform="translate(394.24 239.21)"><tspan x="0" y="0">User is tasked to use the Read-Aloud feature.</tspan><tspan x="0" y="19.2">They walk through their actions of using a</tspan><tspan x="0" y="38.4">screen-shared prototype controlled by me.</tspan></text>
    <text class="cls-4" transform="translate(1 239.21)"><tspan x="0" y="0">User is shown two different designs</tspan><tspan x="0" y="19.2">and is asked which they prefer and why.</tspan></text>
  </g>
  <g id="Layer_13" data-name="Layer 13">
    <rect class="cls-13" x="410.88" y="46.99" width="119.74" height="73.19"/>
    <rect class="cls-5" x="470.01" y="123.39" width="6.19" height="12.71"/>
    <rect class="cls-7" x="459.75" y="136.11" width="26.71" height="5.39"/>
    <g>
      <rect class="cls-12" x="427.19" y="54.59" width="33.81" height="57.99" rx="4.71" ry="4.71"/>
      <path class="cls-7" d="M438.16,54.59h11.87v1.36c0,.55-.45,1-1,1h-9.87c-.55,0-1-.45-1-1v-1.36h0Z"/>
      <line class="cls-14" x1="427.19" y1="62.92" x2="460.99" y2="62.92"/>
      <line class="cls-14" x1="427.19" y1="106.02" x2="460.99" y2="106.02"/>
      <rect class="cls-7" x="447.4" y="58.87" width="1.9" height="1.9"/>
      <rect class="cls-7" x="430.5" y="58.87" width="1.9" height="1.9"/>
      <rect class="cls-7" x="450.3" y="58.87" width="1.9" height="1.9"/>
      <rect class="cls-7" x="453.19" y="58.87" width="1.9" height="1.9"/>
      <rect class="cls-7" x="456.08" y="58.87" width="1.9" height="1.9"/>
      <rect class="cls-7" x="432.4" y="66.18" width="22.3" height="2.21"/>
      <rect class="cls-7" x="432.4" y="70.46" width="22.3" height="2.21"/>
      <rect class="cls-7" x="432.4" y="74.73" width="10.93" height="2.21"/>
      <rect class="cls-7" x="435.93" y="79.45" width="18.77" height="2.21"/>
      <rect class="cls-7" x="432.4" y="83.73" width="22.3" height="2.21"/>
      <rect class="cls-7" x="435.93" y="92.7" width="18.77" height="2.21"/>
      <rect class="cls-7" x="432.4" y="88.01" width="18.17" height="2.21"/>
      <rect class="cls-7" x="432.4" y="97.94" width="18.17" height="2.21"/>
    </g>
    <line class="cls-6" x1="485.25" y1="46.99" x2="485.25" y2="118.95"/>
    <path class="cls-10" d="M477.42,68.41h17.24l3.44,4.07,3.44-4.07h19.73c1.35,0,2.44-.76,2.44-1.69v-8.3c0-.94-1.09-1.69-2.44-1.69h-43.85c-1.35,0-2.44.76-2.44,1.69v8.3c0,.94,1.09,1.69,2.44,1.69Z"/>
    <g>
      <polygon class="cls-9" points="455.61 70.35 452.79 73.16 449.44 60.65 461.95 64 459.14 66.81 462.72 70.39 459.19 73.93 455.61 70.35"/>
      <path class="cls-7" d="M450.85,62.06l9.17,2.46-2.3,2.3,3.58,3.58-2.12,2.12-3.58-3.58-2.3,2.3-2.46-9.17M448.03,59.23l.9,3.35,2.46,9.17.9,3.35,2.45-2.45.88-.88,2.17,2.17,1.41,1.41,1.41-1.41,2.12-2.12,1.41-1.41-1.41-1.41-2.17-2.17.88-.88,2.45-2.45-3.35-.9-9.17-2.46-3.35-.9h0Z"/>
    </g>
    <path class="cls-7" d="M517.82,138.83c3.7,2.13,6.2,6.12,6.2,10.69,0,6.81-5.52,12.34-12.34,12.34s-12.34-5.52-12.34-12.34c0-4.58,2.5-8.57,6.2-10.69h-111.31v31.41h134.14v-31.41h-10.56Z"/>
    <g>
      <path class="cls-9" d="M510.6,165.29c.12,0,.21-.1.21-.21v-3.26c-5.9-.41-10.65-4.96-11.36-10.77h-7.61c-2.09,0-3.98.83-5.38,2.16,1.83-.31,4.05-.2,7.12,0l-.13,2c-4.96-.32-7.12-.31-8.86.78-.36.89-.56,1.86-.56,2.88v6.22c0,.12.1.21.21.21h26.36Z"/>
      <path class="cls-7" d="M511.68,163.86c-7.9,0-14.33-6.43-14.33-14.34s6.43-14.33,14.33-14.33,14.33,6.43,14.33,14.33-6.43,14.34-14.33,14.34ZM511.68,139.19c-5.7,0-10.33,4.64-10.33,10.33s4.64,10.34,10.33,10.34,10.33-4.64,10.33-10.34-4.64-10.33-10.33-10.33Z"/>
    </g>
    <circle class="cls-17" cx="557.38" cy="89.23" r="27.82"/>
    <g>
      <g>
        <path class="cls-7" d="M524.88,89.83c0-17.56,14.29-31.85,31.85-31.85,17.56,0,31.85,14.29,31.85,31.85,0,17.56-14.29,31.85-31.85,31.85-17.56,0-31.85-14.29-31.85-31.85ZM529.5,89.83c0,15.01,12.21,27.22,27.22,27.22,15.01,0,27.22-12.21,27.22-27.22,0-15.01-12.21-27.22-27.22-27.22-15.01,0-27.22,12.21-27.22,27.22Z"/>
        <path class="cls-7" d="M526.91,170.68h4.62s0-32,0-32c0-9.37,7.63-17,17-17h16.37c9.37,0,17,7.63,17,17v32s4.62,0,4.62,0v-32c0-11.92-9.7-21.63-21.63-21.63h-16.37c-11.92,0-21.63,9.7-21.63,21.63v32Z"/>
      </g>
      <g>
        <circle class="cls-7" cx="541.46" cy="85.42" r="4.03"/>
        <path class="cls-7" d="M537.05,85.42c0-2.43,1.98-4.41,4.41-4.41s4.41,1.98,4.41,4.41-1.98,4.41-4.41,4.41-4.41-1.98-4.41-4.41ZM537.82,85.42c0,2.01,1.63,3.64,3.64,3.64s3.64-1.63,3.64-3.64-1.63-3.64-3.64-3.64-3.64,1.63-3.64,3.64Z"/>
      </g>
      <path class="cls-7" d="M533.22,103.81c2.55,0,4.94-1.44,6.22-3.79.3-.56.09-1.26-.47-1.57-.56-.3-1.26-.09-1.57.47-.94,1.74-2.75,2.74-4.62,2.56-2.43-.24-3.63-2.45-3.68-2.55-.3-.56-1-.78-1.56-.48-.56.3-.78,1-.48,1.56.18.35,1.9,3.41,5.5,3.77.22.02.45.03.67.03Z"/>
    </g>
  </g>
</svg>