<?xml version="1.0" encoding="UTF-8"?>
<svg id="Layer_2" data-name="Layer 2" xmlns="http://www.w3.org/2000/svg" viewBox="0 0 149.06 152.24">
  <defs>
    <style>
      .cls-1 {
        fill: #fffaee;
      }
    </style>
  </defs>
  <path class="cls-1" d="M32.74,58.17c-3.16,0-5.73,2.57-5.73,5.73s2.57,5.73,5.73,5.73,5.73-2.57,5.73-5.73-2.57-5.73-5.73-5.73Z"/>
  <path class="cls-1" d="M61.9,58.17c-3.16,0-5.73,2.57-5.73,5.73s2.57,5.73,5.73,5.73,5.73-2.57,5.73-5.73-2.57-5.73-5.73-5.73Z"/>
  <path class="cls-1" d="M54.28,79.14c-.73-.39-1.64-.11-2.03.63-.06.12-1.61,2.99-4.77,3.31-2.43.24-4.78-1.06-6-3.32-.39-.73-1.3-1-2.03-.61-.73.39-1,1.3-.61,2.03,1.65,3.06,4.75,4.92,8.06,4.92.29,0,.58-.01.87-.04,4.66-.46,6.89-4.44,7.13-4.89.39-.73.11-1.64-.63-2.03Z"/>
  <path class="cls-1" d="M148.03,71.02l-30.12-52.16c-2.93-5.07-10.25-5.07-13.18,0l-13.08,22.66c-.85-.48-1.83-.75-2.87-.75h-.09v-1.76c0-14.26-8.49-26.54-20.69-32.07l-8.23,23.83c-.29.83-1.06,1.35-1.89,1.35-.22,0-.44-.04-.65-.11-1.04-.36-1.6-1.5-1.24-2.54l8.27-23.97s-.07-.03-.11-.04c0-3.01-2.44-5.44-5.45-5.44h-22.83c-3.01,0-5.45,2.44-5.45,5.45h0s-.05.02-.07.03l8.27,23.97c.36,1.04-.19,2.18-1.24,2.54-.22.07-.44.11-.65.11-.83,0-1.6-.52-1.89-1.35L26.63,6.92C14.43,12.45,5.95,24.72,5.95,38.99v1.76h-.09c-3.24,0-5.86,2.62-5.86,5.86v.99c0,3.24,2.62,5.86,5.86,5.86h1.04c-.59,2.77-.9,5.65-.9,8.59,0,17.16,10.51,31.9,25.43,38.14-11.6,2.15-20.28,10.6-20.28,20.67v31.38h71.91v-31.38c0-9.98-8.53-18.37-19.98-20.61,8.54-3.53,15.64-9.85,20.18-17.82h25.08v21.23c-.35-.02-.7-.05-1.05-.05-8.53,0-15.47,6.94-15.47,15.47s6.94,15.47,15.47,15.47c.35,0,.7-.03,1.05-.05v17.75h6v-19.41c4.99-2.57,8.42-7.76,8.42-13.75s-3.43-11.18-8.42-13.75v-22.9h27.12c5.86,0,9.52-6.34,6.59-11.42ZM77,81.16c-6.3,9.74-17.24,16.21-29.68,16.21-19.48,0-35.32-15.85-35.32-35.32,0-2.96.37-5.84,1.06-8.59h68.52c.34,1.35.6,2.73.78,4.14l-7.74,13.41c-2.13,3.69-.76,8.04,2.39,10.15ZM107.47,39.2h8.41v20.47h-8.41v-20.47ZM115.86,68.92c-.44.74-1.01,1.32-1.73,1.75-.72.43-1.55.65-2.48.65-.87,0-1.68-.22-2.43-.65-.75-.43-1.34-1.02-1.75-1.75-.42-.74-.63-1.55-.63-2.45,0-1.35.46-2.49,1.4-3.42.93-.93,2.07-1.39,3.42-1.39s2.5.47,3.44,1.39c.94.93,1.42,2.07,1.42,3.42,0,.9-.22,1.72-.65,2.45Z"/>
</svg>