<?xml version="1.0" encoding="UTF-8"?>
<svg xmlns="http://www.w3.org/2000/svg" viewBox="0 0 194.33 125.69">
  <defs>
    <style>
      .cls-1, .cls-2 {
        fill: #b7efc5;
      }

      .cls-3 {
        fill: #fff;
      }

      .cls-4, .cls-5, .cls-6, .cls-7, .cls-2, .cls-8 {
        stroke: #251f3a;
        stroke-miterlimit: 10;
      }

      .cls-4, .cls-6 {
        stroke-width: 4px;
      }

      .cls-4, .cls-7, .cls-9 {
        fill: #251f3a;
      }

      .cls-5, .cls-10, .cls-6 {
        fill: none;
      }

      .cls-5, .cls-7, .cls-2 {
        stroke-width: 2px;
      }
    </style>
  </defs>
  <g id="Layer_12" data-name="Layer 12">
    <circle class="cls-1" cx="112.67" cy="39.39" r="8.77"/>
    <ellipse class="cls-10" cx="117.4" cy="104.42" rx="12.29" ry="11.68"/>
    <path class="cls-1" d="M110.18,48.17h4.99c3.26,0,5.91,2.65,5.91,5.91v10.16h-16.81v-10.16c0-3.26,2.65-5.91,5.91-5.91Z"/>
  </g>
  <g id="Layer_2" data-name="Layer 2">
    <g>
      <g>
        <path class="cls-9" d="M112.67,49.11c-5.42,0-9.83-4.41-9.83-9.83s4.41-9.83,9.83-9.83,9.83,4.41,9.83,9.83-4.41,9.83-9.83,9.83ZM112.67,30.87c-4.63,0-8.4,3.77-8.4,8.4s3.77,8.4,8.4,8.4,8.4-3.77,8.4-8.4-3.77-8.4-8.4-8.4Z"/>
        <path class="cls-9" d="M121.88,64.24h-1.43v-9.88c0-2.89-2.35-5.25-5.25-5.25h-5.05c-2.89,0-5.25,2.35-5.25,5.25v9.88h-1.43v-9.88c0-3.68,2.99-6.68,6.68-6.68h5.05c3.68,0,6.68,2.99,6.68,6.68v9.88Z"/>
      </g>
      <g>
        <g>
          <circle class="cls-9" cx="109.2" cy="38.31" r="1.24"/>
          <path class="cls-9" d="M109.2,39.67c-.75,0-1.36-.61-1.36-1.36s.61-1.36,1.36-1.36,1.36.61,1.36,1.36-.61,1.36-1.36,1.36ZM109.2,37.19c-.62,0-1.12.5-1.12,1.12s.5,1.12,1.12,1.12,1.12-.5,1.12-1.12-.5-1.12-1.12-1.12Z"/>
        </g>
        <g>
          <circle class="cls-9" cx="116.14" cy="38.31" r="1.24"/>
          <path class="cls-9" d="M116.14,39.67c-.75,0-1.36-.61-1.36-1.36s.61-1.36,1.36-1.36,1.36.61,1.36,1.36-.61,1.36-1.36,1.36ZM116.14,37.19c-.62,0-1.12.5-1.12,1.12s.5,1.12,1.12,1.12,1.12-.5,1.12-1.12-.5-1.12-1.12-1.12Z"/>
        </g>
      </g>
      <path class="cls-9" d="M112.57,43.59c-.79,0-1.53-.44-1.92-1.17-.09-.17-.03-.39.14-.48.17-.09.39-.03.48.14.29.54.85.85,1.43.79.75-.07,1.12-.76,1.14-.79.09-.17.31-.24.48-.15.17.09.24.31.15.48-.06.11-.59,1.05-1.7,1.16-.07,0-.14.01-.21.01Z"/>
    </g>
  </g>
  <g id="Layer_13" data-name="Layer 13">
    <rect class="cls-6" x="16.64" y="2" width="119.74" height="73.19"/>
    <rect class="cls-4" x="75.77" y="78.41" width="6.19" height="12.71"/>
    <rect class="cls-9" x="65.52" y="91.12" width="26.71" height="5.39"/>
    <g>
      <rect class="cls-5" x="32.95" y="9.6" width="33.81" height="57.99" rx="4.71" ry="4.71"/>
      <path class="cls-9" d="M43.92,9.6h11.87v1.36c0,.55-.45,1-1,1h-9.87c-.55,0-1-.45-1-1v-1.36h0Z"/>
      <line class="cls-8" x1="32.95" y1="17.94" x2="66.76" y2="17.94"/>
      <line class="cls-8" x1="32.95" y1="61.03" x2="66.76" y2="61.03"/>
      <rect class="cls-9" x="53.16" y="13.89" width="1.9" height="1.9"/>
      <rect class="cls-9" x="36.26" y="13.89" width="1.9" height="1.9"/>
      <rect class="cls-9" x="56.06" y="13.89" width="1.9" height="1.9"/>
      <rect class="cls-9" x="58.95" y="13.89" width="1.9" height="1.9"/>
      <rect class="cls-9" x="61.84" y="13.89" width="1.9" height="1.9"/>
      <rect class="cls-9" x="38.16" y="21.19" width="22.3" height="2.21"/>
      <rect class="cls-9" x="38.16" y="25.47" width="22.3" height="2.21"/>
      <rect class="cls-9" x="38.16" y="29.75" width="10.93" height="2.21"/>
      <rect class="cls-9" x="41.69" y="34.47" width="18.77" height="2.21"/>
      <rect class="cls-9" x="38.16" y="38.74" width="22.3" height="2.21"/>
      <rect class="cls-9" x="41.69" y="47.71" width="18.77" height="2.21"/>
      <rect class="cls-9" x="38.16" y="43.02" width="18.17" height="2.21"/>
      <rect class="cls-9" x="38.16" y="52.95" width="18.17" height="2.21"/>
    </g>
    <line class="cls-7" x1="91.01" y1="2" x2="91.01" y2="73.97"/>
    <path class="cls-2" d="M83.18,23.42h17.24l3.44,4.07,3.44-4.07h19.73c1.35,0,2.44-.76,2.44-1.69v-8.3c0-.94-1.09-1.69-2.44-1.69h-43.85c-1.35,0-2.44.76-2.44,1.69v8.3c0,.94,1.09,1.69,2.44,1.69Z"/>
    <g>
      <polygon class="cls-1" points="61.37 25.36 58.55 28.17 55.2 15.66 67.72 19.01 64.9 21.83 68.48 25.41 64.95 28.94 61.37 25.36"/>
      <path class="cls-9" d="M56.62,17.07l9.17,2.46-2.3,2.3,3.58,3.58-2.12,2.12-3.58-3.58-2.3,2.3-2.46-9.17M53.79,14.24l.9,3.35,2.46,9.17.9,3.35,2.45-2.45.88-.88,2.17,2.17,1.41,1.41,1.41-1.41,2.12-2.12,1.41-1.41-1.41-1.41-2.17-2.17.88-.88,2.45-2.45-3.35-.9-9.17-2.46-3.35-.9h0Z"/>
    </g>
    <path class="cls-9" d="M123.58,93.84c3.7,2.13,6.2,6.12,6.2,10.69,0,6.81-5.52,12.34-12.34,12.34s-12.34-5.52-12.34-12.34c0-4.58,2.5-8.57,6.2-10.69H0v31.41h134.14v-31.41h-10.56Z"/>
    <g>
      <path class="cls-1" d="M116.36,120.3c.12,0,.21-.1.21-.21v-3.26c-5.9-.41-10.65-4.96-11.36-10.77h-7.61c-2.09,0-3.98.83-5.38,2.16,1.83-.31,4.05-.2,7.12,0l-.13,2c-4.96-.32-7.12-.31-8.86.78-.36.89-.56,1.86-.56,2.88v6.22c0,.12.1.21.21.21h26.36Z"/>
      <path class="cls-9" d="M117.45,118.87c-7.9,0-14.33-6.43-14.33-14.34s6.43-14.33,14.33-14.33,14.33,6.43,14.33,14.33-6.43,14.34-14.33,14.34ZM117.45,94.2c-5.7,0-10.33,4.64-10.33,10.33s4.64,10.34,10.33,10.34,10.33-4.64,10.33-10.34-4.64-10.33-10.33-10.33Z"/>
    </g>
    <circle class="cls-3" cx="163.14" cy="44.24" r="27.82"/>
    <g>
      <g>
        <path class="cls-9" d="M130.64,44.84c0-17.56,14.29-31.85,31.85-31.85s31.85,14.29,31.85,31.85c0,17.56-14.29,31.85-31.85,31.85s-31.85-14.29-31.85-31.85ZM135.26,44.84c0,15.01,12.21,27.22,27.22,27.22s27.22-12.21,27.22-27.22c0-15.01-12.21-27.22-27.22-27.22s-27.22,12.21-27.22,27.22Z"/>
        <path class="cls-9" d="M132.67,125.69h4.62s0-32,0-32c0-9.37,7.63-17,17-17h16.37c9.37,0,17,7.63,17,17v32s4.62,0,4.62,0v-32c0-11.92-9.7-21.63-21.63-21.63h-16.37c-11.92,0-21.63,9.7-21.63,21.63v32Z"/>
      </g>
      <g>
        <circle class="cls-9" cx="147.22" cy="40.43" r="4.03"/>
        <path class="cls-9" d="M142.81,40.43c0-2.43,1.98-4.41,4.41-4.41s4.41,1.98,4.41,4.41-1.98,4.41-4.41,4.41-4.41-1.98-4.41-4.41ZM143.58,40.43c0,2.01,1.63,3.64,3.64,3.64s3.64-1.63,3.64-3.64-1.63-3.64-3.64-3.64-3.64,1.63-3.64,3.64Z"/>
      </g>
      <path class="cls-9" d="M138.98,58.82c2.55,0,4.94-1.44,6.22-3.79.3-.56.09-1.26-.47-1.57-.56-.3-1.26-.09-1.57.47-.94,1.74-2.75,2.74-4.62,2.56-2.43-.24-3.63-2.45-3.68-2.55-.3-.56-1-.78-1.56-.48-.56.3-.78,1-.48,1.56.18.35,1.9,3.41,5.5,3.77.22.02.45.03.67.03Z"/>
    </g>
  </g>
</svg>