<svg width="797" height="126" viewBox="0 0 797 126" fill="none" xmlns="http://www.w3.org/2000/svg">
<rect width="797" height="126" rx="8" fill="#E3E4F4"/>
<path d="M88.1968 32.9105H84.8097V32.1228C84.8097 28.4994 81.8953 25.585 78.2719 25.585C74.6485 25.585 71.7341 28.4994 71.7341 32.1228V32.9105H66.6141V32.1228C66.6141 28.4994 63.6996 25.585 60.0762 25.585C56.4529 25.585 53.5384 28.4994 53.5384 32.1228V32.9105H48.4184V32.1228C48.4184 28.4994 45.504 25.585 41.8806 25.585C38.2572 25.585 35.3427 28.4994 35.3427 32.1228V32.9105H31.9557C27.5446 32.9105 24 36.4551 24 40.8662V92.4599C24 96.871 27.5446 100.416 31.9557 100.416H88.0393C92.4503 100.416 95.9949 96.871 95.9949 92.4599V40.9449C96.1525 36.5339 92.6079 32.9105 88.1968 32.9105ZM75.9088 32.2016C75.9088 30.8625 77.0116 29.8385 78.2719 29.8385C79.5322 29.8385 80.635 30.9413 80.635 32.2016V37.8729C80.635 39.212 79.5322 40.236 78.2719 40.236C77.0116 40.236 75.9088 39.1332 75.9088 37.8729V32.2016ZM57.7919 32.2016C57.7919 30.8625 58.8947 29.8385 60.155 29.8385C61.4941 29.8385 62.5181 30.9413 62.5181 32.2016V37.8729C62.5181 39.212 61.4153 40.236 60.155 40.236C58.8159 40.236 57.7919 39.1332 57.7919 37.8729V32.2016ZM39.5963 32.2016C39.5963 30.8625 40.699 29.8385 41.9594 29.8385C43.2197 29.8385 44.3224 30.9413 44.3224 32.2016V37.8729C44.3224 39.212 43.2197 40.236 41.9594 40.236C40.699 40.236 39.5963 39.1332 39.5963 37.8729V32.2016ZM92.0565 92.5387C92.0565 94.6655 90.3236 96.3984 88.1968 96.3984H32.1132C29.9865 96.3984 28.2535 94.6655 28.2535 92.5387V50.7911H91.9777V92.5387H92.0565Z" fill="#4E4F64"/>
<path d="M38.3351 71.1142H46.4483C47.5511 71.1142 48.4963 70.1689 48.4963 69.0662V60.8742C48.4963 59.7714 47.5511 58.8262 46.4483 58.8262H38.3351C37.2323 58.8262 36.2871 59.7714 36.2871 60.8742V69.0662C36.2871 70.1689 37.2323 71.1142 38.3351 71.1142ZM40.3831 62.9222H44.3216V66.9394H40.3831V62.9222Z" fill="#4E4F64"/>
<path d="M56.1385 71.1142H64.2517C65.3545 71.1142 66.2997 70.1689 66.2997 69.0662V60.8742C66.2997 59.7714 65.3545 58.8262 64.2517 58.8262H56.1385C55.0358 58.8262 54.0905 59.7714 54.0905 60.8742V69.0662C54.0118 70.1689 54.957 71.1142 56.1385 71.1142ZM58.1865 62.9222H62.125V66.9394H58.1865V62.9222Z" fill="#4E4F64"/>
<path d="M73.8605 71.1142H81.9737C83.0765 71.1142 84.0217 70.1689 84.0217 69.0662V60.8742C84.0217 59.7714 83.0765 58.8262 81.9737 58.8262H73.8605C72.7577 58.8262 71.8125 59.7714 71.8125 60.8742V69.0662C71.8125 70.1689 72.7577 71.1142 73.8605 71.1142ZM75.9085 62.9222H79.8469V66.9394H75.9085V62.9222Z" fill="#4E4F64"/>
<path d="M38.3351 88.6005H46.4483C47.5511 88.6005 48.4963 87.6552 48.4963 86.5525V78.3605C48.4963 77.2577 47.5511 76.3125 46.4483 76.3125H38.3351C37.2323 76.3125 36.2871 77.2577 36.2871 78.3605V86.5525C36.2871 87.6552 37.2323 88.6005 38.3351 88.6005ZM40.3831 80.4085H44.3216V84.4257H40.3831V80.4085Z" fill="#4E4F64"/>
<path d="M56.1385 88.6005H64.2517C65.3545 88.6005 66.2997 87.6552 66.2997 86.5525V78.3605C66.2997 77.2577 65.3545 76.3125 64.2517 76.3125H56.1385C55.0358 76.3125 54.0905 77.2577 54.0905 78.3605V86.5525C54.0118 87.6552 54.957 88.6005 56.1385 88.6005ZM58.1865 80.4085H62.125V84.4257H58.1865V80.4085Z" fill="#4E4F64"/>
<path d="M73.8605 88.6005H81.9737C83.0765 88.6005 84.0217 87.6552 84.0217 86.5525V78.3605C84.0217 77.2577 83.0765 76.3125 81.9737 76.3125H73.8605C72.7577 76.3125 71.8125 77.2577 71.8125 78.3605V86.5525C71.8125 87.6552 72.7577 88.6005 73.8605 88.6005ZM75.9085 80.4085H79.8469V84.4257H75.9085V80.4085Z" fill="#4E4F64"/>
<path d="M245.745 83.3765C245.433 83.3765 245.169 83.2685 244.953 83.0525C244.737 82.8365 244.629 82.5725 244.629 82.2605C244.629 81.9485 244.737 81.6845 244.953 81.4685C245.169 81.2525 245.433 81.1445 245.745 81.1445C246.045 81.1445 246.297 81.2525 246.501 81.4685C246.717 81.6845 246.825 81.9485 246.825 82.2605C246.825 82.5725 246.717 82.8365 246.501 83.0525C246.297 83.2685 246.045 83.3765 245.745 83.3765Z" fill="black"/>
<path d="M240.664 74.7549V80.5689C240.664 81.0489 240.766 81.3909 240.97 81.5949C241.174 81.7869 241.528 81.8829 242.032 81.8829H243.238V83.2689H241.762C240.85 83.2689 240.166 83.0589 239.71 82.6389C239.254 82.2189 239.026 81.5289 239.026 80.5689V74.7549H237.748V73.4049H239.026V70.9209H240.664V73.4049H243.238V74.7549H240.664Z" fill="black"/>
<path d="M231.958 73.2246C233.158 73.2246 234.13 73.5906 234.874 74.3226C235.618 75.0426 235.99 76.0866 235.99 77.4546V83.2686H234.37V77.6886C234.37 76.7046 234.124 75.9546 233.632 75.4386C233.14 74.9106 232.468 74.6466 231.616 74.6466C230.752 74.6466 230.062 74.9166 229.546 75.4566C229.042 75.9966 228.79 76.7826 228.79 77.8146V83.2686H227.152V73.4046H228.79V74.8086C229.114 74.3046 229.552 73.9146 230.104 73.6386C230.668 73.3626 231.286 73.2246 231.958 73.2246Z" fill="black"/>
<path d="M224.989 77.9582C224.989 78.2702 224.971 78.6002 224.935 78.9482H217.051C217.111 79.9202 217.441 80.6822 218.041 81.2342C218.653 81.7742 219.391 82.0442 220.255 82.0442C220.963 82.0442 221.551 81.8822 222.019 81.5582C222.499 81.2222 222.835 80.7782 223.027 80.2262H224.791C224.527 81.1742 223.999 81.9482 223.207 82.5482C222.415 83.1362 221.431 83.4302 220.255 83.4302C219.319 83.4302 218.479 83.2202 217.735 82.8002C217.003 82.3802 216.427 81.7862 216.007 81.0182C215.587 80.2382 215.377 79.3382 215.377 78.3182C215.377 77.2982 215.581 76.4042 215.989 75.6362C216.397 74.8682 216.967 74.2802 217.699 73.8722C218.443 73.4522 219.295 73.2422 220.255 73.2422C221.191 73.2422 222.019 73.4462 222.739 73.8542C223.459 74.2622 224.011 74.8262 224.395 75.5462C224.791 76.2542 224.989 77.0582 224.989 77.9582ZM223.297 77.6162C223.297 76.9922 223.159 76.4582 222.883 76.0142C222.607 75.5582 222.229 75.2162 221.749 74.9882C221.281 74.7482 220.759 74.6282 220.183 74.6282C219.355 74.6282 218.647 74.8922 218.059 75.4202C217.483 75.9482 217.153 76.6802 217.069 77.6162H223.297Z" fill="black"/>
<path d="M204.443 78.3182C204.443 77.2982 204.647 76.4102 205.055 75.6542C205.463 74.8862 206.027 74.2922 206.747 73.8722C207.479 73.4522 208.313 73.2422 209.249 73.2422C210.461 73.2422 211.457 73.5362 212.237 74.1242C213.029 74.7122 213.551 75.5282 213.803 76.5722H212.039C211.871 75.9722 211.541 75.4982 211.049 75.1502C210.569 74.8022 209.969 74.6282 209.249 74.6282C208.313 74.6282 207.557 74.9522 206.981 75.6002C206.405 76.2362 206.117 77.1422 206.117 78.3182C206.117 79.5062 206.405 80.4242 206.981 81.0722C207.557 81.7202 208.313 82.0442 209.249 82.0442C209.969 82.0442 210.569 81.8762 211.049 81.5402C211.529 81.2042 211.859 80.7242 212.039 80.1002H213.803C213.539 81.1082 213.011 81.9182 212.219 82.5302C211.427 83.1302 210.437 83.4302 209.249 83.4302C208.313 83.4302 207.479 83.2202 206.747 82.8002C206.027 82.3802 205.463 81.7862 205.055 81.0182C204.647 80.2502 204.443 79.3502 204.443 78.3182Z" fill="black"/>
<path d="M202.893 77.9582C202.893 78.2702 202.875 78.6002 202.839 78.9482H194.955C195.015 79.9202 195.345 80.6822 195.945 81.2342C196.557 81.7742 197.295 82.0442 198.159 82.0442C198.867 82.0442 199.455 81.8822 199.923 81.5582C200.403 81.2222 200.739 80.7782 200.931 80.2262H202.695C202.431 81.1742 201.903 81.9482 201.111 82.5482C200.319 83.1362 199.335 83.4302 198.159 83.4302C197.223 83.4302 196.383 83.2202 195.639 82.8002C194.907 82.3802 194.331 81.7862 193.911 81.0182C193.491 80.2382 193.281 79.3382 193.281 78.3182C193.281 77.2982 193.485 76.4042 193.893 75.6362C194.301 74.8682 194.871 74.2802 195.603 73.8722C196.347 73.4522 197.199 73.2422 198.159 73.2422C199.095 73.2422 199.923 73.4462 200.643 73.8542C201.363 74.2622 201.915 74.8262 202.299 75.5462C202.695 76.2542 202.893 77.0582 202.893 77.9582ZM201.201 77.6162C201.201 76.9922 201.063 76.4582 200.787 76.0142C200.511 75.5582 200.133 75.2162 199.653 74.9882C199.185 74.7482 198.663 74.6282 198.087 74.6282C197.259 74.6282 196.551 74.8922 195.963 75.4202C195.387 75.9482 195.057 76.6802 194.973 77.6162H201.201Z" fill="black"/>
<path d="M188.818 75.0066C189.106 74.4426 189.514 74.0046 190.042 73.6926C190.582 73.3806 191.236 73.2246 192.004 73.2246V74.9166H191.572C189.736 74.9166 188.818 75.9126 188.818 77.9046V83.2686H187.18V73.4046H188.818V75.0066Z" fill="black"/>
<path d="M177.822 74.7549V80.5689C177.822 81.0489 177.924 81.3909 178.128 81.5949C178.332 81.7869 178.686 81.8829 179.19 81.8829H180.396V83.2689H178.92C178.008 83.2689 177.324 83.0589 176.868 82.6389C176.412 82.2189 176.184 81.5289 176.184 80.5689V74.7549H174.906V73.4049H176.184V70.9209H177.822V73.4049H180.396V74.7549H177.822Z" fill="black"/>
<path d="M169.911 83.4302C169.155 83.4302 168.477 83.3042 167.877 83.0522C167.277 82.7882 166.803 82.4282 166.455 81.9722C166.107 81.5042 165.915 80.9702 165.879 80.3702H167.571C167.619 80.8622 167.847 81.2642 168.255 81.5762C168.675 81.8882 169.221 82.0442 169.893 82.0442C170.517 82.0442 171.009 81.9062 171.369 81.6302C171.729 81.3542 171.909 81.0062 171.909 80.5862C171.909 80.1542 171.717 79.8362 171.333 79.6322C170.949 79.4162 170.355 79.2062 169.551 79.0022C168.819 78.8102 168.219 78.6182 167.751 78.4262C167.295 78.2222 166.899 77.9282 166.563 77.5442C166.239 77.1482 166.077 76.6322 166.077 75.9962C166.077 75.4922 166.227 75.0302 166.527 74.6102C166.827 74.1902 167.253 73.8602 167.805 73.6202C168.357 73.3682 168.987 73.2422 169.695 73.2422C170.787 73.2422 171.669 73.5182 172.341 74.0702C173.013 74.6222 173.373 75.3782 173.421 76.3382H171.783C171.747 75.8222 171.537 75.4082 171.153 75.0962C170.781 74.7842 170.277 74.6282 169.641 74.6282C169.053 74.6282 168.585 74.7542 168.237 75.0062C167.889 75.2582 167.715 75.5882 167.715 75.9962C167.715 76.3202 167.817 76.5902 168.021 76.8062C168.237 77.0102 168.501 77.1782 168.813 77.3102C169.137 77.4302 169.581 77.5682 170.145 77.7242C170.853 77.9162 171.429 78.1082 171.873 78.3002C172.317 78.4802 172.695 78.7562 173.007 79.1282C173.331 79.5002 173.499 79.9862 173.511 80.5862C173.511 81.1262 173.361 81.6122 173.061 82.0442C172.761 82.4762 172.335 82.8182 171.783 83.0702C171.243 83.3102 170.619 83.4302 169.911 83.4302Z" fill="black"/>
<path d="M159.207 83.4302C158.283 83.4302 157.443 83.2202 156.687 82.8002C155.943 82.3802 155.355 81.7862 154.923 81.0182C154.503 80.2382 154.293 79.3382 154.293 78.3182C154.293 77.3102 154.509 76.4222 154.941 75.6542C155.385 74.8742 155.985 74.2802 156.741 73.8722C157.497 73.4522 158.343 73.2422 159.279 73.2422C160.215 73.2422 161.061 73.4522 161.817 73.8722C162.573 74.2802 163.167 74.8682 163.599 75.6362C164.043 76.4042 164.265 77.2982 164.265 78.3182C164.265 79.3382 164.037 80.2382 163.581 81.0182C163.137 81.7862 162.531 82.3802 161.763 82.8002C160.995 83.2202 160.143 83.4302 159.207 83.4302ZM159.207 81.9902C159.795 81.9902 160.347 81.8522 160.863 81.5762C161.379 81.3002 161.793 80.8862 162.105 80.3342C162.429 79.7822 162.591 79.1102 162.591 78.3182C162.591 77.5262 162.435 76.8542 162.123 76.3022C161.811 75.7502 161.403 75.3422 160.899 75.0782C160.395 74.8022 159.849 74.6642 159.261 74.6642C158.661 74.6642 158.109 74.8022 157.605 75.0782C157.113 75.3422 156.717 75.7502 156.417 76.3022C156.117 76.8542 155.967 77.5262 155.967 78.3182C155.967 79.1222 156.111 79.8002 156.399 80.3522C156.699 80.9042 157.095 81.3182 157.587 81.5942C158.079 81.8582 158.619 81.9902 159.207 81.9902Z" fill="black"/>
<path d="M148.223 73.2246C148.991 73.2246 149.675 73.3866 150.275 73.7106C150.875 74.0226 151.349 74.4966 151.697 75.1326C152.045 75.7686 152.219 76.5426 152.219 77.4546V83.2686H150.599V77.6886C150.599 76.7046 150.353 75.9546 149.861 75.4386C149.381 74.9106 148.727 74.6466 147.899 74.6466C147.047 74.6466 146.369 74.9226 145.865 75.4746C145.361 76.0146 145.109 76.8006 145.109 77.8326V83.2686H143.489V77.6886C143.489 76.7046 143.243 75.9546 142.751 75.4386C142.271 74.9106 141.617 74.6466 140.789 74.6466C139.937 74.6466 139.259 74.9226 138.755 75.4746C138.251 76.0146 137.999 76.8006 137.999 77.8326V83.2686H136.361V73.4046H137.999V74.8266C138.323 74.3106 138.755 73.9146 139.295 73.6386C139.847 73.3626 140.453 73.2246 141.113 73.2246C141.941 73.2246 142.673 73.4106 143.309 73.7826C143.945 74.1546 144.419 74.7006 144.731 75.4206C145.007 74.7246 145.463 74.1846 146.099 73.8006C146.735 73.4166 147.443 73.2246 148.223 73.2246Z" fill="black"/>
<path d="M739.865 47.7549V53.5689C739.865 54.0489 739.967 54.3909 740.171 54.5949C740.375 54.7869 740.729 54.8829 741.233 54.8829H742.439V56.2689H740.963C740.051 56.2689 739.367 56.0589 738.911 55.6389C738.455 55.2189 738.227 54.5289 738.227 53.5689V47.7549H736.949V46.4049H738.227V43.9209H739.865V46.4049H742.439V47.7549H739.865Z" fill="black"/>
<path d="M734.181 43.7227H735.999L734.271 47.8087H733.119L734.181 43.7227Z" fill="black"/>
<path d="M727.222 46.2246C728.422 46.2246 729.394 46.5906 730.138 47.3226C730.882 48.0426 731.254 49.0866 731.254 50.4546V56.2686H729.634V50.6886C729.634 49.7046 729.388 48.9546 728.896 48.4386C728.404 47.9106 727.732 47.6466 726.88 47.6466C726.016 47.6466 725.326 47.9166 724.81 48.4566C724.306 48.9966 724.054 49.7826 724.054 50.8146V56.2686H722.416V46.4046H724.054V47.8086C724.378 47.3046 724.816 46.9146 725.368 46.6386C725.932 46.3626 726.55 46.2246 727.222 46.2246Z" fill="black"/>
<path d="M716.503 56.4302C715.747 56.4302 715.069 56.3042 714.469 56.0522C713.869 55.7882 713.395 55.4282 713.047 54.9722C712.699 54.5042 712.507 53.9702 712.471 53.3702H714.163C714.211 53.8622 714.439 54.2642 714.847 54.5762C715.267 54.8882 715.813 55.0442 716.485 55.0442C717.109 55.0442 717.601 54.9062 717.961 54.6302C718.321 54.3542 718.501 54.0062 718.501 53.5862C718.501 53.1542 718.309 52.8362 717.925 52.6322C717.541 52.4162 716.947 52.2062 716.143 52.0022C715.411 51.8102 714.811 51.6182 714.343 51.4262C713.887 51.2222 713.491 50.9282 713.155 50.5442C712.831 50.1482 712.669 49.6322 712.669 48.9962C712.669 48.4922 712.819 48.0302 713.119 47.6102C713.419 47.1902 713.845 46.8602 714.397 46.6202C714.949 46.3682 715.579 46.2422 716.287 46.2422C717.379 46.2422 718.261 46.5182 718.933 47.0702C719.605 47.6222 719.965 48.3782 720.013 49.3382H718.375C718.339 48.8222 718.129 48.4082 717.745 48.0962C717.373 47.7842 716.869 47.6282 716.233 47.6282C715.645 47.6282 715.177 47.7542 714.829 48.0062C714.481 48.2582 714.307 48.5882 714.307 48.9962C714.307 49.3202 714.409 49.5902 714.613 49.8062C714.829 50.0102 715.093 50.1782 715.405 50.3102C715.729 50.4302 716.173 50.5682 716.737 50.7242C717.445 50.9162 718.021 51.1082 718.465 51.3002C718.909 51.4802 719.287 51.7562 719.599 52.1282C719.923 52.5002 720.091 52.9862 720.103 53.5862C720.103 54.1262 719.953 54.6122 719.653 55.0442C719.353 55.4762 718.927 55.8182 718.375 56.0702C717.835 56.3102 717.211 56.4302 716.503 56.4302Z" fill="black"/>
<path d="M700.234 51.3002C700.234 50.2922 700.438 49.4102 700.846 48.6542C701.254 47.8862 701.812 47.2922 702.52 46.8722C703.24 46.4522 704.038 46.2422 704.914 46.2422C705.778 46.2422 706.528 46.4282 707.164 46.8002C707.8 47.1722 708.274 47.6402 708.586 48.2042V46.4042H710.242V56.2682H708.586V54.4322C708.262 55.0082 707.776 55.4882 707.128 55.8722C706.492 56.2442 705.748 56.4302 704.896 56.4302C704.02 56.4302 703.228 56.2142 702.52 55.7822C701.812 55.3502 701.254 54.7442 700.846 53.9642C700.438 53.1842 700.234 52.2962 700.234 51.3002ZM708.586 51.3182C708.586 50.5742 708.436 49.9262 708.136 49.3742C707.836 48.8222 707.428 48.4022 706.912 48.1142C706.408 47.8142 705.85 47.6642 705.238 47.6642C704.626 47.6642 704.068 47.8082 703.564 48.0962C703.06 48.3842 702.658 48.8042 702.358 49.3562C702.058 49.9082 701.908 50.5562 701.908 51.3002C701.908 52.0562 702.058 52.7162 702.358 53.2802C702.658 53.8322 703.06 54.2582 703.564 54.5582C704.068 54.8462 704.626 54.9902 705.238 54.9902C705.85 54.9902 706.408 54.8462 706.912 54.5582C707.428 54.2582 707.836 53.8322 708.136 53.2802C708.436 52.7162 708.586 52.0622 708.586 51.3182Z" fill="black"/>
<path d="M699.222 46.4043L696.144 56.2683H694.452L692.076 48.4383L689.7 56.2683H688.008L684.912 46.4043H686.586L688.854 54.6843L691.302 46.4043H692.976L695.37 54.7023L697.602 46.4043H699.222Z" fill="black"/>
<path d="M676.725 47.7549V53.5689C676.725 54.0489 676.827 54.3909 677.031 54.5949C677.235 54.7869 677.589 54.8829 678.093 54.8829H679.299V56.2689H677.823C676.911 56.2689 676.227 56.0589 675.771 55.6389C675.315 55.2189 675.087 54.5289 675.087 53.5689V47.7549H673.809V46.4049H675.087V43.9209H676.725V46.4049H679.299V47.7549H676.725Z" fill="black"/>
<path d="M661.949 51.3002C661.949 50.2922 662.153 49.4102 662.561 48.6542C662.969 47.8862 663.527 47.2922 664.235 46.8722C664.955 46.4522 665.753 46.2422 666.629 46.2422C667.493 46.2422 668.243 46.4282 668.879 46.8002C669.515 47.1722 669.989 47.6402 670.301 48.2042V46.4042H671.957V56.2682H670.301V54.4322C669.977 55.0082 669.491 55.4882 668.843 55.8722C668.207 56.2442 667.463 56.4302 666.611 56.4302C665.735 56.4302 664.943 56.2142 664.235 55.7822C663.527 55.3502 662.969 54.7442 662.561 53.9642C662.153 53.1842 661.949 52.2962 661.949 51.3002ZM670.301 51.3182C670.301 50.5742 670.151 49.9262 669.851 49.3742C669.551 48.8222 669.143 48.4022 668.627 48.1142C668.123 47.8142 667.565 47.6642 666.953 47.6642C666.341 47.6642 665.783 47.8082 665.279 48.0962C664.775 48.3842 664.373 48.8042 664.073 49.3562C663.773 49.9082 663.623 50.5562 663.623 51.3002C663.623 52.0562 663.773 52.7162 664.073 53.2802C664.373 53.8322 664.775 54.2582 665.279 54.5582C665.783 54.8462 666.341 54.9902 666.953 54.9902C667.565 54.9902 668.123 54.8462 668.627 54.5582C669.143 54.2582 669.551 53.8322 669.851 53.2802C670.151 52.7162 670.301 52.0622 670.301 51.3182Z" fill="black"/>
<path d="M655.945 46.2242C656.689 46.2242 657.361 46.3862 657.961 46.7102C658.561 47.0222 659.029 47.4962 659.365 48.1322C659.713 48.7682 659.887 49.5422 659.887 50.4542V56.2682H658.267V50.6882C658.267 49.7042 658.021 48.9542 657.529 48.4382C657.037 47.9102 656.365 47.6462 655.513 47.6462C654.649 47.6462 653.959 47.9162 653.443 48.4562C652.939 48.9962 652.687 49.7822 652.687 50.8142V56.2682H651.049V42.9482H652.687V47.8082C653.011 47.3042 653.455 46.9142 654.019 46.6382C654.595 46.3622 655.237 46.2242 655.945 46.2242Z" fill="black"/>
<path d="M646.49 47.7549V53.5689C646.49 54.0489 646.592 54.3909 646.796 54.5949C647 54.7869 647.354 54.8829 647.858 54.8829H649.064V56.2689H647.588C646.676 56.2689 645.992 56.0589 645.536 55.6389C645.08 55.2189 644.852 54.5289 644.852 53.5689V47.7549H643.574V46.4049H644.852V43.9209H646.49V46.4049H649.064V47.7549H646.49Z" fill="black"/>
<path d="M638.068 46.4043L634.99 56.2683H633.298L630.922 48.4383L628.546 56.2683H626.854L623.758 46.4043H625.432L627.7 54.6843L630.148 46.4043H631.822L634.216 54.7023L636.448 46.4043H638.068Z" fill="black"/>
<path d="M617.715 56.4302C616.791 56.4302 615.951 56.2202 615.195 55.8002C614.451 55.3802 613.863 54.7862 613.431 54.0182C613.011 53.2382 612.801 52.3382 612.801 51.3182C612.801 50.3102 613.017 49.4222 613.449 48.6542C613.893 47.8742 614.493 47.2802 615.249 46.8722C616.005 46.4522 616.851 46.2422 617.787 46.2422C618.723 46.2422 619.569 46.4522 620.325 46.8722C621.081 47.2802 621.675 47.8682 622.107 48.6362C622.551 49.4042 622.773 50.2982 622.773 51.3182C622.773 52.3382 622.545 53.2382 622.089 54.0182C621.645 54.7862 621.039 55.3802 620.271 55.8002C619.503 56.2202 618.651 56.4302 617.715 56.4302ZM617.715 54.9902C618.303 54.9902 618.855 54.8522 619.371 54.5762C619.887 54.3002 620.301 53.8862 620.613 53.3342C620.937 52.7822 621.099 52.1102 621.099 51.3182C621.099 50.5262 620.943 49.8542 620.631 49.3022C620.319 48.7502 619.911 48.3422 619.407 48.0782C618.903 47.8022 618.357 47.6642 617.769 47.6642C617.169 47.6642 616.617 47.8022 616.113 48.0782C615.621 48.3422 615.225 48.7502 614.925 49.3022C614.625 49.8542 614.475 50.5262 614.475 51.3182C614.475 52.1222 614.619 52.8002 614.907 53.3522C615.207 53.9042 615.603 54.3182 616.095 54.5942C616.587 54.8582 617.127 54.9902 617.715 54.9902Z" fill="black"/>
<path d="M608.337 48.0066C608.625 47.4426 609.033 47.0046 609.561 46.6926C610.101 46.3806 610.755 46.2246 611.523 46.2246V47.9166H611.091C609.255 47.9166 608.337 48.9126 608.337 50.9046V56.2686H606.699V46.4046H608.337V48.0066Z" fill="black"/>
<path d="M600.254 46.4043L594.314 60.9123H592.622L594.566 56.1603L590.588 46.4043H592.406L595.502 54.3963L598.562 46.4043H600.254Z" fill="black"/>
<path d="M586.681 48.0066C586.969 47.4426 587.377 47.0046 587.905 46.6926C588.445 46.3806 589.099 46.2246 589.867 46.2246V47.9166H589.435C587.599 47.9166 586.681 48.9126 586.681 50.9046V56.2686H585.043V46.4046H586.681V48.0066Z" fill="black"/>
<path d="M582.88 50.9582C582.88 51.2702 582.862 51.6002 582.826 51.9482H574.942C575.002 52.9202 575.332 53.6822 575.932 54.2342C576.544 54.7742 577.282 55.0442 578.146 55.0442C578.854 55.0442 579.442 54.8822 579.91 54.5582C580.39 54.2222 580.726 53.7782 580.918 53.2262H582.682C582.418 54.1742 581.89 54.9482 581.098 55.5482C580.306 56.1362 579.322 56.4302 578.146 56.4302C577.21 56.4302 576.37 56.2202 575.626 55.8002C574.894 55.3802 574.318 54.7862 573.898 54.0182C573.478 53.2382 573.268 52.3382 573.268 51.3182C573.268 50.2982 573.472 49.4042 573.88 48.6362C574.288 47.8682 574.858 47.2802 575.59 46.8722C576.334 46.4522 577.186 46.2422 578.146 46.2422C579.082 46.2422 579.91 46.4462 580.63 46.8542C581.35 47.2622 581.902 47.8262 582.286 48.5462C582.682 49.2542 582.88 50.0582 582.88 50.9582ZM581.188 50.6162C581.188 49.9922 581.05 49.4582 580.774 49.0142C580.498 48.5582 580.12 48.2162 579.64 47.9882C579.172 47.7482 578.65 47.6282 578.074 47.6282C577.246 47.6282 576.538 47.8922 575.95 48.4202C575.374 48.9482 575.044 49.6802 574.96 50.6162H581.188Z" fill="black"/>
<path d="M567.463 54.7563L570.523 46.4043H572.269L568.399 56.2683H566.491L562.621 46.4043H564.385L567.463 54.7563Z" fill="black"/>
<path d="M561.628 50.9582C561.628 51.2702 561.61 51.6002 561.574 51.9482H553.69C553.75 52.9202 554.08 53.6822 554.68 54.2342C555.292 54.7742 556.03 55.0442 556.894 55.0442C557.602 55.0442 558.19 54.8822 558.658 54.5582C559.138 54.2222 559.474 53.7782 559.666 53.2262H561.43C561.166 54.1742 560.638 54.9482 559.846 55.5482C559.054 56.1362 558.07 56.4302 556.894 56.4302C555.958 56.4302 555.118 56.2202 554.374 55.8002C553.642 55.3802 553.066 54.7862 552.646 54.0182C552.226 53.2382 552.016 52.3382 552.016 51.3182C552.016 50.2982 552.22 49.4042 552.628 48.6362C553.036 47.8682 553.606 47.2802 554.338 46.8722C555.082 46.4522 555.934 46.2422 556.894 46.2422C557.83 46.2422 558.658 46.4462 559.378 46.8542C560.098 47.2622 560.65 47.8262 561.034 48.5462C561.43 49.2542 561.628 50.0582 561.628 50.9582ZM559.936 50.6162C559.936 49.9922 559.798 49.4582 559.522 49.0142C559.246 48.5582 558.868 48.2162 558.388 47.9882C557.92 47.7482 557.398 47.6282 556.822 47.6282C555.994 47.6282 555.286 47.8922 554.698 48.4202C554.122 48.9482 553.792 49.6802 553.708 50.6162H559.936Z" fill="black"/>
<path d="M535.053 51.3002C535.053 50.2922 535.257 49.4102 535.665 48.6542C536.073 47.8862 536.631 47.2922 537.339 46.8722C538.059 46.4522 538.863 46.2422 539.751 46.2422C540.519 46.2422 541.233 46.4222 541.893 46.7822C542.553 47.1302 543.057 47.5922 543.405 48.1682V42.9482H545.061V56.2682H543.405V54.4142C543.081 55.0022 542.601 55.4882 541.965 55.8722C541.329 56.2442 540.585 56.4302 539.733 56.4302C538.857 56.4302 538.059 56.2142 537.339 55.7822C536.631 55.3502 536.073 54.7442 535.665 53.9642C535.257 53.1842 535.053 52.2962 535.053 51.3002ZM543.405 51.3182C543.405 50.5742 543.255 49.9262 542.955 49.3742C542.655 48.8222 542.247 48.4022 541.731 48.1142C541.227 47.8142 540.669 47.6642 540.057 47.6642C539.445 47.6642 538.887 47.8082 538.383 48.0962C537.879 48.3842 537.477 48.8042 537.177 49.3562C536.877 49.9082 536.727 50.5562 536.727 51.3002C536.727 52.0562 536.877 52.7162 537.177 53.2802C537.477 53.8322 537.879 54.2582 538.383 54.5582C538.887 54.8462 539.445 54.9902 540.057 54.9902C540.669 54.9902 541.227 54.8462 541.731 54.5582C542.247 54.2582 542.655 53.8322 542.955 53.2802C543.255 52.7162 543.405 52.0622 543.405 51.3182Z" fill="black"/>
<path d="M533.503 50.9582C533.503 51.2702 533.485 51.6002 533.449 51.9482H525.565C525.625 52.9202 525.955 53.6822 526.555 54.2342C527.167 54.7742 527.905 55.0442 528.769 55.0442C529.477 55.0442 530.065 54.8822 530.533 54.5582C531.013 54.2222 531.349 53.7782 531.541 53.2262H533.305C533.041 54.1742 532.513 54.9482 531.721 55.5482C530.929 56.1362 529.945 56.4302 528.769 56.4302C527.833 56.4302 526.993 56.2202 526.249 55.8002C525.517 55.3802 524.941 54.7862 524.521 54.0182C524.101 53.2382 523.891 52.3382 523.891 51.3182C523.891 50.2982 524.095 49.4042 524.503 48.6362C524.911 47.8682 525.481 47.2802 526.213 46.8722C526.957 46.4522 527.809 46.2422 528.769 46.2422C529.705 46.2422 530.533 46.4462 531.253 46.8542C531.973 47.2622 532.525 47.8262 532.909 48.5462C533.305 49.2542 533.503 50.0582 533.503 50.9582ZM531.811 50.6162C531.811 49.9922 531.673 49.4582 531.397 49.0142C531.121 48.5582 530.743 48.2162 530.263 47.9882C529.795 47.7482 529.273 47.6282 528.697 47.6282C527.869 47.6282 527.161 47.8922 526.573 48.4202C525.997 48.9482 525.667 49.6802 525.583 50.6162H531.811Z" fill="black"/>
<path d="M519.945 47.7549V53.5689C519.945 54.0489 520.047 54.3909 520.251 54.5949C520.455 54.7869 520.809 54.8829 521.313 54.8829H522.519V56.2689H521.043C520.131 56.2689 519.447 56.0589 518.991 55.6389C518.535 55.2189 518.307 54.5289 518.307 53.5689V47.7549H517.029V46.4049H518.307V43.9209H519.945V46.4049H522.519V47.7549H519.945Z" fill="black"/>
<path d="M515.784 50.9582C515.784 51.2702 515.766 51.6002 515.73 51.9482H507.846C507.906 52.9202 508.236 53.6822 508.836 54.2342C509.448 54.7742 510.186 55.0442 511.05 55.0442C511.758 55.0442 512.346 54.8822 512.814 54.5582C513.294 54.2222 513.63 53.7782 513.822 53.2262H515.586C515.322 54.1742 514.794 54.9482 514.002 55.5482C513.21 56.1362 512.226 56.4302 511.05 56.4302C510.114 56.4302 509.274 56.2202 508.53 55.8002C507.798 55.3802 507.222 54.7862 506.802 54.0182C506.382 53.2382 506.172 52.3382 506.172 51.3182C506.172 50.2982 506.376 49.4042 506.784 48.6362C507.192 47.8682 507.762 47.2802 508.494 46.8722C509.238 46.4522 510.09 46.2422 511.05 46.2422C511.986 46.2422 512.814 46.4462 513.534 46.8542C514.254 47.2622 514.806 47.8262 515.19 48.5462C515.586 49.2542 515.784 50.0582 515.784 50.9582ZM514.092 50.6162C514.092 49.9922 513.954 49.4582 513.678 49.0142C513.402 48.5582 513.024 48.2162 512.544 47.9882C512.076 47.7482 511.554 47.6282 510.978 47.6282C510.15 47.6282 509.442 47.8922 508.854 48.4202C508.278 48.9482 507.948 49.6802 507.864 50.6162H514.092Z" fill="black"/>
<path d="M503.993 42.9482V56.2682H502.355V42.9482H503.993Z" fill="black"/>
<path d="M500.192 50.9582C500.192 51.2702 500.174 51.6002 500.138 51.9482H492.254C492.314 52.9202 492.644 53.6822 493.244 54.2342C493.856 54.7742 494.594 55.0442 495.458 55.0442C496.166 55.0442 496.754 54.8822 497.222 54.5582C497.702 54.2222 498.038 53.7782 498.23 53.2262H499.994C499.73 54.1742 499.202 54.9482 498.41 55.5482C497.618 56.1362 496.634 56.4302 495.458 56.4302C494.522 56.4302 493.682 56.2202 492.938 55.8002C492.206 55.3802 491.63 54.7862 491.21 54.0182C490.79 53.2382 490.58 52.3382 490.58 51.3182C490.58 50.2982 490.784 49.4042 491.192 48.6362C491.6 47.8682 492.17 47.2802 492.902 46.8722C493.646 46.4522 494.498 46.2422 495.458 46.2422C496.394 46.2422 497.222 46.4462 497.942 46.8542C498.662 47.2622 499.214 47.8262 499.598 48.5462C499.994 49.2542 500.192 50.0582 500.192 50.9582ZM498.5 50.6162C498.5 49.9922 498.362 49.4582 498.086 49.0142C497.81 48.5582 497.432 48.2162 496.952 47.9882C496.484 47.7482 495.962 47.6282 495.386 47.6282C494.558 47.6282 493.85 47.8922 493.262 48.4202C492.686 48.9482 492.356 49.6802 492.272 50.6162H498.5Z" fill="black"/>
<path d="M478.416 51.3002C478.416 50.2922 478.62 49.4102 479.028 48.6542C479.436 47.8862 479.994 47.2922 480.702 46.8722C481.422 46.4522 482.226 46.2422 483.114 46.2422C483.882 46.2422 484.596 46.4222 485.256 46.7822C485.916 47.1302 486.42 47.5922 486.768 48.1682V42.9482H488.424V56.2682H486.768V54.4142C486.444 55.0022 485.964 55.4882 485.328 55.8722C484.692 56.2442 483.948 56.4302 483.096 56.4302C482.22 56.4302 481.422 56.2142 480.702 55.7822C479.994 55.3502 479.436 54.7442 479.028 53.9642C478.62 53.1842 478.416 52.2962 478.416 51.3002ZM486.768 51.3182C486.768 50.5742 486.618 49.9262 486.318 49.3742C486.018 48.8222 485.61 48.4022 485.094 48.1142C484.59 47.8142 484.032 47.6642 483.42 47.6642C482.808 47.6642 482.25 47.8082 481.746 48.0962C481.242 48.3842 480.84 48.8042 480.54 49.3562C480.24 49.9082 480.09 50.5562 480.09 51.3002C480.09 52.0562 480.24 52.7162 480.54 53.2802C480.84 53.8322 481.242 54.2582 481.746 54.5582C482.25 54.8462 482.808 54.9902 483.42 54.9902C484.032 54.9902 484.59 54.8462 485.094 54.5582C485.61 54.2582 486.018 53.8322 486.318 53.2802C486.618 52.7162 486.768 52.0622 486.768 51.3182Z" fill="black"/>
<path d="M471.439 43.7227V56.2687H469.801V43.7227H471.439Z" fill="black"/>
<path d="M463.126 54.001L461.11 58.843H460.012L461.326 54.001H463.126Z" fill="black"/>
<path d="M456.875 47.7549V53.5689C456.875 54.0489 456.977 54.3909 457.181 54.5949C457.385 54.7869 457.739 54.8829 458.243 54.8829H459.449V56.2689H457.973C457.061 56.2689 456.377 56.0589 455.921 55.6389C455.465 55.2189 455.237 54.5289 455.237 53.5689V47.7549H453.959V46.4049H455.237V43.9209H456.875V46.4049H459.449V47.7549H456.875Z" fill="black"/>
<path d="M448.169 46.2246C449.369 46.2246 450.341 46.5906 451.085 47.3226C451.829 48.0426 452.201 49.0866 452.201 50.4546V56.2686H450.581V50.6886C450.581 49.7046 450.335 48.9546 449.843 48.4386C449.351 47.9106 448.679 47.6466 447.827 47.6466C446.963 47.6466 446.273 47.9166 445.757 48.4566C445.253 48.9966 445.001 49.7826 445.001 50.8146V56.2686H443.363V46.4046H445.001V47.8086C445.325 47.3046 445.763 46.9146 446.315 46.6386C446.879 46.3626 447.497 46.2246 448.169 46.2246Z" fill="black"/>
<path d="M430.586 51.3002C430.586 50.2922 430.79 49.4102 431.198 48.6542C431.606 47.8862 432.164 47.2922 432.872 46.8722C433.592 46.4522 434.39 46.2422 435.266 46.2422C436.13 46.2422 436.88 46.4282 437.516 46.8002C438.152 47.1722 438.626 47.6402 438.938 48.2042V46.4042H440.594V56.2682H438.938V54.4322C438.614 55.0082 438.128 55.4882 437.48 55.8722C436.844 56.2442 436.1 56.4302 435.248 56.4302C434.372 56.4302 433.58 56.2142 432.872 55.7822C432.164 55.3502 431.606 54.7442 431.198 53.9642C430.79 53.1842 430.586 52.2962 430.586 51.3002ZM438.938 51.3182C438.938 50.5742 438.788 49.9262 438.488 49.3742C438.188 48.8222 437.78 48.4022 437.264 48.1142C436.76 47.8142 436.202 47.6642 435.59 47.6642C434.978 47.6642 434.42 47.8082 433.916 48.0962C433.412 48.3842 433.01 48.8042 432.71 49.3562C432.41 49.9082 432.26 50.5562 432.26 51.3002C432.26 52.0562 432.41 52.7162 432.71 53.2802C433.01 53.8322 433.412 54.2582 433.916 54.5582C434.42 54.8462 434.978 54.9902 435.59 54.9902C436.202 54.9902 436.76 54.8462 437.264 54.5582C437.78 54.2582 438.188 53.8322 438.488 53.2802C438.788 52.7162 438.938 52.0622 438.938 51.3182Z" fill="black"/>
<path d="M424.781 54.7563L427.841 46.4043H429.587L425.717 56.2683H423.809L419.939 46.4043H421.703L424.781 54.7563Z" fill="black"/>
<path d="M418.946 50.9582C418.946 51.2702 418.928 51.6002 418.892 51.9482H411.008C411.068 52.9202 411.398 53.6822 411.998 54.2342C412.61 54.7742 413.348 55.0442 414.212 55.0442C414.92 55.0442 415.508 54.8822 415.976 54.5582C416.456 54.2222 416.792 53.7782 416.984 53.2262H418.748C418.484 54.1742 417.956 54.9482 417.164 55.5482C416.372 56.1362 415.388 56.4302 414.212 56.4302C413.276 56.4302 412.436 56.2202 411.692 55.8002C410.96 55.3802 410.384 54.7862 409.964 54.0182C409.544 53.2382 409.334 52.3382 409.334 51.3182C409.334 50.2982 409.538 49.4042 409.946 48.6362C410.354 47.8682 410.924 47.2802 411.656 46.8722C412.4 46.4522 413.252 46.2422 414.212 46.2422C415.148 46.2422 415.976 46.4462 416.696 46.8542C417.416 47.2622 417.968 47.8262 418.352 48.5462C418.748 49.2542 418.946 50.0582 418.946 50.9582ZM417.254 50.6162C417.254 49.9922 417.116 49.4582 416.84 49.0142C416.564 48.5582 416.186 48.2162 415.706 47.9882C415.238 47.7482 414.716 47.6282 414.14 47.6282C413.312 47.6282 412.604 47.8922 412.016 48.4202C411.44 48.9482 411.11 49.6802 411.026 50.6162H417.254Z" fill="black"/>
<path d="M407.156 42.9482V56.2682H405.518V42.9482H407.156Z" fill="black"/>
<path d="M403.354 50.9582C403.354 51.2702 403.336 51.6002 403.3 51.9482H395.416C395.476 52.9202 395.806 53.6822 396.406 54.2342C397.018 54.7742 397.756 55.0442 398.62 55.0442C399.328 55.0442 399.916 54.8822 400.384 54.5582C400.864 54.2222 401.2 53.7782 401.392 53.2262H403.156C402.892 54.1742 402.364 54.9482 401.572 55.5482C400.78 56.1362 399.796 56.4302 398.62 56.4302C397.684 56.4302 396.844 56.2202 396.1 55.8002C395.368 55.3802 394.792 54.7862 394.372 54.0182C393.952 53.2382 393.742 52.3382 393.742 51.3182C393.742 50.2982 393.946 49.4042 394.354 48.6362C394.762 47.8682 395.332 47.2802 396.064 46.8722C396.808 46.4522 397.66 46.2422 398.62 46.2422C399.556 46.2422 400.384 46.4462 401.104 46.8542C401.824 47.2622 402.376 47.8262 402.76 48.5462C403.156 49.2542 403.354 50.0582 403.354 50.9582ZM401.662 50.6162C401.662 49.9922 401.524 49.4582 401.248 49.0142C400.972 48.5582 400.594 48.2162 400.114 47.9882C399.646 47.7482 399.124 47.6282 398.548 47.6282C397.72 47.6282 397.012 47.8922 396.424 48.4202C395.848 48.9482 395.518 49.6802 395.434 50.6162H401.662Z" fill="black"/>
<path d="M389.279 48.0066C389.567 47.4426 389.975 47.0046 390.503 46.6926C391.043 46.3806 391.697 46.2246 392.465 46.2246V47.9166H392.033C390.197 47.9166 389.279 48.9126 389.279 50.9046V56.2686H387.641V46.4046H389.279V48.0066Z" fill="black"/>
<path d="M378.283 47.7549V53.5689C378.283 54.0489 378.385 54.3909 378.589 54.5949C378.793 54.7869 379.147 54.8829 379.651 54.8829H380.857V56.2689H379.381C378.469 56.2689 377.785 56.0589 377.329 55.6389C376.873 55.2189 376.645 54.5289 376.645 53.5689V47.7549H375.367V46.4049H376.645V43.9209H378.283V46.4049H380.857V47.7549H378.283Z" fill="black"/>
<path d="M372.599 43.7227H374.417L372.689 47.8087H371.537L372.599 43.7227Z" fill="black"/>
<path d="M365.64 46.2246C366.84 46.2246 367.812 46.5906 368.556 47.3226C369.3 48.0426 369.672 49.0866 369.672 50.4546V56.2686H368.052V50.6886C368.052 49.7046 367.806 48.9546 367.314 48.4386C366.822 47.9106 366.15 47.6466 365.298 47.6466C364.434 47.6466 363.744 47.9166 363.228 48.4566C362.724 48.9966 362.472 49.7826 362.472 50.8146V56.2686H360.834V46.4046H362.472V47.8086C362.796 47.3046 363.234 46.9146 363.786 46.6386C364.35 46.3626 364.968 46.2246 365.64 46.2246Z" fill="black"/>
<path d="M354.921 56.4302C354.165 56.4302 353.487 56.3042 352.887 56.0522C352.287 55.7882 351.813 55.4282 351.465 54.9722C351.117 54.5042 350.925 53.9702 350.889 53.3702H352.581C352.629 53.8622 352.857 54.2642 353.265 54.5762C353.685 54.8882 354.231 55.0442 354.903 55.0442C355.527 55.0442 356.019 54.9062 356.379 54.6302C356.739 54.3542 356.919 54.0062 356.919 53.5862C356.919 53.1542 356.727 52.8362 356.343 52.6322C355.959 52.4162 355.365 52.2062 354.561 52.0022C353.829 51.8102 353.229 51.6182 352.761 51.4262C352.305 51.2222 351.909 50.9282 351.573 50.5442C351.249 50.1482 351.087 49.6322 351.087 48.9962C351.087 48.4922 351.237 48.0302 351.537 47.6102C351.837 47.1902 352.263 46.8602 352.815 46.6202C353.367 46.3682 353.997 46.2422 354.705 46.2422C355.797 46.2422 356.679 46.5182 357.351 47.0702C358.023 47.6222 358.383 48.3782 358.431 49.3382H356.793C356.757 48.8222 356.547 48.4082 356.163 48.0962C355.791 47.7842 355.287 47.6282 354.651 47.6282C354.063 47.6282 353.595 47.7542 353.247 48.0062C352.899 48.2582 352.725 48.5882 352.725 48.9962C352.725 49.3202 352.827 49.5902 353.031 49.8062C353.247 50.0102 353.511 50.1782 353.823 50.3102C354.147 50.4302 354.591 50.5682 355.155 50.7242C355.863 50.9162 356.439 51.1082 356.883 51.3002C357.327 51.4802 357.705 51.7562 358.017 52.1282C358.341 52.5002 358.509 52.9862 358.521 53.5862C358.521 54.1262 358.371 54.6122 358.071 55.0442C357.771 55.4762 357.345 55.8182 356.793 56.0702C356.253 56.3102 355.629 56.4302 354.921 56.4302Z" fill="black"/>
<path d="M338.652 51.3002C338.652 50.2922 338.856 49.4102 339.264 48.6542C339.672 47.8862 340.23 47.2922 340.938 46.8722C341.658 46.4522 342.456 46.2422 343.332 46.2422C344.196 46.2422 344.946 46.4282 345.582 46.8002C346.218 47.1722 346.692 47.6402 347.004 48.2042V46.4042H348.66V56.2682H347.004V54.4322C346.68 55.0082 346.194 55.4882 345.546 55.8722C344.91 56.2442 344.166 56.4302 343.314 56.4302C342.438 56.4302 341.646 56.2142 340.938 55.7822C340.23 55.3502 339.672 54.7442 339.264 53.9642C338.856 53.1842 338.652 52.2962 338.652 51.3002ZM347.004 51.3182C347.004 50.5742 346.854 49.9262 346.554 49.3742C346.254 48.8222 345.846 48.4022 345.33 48.1142C344.826 47.8142 344.268 47.6642 343.656 47.6642C343.044 47.6642 342.486 47.8082 341.982 48.0962C341.478 48.3842 341.076 48.8042 340.776 49.3562C340.476 49.9082 340.326 50.5562 340.326 51.3002C340.326 52.0562 340.476 52.7162 340.776 53.2802C341.076 53.8322 341.478 54.2582 341.982 54.5582C342.486 54.8462 343.044 54.9902 343.656 54.9902C344.268 54.9902 344.826 54.8462 345.33 54.5582C345.846 54.2582 346.254 53.8322 346.554 53.2802C346.854 52.7162 347.004 52.0622 347.004 51.3182Z" fill="black"/>
<path d="M337.64 46.4043L334.562 56.2683H332.87L330.494 48.4383L328.118 56.2683H326.426L323.33 46.4043H325.004L327.272 54.6843L329.72 46.4043H331.394L333.788 54.7023L336.02 46.4043H337.64Z" fill="black"/>
<path d="M306.924 51.3002C306.924 50.2922 307.128 49.4102 307.536 48.6542C307.944 47.8862 308.502 47.2922 309.21 46.8722C309.93 46.4522 310.728 46.2422 311.604 46.2422C312.468 46.2422 313.218 46.4282 313.854 46.8002C314.49 47.1722 314.964 47.6402 315.276 48.2042V46.4042H316.932V56.2682H315.276V54.4322C314.952 55.0082 314.466 55.4882 313.818 55.8722C313.182 56.2442 312.438 56.4302 311.586 56.4302C310.71 56.4302 309.918 56.2142 309.21 55.7822C308.502 55.3502 307.944 54.7442 307.536 53.9642C307.128 53.1842 306.924 52.2962 306.924 51.3002ZM315.276 51.3182C315.276 50.5742 315.126 49.9262 314.826 49.3742C314.526 48.8222 314.118 48.4022 313.602 48.1142C313.098 47.8142 312.54 47.6642 311.928 47.6642C311.316 47.6642 310.758 47.8082 310.254 48.0962C309.75 48.3842 309.348 48.8042 309.048 49.3562C308.748 49.9082 308.598 50.5562 308.598 51.3002C308.598 52.0562 308.748 52.7162 309.048 53.2802C309.348 53.8322 309.75 54.2582 310.254 54.5582C310.758 54.8462 311.316 54.9902 311.928 54.9902C312.54 54.9902 313.098 54.8462 313.602 54.5582C314.118 54.2582 314.526 53.8322 314.826 53.2802C315.126 52.7162 315.276 52.0622 315.276 51.3182Z" fill="black"/>
<path d="M302.979 47.7549V53.5689C302.979 54.0489 303.081 54.3909 303.285 54.5949C303.489 54.7869 303.842 54.8829 304.346 54.8829H305.553V56.2689H304.076C303.164 56.2689 302.48 56.0589 302.024 55.6389C301.568 55.2189 301.34 54.5289 301.34 53.5689V47.7549H300.062V46.4049H301.34V43.9209H302.979V46.4049H305.553V47.7549H302.979Z" fill="black"/>
<path d="M288.203 51.3002C288.203 50.2922 288.407 49.4102 288.815 48.6542C289.223 47.8862 289.781 47.2922 290.489 46.8722C291.209 46.4522 292.007 46.2422 292.883 46.2422C293.747 46.2422 294.497 46.4282 295.133 46.8002C295.769 47.1722 296.243 47.6402 296.555 48.2042V46.4042H298.211V56.2682H296.555V54.4322C296.231 55.0082 295.745 55.4882 295.097 55.8722C294.461 56.2442 293.717 56.4302 292.865 56.4302C291.989 56.4302 291.197 56.2142 290.489 55.7822C289.781 55.3502 289.223 54.7442 288.815 53.9642C288.407 53.1842 288.203 52.2962 288.203 51.3002ZM296.555 51.3182C296.555 50.5742 296.405 49.9262 296.105 49.3742C295.805 48.8222 295.397 48.4022 294.881 48.1142C294.377 47.8142 293.819 47.6642 293.207 47.6642C292.595 47.6642 292.037 47.8082 291.533 48.0962C291.029 48.3842 290.627 48.8042 290.327 49.3562C290.027 49.9082 289.877 50.5562 289.877 51.3002C289.877 52.0562 290.027 52.7162 290.327 53.2802C290.627 53.8322 291.029 54.2582 291.533 54.5582C292.037 54.8462 292.595 54.9902 293.207 54.9902C293.819 54.9902 294.377 54.8462 294.881 54.5582C295.397 54.2582 295.805 53.8322 296.105 53.2802C296.405 52.7162 296.555 52.0622 296.555 51.3182Z" fill="black"/>
<path d="M276.039 51.3002C276.039 50.2922 276.243 49.4102 276.651 48.6542C277.059 47.8862 277.617 47.2922 278.325 46.8722C279.045 46.4522 279.849 46.2422 280.737 46.2422C281.505 46.2422 282.219 46.4222 282.879 46.7822C283.539 47.1302 284.043 47.5922 284.391 48.1682V42.9482H286.047V56.2682H284.391V54.4142C284.067 55.0022 283.587 55.4882 282.951 55.8722C282.315 56.2442 281.571 56.4302 280.719 56.4302C279.843 56.4302 279.045 56.2142 278.325 55.7822C277.617 55.3502 277.059 54.7442 276.651 53.9642C276.243 53.1842 276.039 52.2962 276.039 51.3002ZM284.391 51.3182C284.391 50.5742 284.241 49.9262 283.941 49.3742C283.641 48.8222 283.233 48.4022 282.717 48.1142C282.213 47.8142 281.655 47.6642 281.043 47.6642C280.431 47.6642 279.873 47.8082 279.369 48.0962C278.865 48.3842 278.463 48.8042 278.163 49.3562C277.863 49.9082 277.713 50.5562 277.713 51.3002C277.713 52.0562 277.863 52.7162 278.163 53.2802C278.463 53.8322 278.865 54.2582 279.369 54.5582C279.873 54.8462 280.431 54.9902 281.043 54.9902C281.655 54.9902 282.213 54.8462 282.717 54.5582C283.233 54.2582 283.641 53.8322 283.941 53.2802C284.241 52.7162 284.391 52.0622 284.391 51.3182Z" fill="black"/>
<path d="M269.062 42.9482V56.2682H267.424V42.9482H269.062Z" fill="black"/>
<path d="M254.646 51.3002C254.646 50.2922 254.85 49.4102 255.258 48.6542C255.666 47.8862 256.224 47.2922 256.932 46.8722C257.652 46.4522 258.45 46.2422 259.326 46.2422C260.19 46.2422 260.94 46.4282 261.576 46.8002C262.212 47.1722 262.686 47.6402 262.998 48.2042V46.4042H264.654V56.2682H262.998V54.4322C262.674 55.0082 262.188 55.4882 261.54 55.8722C260.904 56.2442 260.16 56.4302 259.308 56.4302C258.432 56.4302 257.64 56.2142 256.932 55.7822C256.224 55.3502 255.666 54.7442 255.258 53.9642C254.85 53.1842 254.646 52.2962 254.646 51.3002ZM262.998 51.3182C262.998 50.5742 262.848 49.9262 262.548 49.3742C262.248 48.8222 261.84 48.4022 261.324 48.1142C260.82 47.8142 260.262 47.6642 259.65 47.6642C259.038 47.6642 258.48 47.8082 257.976 48.0962C257.472 48.3842 257.07 48.8042 256.77 49.3562C256.47 49.9082 256.32 50.5562 256.32 51.3002C256.32 52.0562 256.47 52.7162 256.77 53.2802C257.07 53.8322 257.472 54.2582 257.976 54.5582C258.48 54.8462 259.038 54.9902 259.65 54.9902C260.262 54.9902 260.82 54.8462 261.324 54.5582C261.84 54.2582 262.248 53.8322 262.548 53.2802C262.848 52.7162 262.998 52.0622 262.998 51.3182Z" fill="black"/>
<path d="M243.713 51.3182C243.713 50.2982 243.917 49.4102 244.325 48.6542C244.733 47.8862 245.297 47.2922 246.017 46.8722C246.749 46.4522 247.583 46.2422 248.519 46.2422C249.731 46.2422 250.727 46.5362 251.507 47.1242C252.299 47.7122 252.821 48.5282 253.073 49.5722H251.309C251.141 48.9722 250.811 48.4982 250.319 48.1502C249.839 47.8022 249.239 47.6282 248.519 47.6282C247.583 47.6282 246.827 47.9522 246.251 48.6002C245.675 49.2362 245.387 50.1422 245.387 51.3182C245.387 52.5062 245.675 53.4242 246.251 54.0722C246.827 54.7202 247.583 55.0442 248.519 55.0442C249.239 55.0442 249.839 54.8762 250.319 54.5402C250.799 54.2042 251.129 53.7242 251.309 53.1002H253.073C252.809 54.1082 252.281 54.9182 251.489 55.5302C250.697 56.1302 249.707 56.4302 248.519 56.4302C247.583 56.4302 246.749 56.2202 246.017 55.8002C245.297 55.3802 244.733 54.7862 244.325 54.0182C243.917 53.2502 243.713 52.3502 243.713 51.3182Z" fill="black"/>
<path d="M240.741 44.8023C240.429 44.8023 240.165 44.6943 239.949 44.4783C239.733 44.2623 239.625 43.9983 239.625 43.6863C239.625 43.3743 239.733 43.1103 239.949 42.8943C240.165 42.6783 240.429 42.5703 240.741 42.5703C241.041 42.5703 241.293 42.6783 241.497 42.8943C241.713 43.1103 241.821 43.3743 241.821 43.6863C241.821 43.9983 241.713 44.2623 241.497 44.4783C241.293 44.6943 241.041 44.8023 240.741 44.8023ZM241.533 46.4043V56.2683H239.895V46.4043H241.533Z" fill="black"/>
<path d="M234.82 48.0066C235.108 47.4426 235.516 47.0046 236.044 46.6926C236.584 46.3806 237.238 46.2246 238.006 46.2246V47.9166H237.574C235.738 47.9166 234.82 48.9126 234.82 50.9046V56.2686H233.182V46.4046H234.82V48.0066Z" fill="black"/>
<path d="M225.969 56.4302C225.045 56.4302 224.205 56.2202 223.449 55.8002C222.705 55.3802 222.117 54.7862 221.685 54.0182C221.265 53.2382 221.055 52.3382 221.055 51.3182C221.055 50.3102 221.271 49.4222 221.703 48.6542C222.147 47.8742 222.747 47.2802 223.503 46.8722C224.259 46.4522 225.105 46.2422 226.041 46.2422C226.977 46.2422 227.823 46.4522 228.579 46.8722C229.335 47.2802 229.929 47.8682 230.361 48.6362C230.805 49.4042 231.027 50.2982 231.027 51.3182C231.027 52.3382 230.799 53.2382 230.343 54.0182C229.899 54.7862 229.293 55.3802 228.525 55.8002C227.757 56.2202 226.905 56.4302 225.969 56.4302ZM225.969 54.9902C226.557 54.9902 227.109 54.8522 227.625 54.5762C228.141 54.3002 228.555 53.8862 228.867 53.3342C229.191 52.7822 229.353 52.1102 229.353 51.3182C229.353 50.5262 229.197 49.8542 228.885 49.3022C228.573 48.7502 228.165 48.3422 227.661 48.0782C227.157 47.8022 226.611 47.6642 226.023 47.6642C225.423 47.6642 224.871 47.8022 224.367 48.0782C223.875 48.3422 223.479 48.7502 223.179 49.3022C222.879 49.8542 222.729 50.5262 222.729 51.3182C222.729 52.1222 222.873 52.8002 223.161 53.3522C223.461 53.9042 223.857 54.3182 224.349 54.5942C224.841 54.8582 225.381 54.9902 225.969 54.9902Z" fill="black"/>
<path d="M217.109 47.7549V53.5689C217.109 54.0489 217.211 54.3909 217.415 54.5949C217.619 54.7869 217.973 54.8829 218.477 54.8829H219.683V56.2689H218.207C217.295 56.2689 216.611 56.0589 216.155 55.6389C215.699 55.2189 215.471 54.5289 215.471 53.5689V47.7549H214.193V46.4049H215.471V43.9209H217.109V46.4049H219.683V47.7549H217.109Z" fill="black"/>
<path d="M209.198 56.4302C208.442 56.4302 207.764 56.3042 207.164 56.0522C206.564 55.7882 206.09 55.4282 205.742 54.9722C205.394 54.5042 205.202 53.9702 205.166 53.3702H206.858C206.906 53.8622 207.134 54.2642 207.542 54.5762C207.962 54.8882 208.508 55.0442 209.18 55.0442C209.804 55.0442 210.296 54.9062 210.656 54.6302C211.016 54.3542 211.196 54.0062 211.196 53.5862C211.196 53.1542 211.004 52.8362 210.62 52.6322C210.236 52.4162 209.642 52.2062 208.838 52.0022C208.106 51.8102 207.506 51.6182 207.038 51.4262C206.582 51.2222 206.186 50.9282 205.85 50.5442C205.526 50.1482 205.364 49.6322 205.364 48.9962C205.364 48.4922 205.514 48.0302 205.814 47.6102C206.114 47.1902 206.54 46.8602 207.092 46.6202C207.644 46.3682 208.274 46.2422 208.982 46.2422C210.074 46.2422 210.956 46.5182 211.628 47.0702C212.3 47.6222 212.66 48.3782 212.708 49.3382H211.07C211.034 48.8222 210.824 48.4082 210.44 48.0962C210.068 47.7842 209.564 47.6282 208.928 47.6282C208.34 47.6282 207.872 47.7542 207.524 48.0062C207.176 48.2582 207.002 48.5882 207.002 48.9962C207.002 49.3202 207.104 49.5902 207.308 49.8062C207.524 50.0102 207.788 50.1782 208.1 50.3102C208.424 50.4302 208.868 50.5682 209.432 50.7242C210.14 50.9162 210.716 51.1082 211.16 51.3002C211.604 51.4802 211.982 51.7562 212.294 52.1282C212.618 52.5002 212.786 52.9862 212.798 53.5862C212.798 54.1262 212.648 54.6122 212.348 55.0442C212.048 55.4762 211.622 55.8182 211.07 56.0702C210.53 56.3102 209.906 56.4302 209.198 56.4302Z" fill="black"/>
<path d="M202.122 44.8023C201.81 44.8023 201.546 44.6943 201.33 44.4783C201.114 44.2623 201.006 43.9983 201.006 43.6863C201.006 43.3743 201.114 43.1103 201.33 42.8943C201.546 42.6783 201.81 42.5703 202.122 42.5703C202.422 42.5703 202.674 42.6783 202.878 42.8943C203.094 43.1103 203.202 43.3743 203.202 43.6863C203.202 43.9983 203.094 44.2623 202.878 44.4783C202.674 44.6943 202.422 44.8023 202.122 44.8023ZM202.914 46.4043V56.2683H201.276V46.4043H202.914Z" fill="black"/>
<path d="M194.66 46.2242C195.404 46.2242 196.076 46.3862 196.676 46.7102C197.276 47.0222 197.744 47.4962 198.08 48.1322C198.428 48.7682 198.602 49.5422 198.602 50.4542V56.2682H196.982V50.6882C196.982 49.7042 196.736 48.9542 196.244 48.4382C195.752 47.9102 195.08 47.6462 194.228 47.6462C193.364 47.6462 192.674 47.9162 192.158 48.4562C191.654 48.9962 191.402 49.7822 191.402 50.8142V56.2682H189.764V42.9482H191.402V47.8082C191.726 47.3042 192.17 46.9142 192.734 46.6382C193.31 46.3622 193.952 46.2242 194.66 46.2242Z" fill="black"/>
<path d="M182.801 50.9582C182.801 51.2702 182.783 51.6002 182.747 51.9482H174.863C174.923 52.9202 175.253 53.6822 175.853 54.2342C176.465 54.7742 177.203 55.0442 178.067 55.0442C178.775 55.0442 179.363 54.8822 179.831 54.5582C180.311 54.2222 180.647 53.7782 180.839 53.2262H182.603C182.339 54.1742 181.811 54.9482 181.019 55.5482C180.227 56.1362 179.243 56.4302 178.067 56.4302C177.131 56.4302 176.291 56.2202 175.547 55.8002C174.815 55.3802 174.239 54.7862 173.819 54.0182C173.399 53.2382 173.189 52.3382 173.189 51.3182C173.189 50.2982 173.393 49.4042 173.801 48.6362C174.209 47.8682 174.779 47.2802 175.511 46.8722C176.255 46.4522 177.107 46.2422 178.067 46.2422C179.003 46.2422 179.831 46.4462 180.551 46.8542C181.271 47.2622 181.823 47.8262 182.207 48.5462C182.603 49.2542 182.801 50.0582 182.801 50.9582ZM181.109 50.6162C181.109 49.9922 180.971 49.4582 180.695 49.0142C180.419 48.5582 180.041 48.2162 179.561 47.9882C179.093 47.7482 178.571 47.6282 177.995 47.6282C177.167 47.6282 176.459 47.8922 175.871 48.4202C175.295 48.9482 174.965 49.6802 174.881 50.6162H181.109Z" fill="black"/>
<path d="M162.256 51.3182C162.256 50.2982 162.46 49.4102 162.868 48.6542C163.276 47.8862 163.84 47.2922 164.56 46.8722C165.292 46.4522 166.126 46.2422 167.062 46.2422C168.274 46.2422 169.27 46.5362 170.05 47.1242C170.842 47.7122 171.364 48.5282 171.616 49.5722H169.852C169.684 48.9722 169.354 48.4982 168.862 48.1502C168.382 47.8022 167.782 47.6282 167.062 47.6282C166.126 47.6282 165.37 47.9522 164.794 48.6002C164.218 49.2362 163.93 50.1422 163.93 51.3182C163.93 52.5062 164.218 53.4242 164.794 54.0722C165.37 54.7202 166.126 55.0442 167.062 55.0442C167.782 55.0442 168.382 54.8762 168.862 54.5402C169.342 54.2042 169.672 53.7242 169.852 53.1002H171.616C171.352 54.1082 170.824 54.9182 170.032 55.5302C169.24 56.1302 168.25 56.4302 167.062 56.4302C166.126 56.4302 165.292 56.2202 164.56 55.8002C163.84 55.3802 163.276 54.7862 162.868 54.0182C162.46 53.2502 162.256 52.3502 162.256 51.3182Z" fill="black"/>
<path d="M156.161 46.2246C157.361 46.2246 158.333 46.5906 159.077 47.3226C159.821 48.0426 160.193 49.0866 160.193 50.4546V56.2686H158.573V50.6886C158.573 49.7046 158.327 48.9546 157.835 48.4386C157.343 47.9106 156.671 47.6466 155.819 47.6466C154.955 47.6466 154.265 47.9166 153.749 48.4566C153.245 48.9966 152.993 49.7826 152.993 50.8146V56.2686H151.355V46.4046H152.993V47.8086C153.317 47.3046 153.755 46.9146 154.307 46.6386C154.871 46.3626 155.489 46.2246 156.161 46.2246Z" fill="black"/>
<path d="M147.77 44.8023C147.458 44.8023 147.194 44.6943 146.978 44.4783C146.762 44.2623 146.654 43.9983 146.654 43.6863C146.654 43.3743 146.762 43.1103 146.978 42.8943C147.194 42.6783 147.458 42.5703 147.77 42.5703C148.07 42.5703 148.322 42.6783 148.526 42.8943C148.742 43.1103 148.85 43.3743 148.85 43.6863C148.85 43.9983 148.742 44.2623 148.526 44.4783C148.322 44.6943 148.07 44.8023 147.77 44.8023ZM148.562 46.4043V56.2683H146.924V46.4043H148.562Z" fill="black"/>
<path d="M140.338 56.3945C139.51 56.3945 138.766 56.2505 138.106 55.9625C137.458 55.6625 136.948 55.2545 136.576 54.7385C136.204 54.2105 136.012 53.6045 136 52.9205H137.746C137.806 53.5085 138.046 54.0065 138.466 54.4145C138.898 54.8105 139.522 55.0085 140.338 55.0085C141.118 55.0085 141.73 54.8165 142.174 54.4325C142.63 54.0365 142.858 53.5325 142.858 52.9205C142.858 52.4405 142.726 52.0505 142.462 51.7505C142.198 51.4505 141.868 51.2225 141.472 51.0665C141.076 50.9105 140.542 50.7425 139.87 50.5625C139.042 50.3465 138.376 50.1305 137.872 49.9145C137.38 49.6985 136.954 49.3625 136.594 48.9065C136.246 48.4385 136.072 47.8145 136.072 47.0345C136.072 46.3505 136.246 45.7445 136.594 45.2165C136.942 44.6885 137.428 44.2805 138.052 43.9925C138.688 43.7045 139.414 43.5605 140.23 43.5605C141.406 43.5605 142.366 43.8545 143.11 44.4425C143.866 45.0305 144.292 45.8105 144.388 46.7825H142.588C142.528 46.3025 142.276 45.8825 141.832 45.5225C141.388 45.1505 140.8 44.9645 140.068 44.9645C139.384 44.9645 138.826 45.1445 138.394 45.5045C137.962 45.8525 137.746 46.3445 137.746 46.9805C137.746 47.4365 137.872 47.8085 138.124 48.0965C138.388 48.3845 138.706 48.6065 139.078 48.7625C139.462 48.9065 139.996 49.0745 140.68 49.2665C141.508 49.4945 142.174 49.7225 142.678 49.9505C143.182 50.1665 143.614 50.5085 143.974 50.9765C144.334 51.4325 144.514 52.0565 144.514 52.8485C144.514 53.4605 144.352 54.0365 144.028 54.5765C143.704 55.1165 143.224 55.5545 142.588 55.8905C141.952 56.2265 141.202 56.3945 140.338 56.3945Z" fill="black"/>
</svg>
