<svg width="797" height="126" viewBox="0 0 797 126" fill="none" xmlns="http://www.w3.org/2000/svg">
<rect width="797" height="126" rx="8" fill="#E3E4F4"/>
<path fill-rule="evenodd" clip-rule="evenodd" d="M63.1314 38.0665C81.5341 39.6566 96 55.1347 96 73.9666C96 93.8552 79.8702 110 60 110C40.1298 110 24 93.8552 24 73.9666C24 55.1357 38.4659 39.6567 56.8686 38.0665V19.1333C56.8686 17.4021 58.2694 16 59.999 16H72.5206C75.9796 16 78.7813 18.8043 78.7813 22.2666V28.5332C78.7813 31.9955 75.9796 34.7998 72.5206 34.7998H63.1294L63.1314 38.0665ZM56.8706 44.3604C54.2176 44.6424 51.6703 45.2691 49.2677 46.1973C49.3342 46.3618 49.3851 46.5341 49.4203 46.7143C49.796 48.5943 50.6333 50.3019 51.2946 52.0487C52.1868 54.4066 52.8207 56.8152 52.539 59.5255C52.2886 61.9578 51.4238 64.3155 50.3751 66.5049C49.8429 67.6212 48.9938 68.6082 49.1151 69.9006C49.3225 72.1409 50.6294 74.3146 51.322 76.4844C52.4098 79.9037 52.5194 83.2563 49.479 86.6403C47.8629 88.4381 46.1922 89.1274 44.623 89.2606C43.1438 89.382 41.6804 88.9825 40.2874 88.1639C38.8357 87.314 37.4427 85.9549 36.2101 84.6193C33.9757 82.2067 32.7432 79.2339 31.5654 76.2181C31.1193 75.0862 30.6967 73.9309 30.2859 72.7676C30.2702 73.1671 30.2624 73.5666 30.2624 73.9661C30.2624 90.3926 43.5903 103.733 60.0016 103.733C67.1781 103.733 73.7673 101.183 78.9052 96.9376C75.5282 96.875 72.1866 96.0642 69.4514 94.3683C67.7023 93.2834 65.824 91.5523 64.8457 89.5704C63.9966 87.8431 63.7501 85.9358 64.4349 83.9697C65.4288 81.1301 67.5379 79.1797 69.8935 77.4446C70.9186 76.6887 71.9869 75.9719 72.9143 75.1416C73.8495 74.3073 74.6439 73.3516 74.7886 71.8986C74.8003 71.7654 74.8043 71.6323 74.7964 71.4991C74.4951 71.4678 74.0804 71.4286 73.7986 71.409C73.243 71.3738 72.6834 71.3307 72.1435 71.2406C70.3709 70.9351 68.8057 70.1675 67.7022 68.4284C66.7475 66.9245 66.5558 65.3108 66.8727 63.6971C67.1975 62.0522 68.1405 60.3993 68.9896 59.1029C71.2827 55.621 74.1861 52.4877 77.469 49.8793C73.3604 46.887 68.4535 44.9209 63.1323 44.3608V47.3335C63.1323 49.0607 61.7315 50.4668 60.0019 50.4668C58.2724 50.4668 56.8716 49.0607 56.8716 47.3335L56.8706 44.3604ZM85.3146 89.5852C88.1202 85.042 89.7402 79.6918 89.7402 73.9659C89.7402 66.3598 86.8837 59.4153 82.1881 54.1514C79.0851 56.4661 76.3421 59.3292 74.2213 62.5525C73.8809 63.0695 73.4896 63.6649 73.2196 64.2993C73.1374 64.4834 73.0709 64.6675 73.0239 64.8594C73.0161 64.9064 72.977 64.9573 72.9691 65.0043C73.0357 65.0239 73.1178 65.0474 73.1726 65.0552C73.4387 65.1062 73.7204 65.1218 73.9983 65.1414C74.6596 65.1845 75.3169 65.2158 75.9235 65.3059C77.0974 65.4861 78.1304 65.8895 78.9717 66.5788C79.8717 67.319 80.6348 68.4 80.9321 70.1507C81.0651 70.9145 81.0964 71.733 81.0182 72.5008C80.6778 76.0413 78.8425 78.3835 76.4792 80.334C75.18 81.4072 73.701 82.3393 72.4018 83.4242C71.5371 84.1488 70.7349 84.9282 70.3475 86.0405C70.2027 86.4439 70.4414 86.8121 70.6684 87.149C71.2005 87.9362 72.0145 88.5825 72.7501 89.0407C76.3265 91.2614 81.4172 91.1166 85.3146 89.5852ZM43.5707 49.1581C39.1373 52.1073 35.5374 56.2159 33.2049 61.0486C34.4061 65.3726 35.764 69.7631 37.3957 73.9348C38.2878 76.2181 39.1134 78.5328 40.8038 80.362C41.426 81.0396 42.0952 81.7406 42.8034 82.3046C43.2416 82.6532 43.6251 83.084 44.1103 83.0135C44.3647 82.9783 44.5603 82.7394 44.8225 82.4496C46.3994 80.691 45.5973 78.9246 44.9086 77.1425C44.0595 74.957 43.0891 72.7324 42.8778 70.4882C42.6508 68.0168 43.7073 65.9409 44.7287 63.8025C45.4682 62.2514 46.1334 60.6026 46.3095 58.8792C46.4856 57.2029 45.9925 55.7303 45.4408 54.2693C44.803 52.5851 44.0638 50.9207 43.5707 49.1581ZM63.1314 28.5335H72.5226V22.2669H63.1314V28.5335Z" fill="#4E4F64"/>
<path d="M723.694 81.0269C723.382 81.0269 723.118 80.9189 722.902 80.7029C722.686 80.4869 722.578 80.2229 722.578 79.9109C722.578 79.5989 722.686 79.3349 722.902 79.1189C723.118 78.9029 723.382 78.7949 723.694 78.7949C723.994 78.7949 724.246 78.9029 724.45 79.1189C724.666 79.3349 724.774 79.5989 724.774 79.9109C724.774 80.2229 724.666 80.4869 724.45 80.7029C724.246 80.9189 723.994 81.0269 723.694 81.0269Z" fill="black"/>
<path d="M717.259 81.0806C716.503 81.0806 715.825 80.9546 715.225 80.7026C714.625 80.4386 714.151 80.0786 713.803 79.6226C713.455 79.1546 713.263 78.6206 713.227 78.0206H714.919C714.967 78.5126 715.195 78.9146 715.603 79.2266C716.023 79.5386 716.569 79.6946 717.241 79.6946C717.865 79.6946 718.357 79.5566 718.717 79.2806C719.077 79.0046 719.257 78.6566 719.257 78.2366C719.257 77.8046 719.065 77.4866 718.681 77.2826C718.297 77.0666 717.703 76.8566 716.899 76.6526C716.167 76.4606 715.567 76.2686 715.099 76.0766C714.643 75.8726 714.247 75.5786 713.911 75.1946C713.587 74.7986 713.425 74.2826 713.425 73.6466C713.425 73.1426 713.575 72.6806 713.875 72.2606C714.175 71.8406 714.601 71.5106 715.153 71.2706C715.705 71.0186 716.335 70.8926 717.043 70.8926C718.135 70.8926 719.017 71.1686 719.689 71.7206C720.361 72.2726 720.721 73.0286 720.769 73.9886H719.131C719.095 73.4726 718.885 73.0586 718.501 72.7466C718.129 72.4346 717.625 72.2786 716.989 72.2786C716.401 72.2786 715.933 72.4046 715.585 72.6566C715.237 72.9086 715.063 73.2386 715.063 73.6466C715.063 73.9706 715.165 74.2406 715.369 74.4566C715.585 74.6606 715.849 74.8286 716.161 74.9606C716.485 75.0806 716.929 75.2186 717.493 75.3746C718.201 75.5666 718.777 75.7586 719.221 75.9506C719.665 76.1306 720.043 76.4066 720.355 76.7786C720.679 77.1506 720.847 77.6366 720.859 78.2366C720.859 78.7766 720.709 79.2626 720.409 79.6946C720.109 80.1266 719.683 80.4686 719.131 80.7206C718.591 80.9606 717.967 81.0806 717.259 81.0806Z" fill="black"/>
<path d="M708.691 72.657C708.979 72.093 709.387 71.655 709.915 71.343C710.455 71.031 711.109 70.875 711.877 70.875V72.567H711.445C709.609 72.567 708.691 73.563 708.691 75.555V80.919H707.053V71.055H708.691V72.657Z" fill="black"/>
<path d="M699.84 81.0806C698.916 81.0806 698.076 80.8706 697.32 80.4506C696.576 80.0306 695.988 79.4366 695.556 78.6686C695.136 77.8886 694.926 76.9886 694.926 75.9686C694.926 74.9606 695.142 74.0726 695.574 73.3046C696.018 72.5246 696.618 71.9306 697.374 71.5226C698.13 71.1026 698.976 70.8926 699.912 70.8926C700.848 70.8926 701.694 71.1026 702.45 71.5226C703.206 71.9306 703.8 72.5186 704.232 73.2866C704.676 74.0546 704.898 74.9486 704.898 75.9686C704.898 76.9886 704.67 77.8886 704.214 78.6686C703.77 79.4366 703.164 80.0306 702.396 80.4506C701.628 80.8706 700.776 81.0806 699.84 81.0806ZM699.84 79.6406C700.428 79.6406 700.98 79.5026 701.496 79.2266C702.012 78.9506 702.426 78.5366 702.738 77.9846C703.062 77.4326 703.224 76.7606 703.224 75.9686C703.224 75.1766 703.068 74.5046 702.756 73.9526C702.444 73.4006 702.036 72.9926 701.532 72.7286C701.028 72.4526 700.482 72.3146 699.894 72.3146C699.294 72.3146 698.742 72.4526 698.238 72.7286C697.746 72.9926 697.35 73.4006 697.05 73.9526C696.75 74.5046 696.6 75.1766 696.6 75.9686C696.6 76.7726 696.744 77.4506 697.032 78.0026C697.332 78.5546 697.728 78.9686 698.22 79.2446C698.712 79.5086 699.252 79.6406 699.84 79.6406Z" fill="black"/>
<path d="M690.98 72.4053V78.2193C690.98 78.6993 691.082 79.0413 691.286 79.2453C691.49 79.4373 691.844 79.5333 692.348 79.5333H693.554V80.9193H692.078C691.166 80.9193 690.482 80.7093 690.026 80.2893C689.57 79.8693 689.342 79.1793 689.342 78.2193V72.4053H688.064V71.0553H689.342V68.5713H690.98V71.0553H693.554V72.4053H690.98Z" fill="black"/>
<path d="M677.436 75.9686C677.436 74.9486 677.64 74.0606 678.048 73.3046C678.456 72.5366 679.02 71.9426 679.74 71.5226C680.472 71.1026 681.306 70.8926 682.242 70.8926C683.454 70.8926 684.45 71.1866 685.23 71.7746C686.022 72.3626 686.544 73.1786 686.796 74.2226H685.032C684.864 73.6226 684.534 73.1486 684.042 72.8006C683.562 72.4526 682.962 72.2786 682.242 72.2786C681.306 72.2786 680.55 72.6026 679.974 73.2506C679.398 73.8866 679.11 74.7926 679.11 75.9686C679.11 77.1566 679.398 78.0746 679.974 78.7226C680.55 79.3706 681.306 79.6946 682.242 79.6946C682.962 79.6946 683.562 79.5266 684.042 79.1906C684.522 78.8546 684.852 78.3746 685.032 77.7506H686.796C686.532 78.7586 686.004 79.5686 685.212 80.1806C684.42 80.7806 683.43 81.0806 682.242 81.0806C681.306 81.0806 680.472 80.8706 679.74 80.4506C679.02 80.0306 678.456 79.4366 678.048 78.6686C677.64 77.9006 677.436 77.0006 677.436 75.9686Z" fill="black"/>
<path d="M675.885 75.6086C675.885 75.9206 675.867 76.2506 675.831 76.5986H667.947C668.007 77.5706 668.337 78.3326 668.937 78.8846C669.549 79.4246 670.287 79.6946 671.151 79.6946C671.859 79.6946 672.447 79.5326 672.915 79.2086C673.395 78.8726 673.731 78.4286 673.923 77.8766H675.687C675.423 78.8246 674.895 79.5986 674.103 80.1986C673.311 80.7866 672.327 81.0806 671.151 81.0806C670.215 81.0806 669.375 80.8706 668.631 80.4506C667.899 80.0306 667.323 79.4366 666.903 78.6686C666.483 77.8886 666.273 76.9886 666.273 75.9686C666.273 74.9486 666.477 74.0546 666.885 73.2866C667.293 72.5186 667.863 71.9306 668.595 71.5226C669.339 71.1026 670.191 70.8926 671.151 70.8926C672.087 70.8926 672.915 71.0966 673.635 71.5046C674.355 71.9126 674.907 72.4766 675.291 73.1966C675.687 73.9046 675.885 74.7086 675.885 75.6086ZM674.193 75.2666C674.193 74.6426 674.055 74.1086 673.779 73.6646C673.503 73.2086 673.125 72.8666 672.645 72.6386C672.177 72.3986 671.655 72.2786 671.079 72.2786C670.251 72.2786 669.543 72.5426 668.955 73.0706C668.379 73.5986 668.049 74.3306 667.965 75.2666H674.193Z" fill="black"/>
<path d="M660.973 81.0806C660.217 81.0806 659.539 80.9546 658.939 80.7026C658.339 80.4386 657.865 80.0786 657.517 79.6226C657.169 79.1546 656.977 78.6206 656.941 78.0206H658.633C658.681 78.5126 658.909 78.9146 659.317 79.2266C659.737 79.5386 660.283 79.6946 660.955 79.6946C661.579 79.6946 662.071 79.5566 662.431 79.2806C662.791 79.0046 662.971 78.6566 662.971 78.2366C662.971 77.8046 662.779 77.4866 662.395 77.2826C662.011 77.0666 661.417 76.8566 660.613 76.6526C659.881 76.4606 659.281 76.2686 658.813 76.0766C658.357 75.8726 657.961 75.5786 657.625 75.1946C657.301 74.7986 657.139 74.2826 657.139 73.6466C657.139 73.1426 657.289 72.6806 657.589 72.2606C657.889 71.8406 658.315 71.5106 658.867 71.2706C659.419 71.0186 660.049 70.8926 660.757 70.8926C661.849 70.8926 662.731 71.1686 663.403 71.7206C664.075 72.2726 664.435 73.0286 664.483 73.9886H662.845C662.809 73.4726 662.599 73.0586 662.215 72.7466C661.843 72.4346 661.339 72.2786 660.703 72.2786C660.115 72.2786 659.647 72.4046 659.299 72.6566C658.951 72.9086 658.777 73.2386 658.777 73.6466C658.777 73.9706 658.879 74.2406 659.083 74.4566C659.299 74.6606 659.563 74.8286 659.875 74.9606C660.199 75.0806 660.643 75.2186 661.207 75.3746C661.915 75.5666 662.491 75.7586 662.935 75.9506C663.379 76.1306 663.757 76.4066 664.069 76.7786C664.393 77.1506 664.561 77.6366 664.573 78.2366C664.573 78.7766 664.423 79.2626 664.123 79.6946C663.823 80.1266 663.397 80.4686 662.845 80.7206C662.305 80.9606 661.681 81.0806 660.973 81.0806Z" fill="black"/>
<path d="M644.586 70.8926C645.438 70.8926 646.182 71.0786 646.818 71.4506C647.466 71.8226 647.946 72.2906 648.258 72.8546V71.0546H649.914V81.1346C649.914 82.0346 649.722 82.8326 649.338 83.5286C648.954 84.2366 648.402 84.7886 647.682 85.1846C646.974 85.5806 646.146 85.7786 645.198 85.7786C643.902 85.7786 642.822 85.4726 641.958 84.8606C641.094 84.2486 640.584 83.4146 640.428 82.3586H642.048C642.228 82.9586 642.6 83.4386 643.164 83.7986C643.728 84.1706 644.406 84.3566 645.198 84.3566C646.098 84.3566 646.83 84.0746 647.394 83.5106C647.97 82.9466 648.258 82.1546 648.258 81.1346V79.0646C647.934 79.6406 647.454 80.1206 646.818 80.5046C646.182 80.8886 645.438 81.0806 644.586 81.0806C643.71 81.0806 642.912 80.8646 642.192 80.4326C641.484 80.0006 640.926 79.3946 640.518 78.6146C640.11 77.8346 639.906 76.9466 639.906 75.9506C639.906 74.9426 640.11 74.0606 640.518 73.3046C640.926 72.5366 641.484 71.9426 642.192 71.5226C642.912 71.1026 643.71 70.8926 644.586 70.8926ZM648.258 75.9686C648.258 75.2246 648.108 74.5766 647.808 74.0246C647.508 73.4726 647.1 73.0526 646.584 72.7646C646.08 72.4646 645.522 72.3146 644.91 72.3146C644.298 72.3146 643.74 72.4586 643.236 72.7466C642.732 73.0346 642.33 73.4546 642.03 74.0066C641.73 74.5586 641.58 75.2066 641.58 75.9506C641.58 76.7066 641.73 77.3666 642.03 77.9306C642.33 78.4826 642.732 78.9086 643.236 79.2086C643.74 79.4966 644.298 79.6406 644.91 79.6406C645.522 79.6406 646.08 79.4966 646.584 79.2086C647.1 78.9086 647.508 78.4826 647.808 77.9306C648.108 77.3666 648.258 76.7126 648.258 75.9686Z" fill="black"/>
<path d="M633.812 70.875C635.012 70.875 635.984 71.241 636.728 71.973C637.472 72.693 637.844 73.737 637.844 75.105V80.919H636.224V75.339C636.224 74.355 635.978 73.605 635.486 73.089C634.994 72.561 634.322 72.297 633.47 72.297C632.606 72.297 631.916 72.567 631.4 73.107C630.896 73.647 630.644 74.433 630.644 75.465V80.919H629.006V71.055H630.644V72.459C630.968 71.955 631.406 71.565 631.958 71.289C632.522 71.013 633.14 70.875 633.812 70.875Z" fill="black"/>
<path d="M625.421 69.4527C625.109 69.4527 624.845 69.3447 624.629 69.1287C624.413 68.9127 624.305 68.6487 624.305 68.3367C624.305 68.0247 624.413 67.7607 624.629 67.5447C624.845 67.3287 625.109 67.2207 625.421 67.2207C625.721 67.2207 625.973 67.3287 626.177 67.5447C626.393 67.7607 626.501 68.0247 626.501 68.3367C626.501 68.6487 626.393 68.9127 626.177 69.1287C625.973 69.3447 625.721 69.4527 625.421 69.4527ZM626.213 71.0547V80.9187H624.575V71.0547H626.213Z" fill="black"/>
<path d="M620.018 72.4053V78.2193C620.018 78.6993 620.12 79.0413 620.324 79.2453C620.528 79.4373 620.882 79.5333 621.386 79.5333H622.592V80.9193H621.116C620.204 80.9193 619.52 80.7093 619.064 80.2893C618.608 79.8693 618.38 79.1793 618.38 78.2193V72.4053H617.102V71.0553H618.38V68.5713H620.018V71.0553H622.592V72.4053H620.018Z" fill="black"/>
<path d="M613.461 72.4053V78.2193C613.461 78.6993 613.563 79.0413 613.767 79.2453C613.971 79.4373 614.325 79.5333 614.829 79.5333H616.035V80.9193H614.559C613.647 80.9193 612.963 80.7093 612.507 80.2893C612.051 79.8693 611.823 79.1793 611.823 78.2193V72.4053H610.545V71.0553H611.823V68.5713H613.461V71.0553H616.035V72.4053H613.461Z" fill="black"/>
<path d="M607.878 69.4527C607.566 69.4527 607.302 69.3447 607.086 69.1287C606.87 68.9127 606.762 68.6487 606.762 68.3367C606.762 68.0247 606.87 67.7607 607.086 67.5447C607.302 67.3287 607.566 67.2207 607.878 67.2207C608.178 67.2207 608.43 67.3287 608.634 67.5447C608.85 67.7607 608.958 68.0247 608.958 68.3367C608.958 68.6487 608.85 68.9127 608.634 69.1287C608.43 69.3447 608.178 69.4527 607.878 69.4527ZM608.67 71.0547V80.9187H607.032V71.0547H608.67Z" fill="black"/>
<path d="M600.35 70.875C601.118 70.875 601.802 71.037 602.402 71.361C603.002 71.673 603.476 72.147 603.824 72.783C604.172 73.419 604.346 74.193 604.346 75.105V80.919H602.726V75.339C602.726 74.355 602.48 73.605 601.988 73.089C601.508 72.561 600.854 72.297 600.026 72.297C599.174 72.297 598.496 72.573 597.992 73.125C597.488 73.665 597.236 74.451 597.236 75.483V80.919H595.616V75.339C595.616 74.355 595.37 73.605 594.878 73.089C594.398 72.561 593.744 72.297 592.916 72.297C592.064 72.297 591.386 72.573 590.882 73.125C590.378 73.665 590.126 74.451 590.126 75.483V80.919H588.488V71.055H590.126V72.477C590.45 71.961 590.882 71.565 591.422 71.289C591.974 71.013 592.58 70.875 593.24 70.875C594.068 70.875 594.8 71.061 595.436 71.433C596.072 71.805 596.546 72.351 596.858 73.071C597.134 72.375 597.59 71.835 598.226 71.451C598.862 71.067 599.57 70.875 600.35 70.875Z" fill="black"/>
<path d="M586.325 75.6086C586.325 75.9206 586.307 76.2506 586.271 76.5986H578.387C578.447 77.5706 578.777 78.3326 579.377 78.8846C579.989 79.4246 580.727 79.6946 581.591 79.6946C582.299 79.6946 582.887 79.5326 583.355 79.2086C583.835 78.8726 584.171 78.4286 584.363 77.8766H586.127C585.863 78.8246 585.335 79.5986 584.543 80.1986C583.751 80.7866 582.767 81.0806 581.591 81.0806C580.655 81.0806 579.815 80.8706 579.071 80.4506C578.339 80.0306 577.763 79.4366 577.343 78.6686C576.923 77.8886 576.713 76.9886 576.713 75.9686C576.713 74.9486 576.917 74.0546 577.325 73.2866C577.733 72.5186 578.303 71.9306 579.035 71.5226C579.779 71.1026 580.631 70.8926 581.591 70.8926C582.527 70.8926 583.355 71.0966 584.075 71.5046C584.795 71.9126 585.347 72.4766 585.731 73.1966C586.127 73.9046 586.325 74.7086 586.325 75.6086ZM584.633 75.2666C584.633 74.6426 584.495 74.1086 584.219 73.6646C583.943 73.2086 583.565 72.8666 583.085 72.6386C582.617 72.3986 582.095 72.2786 581.519 72.2786C580.691 72.2786 579.983 72.5426 579.395 73.0706C578.819 73.5986 578.489 74.3306 578.405 75.2666H584.633Z" fill="black"/>
<path d="M570.364 75.6086C570.364 75.9206 570.346 76.2506 570.31 76.5986H562.426C562.486 77.5706 562.816 78.3326 563.416 78.8846C564.028 79.4246 564.766 79.6946 565.63 79.6946C566.338 79.6946 566.926 79.5326 567.394 79.2086C567.874 78.8726 568.21 78.4286 568.402 77.8766H570.166C569.902 78.8246 569.374 79.5986 568.582 80.1986C567.79 80.7866 566.806 81.0806 565.63 81.0806C564.694 81.0806 563.854 80.8706 563.11 80.4506C562.378 80.0306 561.802 79.4366 561.382 78.6686C560.962 77.8886 560.752 76.9886 560.752 75.9686C560.752 74.9486 560.956 74.0546 561.364 73.2866C561.772 72.5186 562.342 71.9306 563.074 71.5226C563.818 71.1026 564.67 70.8926 565.63 70.8926C566.566 70.8926 567.394 71.0966 568.114 71.5046C568.834 71.9126 569.386 72.4766 569.77 73.1966C570.166 73.9046 570.364 74.7086 570.364 75.6086ZM568.672 75.2666C568.672 74.6426 568.534 74.1086 568.258 73.6646C567.982 73.2086 567.604 72.8666 567.124 72.6386C566.656 72.3986 566.134 72.2786 565.558 72.2786C564.73 72.2786 564.022 72.5426 563.434 73.0706C562.858 73.5986 562.528 74.3306 562.444 75.2666H568.672Z" fill="black"/>
<path d="M559.202 75.6086C559.202 75.9206 559.184 76.2506 559.148 76.5986H551.264C551.324 77.5706 551.654 78.3326 552.254 78.8846C552.866 79.4246 553.604 79.6946 554.468 79.6946C555.176 79.6946 555.764 79.5326 556.232 79.2086C556.712 78.8726 557.048 78.4286 557.24 77.8766H559.004C558.74 78.8246 558.212 79.5986 557.42 80.1986C556.628 80.7866 555.644 81.0806 554.468 81.0806C553.532 81.0806 552.692 80.8706 551.948 80.4506C551.216 80.0306 550.64 79.4366 550.22 78.6686C549.8 77.8886 549.59 76.9886 549.59 75.9686C549.59 74.9486 549.794 74.0546 550.202 73.2866C550.61 72.5186 551.18 71.9306 551.912 71.5226C552.656 71.1026 553.508 70.8926 554.468 70.8926C555.404 70.8926 556.232 71.0966 556.952 71.5046C557.672 71.9126 558.224 72.4766 558.608 73.1966C559.004 73.9046 559.202 74.7086 559.202 75.6086ZM557.51 75.2666C557.51 74.6426 557.372 74.1086 557.096 73.6646C556.82 73.2086 556.442 72.8666 555.962 72.6386C555.494 72.3986 554.972 72.2786 554.396 72.2786C553.568 72.2786 552.86 72.5426 552.272 73.0706C551.696 73.5986 551.366 74.3306 551.282 75.2666H557.51Z" fill="black"/>
<path d="M545.126 72.657C545.414 72.093 545.822 71.655 546.35 71.343C546.89 71.031 547.544 70.875 548.312 70.875V72.567H547.88C546.044 72.567 545.126 73.563 545.126 75.555V80.919H543.488V71.055H545.126V72.657Z" fill="black"/>
<path d="M536.871 70.8746C537.615 70.8746 538.287 71.0366 538.887 71.3606C539.487 71.6726 539.955 72.1466 540.291 72.7826C540.639 73.4186 540.813 74.1926 540.813 75.1046V80.9186H539.193V75.3386C539.193 74.3546 538.947 73.6046 538.455 73.0886C537.963 72.5606 537.291 72.2966 536.439 72.2966C535.575 72.2966 534.885 72.5666 534.369 73.1066C533.865 73.6466 533.613 74.4326 533.613 75.4646V80.9186H531.975V67.5986H533.613V72.4586C533.937 71.9546 534.381 71.5646 534.945 71.2886C535.521 71.0126 536.163 70.8746 536.871 70.8746Z" fill="black"/>
<path d="M527.416 72.4053V78.2193C527.416 78.6993 527.518 79.0413 527.722 79.2453C527.926 79.4373 528.28 79.5333 528.784 79.5333H529.99V80.9193H528.514C527.602 80.9193 526.918 80.7093 526.462 80.2893C526.006 79.8693 525.778 79.1793 525.778 78.2193V72.4053H524.5V71.0553H525.778V68.5713H527.416V71.0553H529.99V72.4053H527.416Z" fill="black"/>
<path d="M510.093 72.8726C510.417 72.3086 510.897 71.8406 511.533 71.4686C512.181 71.0846 512.931 70.8926 513.783 70.8926C514.659 70.8926 515.451 71.1026 516.159 71.5226C516.879 71.9426 517.443 72.5366 517.851 73.3046C518.259 74.0606 518.463 74.9426 518.463 75.9506C518.463 76.9466 518.259 77.8346 517.851 78.6146C517.443 79.3946 516.879 80.0006 516.159 80.4326C515.451 80.8646 514.659 81.0806 513.783 81.0806C512.943 81.0806 512.199 80.8946 511.551 80.5226C510.915 80.1386 510.429 79.6646 510.093 79.1006V85.5986H508.455V71.0546H510.093V72.8726ZM516.789 75.9506C516.789 75.2066 516.639 74.5586 516.339 74.0066C516.039 73.4546 515.631 73.0346 515.115 72.7466C514.611 72.4586 514.053 72.3146 513.441 72.3146C512.841 72.3146 512.283 72.4646 511.767 72.7646C511.263 73.0526 510.855 73.4786 510.543 74.0426C510.243 74.5946 510.093 75.2366 510.093 75.9686C510.093 76.7126 510.243 77.3666 510.543 77.9306C510.855 78.4826 511.263 78.9086 511.767 79.2086C512.283 79.4966 512.841 79.6406 513.441 79.6406C514.053 79.6406 514.611 79.4966 515.115 79.2086C515.631 78.9086 516.039 78.4826 516.339 77.9306C516.639 77.3666 516.789 76.7066 516.789 75.9506Z" fill="black"/>
<path d="M501.242 81.0806C500.318 81.0806 499.478 80.8706 498.722 80.4506C497.978 80.0306 497.39 79.4366 496.958 78.6686C496.538 77.8886 496.328 76.9886 496.328 75.9686C496.328 74.9606 496.544 74.0726 496.976 73.3046C497.42 72.5246 498.02 71.9306 498.776 71.5226C499.532 71.1026 500.378 70.8926 501.314 70.8926C502.25 70.8926 503.096 71.1026 503.852 71.5226C504.608 71.9306 505.202 72.5186 505.634 73.2866C506.078 74.0546 506.3 74.9486 506.3 75.9686C506.3 76.9886 506.072 77.8886 505.616 78.6686C505.172 79.4366 504.566 80.0306 503.798 80.4506C503.03 80.8706 502.178 81.0806 501.242 81.0806ZM501.242 79.6406C501.83 79.6406 502.382 79.5026 502.898 79.2266C503.414 78.9506 503.828 78.5366 504.14 77.9846C504.464 77.4326 504.626 76.7606 504.626 75.9686C504.626 75.1766 504.47 74.5046 504.158 73.9526C503.846 73.4006 503.438 72.9926 502.934 72.7286C502.43 72.4526 501.884 72.3146 501.296 72.3146C500.696 72.3146 500.144 72.4526 499.64 72.7286C499.148 72.9926 498.752 73.4006 498.452 73.9526C498.152 74.5046 498.002 75.1766 498.002 75.9686C498.002 76.7726 498.146 77.4506 498.434 78.0026C498.734 78.5546 499.13 78.9686 499.622 79.2446C500.114 79.5086 500.654 79.6406 501.242 79.6406Z" fill="black"/>
<path d="M492.383 72.4053V78.2193C492.383 78.6993 492.485 79.0413 492.689 79.2453C492.893 79.4373 493.247 79.5333 493.751 79.5333H494.957V80.9193H493.481C492.569 80.9193 491.885 80.7093 491.429 80.2893C490.973 79.8693 490.745 79.1793 490.745 78.2193V72.4053H489.467V71.0553H490.745V68.5713H492.383V71.0553H494.957V72.4053H492.383Z" fill="black"/>
<path d="M479.673 81.0806C478.917 81.0806 478.239 80.9546 477.639 80.7026C477.039 80.4386 476.565 80.0786 476.217 79.6226C475.869 79.1546 475.677 78.6206 475.641 78.0206H477.333C477.381 78.5126 477.609 78.9146 478.017 79.2266C478.437 79.5386 478.983 79.6946 479.655 79.6946C480.279 79.6946 480.771 79.5566 481.131 79.2806C481.491 79.0046 481.671 78.6566 481.671 78.2366C481.671 77.8046 481.479 77.4866 481.095 77.2826C480.711 77.0666 480.117 76.8566 479.313 76.6526C478.581 76.4606 477.981 76.2686 477.513 76.0766C477.057 75.8726 476.661 75.5786 476.325 75.1946C476.001 74.7986 475.839 74.2826 475.839 73.6466C475.839 73.1426 475.989 72.6806 476.289 72.2606C476.589 71.8406 477.015 71.5106 477.567 71.2706C478.119 71.0186 478.749 70.8926 479.457 70.8926C480.549 70.8926 481.431 71.1686 482.103 71.7206C482.775 72.2726 483.135 73.0286 483.183 73.9886H481.545C481.509 73.4726 481.299 73.0586 480.915 72.7466C480.543 72.4346 480.039 72.2786 479.403 72.2786C478.815 72.2786 478.347 72.4046 477.999 72.6566C477.651 72.9086 477.477 73.2386 477.477 73.6466C477.477 73.9706 477.579 74.2406 477.783 74.4566C477.999 74.6606 478.263 74.8286 478.575 74.9606C478.899 75.0806 479.343 75.2186 479.907 75.3746C480.615 75.5666 481.191 75.7586 481.635 75.9506C482.079 76.1306 482.457 76.4066 482.769 76.7786C483.093 77.1506 483.261 77.6366 483.273 78.2366C483.273 78.7766 483.123 79.2626 482.823 79.6946C482.523 80.1266 482.097 80.4686 481.545 80.7206C481.005 80.9606 480.381 81.0806 479.673 81.0806Z" fill="black"/>
<path d="M472.496 68.373H474.314L472.586 72.459H471.434L472.496 68.373Z" fill="black"/>
<path d="M470.598 71.0547L464.658 85.5627H462.966L464.91 80.8107L460.932 71.0547H462.75L465.846 79.0467L468.906 71.0547H470.598Z" fill="black"/>
<path d="M457.025 72.657C457.313 72.093 457.721 71.655 458.249 71.343C458.789 71.031 459.443 70.875 460.211 70.875V72.567H459.779C457.943 72.567 457.025 73.563 457.025 75.555V80.919H455.387V71.055H457.025V72.657Z" fill="black"/>
<path d="M450.828 72.4053V78.2193C450.828 78.6993 450.93 79.0413 451.134 79.2453C451.338 79.4373 451.692 79.5333 452.196 79.5333H453.402V80.9193H451.926C451.014 80.9193 450.33 80.7093 449.874 80.2893C449.418 79.8693 449.19 79.1793 449.19 78.2193V72.4053H447.912V71.0553H449.19V68.5713H450.828V71.0553H453.402V72.4053H450.828Z" fill="black"/>
<path d="M442.122 70.875C443.322 70.875 444.294 71.241 445.038 71.973C445.782 72.693 446.154 73.737 446.154 75.105V80.919H444.534V75.339C444.534 74.355 444.288 73.605 443.796 73.089C443.304 72.561 442.632 72.297 441.78 72.297C440.916 72.297 440.226 72.567 439.71 73.107C439.206 73.647 438.954 74.433 438.954 75.465V80.919H437.316V71.055H438.954V72.459C439.278 71.955 439.716 71.565 440.268 71.289C440.832 71.013 441.45 70.875 442.122 70.875Z" fill="black"/>
<path d="M434.551 71.0547V80.9187H432.913V79.4607C432.601 79.9647 432.163 80.3607 431.599 80.6487C431.047 80.9247 430.435 81.0627 429.763 81.0627C428.995 81.0627 428.305 80.9067 427.693 80.5947C427.081 80.2707 426.595 79.7907 426.235 79.1547C425.887 78.5187 425.713 77.7447 425.713 76.8327V71.0547H427.333V76.6167C427.333 77.5887 427.579 78.3387 428.071 78.8667C428.563 79.3827 429.235 79.6407 430.087 79.6407C430.963 79.6407 431.653 79.3707 432.157 78.8307C432.661 78.2907 432.913 77.5047 432.913 76.4727V71.0547H434.551Z" fill="black"/>
<path d="M418.59 81.0806C417.666 81.0806 416.826 80.8706 416.07 80.4506C415.326 80.0306 414.738 79.4366 414.306 78.6686C413.886 77.8886 413.676 76.9886 413.676 75.9686C413.676 74.9606 413.892 74.0726 414.324 73.3046C414.768 72.5246 415.368 71.9306 416.124 71.5226C416.88 71.1026 417.726 70.8926 418.662 70.8926C419.598 70.8926 420.444 71.1026 421.2 71.5226C421.956 71.9306 422.55 72.5186 422.982 73.2866C423.426 74.0546 423.648 74.9486 423.648 75.9686C423.648 76.9886 423.42 77.8886 422.964 78.6686C422.52 79.4366 421.914 80.0306 421.146 80.4506C420.378 80.8706 419.526 81.0806 418.59 81.0806ZM418.59 79.6406C419.178 79.6406 419.73 79.5026 420.246 79.2266C420.762 78.9506 421.176 78.5366 421.488 77.9846C421.812 77.4326 421.974 76.7606 421.974 75.9686C421.974 75.1766 421.818 74.5046 421.506 73.9526C421.194 73.4006 420.786 72.9926 420.282 72.7286C419.778 72.4526 419.232 72.3146 418.644 72.3146C418.044 72.3146 417.492 72.4526 416.988 72.7286C416.496 72.9926 416.1 73.4006 415.8 73.9526C415.5 74.5046 415.35 75.1766 415.35 75.9686C415.35 76.7726 415.494 77.4506 415.782 78.0026C416.082 78.5546 416.478 78.9686 416.97 79.2446C417.462 79.5086 418.002 79.6406 418.59 79.6406Z" fill="black"/>
<path d="M402.742 75.9686C402.742 74.9486 402.946 74.0606 403.354 73.3046C403.762 72.5366 404.326 71.9426 405.046 71.5226C405.778 71.1026 406.612 70.8926 407.548 70.8926C408.76 70.8926 409.756 71.1866 410.536 71.7746C411.328 72.3626 411.85 73.1786 412.102 74.2226H410.338C410.17 73.6226 409.84 73.1486 409.348 72.8006C408.868 72.4526 408.268 72.2786 407.548 72.2786C406.612 72.2786 405.856 72.6026 405.28 73.2506C404.704 73.8866 404.416 74.7926 404.416 75.9686C404.416 77.1566 404.704 78.0746 405.28 78.7226C405.856 79.3706 406.612 79.6946 407.548 79.6946C408.268 79.6946 408.868 79.5266 409.348 79.1906C409.828 78.8546 410.158 78.3746 410.338 77.7506H412.102C411.838 78.7586 411.31 79.5686 410.518 80.1806C409.726 80.7806 408.736 81.0806 407.548 81.0806C406.612 81.0806 405.778 80.8706 405.046 80.4506C404.326 80.0306 403.762 79.4366 403.354 78.6686C402.946 77.9006 402.742 77.0006 402.742 75.9686Z" fill="black"/>
<path d="M391.939 70.8746C392.683 70.8746 393.355 71.0366 393.955 71.3606C394.555 71.6726 395.023 72.1466 395.359 72.7826C395.707 73.4186 395.881 74.1926 395.881 75.1046V80.9186H394.261V75.3386C394.261 74.3546 394.015 73.6046 393.523 73.0886C393.031 72.5606 392.359 72.2966 391.507 72.2966C390.643 72.2966 389.953 72.5666 389.437 73.1066C388.933 73.6466 388.681 74.4326 388.681 75.4646V80.9186H387.043V67.5986H388.681V72.4586C389.005 71.9546 389.449 71.5646 390.013 71.2886C390.589 71.0126 391.231 70.8746 391.939 70.8746Z" fill="black"/>
<path d="M375.496 75.9686C375.496 74.9486 375.7 74.0606 376.108 73.3046C376.516 72.5366 377.08 71.9426 377.8 71.5226C378.532 71.1026 379.366 70.8926 380.302 70.8926C381.514 70.8926 382.51 71.1866 383.29 71.7746C384.082 72.3626 384.604 73.1786 384.856 74.2226H383.092C382.924 73.6226 382.594 73.1486 382.102 72.8006C381.622 72.4526 381.022 72.2786 380.302 72.2786C379.366 72.2786 378.61 72.6026 378.034 73.2506C377.458 73.8866 377.17 74.7926 377.17 75.9686C377.17 77.1566 377.458 78.0746 378.034 78.7226C378.61 79.3706 379.366 79.6946 380.302 79.6946C381.022 79.6946 381.622 79.5266 382.102 79.1906C382.582 78.8546 382.912 78.3746 383.092 77.7506H384.856C384.592 78.7586 384.064 79.5686 383.272 80.1806C382.48 80.7806 381.49 81.0806 380.302 81.0806C379.366 81.0806 378.532 80.8706 377.8 80.4506C377.08 80.0306 376.516 79.4366 376.108 78.6686C375.7 77.9006 375.496 77.0006 375.496 75.9686Z" fill="black"/>
<path d="M363.332 75.9506C363.332 74.9426 363.536 74.0606 363.944 73.3046C364.352 72.5366 364.91 71.9426 365.618 71.5226C366.338 71.1026 367.136 70.8926 368.012 70.8926C368.876 70.8926 369.626 71.0786 370.262 71.4506C370.898 71.8226 371.372 72.2906 371.684 72.8546V71.0546H373.34V80.9186H371.684V79.0826C371.36 79.6586 370.874 80.1386 370.226 80.5226C369.59 80.8946 368.846 81.0806 367.994 81.0806C367.118 81.0806 366.326 80.8646 365.618 80.4326C364.91 80.0006 364.352 79.3946 363.944 78.6146C363.536 77.8346 363.332 76.9466 363.332 75.9506ZM371.684 75.9686C371.684 75.2246 371.534 74.5766 371.234 74.0246C370.934 73.4726 370.526 73.0526 370.01 72.7646C369.506 72.4646 368.948 72.3146 368.336 72.3146C367.724 72.3146 367.166 72.4586 366.662 72.7466C366.158 73.0346 365.756 73.4546 365.456 74.0066C365.156 74.5586 365.006 75.2066 365.006 75.9506C365.006 76.7066 365.156 77.3666 365.456 77.9306C365.756 78.4826 366.158 78.9086 366.662 79.2086C367.166 79.4966 367.724 79.6406 368.336 79.6406C368.948 79.6406 369.506 79.4966 370.01 79.2086C370.526 78.9086 370.934 78.4826 371.234 77.9306C371.534 77.3666 371.684 76.7126 371.684 75.9686Z" fill="black"/>
<path d="M361.782 75.6086C361.782 75.9206 361.764 76.2506 361.728 76.5986H353.844C353.904 77.5706 354.234 78.3326 354.834 78.8846C355.446 79.4246 356.184 79.6946 357.048 79.6946C357.756 79.6946 358.344 79.5326 358.812 79.2086C359.292 78.8726 359.628 78.4286 359.82 77.8766H361.584C361.32 78.8246 360.792 79.5986 360 80.1986C359.208 80.7866 358.224 81.0806 357.048 81.0806C356.112 81.0806 355.272 80.8706 354.528 80.4506C353.796 80.0306 353.22 79.4366 352.8 78.6686C352.38 77.8886 352.17 76.9886 352.17 75.9686C352.17 74.9486 352.374 74.0546 352.782 73.2866C353.19 72.5186 353.76 71.9306 354.492 71.5226C355.236 71.1026 356.088 70.8926 357.048 70.8926C357.984 70.8926 358.812 71.0966 359.532 71.5046C360.252 71.9126 360.804 72.4766 361.188 73.1966C361.584 73.9046 361.782 74.7086 361.782 75.6086ZM360.09 75.2666C360.09 74.6426 359.952 74.1086 359.676 73.6646C359.4 73.2086 359.022 72.8666 358.542 72.6386C358.074 72.3986 357.552 72.2786 356.976 72.2786C356.148 72.2786 355.44 72.5426 354.852 73.0706C354.276 73.5986 353.946 74.3306 353.862 75.2666H360.09Z" fill="black"/>
<path d="M341.277 70.875C342.477 70.875 343.449 71.241 344.193 71.973C344.937 72.693 345.309 73.737 345.309 75.105V80.919H343.689V75.339C343.689 74.355 343.443 73.605 342.951 73.089C342.459 72.561 341.787 72.297 340.935 72.297C340.071 72.297 339.381 72.567 338.865 73.107C338.361 73.647 338.109 74.433 338.109 75.465V80.919H336.471V71.055H338.109V72.459C338.433 71.955 338.871 71.565 339.423 71.289C339.987 71.013 340.605 70.875 341.277 70.875Z" fill="black"/>
<path d="M329.258 81.0806C328.334 81.0806 327.494 80.8706 326.738 80.4506C325.994 80.0306 325.406 79.4366 324.974 78.6686C324.554 77.8886 324.344 76.9886 324.344 75.9686C324.344 74.9606 324.56 74.0726 324.992 73.3046C325.436 72.5246 326.036 71.9306 326.792 71.5226C327.548 71.1026 328.394 70.8926 329.33 70.8926C330.266 70.8926 331.112 71.1026 331.868 71.5226C332.624 71.9306 333.218 72.5186 333.65 73.2866C334.094 74.0546 334.316 74.9486 334.316 75.9686C334.316 76.9886 334.088 77.8886 333.632 78.6686C333.188 79.4366 332.582 80.0306 331.814 80.4506C331.046 80.8706 330.194 81.0806 329.258 81.0806ZM329.258 79.6406C329.846 79.6406 330.398 79.5026 330.914 79.2266C331.43 78.9506 331.844 78.5366 332.156 77.9846C332.48 77.4326 332.642 76.7606 332.642 75.9686C332.642 75.1766 332.486 74.5046 332.174 73.9526C331.862 73.4006 331.454 72.9926 330.95 72.7286C330.446 72.4526 329.9 72.3146 329.312 72.3146C328.712 72.3146 328.16 72.4526 327.656 72.7286C327.164 72.9926 326.768 73.4006 326.468 73.9526C326.168 74.5046 326.018 75.1766 326.018 75.9686C326.018 76.7726 326.162 77.4506 326.45 78.0026C326.75 78.5546 327.146 78.9686 327.638 79.2446C328.13 79.5086 328.67 79.6406 329.258 79.6406Z" fill="black"/>
<path d="M307.381 75.9506C307.381 74.9426 307.585 74.0606 307.993 73.3046C308.401 72.5366 308.959 71.9426 309.667 71.5226C310.387 71.1026 311.191 70.8926 312.079 70.8926C312.847 70.8926 313.561 71.0726 314.221 71.4326C314.881 71.7806 315.385 72.2426 315.733 72.8186V67.5986H317.389V80.9186H315.733V79.0646C315.409 79.6526 314.929 80.1386 314.293 80.5226C313.657 80.8946 312.913 81.0806 312.061 81.0806C311.185 81.0806 310.387 80.8646 309.667 80.4326C308.959 80.0006 308.401 79.3946 307.993 78.6146C307.585 77.8346 307.381 76.9466 307.381 75.9506ZM315.733 75.9686C315.733 75.2246 315.583 74.5766 315.283 74.0246C314.983 73.4726 314.575 73.0526 314.059 72.7646C313.555 72.4646 312.997 72.3146 312.385 72.3146C311.773 72.3146 311.215 72.4586 310.711 72.7466C310.207 73.0346 309.805 73.4546 309.505 74.0066C309.205 74.5586 309.055 75.2066 309.055 75.9506C309.055 76.7066 309.205 77.3666 309.505 77.9306C309.805 78.4826 310.207 78.9086 310.711 79.2086C311.215 79.4966 311.773 79.6406 312.385 79.6406C312.997 79.6406 313.555 79.4966 314.059 79.2086C314.575 78.9086 314.983 78.4826 315.283 77.9306C315.583 77.3666 315.733 76.7126 315.733 75.9686Z" fill="black"/>
<path d="M305.831 75.6086C305.831 75.9206 305.813 76.2506 305.777 76.5986H297.893C297.953 77.5706 298.283 78.3326 298.883 78.8846C299.495 79.4246 300.233 79.6946 301.097 79.6946C301.805 79.6946 302.393 79.5326 302.861 79.2086C303.341 78.8726 303.677 78.4286 303.869 77.8766H305.633C305.369 78.8246 304.841 79.5986 304.049 80.1986C303.257 80.7866 302.273 81.0806 301.097 81.0806C300.161 81.0806 299.321 80.8706 298.577 80.4506C297.845 80.0306 297.269 79.4366 296.849 78.6686C296.429 77.8886 296.219 76.9886 296.219 75.9686C296.219 74.9486 296.423 74.0546 296.831 73.2866C297.239 72.5186 297.809 71.9306 298.541 71.5226C299.285 71.1026 300.137 70.8926 301.097 70.8926C302.033 70.8926 302.861 71.0966 303.581 71.5046C304.301 71.9126 304.853 72.4766 305.237 73.1966C305.633 73.9046 305.831 74.7086 305.831 75.6086ZM304.139 75.2666C304.139 74.6426 304.001 74.1086 303.725 73.6646C303.449 73.2086 303.071 72.8666 302.591 72.6386C302.123 72.3986 301.601 72.2786 301.025 72.2786C300.197 72.2786 299.489 72.5426 298.901 73.0706C298.325 73.5986 297.995 74.3306 297.911 75.2666H304.139Z" fill="black"/>
<path d="M290.919 81.0806C290.163 81.0806 289.485 80.9546 288.885 80.7026C288.285 80.4386 287.811 80.0786 287.463 79.6226C287.115 79.1546 286.923 78.6206 286.887 78.0206H288.579C288.627 78.5126 288.855 78.9146 289.263 79.2266C289.683 79.5386 290.229 79.6946 290.901 79.6946C291.525 79.6946 292.017 79.5566 292.377 79.2806C292.737 79.0046 292.917 78.6566 292.917 78.2366C292.917 77.8046 292.725 77.4866 292.341 77.2826C291.957 77.0666 291.363 76.8566 290.559 76.6526C289.827 76.4606 289.227 76.2686 288.759 76.0766C288.303 75.8726 287.907 75.5786 287.571 75.1946C287.247 74.7986 287.085 74.2826 287.085 73.6466C287.085 73.1426 287.235 72.6806 287.535 72.2606C287.835 71.8406 288.261 71.5106 288.813 71.2706C289.365 71.0186 289.995 70.8926 290.703 70.8926C291.795 70.8926 292.677 71.1686 293.349 71.7206C294.021 72.2726 294.381 73.0286 294.429 73.9886H292.791C292.755 73.4726 292.545 73.0586 292.161 72.7466C291.789 72.4346 291.285 72.2786 290.649 72.2786C290.061 72.2786 289.593 72.4046 289.245 72.6566C288.897 72.9086 288.723 73.2386 288.723 73.6466C288.723 73.9706 288.825 74.2406 289.029 74.4566C289.245 74.6606 289.509 74.8286 289.821 74.9606C290.145 75.0806 290.589 75.2186 291.153 75.3746C291.861 75.5666 292.437 75.7586 292.881 75.9506C293.325 76.1306 293.703 76.4066 294.015 76.7786C294.339 77.1506 294.507 77.6366 294.519 78.2366C294.519 78.7766 294.369 79.2626 294.069 79.6946C293.769 80.1266 293.343 80.4686 292.791 80.7206C292.251 80.9606 291.627 81.0806 290.919 81.0806Z" fill="black"/>
<path d="M284.662 71.0547V80.9187H283.024V79.4607C282.712 79.9647 282.274 80.3607 281.71 80.6487C281.158 80.9247 280.546 81.0627 279.874 81.0627C279.106 81.0627 278.416 80.9067 277.804 80.5947C277.192 80.2707 276.706 79.7907 276.346 79.1547C275.998 78.5187 275.824 77.7447 275.824 76.8327V71.0547H277.444V76.6167C277.444 77.5887 277.69 78.3387 278.182 78.8667C278.674 79.3827 279.346 79.6407 280.198 79.6407C281.074 79.6407 281.764 79.3707 282.268 78.8307C282.772 78.2907 283.024 77.5047 283.024 76.4727V71.0547H284.662Z" fill="black"/>
<path d="M264.367 75.9686C264.367 74.9486 264.571 74.0606 264.979 73.3046C265.387 72.5366 265.951 71.9426 266.671 71.5226C267.403 71.1026 268.237 70.8926 269.173 70.8926C270.385 70.8926 271.381 71.1866 272.161 71.7746C272.953 72.3626 273.475 73.1786 273.727 74.2226H271.963C271.795 73.6226 271.465 73.1486 270.973 72.8006C270.493 72.4526 269.893 72.2786 269.173 72.2786C268.237 72.2786 267.481 72.6026 266.905 73.2506C266.329 73.8866 266.041 74.7926 266.041 75.9686C266.041 77.1566 266.329 78.0746 266.905 78.7226C267.481 79.3706 268.237 79.6946 269.173 79.6946C269.893 79.6946 270.493 79.5266 270.973 79.1906C271.453 78.8546 271.783 78.3746 271.963 77.7506H273.727C273.463 78.7586 272.935 79.5686 272.143 80.1806C271.351 80.7806 270.361 81.0806 269.173 81.0806C268.237 81.0806 267.403 80.8706 266.671 80.4506C265.951 80.0306 265.387 79.4366 264.979 78.6686C264.571 77.9006 264.367 77.0006 264.367 75.9686Z" fill="black"/>
<path d="M257.768 81.0806C256.844 81.0806 256.004 80.8706 255.248 80.4506C254.504 80.0306 253.916 79.4366 253.484 78.6686C253.064 77.8886 252.854 76.9886 252.854 75.9686C252.854 74.9606 253.07 74.0726 253.502 73.3046C253.946 72.5246 254.546 71.9306 255.302 71.5226C256.058 71.1026 256.904 70.8926 257.84 70.8926C258.776 70.8926 259.622 71.1026 260.378 71.5226C261.134 71.9306 261.728 72.5186 262.16 73.2866C262.604 74.0546 262.826 74.9486 262.826 75.9686C262.826 76.9886 262.598 77.8886 262.142 78.6686C261.698 79.4366 261.092 80.0306 260.324 80.4506C259.556 80.8706 258.704 81.0806 257.768 81.0806ZM257.768 79.6406C258.356 79.6406 258.908 79.5026 259.424 79.2266C259.94 78.9506 260.354 78.5366 260.666 77.9846C260.99 77.4326 261.152 76.7606 261.152 75.9686C261.152 75.1766 260.996 74.5046 260.684 73.9526C260.372 73.4006 259.964 72.9926 259.46 72.7286C258.956 72.4526 258.41 72.3146 257.822 72.3146C257.222 72.3146 256.67 72.4526 256.166 72.7286C255.674 72.9926 255.278 73.4006 254.978 73.9526C254.678 74.5046 254.528 75.1766 254.528 75.9686C254.528 76.7726 254.672 77.4506 254.96 78.0026C255.26 78.5546 255.656 78.9686 256.148 79.2446C256.64 79.5086 257.18 79.6406 257.768 79.6406Z" fill="black"/>
<path d="M251.556 72.405H249.486V80.919H247.848V72.405H246.57V71.055H247.848V70.353C247.848 69.249 248.13 68.445 248.694 67.941C249.27 67.425 250.188 67.167 251.448 67.167V68.535C250.728 68.535 250.218 68.679 249.918 68.967C249.63 69.243 249.486 69.705 249.486 70.353V71.055H251.556V72.405Z" fill="black"/>
<path d="M229.967 75.9506C229.967 74.9426 230.171 74.0606 230.579 73.3046C230.987 72.5366 231.545 71.9426 232.253 71.5226C232.973 71.1026 233.777 70.8926 234.665 70.8926C235.433 70.8926 236.147 71.0726 236.807 71.4326C237.467 71.7806 237.971 72.2426 238.319 72.8186V67.5986H239.975V80.9186H238.319V79.0646C237.995 79.6526 237.515 80.1386 236.879 80.5226C236.243 80.8946 235.499 81.0806 234.647 81.0806C233.771 81.0806 232.973 80.8646 232.253 80.4326C231.545 80.0006 230.987 79.3946 230.579 78.6146C230.171 77.8346 229.967 76.9466 229.967 75.9506ZM238.319 75.9686C238.319 75.2246 238.169 74.5766 237.869 74.0246C237.569 73.4726 237.161 73.0526 236.645 72.7646C236.141 72.4646 235.583 72.3146 234.971 72.3146C234.359 72.3146 233.801 72.4586 233.297 72.7466C232.793 73.0346 232.391 73.4546 232.091 74.0066C231.791 74.5586 231.641 75.2066 231.641 75.9506C231.641 76.7066 231.791 77.3666 232.091 77.9306C232.391 78.4826 232.793 78.9086 233.297 79.2086C233.801 79.4966 234.359 79.6406 234.971 79.6406C235.583 79.6406 236.141 79.4966 236.645 79.2086C237.161 78.9086 237.569 78.4826 237.869 77.9306C238.169 77.3666 238.319 76.7126 238.319 75.9686Z" fill="black"/>
<path d="M223.872 70.875C225.072 70.875 226.044 71.241 226.788 71.973C227.532 72.693 227.904 73.737 227.904 75.105V80.919H226.284V75.339C226.284 74.355 226.038 73.605 225.546 73.089C225.054 72.561 224.382 72.297 223.53 72.297C222.666 72.297 221.976 72.567 221.46 73.107C220.956 73.647 220.704 74.433 220.704 75.465V80.919H219.066V71.055H220.704V72.459C221.028 71.955 221.466 71.565 222.018 71.289C222.582 71.013 223.2 70.875 223.872 70.875Z" fill="black"/>
<path d="M206.289 75.9506C206.289 74.9426 206.493 74.0606 206.901 73.3046C207.309 72.5366 207.867 71.9426 208.575 71.5226C209.295 71.1026 210.093 70.8926 210.969 70.8926C211.833 70.8926 212.583 71.0786 213.219 71.4506C213.855 71.8226 214.329 72.2906 214.641 72.8546V71.0546H216.297V80.9186H214.641V79.0826C214.317 79.6586 213.831 80.1386 213.183 80.5226C212.547 80.8946 211.803 81.0806 210.951 81.0806C210.075 81.0806 209.283 80.8646 208.575 80.4326C207.867 80.0006 207.309 79.3946 206.901 78.6146C206.493 77.8346 206.289 76.9466 206.289 75.9506ZM214.641 75.9686C214.641 75.2246 214.491 74.5766 214.191 74.0246C213.891 73.4726 213.483 73.0526 212.967 72.7646C212.463 72.4646 211.905 72.3146 211.293 72.3146C210.681 72.3146 210.123 72.4586 209.619 72.7466C209.115 73.0346 208.713 73.4546 208.413 74.0066C208.113 74.5586 207.963 75.2066 207.963 75.9506C207.963 76.7066 208.113 77.3666 208.413 77.9306C208.713 78.4826 209.115 78.9086 209.619 79.2086C210.123 79.4966 210.681 79.6406 211.293 79.6406C211.905 79.6406 212.463 79.4966 212.967 79.2086C213.483 78.9086 213.891 78.4826 214.191 77.9306C214.491 77.3666 214.641 76.7126 214.641 75.9686Z" fill="black"/>
<path d="M196.19 81.0806C195.434 81.0806 194.756 80.9546 194.156 80.7026C193.556 80.4386 193.082 80.0786 192.734 79.6226C192.386 79.1546 192.194 78.6206 192.158 78.0206H193.85C193.898 78.5126 194.126 78.9146 194.534 79.2266C194.954 79.5386 195.5 79.6946 196.172 79.6946C196.796 79.6946 197.288 79.5566 197.648 79.2806C198.008 79.0046 198.188 78.6566 198.188 78.2366C198.188 77.8046 197.996 77.4866 197.612 77.2826C197.228 77.0666 196.634 76.8566 195.83 76.6526C195.098 76.4606 194.498 76.2686 194.03 76.0766C193.574 75.8726 193.178 75.5786 192.842 75.1946C192.518 74.7986 192.356 74.2826 192.356 73.6466C192.356 73.1426 192.506 72.6806 192.806 72.2606C193.106 71.8406 193.532 71.5106 194.084 71.2706C194.636 71.0186 195.266 70.8926 195.974 70.8926C197.066 70.8926 197.948 71.1686 198.62 71.7206C199.292 72.2726 199.652 73.0286 199.7 73.9886H198.062C198.026 73.4726 197.816 73.0586 197.432 72.7466C197.06 72.4346 196.556 72.2786 195.92 72.2786C195.332 72.2786 194.864 72.4046 194.516 72.6566C194.168 72.9086 193.994 73.2386 193.994 73.6466C193.994 73.9706 194.096 74.2406 194.3 74.4566C194.516 74.6606 194.78 74.8286 195.092 74.9606C195.416 75.0806 195.86 75.2186 196.424 75.3746C197.132 75.5666 197.708 75.7586 198.152 75.9506C198.596 76.1306 198.974 76.4066 199.286 76.7786C199.61 77.1506 199.778 77.6366 199.79 78.2366C199.79 78.7766 199.64 79.2626 199.34 79.6946C199.04 80.1266 198.614 80.4686 198.062 80.7206C197.522 80.9606 196.898 81.0806 196.19 81.0806Z" fill="black"/>
<path d="M190.536 75.6086C190.536 75.9206 190.518 76.2506 190.482 76.5986H182.598C182.658 77.5706 182.988 78.3326 183.588 78.8846C184.2 79.4246 184.938 79.6946 185.802 79.6946C186.51 79.6946 187.098 79.5326 187.566 79.2086C188.046 78.8726 188.382 78.4286 188.574 77.8766H190.338C190.074 78.8246 189.546 79.5986 188.754 80.1986C187.962 80.7866 186.978 81.0806 185.802 81.0806C184.866 81.0806 184.026 80.8706 183.282 80.4506C182.55 80.0306 181.974 79.4366 181.554 78.6686C181.134 77.8886 180.924 76.9886 180.924 75.9686C180.924 74.9486 181.128 74.0546 181.536 73.2866C181.944 72.5186 182.514 71.9306 183.246 71.5226C183.99 71.1026 184.842 70.8926 185.802 70.8926C186.738 70.8926 187.566 71.0966 188.286 71.5046C189.006 71.9126 189.558 72.4766 189.942 73.1966C190.338 73.9046 190.536 74.7086 190.536 75.6086ZM188.844 75.2666C188.844 74.6426 188.706 74.1086 188.43 73.6646C188.154 73.2086 187.776 72.8666 187.296 72.6386C186.828 72.3986 186.306 72.2786 185.73 72.2786C184.902 72.2786 184.194 72.5426 183.606 73.0706C183.03 73.5986 182.7 74.3306 182.616 75.2666H188.844Z" fill="black"/>
<path d="M178.745 67.5986V80.9186H177.107V67.5986H178.745Z" fill="black"/>
<path d="M173.522 69.4527C173.21 69.4527 172.946 69.3447 172.73 69.1287C172.514 68.9127 172.406 68.6487 172.406 68.3367C172.406 68.0247 172.514 67.7607 172.73 67.5447C172.946 67.3287 173.21 67.2207 173.522 67.2207C173.822 67.2207 174.074 67.3287 174.278 67.5447C174.494 67.7607 174.602 68.0247 174.602 68.3367C174.602 68.6487 174.494 68.9127 174.278 69.1287C174.074 69.3447 173.822 69.4527 173.522 69.4527ZM174.314 71.0547V80.9187H172.676V71.0547H174.314Z" fill="black"/>
<path d="M170.767 72.405H168.697V80.919H167.059V72.405H165.781V71.055H167.059V70.353C167.059 69.249 167.341 68.445 167.905 67.941C168.481 67.425 169.399 67.167 170.659 67.167V68.535C169.939 68.535 169.429 68.679 169.129 68.967C168.841 69.243 168.697 69.705 168.697 70.353V71.055H170.767V72.405Z" fill="black"/>
<path d="M159.541 81.0806C158.617 81.0806 157.777 80.8706 157.021 80.4506C156.277 80.0306 155.689 79.4366 155.257 78.6686C154.837 77.8886 154.627 76.9886 154.627 75.9686C154.627 74.9606 154.843 74.0726 155.275 73.3046C155.719 72.5246 156.319 71.9306 157.075 71.5226C157.831 71.1026 158.677 70.8926 159.613 70.8926C160.549 70.8926 161.395 71.1026 162.151 71.5226C162.907 71.9306 163.501 72.5186 163.933 73.2866C164.377 74.0546 164.599 74.9486 164.599 75.9686C164.599 76.9886 164.371 77.8886 163.915 78.6686C163.471 79.4366 162.865 80.0306 162.097 80.4506C161.329 80.8706 160.477 81.0806 159.541 81.0806ZM159.541 79.6406C160.129 79.6406 160.681 79.5026 161.197 79.2266C161.713 78.9506 162.127 78.5366 162.439 77.9846C162.763 77.4326 162.925 76.7606 162.925 75.9686C162.925 75.1766 162.769 74.5046 162.457 73.9526C162.145 73.4006 161.737 72.9926 161.233 72.7286C160.729 72.4526 160.183 72.3146 159.595 72.3146C158.995 72.3146 158.443 72.4526 157.939 72.7286C157.447 72.9926 157.051 73.4006 156.751 73.9526C156.451 74.5046 156.301 75.1766 156.301 75.9686C156.301 76.7726 156.445 77.4506 156.733 78.0026C157.033 78.5546 157.429 78.9686 157.921 79.2446C158.413 79.5086 158.953 79.6406 159.541 79.6406Z" fill="black"/>
<path d="M150.163 72.657C150.451 72.093 150.859 71.655 151.387 71.343C151.927 71.031 152.581 70.875 153.349 70.875V72.567H152.917C151.081 72.567 150.163 73.563 150.163 75.555V80.919H148.525V71.055H150.163V72.657Z" fill="black"/>
<path d="M137.999 72.8726C138.323 72.3086 138.803 71.8406 139.439 71.4686C140.087 71.0846 140.837 70.8926 141.689 70.8926C142.565 70.8926 143.357 71.1026 144.065 71.5226C144.785 71.9426 145.349 72.5366 145.757 73.3046C146.165 74.0606 146.369 74.9426 146.369 75.9506C146.369 76.9466 146.165 77.8346 145.757 78.6146C145.349 79.3946 144.785 80.0006 144.065 80.4326C143.357 80.8646 142.565 81.0806 141.689 81.0806C140.849 81.0806 140.105 80.8946 139.457 80.5226C138.821 80.1386 138.335 79.6646 137.999 79.1006V85.5986H136.361V71.0546H137.999V72.8726ZM144.695 75.9506C144.695 75.2066 144.545 74.5586 144.245 74.0066C143.945 73.4546 143.537 73.0346 143.021 72.7466C142.517 72.4586 141.959 72.3146 141.347 72.3146C140.747 72.3146 140.189 72.4646 139.673 72.7646C139.169 73.0526 138.761 73.4786 138.449 74.0426C138.149 74.5946 137.999 75.2366 137.999 75.9686C137.999 76.7126 138.149 77.3666 138.449 77.9306C138.761 78.4826 139.169 78.9086 139.673 79.2086C140.189 79.4966 140.747 79.6406 141.347 79.6406C141.959 79.6406 142.517 79.4966 143.021 79.2086C143.537 78.9086 143.945 78.4826 144.245 77.9306C144.545 77.3666 144.695 76.7066 144.695 75.9506Z" fill="black"/>
<path d="M734.995 54.0806C734.239 54.0806 733.561 53.9546 732.961 53.7026C732.361 53.4386 731.887 53.0786 731.539 52.6226C731.191 52.1546 730.999 51.6206 730.963 51.0206H732.655C732.703 51.5126 732.931 51.9146 733.339 52.2266C733.759 52.5386 734.305 52.6946 734.977 52.6946C735.601 52.6946 736.093 52.5566 736.453 52.2806C736.813 52.0046 736.993 51.6566 736.993 51.2366C736.993 50.8046 736.801 50.4866 736.417 50.2826C736.033 50.0666 735.439 49.8566 734.635 49.6526C733.903 49.4606 733.303 49.2686 732.835 49.0766C732.379 48.8726 731.983 48.5786 731.647 48.1946C731.323 47.7986 731.161 47.2826 731.161 46.6466C731.161 46.1426 731.311 45.6806 731.611 45.2606C731.911 44.8406 732.337 44.5106 732.889 44.2706C733.441 44.0186 734.071 43.8926 734.779 43.8926C735.871 43.8926 736.753 44.1686 737.425 44.7206C738.097 45.2726 738.457 46.0286 738.505 46.9886H736.867C736.831 46.4726 736.621 46.0586 736.237 45.7466C735.865 45.4346 735.361 45.2786 734.725 45.2786C734.137 45.2786 733.669 45.4046 733.321 45.6566C732.973 45.9086 732.799 46.2386 732.799 46.6466C732.799 46.9706 732.901 47.2406 733.105 47.4566C733.321 47.6606 733.585 47.8286 733.897 47.9606C734.221 48.0806 734.665 48.2186 735.229 48.3746C735.937 48.5666 736.513 48.7586 736.957 48.9506C737.401 49.1306 737.779 49.4066 738.091 49.7786C738.415 50.1506 738.583 50.6366 738.595 51.2366C738.595 51.7766 738.445 52.2626 738.145 52.6946C737.845 53.1266 737.419 53.4686 736.867 53.7206C736.327 53.9606 735.703 54.0806 734.995 54.0806Z" fill="black"/>
<path d="M718.727 48.9506C718.727 47.9426 718.931 47.0606 719.339 46.3046C719.747 45.5366 720.305 44.9426 721.013 44.5226C721.733 44.1026 722.531 43.8926 723.407 43.8926C724.271 43.8926 725.021 44.0786 725.657 44.4506C726.293 44.8226 726.767 45.2906 727.079 45.8546V44.0546H728.735V53.9186H727.079V52.0826C726.755 52.6586 726.269 53.1386 725.621 53.5226C724.985 53.8946 724.241 54.0806 723.389 54.0806C722.513 54.0806 721.721 53.8646 721.013 53.4326C720.305 53.0006 719.747 52.3946 719.339 51.6146C718.931 50.8346 718.727 49.9466 718.727 48.9506ZM727.079 48.9686C727.079 48.2246 726.929 47.5766 726.629 47.0246C726.329 46.4726 725.921 46.0526 725.405 45.7646C724.901 45.4646 724.343 45.3146 723.731 45.3146C723.119 45.3146 722.561 45.4586 722.057 45.7466C721.553 46.0346 721.151 46.4546 720.851 47.0066C720.551 47.5586 720.401 48.2066 720.401 48.9506C720.401 49.7066 720.551 50.3666 720.851 50.9306C721.151 51.4826 721.553 51.9086 722.057 52.2086C722.561 52.4966 723.119 52.6406 723.731 52.6406C724.343 52.6406 724.901 52.4966 725.405 52.2086C725.921 51.9086 726.329 51.4826 726.629 50.9306C726.929 50.3666 727.079 49.7126 727.079 48.9686Z" fill="black"/>
<path d="M711.242 43.8926C712.094 43.8926 712.838 44.0786 713.474 44.4506C714.122 44.8226 714.602 45.2906 714.914 45.8546V44.0546H716.57V54.1346C716.57 55.0346 716.379 55.8326 715.995 56.5286C715.611 57.2366 715.059 57.7886 714.339 58.1846C713.631 58.5806 712.802 58.7786 711.854 58.7786C710.558 58.7786 709.479 58.4726 708.615 57.8606C707.751 57.2486 707.241 56.4146 707.085 55.3586H708.705C708.885 55.9586 709.256 56.4386 709.82 56.7986C710.384 57.1706 711.062 57.3566 711.854 57.3566C712.754 57.3566 713.487 57.0746 714.051 56.5106C714.627 55.9466 714.914 55.1546 714.914 54.1346V52.0646C714.59 52.6406 714.11 53.1206 713.474 53.5046C712.838 53.8886 712.094 54.0806 711.242 54.0806C710.366 54.0806 709.569 53.8646 708.849 53.4326C708.141 53.0006 707.582 52.3946 707.174 51.6146C706.766 50.8346 706.562 49.9466 706.562 48.9506C706.562 47.9426 706.766 47.0606 707.174 46.3046C707.582 45.5366 708.141 44.9426 708.849 44.5226C709.569 44.1026 710.366 43.8926 711.242 43.8926ZM714.914 48.9686C714.914 48.2246 714.765 47.5766 714.465 47.0246C714.165 46.4726 713.757 46.0526 713.241 45.7646C712.737 45.4646 712.179 45.3146 711.567 45.3146C710.955 45.3146 710.397 45.4586 709.893 45.7466C709.389 46.0346 708.987 46.4546 708.687 47.0066C708.387 47.5586 708.237 48.2066 708.237 48.9506C708.237 49.7066 708.387 50.3666 708.687 50.9306C708.987 51.4826 709.389 51.9086 709.893 52.2086C710.397 52.4966 710.955 52.6406 711.567 52.6406C712.179 52.6406 712.737 52.4966 713.241 52.2086C713.757 51.9086 714.165 51.4826 714.465 50.9306C714.765 50.3666 714.914 49.7126 714.914 48.9686Z" fill="black"/>
<path d="M700.214 48.6086C700.214 48.9206 700.196 49.2506 700.16 49.5986H692.276C692.336 50.5706 692.666 51.3326 693.266 51.8846C693.878 52.4246 694.616 52.6946 695.48 52.6946C696.188 52.6946 696.776 52.5326 697.244 52.2086C697.724 51.8726 698.06 51.4286 698.252 50.8766H700.016C699.752 51.8246 699.224 52.5986 698.432 53.1986C697.64 53.7866 696.656 54.0806 695.48 54.0806C694.544 54.0806 693.704 53.8706 692.96 53.4506C692.228 53.0306 691.652 52.4366 691.232 51.6686C690.812 50.8886 690.602 49.9886 690.602 48.9686C690.602 47.9486 690.806 47.0546 691.214 46.2866C691.622 45.5186 692.192 44.9306 692.924 44.5226C693.668 44.1026 694.52 43.8926 695.48 43.8926C696.416 43.8926 697.244 44.0966 697.964 44.5046C698.684 44.9126 699.236 45.4766 699.62 46.1966C700.016 46.9046 700.214 47.7086 700.214 48.6086ZM698.522 48.2666C698.522 47.6426 698.384 47.1086 698.108 46.6646C697.832 46.2086 697.454 45.8666 696.974 45.6386C696.506 45.3986 695.984 45.2786 695.408 45.2786C694.58 45.2786 693.872 45.5426 693.284 46.0706C692.708 46.5986 692.378 47.3306 692.294 48.2666H698.522Z" fill="black"/>
<path d="M685.302 54.0806C684.546 54.0806 683.868 53.9546 683.268 53.7026C682.668 53.4386 682.194 53.0786 681.846 52.6226C681.498 52.1546 681.306 51.6206 681.27 51.0206H682.962C683.01 51.5126 683.238 51.9146 683.646 52.2266C684.066 52.5386 684.612 52.6946 685.284 52.6946C685.908 52.6946 686.4 52.5566 686.76 52.2806C687.12 52.0046 687.299 51.6566 687.299 51.2366C687.299 50.8046 687.108 50.4866 686.724 50.2826C686.34 50.0666 685.746 49.8566 684.942 49.6526C684.21 49.4606 683.61 49.2686 683.142 49.0766C682.686 48.8726 682.29 48.5786 681.954 48.1946C681.63 47.7986 681.468 47.2826 681.468 46.6466C681.468 46.1426 681.618 45.6806 681.918 45.2606C682.218 44.8406 682.643 44.5106 683.195 44.2706C683.747 44.0186 684.378 43.8926 685.086 43.8926C686.178 43.8926 687.06 44.1686 687.732 44.7206C688.404 45.2726 688.764 46.0286 688.812 46.9886H687.174C687.138 46.4726 686.928 46.0586 686.544 45.7466C686.172 45.4346 685.667 45.2786 685.031 45.2786C684.443 45.2786 683.976 45.4046 683.628 45.6566C683.28 45.9086 683.106 46.2386 683.106 46.6466C683.106 46.9706 683.207 47.2406 683.411 47.4566C683.627 47.6606 683.892 47.8286 684.204 47.9606C684.528 48.0806 684.972 48.2186 685.536 48.3746C686.244 48.5666 686.82 48.7586 687.264 48.9506C687.708 49.1306 688.086 49.4066 688.398 49.7786C688.722 50.1506 688.89 50.6366 688.902 51.2366C688.902 51.7766 688.752 52.2626 688.452 52.6946C688.152 53.1266 687.726 53.4686 687.174 53.7206C686.634 53.9606 686.01 54.0806 685.302 54.0806Z" fill="black"/>
<path d="M679.045 44.0547V53.9187H677.407V52.4607C677.095 52.9647 676.657 53.3607 676.093 53.6487C675.541 53.9247 674.929 54.0627 674.257 54.0627C673.489 54.0627 672.799 53.9067 672.187 53.5947C671.575 53.2707 671.089 52.7907 670.729 52.1547C670.381 51.5187 670.207 50.7447 670.207 49.8327V44.0547H671.827V49.6167C671.827 50.5887 672.073 51.3387 672.565 51.8667C673.057 52.3827 673.729 52.6407 674.581 52.6407C675.457 52.6407 676.147 52.3707 676.651 51.8307C677.155 51.2907 677.407 50.5047 677.407 49.4727V44.0547H679.045Z" fill="black"/>
<path d="M663.084 54.0806C662.16 54.0806 661.32 53.8706 660.564 53.4506C659.82 53.0306 659.232 52.4366 658.8 51.6686C658.38 50.8886 658.17 49.9886 658.17 48.9686C658.17 47.9606 658.386 47.0726 658.818 46.3046C659.262 45.5246 659.862 44.9306 660.618 44.5226C661.374 44.1026 662.22 43.8926 663.156 43.8926C664.092 43.8926 664.938 44.1026 665.694 44.5226C666.45 44.9306 667.044 45.5186 667.476 46.2866C667.92 47.0546 668.142 47.9486 668.142 48.9686C668.142 49.9886 667.914 50.8886 667.458 51.6686C667.014 52.4366 666.408 53.0306 665.64 53.4506C664.872 53.8706 664.02 54.0806 663.084 54.0806ZM663.084 52.6406C663.672 52.6406 664.224 52.5026 664.74 52.2266C665.256 51.9506 665.67 51.5366 665.982 50.9846C666.306 50.4326 666.468 49.7606 666.468 48.9686C666.468 48.1766 666.312 47.5046 666 46.9526C665.688 46.4006 665.28 45.9926 664.776 45.7286C664.272 45.4526 663.726 45.3146 663.138 45.3146C662.538 45.3146 661.986 45.4526 661.482 45.7286C660.99 45.9926 660.594 46.4006 660.294 46.9526C659.994 47.5046 659.844 48.1766 659.844 48.9686C659.844 49.7726 659.988 50.4506 660.276 51.0026C660.576 51.5546 660.972 51.9686 661.464 52.2446C661.956 52.5086 662.496 52.6406 663.084 52.6406Z" fill="black"/>
<path d="M652.166 43.8746C652.91 43.8746 653.582 44.0366 654.182 44.3606C654.782 44.6726 655.25 45.1466 655.586 45.7826C655.934 46.4186 656.108 47.1926 656.108 48.1046V53.9186H654.488V48.3386C654.488 47.3546 654.242 46.6046 653.75 46.0886C653.258 45.5606 652.586 45.2966 651.734 45.2966C650.87 45.2966 650.18 45.5666 649.664 46.1066C649.16 46.6466 648.908 47.4326 648.908 48.4646V53.9186H647.27V40.5986H648.908V45.4586C649.232 44.9546 649.676 44.5646 650.24 44.2886C650.816 44.0126 651.458 43.8746 652.166 43.8746Z" fill="black"/>
<path d="M640.562 43.875C641.762 43.875 642.734 44.241 643.478 44.973C644.222 45.693 644.594 46.737 644.594 48.105V53.919H642.974V48.339C642.974 47.355 642.728 46.605 642.236 46.089C641.744 45.561 641.072 45.297 640.22 45.297C639.356 45.297 638.666 45.567 638.15 46.107C637.646 46.647 637.394 47.433 637.394 48.465V53.919H635.756V44.055H637.394V45.459C637.718 44.955 638.156 44.565 638.708 44.289C639.272 44.013 639.89 43.875 640.562 43.875Z" fill="black"/>
<path d="M633.592 48.6086C633.592 48.9206 633.574 49.2506 633.538 49.5986H625.654C625.714 50.5706 626.044 51.3326 626.644 51.8846C627.256 52.4246 627.994 52.6946 628.858 52.6946C629.566 52.6946 630.154 52.5326 630.622 52.2086C631.102 51.8726 631.438 51.4286 631.63 50.8766H633.394C633.13 51.8246 632.602 52.5986 631.81 53.1986C631.018 53.7866 630.034 54.0806 628.858 54.0806C627.922 54.0806 627.082 53.8706 626.338 53.4506C625.606 53.0306 625.03 52.4366 624.61 51.6686C624.19 50.8886 623.98 49.9886 623.98 48.9686C623.98 47.9486 624.184 47.0546 624.592 46.2866C625 45.5186 625.57 44.9306 626.302 44.5226C627.046 44.1026 627.898 43.8926 628.858 43.8926C629.794 43.8926 630.622 44.0966 631.342 44.5046C632.062 44.9126 632.614 45.4766 632.998 46.1966C633.394 46.9046 633.592 47.7086 633.592 48.6086ZM631.9 48.2666C631.9 47.6426 631.762 47.1086 631.486 46.6646C631.21 46.2086 630.832 45.8666 630.352 45.6386C629.884 45.3986 629.362 45.2786 628.786 45.2786C627.958 45.2786 627.25 45.5426 626.662 46.0706C626.086 46.5986 625.756 47.3306 625.672 48.2666H631.9Z" fill="black"/>
<path d="M622.43 48.6086C622.43 48.9206 622.412 49.2506 622.376 49.5986H614.492C614.552 50.5706 614.882 51.3326 615.482 51.8846C616.094 52.4246 616.832 52.6946 617.696 52.6946C618.404 52.6946 618.992 52.5326 619.46 52.2086C619.94 51.8726 620.276 51.4286 620.468 50.8766H622.232C621.968 51.8246 621.44 52.5986 620.648 53.1986C619.856 53.7866 618.872 54.0806 617.696 54.0806C616.76 54.0806 615.92 53.8706 615.176 53.4506C614.444 53.0306 613.868 52.4366 613.448 51.6686C613.028 50.8886 612.818 49.9886 612.818 48.9686C612.818 47.9486 613.022 47.0546 613.43 46.2866C613.838 45.5186 614.408 44.9306 615.14 44.5226C615.884 44.1026 616.736 43.8926 617.696 43.8926C618.632 43.8926 619.46 44.0966 620.18 44.5046C620.9 44.9126 621.452 45.4766 621.836 46.1966C622.232 46.9046 622.43 47.7086 622.43 48.6086ZM620.738 48.2666C620.738 47.6426 620.6 47.1086 620.324 46.6646C620.048 46.2086 619.67 45.8666 619.19 45.6386C618.722 45.3986 618.2 45.2786 617.624 45.2786C616.796 45.2786 616.088 45.5426 615.5 46.0706C614.924 46.5986 614.594 47.3306 614.51 48.2666H620.738Z" fill="black"/>
<path d="M608.355 45.657C608.643 45.093 609.051 44.655 609.579 44.343C610.119 44.031 610.773 43.875 611.541 43.875V45.567H611.109C609.273 45.567 608.355 46.563 608.355 48.555V53.919H606.717V44.055H608.355V45.657Z" fill="black"/>
<path d="M598.619 43.8926C599.471 43.8926 600.215 44.0786 600.851 44.4506C601.499 44.8226 601.979 45.2906 602.291 45.8546V44.0546H603.947V54.1346C603.947 55.0346 603.755 55.8326 603.371 56.5286C602.987 57.2366 602.435 57.7886 601.715 58.1846C601.007 58.5806 600.179 58.7786 599.231 58.7786C597.935 58.7786 596.855 58.4726 595.991 57.8606C595.127 57.2486 594.617 56.4146 594.461 55.3586H596.081C596.261 55.9586 596.633 56.4386 597.197 56.7986C597.761 57.1706 598.439 57.3566 599.231 57.3566C600.131 57.3566 600.863 57.0746 601.427 56.5106C602.003 55.9466 602.291 55.1546 602.291 54.1346V52.0646C601.967 52.6406 601.487 53.1206 600.851 53.5046C600.215 53.8886 599.471 54.0806 598.619 54.0806C597.743 54.0806 596.945 53.8646 596.225 53.4326C595.517 53.0006 594.959 52.3946 594.551 51.6146C594.143 50.8346 593.939 49.9466 593.939 48.9506C593.939 47.9426 594.143 47.0606 594.551 46.3046C594.959 45.5366 595.517 44.9426 596.225 44.5226C596.945 44.1026 597.743 43.8926 598.619 43.8926ZM602.291 48.9686C602.291 48.2246 602.141 47.5766 601.841 47.0246C601.541 46.4726 601.133 46.0526 600.617 45.7646C600.113 45.4646 599.555 45.3146 598.943 45.3146C598.331 45.3146 597.773 45.4586 597.269 45.7466C596.765 46.0346 596.363 46.4546 596.063 47.0066C595.763 47.5586 595.613 48.2066 595.613 48.9506C595.613 49.7066 595.763 50.3666 596.063 50.9306C596.363 51.4826 596.765 51.9086 597.269 52.2086C597.773 52.4966 598.331 52.6406 598.943 52.6406C599.555 52.6406 600.113 52.4966 600.617 52.2086C601.133 51.9086 601.541 51.4826 601.841 50.9306C602.141 50.3666 602.291 49.7126 602.291 48.9686Z" fill="black"/>
<path d="M587.591 48.6086C587.591 48.9206 587.573 49.2506 587.537 49.5986H579.653C579.713 50.5706 580.043 51.3326 580.643 51.8846C581.255 52.4246 581.993 52.6946 582.857 52.6946C583.565 52.6946 584.153 52.5326 584.621 52.2086C585.101 51.8726 585.437 51.4286 585.629 50.8766H587.393C587.129 51.8246 586.601 52.5986 585.809 53.1986C585.017 53.7866 584.033 54.0806 582.857 54.0806C581.921 54.0806 581.081 53.8706 580.337 53.4506C579.605 53.0306 579.029 52.4366 578.609 51.6686C578.189 50.8886 577.979 49.9886 577.979 48.9686C577.979 47.9486 578.183 47.0546 578.591 46.2866C578.999 45.5186 579.569 44.9306 580.301 44.5226C581.045 44.1026 581.897 43.8926 582.857 43.8926C583.793 43.8926 584.621 44.0966 585.341 44.5046C586.061 44.9126 586.613 45.4766 586.997 46.1966C587.393 46.9046 587.591 47.7086 587.591 48.6086ZM585.899 48.2666C585.899 47.6426 585.761 47.1086 585.485 46.6646C585.209 46.2086 584.831 45.8666 584.351 45.6386C583.883 45.3986 583.361 45.2786 582.785 45.2786C581.957 45.2786 581.249 45.5426 580.661 46.0706C580.085 46.5986 579.755 47.3306 579.671 48.2666H585.899Z" fill="black"/>
<path d="M572.678 54.0806C571.922 54.0806 571.244 53.9546 570.644 53.7026C570.044 53.4386 569.57 53.0786 569.222 52.6226C568.874 52.1546 568.682 51.6206 568.646 51.0206H570.338C570.386 51.5126 570.614 51.9146 571.022 52.2266C571.442 52.5386 571.988 52.6946 572.66 52.6946C573.284 52.6946 573.776 52.5566 574.136 52.2806C574.496 52.0046 574.676 51.6566 574.676 51.2366C574.676 50.8046 574.484 50.4866 574.1 50.2826C573.716 50.0666 573.122 49.8566 572.318 49.6526C571.586 49.4606 570.986 49.2686 570.518 49.0766C570.062 48.8726 569.666 48.5786 569.33 48.1946C569.006 47.7986 568.844 47.2826 568.844 46.6466C568.844 46.1426 568.994 45.6806 569.294 45.2606C569.594 44.8406 570.02 44.5106 570.572 44.2706C571.124 44.0186 571.754 43.8926 572.462 43.8926C573.554 43.8926 574.436 44.1686 575.108 44.7206C575.78 45.2726 576.14 46.0286 576.188 46.9886H574.55C574.514 46.4726 574.304 46.0586 573.92 45.7466C573.548 45.4346 573.044 45.2786 572.408 45.2786C571.82 45.2786 571.352 45.4046 571.004 45.6566C570.656 45.9086 570.482 46.2386 570.482 46.6466C570.482 46.9706 570.584 47.2406 570.788 47.4566C571.004 47.6606 571.268 47.8286 571.58 47.9606C571.904 48.0806 572.348 48.2186 572.912 48.3746C573.62 48.5666 574.196 48.7586 574.64 48.9506C575.084 49.1306 575.462 49.4066 575.774 49.7786C576.098 50.1506 576.266 50.6366 576.278 51.2366C576.278 51.7766 576.128 52.2626 575.828 52.6946C575.528 53.1266 575.102 53.4686 574.55 53.7206C574.01 53.9606 573.386 54.0806 572.678 54.0806Z" fill="black"/>
<path d="M564.111 45.657C564.399 45.093 564.807 44.655 565.335 44.343C565.875 44.031 566.529 43.875 567.297 43.875V45.567H566.865C565.029 45.567 564.111 46.563 564.111 48.555V53.919H562.473V44.055H564.111V45.657Z" fill="black"/>
<path d="M560.309 48.6086C560.309 48.9206 560.291 49.2506 560.255 49.5986H552.371C552.431 50.5706 552.761 51.3326 553.361 51.8846C553.973 52.4246 554.711 52.6946 555.575 52.6946C556.283 52.6946 556.871 52.5326 557.339 52.2086C557.819 51.8726 558.155 51.4286 558.347 50.8766H560.111C559.847 51.8246 559.319 52.5986 558.527 53.1986C557.735 53.7866 556.751 54.0806 555.575 54.0806C554.639 54.0806 553.799 53.8706 553.055 53.4506C552.323 53.0306 551.747 52.4366 551.327 51.6686C550.907 50.8886 550.697 49.9886 550.697 48.9686C550.697 47.9486 550.901 47.0546 551.309 46.2866C551.717 45.5186 552.287 44.9306 553.019 44.5226C553.763 44.1026 554.615 43.8926 555.575 43.8926C556.511 43.8926 557.339 44.0966 558.059 44.5046C558.779 44.9126 559.331 45.4766 559.715 46.1966C560.111 46.9046 560.309 47.7086 560.309 48.6086ZM558.617 48.2666C558.617 47.6426 558.479 47.1086 558.203 46.6646C557.927 46.2086 557.549 45.8666 557.069 45.6386C556.601 45.3986 556.079 45.2786 555.503 45.2786C554.675 45.2786 553.967 45.5426 553.379 46.0706C552.803 46.5986 552.473 47.3306 552.389 48.2666H558.617Z" fill="black"/>
<path d="M544.893 52.4067L547.953 44.0547H549.699L545.829 53.9187H543.921L540.051 44.0547H541.815L544.893 52.4067Z" fill="black"/>
<path d="M537.636 42.4527C537.324 42.4527 537.06 42.3447 536.844 42.1287C536.628 41.9127 536.52 41.6487 536.52 41.3367C536.52 41.0247 536.628 40.7607 536.844 40.5447C537.06 40.3287 537.324 40.2207 537.636 40.2207C537.936 40.2207 538.188 40.3287 538.392 40.5447C538.608 40.7607 538.716 41.0247 538.716 41.3367C538.716 41.6487 538.608 41.9127 538.392 42.1287C538.188 42.3447 537.936 42.4527 537.636 42.4527ZM538.428 44.0547V53.9187H536.79V44.0547H538.428Z" fill="black"/>
<path d="M524.014 48.9506C524.014 47.9426 524.218 47.0606 524.626 46.3046C525.034 45.5366 525.592 44.9426 526.3 44.5226C527.02 44.1026 527.824 43.8926 528.712 43.8926C529.48 43.8926 530.194 44.0726 530.854 44.4326C531.514 44.7806 532.018 45.2426 532.366 45.8186V40.5986H534.022V53.9186H532.366V52.0646C532.042 52.6526 531.562 53.1386 530.926 53.5226C530.29 53.8946 529.546 54.0806 528.694 54.0806C527.818 54.0806 527.02 53.8646 526.3 53.4326C525.592 53.0006 525.034 52.3946 524.626 51.6146C524.218 50.8346 524.014 49.9466 524.014 48.9506ZM532.366 48.9686C532.366 48.2246 532.216 47.5766 531.916 47.0246C531.616 46.4726 531.208 46.0526 530.692 45.7646C530.188 45.4646 529.63 45.3146 529.018 45.3146C528.406 45.3146 527.848 45.4586 527.344 45.7466C526.84 46.0346 526.438 46.4546 526.138 47.0066C525.838 47.5586 525.688 48.2066 525.688 48.9506C525.688 49.7066 525.838 50.3666 526.138 50.9306C526.438 51.4826 526.84 51.9086 527.344 52.2086C527.848 52.4966 528.406 52.6406 529.018 52.6406C529.63 52.6406 530.188 52.4966 530.692 52.2086C531.208 51.9086 531.616 51.4826 531.916 50.9306C532.216 50.3666 532.366 49.7126 532.366 48.9686Z" fill="black"/>
<path d="M513.21 43.8746C513.954 43.8746 514.626 44.0366 515.226 44.3606C515.826 44.6726 516.294 45.1466 516.63 45.7826C516.978 46.4186 517.152 47.1926 517.152 48.1046V53.9186H515.532V48.3386C515.532 47.3546 515.286 46.6046 514.794 46.0886C514.302 45.5606 513.63 45.2966 512.778 45.2966C511.914 45.2966 511.224 45.5666 510.708 46.1066C510.204 46.6466 509.952 47.4326 509.952 48.4646V53.9186H508.314V40.5986H509.952V45.4586C510.276 44.9546 510.72 44.5646 511.284 44.2886C511.86 44.0126 512.502 43.8746 513.21 43.8746Z" fill="black"/>
<path d="M503.756 45.4053V51.2193C503.756 51.6993 503.858 52.0413 504.062 52.2453C504.266 52.4373 504.62 52.5333 505.124 52.5333H506.33V53.9193H504.854C503.942 53.9193 503.258 53.7093 502.802 53.2893C502.346 52.8693 502.118 52.1793 502.118 51.2193V45.4053H500.84V44.0553H502.118V41.5713H503.756V44.0553H506.33V45.4053H503.756Z" fill="black"/>
<path d="M498.173 42.4527C497.861 42.4527 497.597 42.3447 497.381 42.1287C497.165 41.9127 497.057 41.6487 497.057 41.3367C497.057 41.0247 497.165 40.7607 497.381 40.5447C497.597 40.3287 497.861 40.2207 498.173 40.2207C498.473 40.2207 498.725 40.3287 498.929 40.5447C499.145 40.7607 499.253 41.0247 499.253 41.3367C499.253 41.6487 499.145 41.9127 498.929 42.1287C498.725 42.3447 498.473 42.4527 498.173 42.4527ZM498.965 44.0547V53.9187H497.327V44.0547H498.965Z" fill="black"/>
<path d="M495.703 44.0547L492.625 53.9187H490.933L488.557 46.0887L486.181 53.9187H484.489L481.393 44.0547H483.067L485.335 52.3347L487.783 44.0547H489.457L491.851 52.3527L494.083 44.0547H495.703Z" fill="black"/>
<path d="M471.85 54.0806C471.094 54.0806 470.416 53.9546 469.816 53.7026C469.216 53.4386 468.742 53.0786 468.394 52.6226C468.046 52.1546 467.854 51.6206 467.818 51.0206H469.51C469.558 51.5126 469.786 51.9146 470.194 52.2266C470.614 52.5386 471.16 52.6946 471.832 52.6946C472.456 52.6946 472.948 52.5566 473.308 52.2806C473.668 52.0046 473.848 51.6566 473.848 51.2366C473.848 50.8046 473.656 50.4866 473.272 50.2826C472.888 50.0666 472.294 49.8566 471.49 49.6526C470.758 49.4606 470.158 49.2686 469.69 49.0766C469.234 48.8726 468.838 48.5786 468.502 48.1946C468.178 47.7986 468.016 47.2826 468.016 46.6466C468.016 46.1426 468.166 45.6806 468.466 45.2606C468.766 44.8406 469.192 44.5106 469.744 44.2706C470.296 44.0186 470.926 43.8926 471.634 43.8926C472.726 43.8926 473.608 44.1686 474.28 44.7206C474.952 45.2726 475.312 46.0286 475.36 46.9886H473.722C473.686 46.4726 473.476 46.0586 473.092 45.7466C472.72 45.4346 472.216 45.2786 471.58 45.2786C470.992 45.2786 470.524 45.4046 470.176 45.6566C469.828 45.9086 469.654 46.2386 469.654 46.6466C469.654 46.9706 469.756 47.2406 469.96 47.4566C470.176 47.6606 470.44 47.8286 470.752 47.9606C471.076 48.0806 471.52 48.2186 472.084 48.3746C472.792 48.5666 473.368 48.7586 473.812 48.9506C474.256 49.1306 474.634 49.4066 474.946 49.7786C475.27 50.1506 475.438 50.6366 475.45 51.2366C475.45 51.7766 475.3 52.2626 475 52.6946C474.7 53.1266 474.274 53.4686 473.722 53.7206C473.182 53.9606 472.558 54.0806 471.85 54.0806Z" fill="black"/>
<path d="M466.196 48.6086C466.196 48.9206 466.178 49.2506 466.142 49.5986H458.258C458.318 50.5706 458.648 51.3326 459.248 51.8846C459.86 52.4246 460.598 52.6946 461.462 52.6946C462.17 52.6946 462.758 52.5326 463.226 52.2086C463.706 51.8726 464.042 51.4286 464.234 50.8766H465.998C465.734 51.8246 465.206 52.5986 464.414 53.1986C463.622 53.7866 462.638 54.0806 461.462 54.0806C460.526 54.0806 459.686 53.8706 458.942 53.4506C458.21 53.0306 457.634 52.4366 457.214 51.6686C456.794 50.8886 456.584 49.9886 456.584 48.9686C456.584 47.9486 456.788 47.0546 457.196 46.2866C457.604 45.5186 458.174 44.9306 458.906 44.5226C459.65 44.1026 460.502 43.8926 461.462 43.8926C462.398 43.8926 463.226 44.0966 463.946 44.5046C464.666 44.9126 465.218 45.4766 465.602 46.1966C465.998 46.9046 466.196 47.7086 466.196 48.6086ZM464.504 48.2666C464.504 47.6426 464.366 47.1086 464.09 46.6646C463.814 46.2086 463.436 45.8666 462.956 45.6386C462.488 45.3986 461.966 45.2786 461.39 45.2786C460.562 45.2786 459.854 45.5426 459.266 46.0706C458.69 46.5986 458.36 47.3306 458.276 48.2666H464.504Z" fill="black"/>
<path d="M453.612 42.4527C453.3 42.4527 453.036 42.3447 452.82 42.1287C452.604 41.9127 452.496 41.6487 452.496 41.3367C452.496 41.0247 452.604 40.7607 452.82 40.5447C453.036 40.3287 453.3 40.2207 453.612 40.2207C453.912 40.2207 454.164 40.3287 454.368 40.5447C454.584 40.7607 454.692 41.0247 454.692 41.3367C454.692 41.6487 454.584 41.9127 454.368 42.1287C454.164 42.3447 453.912 42.4527 453.612 42.4527ZM454.404 44.0547V53.9187H452.766V44.0547H454.404Z" fill="black"/>
<path d="M447.691 45.657C447.979 45.093 448.387 44.655 448.915 44.343C449.455 44.031 450.109 43.875 450.877 43.875V45.567H450.445C448.609 45.567 447.691 46.563 447.691 48.555V53.919H446.053V44.055H447.691V45.657Z" fill="black"/>
<path d="M441.494 45.4053V51.2193C441.494 51.6993 441.596 52.0413 441.8 52.2453C442.004 52.4373 442.358 52.5333 442.862 52.5333H444.068V53.9193H442.592C441.68 53.9193 440.996 53.7093 440.54 53.2893C440.084 52.8693 439.856 52.1793 439.856 51.2193V45.4053H438.578V44.0553H439.856V41.5713H441.494V44.0553H444.068V45.4053H441.494Z" fill="black"/>
<path d="M432.788 43.875C433.988 43.875 434.96 44.241 435.704 44.973C436.448 45.693 436.82 46.737 436.82 48.105V53.919H435.2V48.339C435.2 47.355 434.954 46.605 434.462 46.089C433.97 45.561 433.298 45.297 432.446 45.297C431.582 45.297 430.892 45.567 430.376 46.107C429.872 46.647 429.62 47.433 429.62 48.465V53.919H427.982V44.055H429.62V45.459C429.944 44.955 430.382 44.565 430.934 44.289C431.498 44.013 432.116 43.875 432.788 43.875Z" fill="black"/>
<path d="M425.217 44.0547V53.9187H423.579V52.4607C423.267 52.9647 422.829 53.3607 422.265 53.6487C421.713 53.9247 421.101 54.0627 420.429 54.0627C419.661 54.0627 418.971 53.9067 418.359 53.5947C417.747 53.2707 417.261 52.7907 416.901 52.1547C416.553 51.5187 416.379 50.7447 416.379 49.8327V44.0547H417.999V49.6167C417.999 50.5887 418.245 51.3387 418.737 51.8667C419.229 52.3827 419.901 52.6407 420.753 52.6407C421.629 52.6407 422.319 52.3707 422.823 51.8307C423.327 51.2907 423.579 50.5047 423.579 49.4727V44.0547H425.217Z" fill="black"/>
<path d="M409.256 54.0806C408.332 54.0806 407.492 53.8706 406.736 53.4506C405.992 53.0306 405.404 52.4366 404.972 51.6686C404.552 50.8886 404.342 49.9886 404.342 48.9686C404.342 47.9606 404.558 47.0726 404.99 46.3046C405.434 45.5246 406.034 44.9306 406.79 44.5226C407.546 44.1026 408.392 43.8926 409.328 43.8926C410.264 43.8926 411.11 44.1026 411.866 44.5226C412.622 44.9306 413.216 45.5186 413.648 46.2866C414.092 47.0546 414.314 47.9486 414.314 48.9686C414.314 49.9886 414.086 50.8886 413.63 51.6686C413.186 52.4366 412.58 53.0306 411.812 53.4506C411.044 53.8706 410.192 54.0806 409.256 54.0806ZM409.256 52.6406C409.844 52.6406 410.396 52.5026 410.912 52.2266C411.428 51.9506 411.842 51.5366 412.154 50.9846C412.478 50.4326 412.64 49.7606 412.64 48.9686C412.64 48.1766 412.484 47.5046 412.172 46.9526C411.86 46.4006 411.452 45.9926 410.948 45.7286C410.444 45.4526 409.898 45.3146 409.31 45.3146C408.71 45.3146 408.158 45.4526 407.654 45.7286C407.162 45.9926 406.766 46.4006 406.466 46.9526C406.166 47.5046 406.016 48.1766 406.016 48.9686C406.016 49.7726 406.16 50.4506 406.448 51.0026C406.748 51.5546 407.144 51.9686 407.636 52.2446C408.128 52.5086 408.668 52.6406 409.256 52.6406Z" fill="black"/>
<path d="M393.408 48.9686C393.408 47.9486 393.612 47.0606 394.02 46.3046C394.428 45.5366 394.992 44.9426 395.712 44.5226C396.444 44.1026 397.278 43.8926 398.214 43.8926C399.426 43.8926 400.422 44.1866 401.202 44.7746C401.994 45.3626 402.516 46.1786 402.768 47.2226H401.004C400.836 46.6226 400.506 46.1486 400.014 45.8006C399.534 45.4526 398.934 45.2786 398.214 45.2786C397.278 45.2786 396.522 45.6026 395.946 46.2506C395.37 46.8866 395.082 47.7926 395.082 48.9686C395.082 50.1566 395.37 51.0746 395.946 51.7226C396.522 52.3706 397.278 52.6946 398.214 52.6946C398.934 52.6946 399.534 52.5266 400.014 52.1906C400.494 51.8546 400.824 51.3746 401.004 50.7506H402.768C402.504 51.7586 401.976 52.5686 401.184 53.1806C400.392 53.7806 399.402 54.0806 398.214 54.0806C397.278 54.0806 396.444 53.8706 395.712 53.4506C394.992 53.0306 394.428 52.4366 394.02 51.6686C393.612 50.9006 393.408 50.0006 393.408 48.9686Z" fill="black"/>
<path d="M387.059 48.6086C387.059 48.9206 387.041 49.2506 387.005 49.5986H379.121C379.181 50.5706 379.511 51.3326 380.111 51.8846C380.723 52.4246 381.461 52.6946 382.325 52.6946C383.033 52.6946 383.621 52.5326 384.089 52.2086C384.569 51.8726 384.905 51.4286 385.097 50.8766H386.861C386.597 51.8246 386.069 52.5986 385.277 53.1986C384.485 53.7866 383.501 54.0806 382.325 54.0806C381.389 54.0806 380.549 53.8706 379.805 53.4506C379.073 53.0306 378.497 52.4366 378.077 51.6686C377.657 50.8886 377.447 49.9886 377.447 48.9686C377.447 47.9486 377.651 47.0546 378.059 46.2866C378.467 45.5186 379.037 44.9306 379.769 44.5226C380.513 44.1026 381.365 43.8926 382.325 43.8926C383.261 43.8926 384.089 44.0966 384.809 44.5046C385.529 44.9126 386.081 45.4766 386.465 46.1966C386.861 46.9046 387.059 47.7086 387.059 48.6086ZM385.367 48.2666C385.367 47.6426 385.229 47.1086 384.953 46.6646C384.677 46.2086 384.299 45.8666 383.819 45.6386C383.351 45.3986 382.829 45.2786 382.253 45.2786C381.425 45.2786 380.717 45.5426 380.129 46.0706C379.553 46.5986 379.223 47.3306 379.139 48.2666H385.367Z" fill="black"/>
<path d="M375.269 40.5986V53.9186H373.631V40.5986H375.269Z" fill="black"/>
<path d="M363.105 45.8906C363.441 45.3026 363.933 44.8226 364.581 44.4506C365.229 44.0786 365.967 43.8926 366.795 43.8926C367.683 43.8926 368.481 44.1026 369.189 44.5226C369.897 44.9426 370.455 45.5366 370.863 46.3046C371.271 47.0606 371.475 47.9426 371.475 48.9506C371.475 49.9466 371.271 50.8346 370.863 51.6146C370.455 52.3946 369.891 53.0006 369.171 53.4326C368.463 53.8646 367.671 54.0806 366.795 54.0806C365.943 54.0806 365.193 53.8946 364.545 53.5226C363.909 53.1506 363.429 52.6766 363.105 52.1006V53.9186H361.467V40.5986H363.105V45.8906ZM369.801 48.9506C369.801 48.2066 369.651 47.5586 369.351 47.0066C369.051 46.4546 368.643 46.0346 368.127 45.7466C367.623 45.4586 367.065 45.3146 366.453 45.3146C365.853 45.3146 365.295 45.4646 364.779 45.7646C364.275 46.0526 363.867 46.4786 363.555 47.0426C363.255 47.5946 363.105 48.2366 363.105 48.9686C363.105 49.7126 363.255 50.3666 363.555 50.9306C363.867 51.4826 364.275 51.9086 364.779 52.2086C365.295 52.4966 365.853 52.6406 366.453 52.6406C367.065 52.6406 367.623 52.4966 368.127 52.2086C368.643 51.9086 369.051 51.4826 369.351 50.9306C369.651 50.3666 369.801 49.7066 369.801 48.9506Z" fill="black"/>
<path d="M348.689 48.9506C348.689 47.9426 348.893 47.0606 349.301 46.3046C349.709 45.5366 350.267 44.9426 350.975 44.5226C351.695 44.1026 352.493 43.8926 353.369 43.8926C354.233 43.8926 354.983 44.0786 355.619 44.4506C356.255 44.8226 356.729 45.2906 357.041 45.8546V44.0546H358.697V53.9186H357.041V52.0826C356.717 52.6586 356.231 53.1386 355.583 53.5226C354.947 53.8946 354.203 54.0806 353.351 54.0806C352.475 54.0806 351.683 53.8646 350.975 53.4326C350.267 53.0006 349.709 52.3946 349.301 51.6146C348.893 50.8346 348.689 49.9466 348.689 48.9506ZM357.041 48.9686C357.041 48.2246 356.891 47.5766 356.591 47.0246C356.291 46.4726 355.883 46.0526 355.367 45.7646C354.863 45.4646 354.305 45.3146 353.693 45.3146C353.081 45.3146 352.523 45.4586 352.019 45.7466C351.515 46.0346 351.113 46.4546 350.813 47.0066C350.513 47.5586 350.363 48.2066 350.363 48.9506C350.363 49.7066 350.513 50.3666 350.813 50.9306C351.113 51.4826 351.515 51.9086 352.019 52.2086C352.523 52.4966 353.081 52.6406 353.693 52.6406C354.305 52.6406 354.863 52.4966 355.367 52.2086C355.883 51.9086 356.291 51.4826 356.591 50.9306C356.891 50.3666 357.041 49.7126 357.041 48.9686Z" fill="black"/>
<path d="M342.335 52.5687H347.177V53.9187H340.463V52.5687L345.251 45.3867H340.499V44.0547H347.141V45.3867L342.335 52.5687Z" fill="black"/>
<path d="M337.526 42.4527C337.214 42.4527 336.95 42.3447 336.734 42.1287C336.518 41.9127 336.41 41.6487 336.41 41.3367C336.41 41.0247 336.518 40.7607 336.734 40.5447C336.95 40.3287 337.214 40.2207 337.526 40.2207C337.826 40.2207 338.078 40.3287 338.282 40.5447C338.498 40.7607 338.606 41.0247 338.606 41.3367C338.606 41.6487 338.498 41.9127 338.282 42.1287C338.078 42.3447 337.826 42.4527 337.526 42.4527ZM338.318 44.0547V53.9187H336.68V44.0547H338.318Z" fill="black"/>
<path d="M329.974 43.875C331.174 43.875 332.146 44.241 332.89 44.973C333.634 45.693 334.006 46.737 334.006 48.105V53.919H332.386V48.339C332.386 47.355 332.14 46.605 331.648 46.089C331.156 45.561 330.484 45.297 329.632 45.297C328.768 45.297 328.078 45.567 327.562 46.107C327.058 46.647 326.806 47.433 326.806 48.465V53.919H325.168V44.055H326.806V45.459C327.13 44.955 327.568 44.565 328.12 44.289C328.684 44.013 329.302 43.875 329.974 43.875Z" fill="black"/>
<path d="M317.071 43.8926C317.923 43.8926 318.667 44.0786 319.303 44.4506C319.951 44.8226 320.431 45.2906 320.743 45.8546V44.0546H322.399V54.1346C322.399 55.0346 322.207 55.8326 321.823 56.5286C321.439 57.2366 320.887 57.7886 320.167 58.1846C319.459 58.5806 318.631 58.7786 317.683 58.7786C316.387 58.7786 315.307 58.4726 314.443 57.8606C313.579 57.2486 313.069 56.4146 312.913 55.3586H314.533C314.713 55.9586 315.085 56.4386 315.649 56.7986C316.213 57.1706 316.891 57.3566 317.683 57.3566C318.583 57.3566 319.315 57.0746 319.879 56.5106C320.455 55.9466 320.743 55.1546 320.743 54.1346V52.0646C320.419 52.6406 319.939 53.1206 319.303 53.5046C318.667 53.8886 317.923 54.0806 317.071 54.0806C316.195 54.0806 315.397 53.8646 314.677 53.4326C313.969 53.0006 313.411 52.3946 313.003 51.6146C312.595 50.8346 312.391 49.9466 312.391 48.9506C312.391 47.9426 312.595 47.0606 313.003 46.3046C313.411 45.5366 313.969 44.9426 314.677 44.5226C315.397 44.1026 316.195 43.8926 317.071 43.8926ZM320.743 48.9686C320.743 48.2246 320.593 47.5766 320.293 47.0246C319.993 46.4726 319.585 46.0526 319.069 45.7646C318.565 45.4646 318.007 45.3146 317.395 45.3146C316.783 45.3146 316.225 45.4586 315.721 45.7466C315.217 46.0346 314.815 46.4546 314.515 47.0066C314.215 47.5586 314.065 48.2066 314.065 48.9506C314.065 49.7066 314.215 50.3666 314.515 50.9306C314.815 51.4826 315.217 51.9086 315.721 52.2086C316.225 52.4966 316.783 52.6406 317.395 52.6406C318.007 52.6406 318.565 52.4966 319.069 52.2086C319.585 51.9086 319.993 51.4826 320.293 50.9306C320.593 50.3666 320.743 49.7126 320.743 48.9686Z" fill="black"/>
<path d="M305.791 54.0806C304.867 54.0806 304.027 53.8706 303.271 53.4506C302.527 53.0306 301.939 52.4366 301.507 51.6686C301.087 50.8886 300.877 49.9886 300.877 48.9686C300.877 47.9606 301.093 47.0726 301.525 46.3046C301.969 45.5246 302.569 44.9306 303.325 44.5226C304.081 44.1026 304.927 43.8926 305.863 43.8926C306.799 43.8926 307.645 44.1026 308.401 44.5226C309.157 44.9306 309.751 45.5186 310.183 46.2866C310.627 47.0546 310.849 47.9486 310.849 48.9686C310.849 49.9886 310.621 50.8886 310.165 51.6686C309.721 52.4366 309.115 53.0306 308.347 53.4506C307.579 53.8706 306.727 54.0806 305.791 54.0806ZM305.791 52.6406C306.379 52.6406 306.931 52.5026 307.447 52.2266C307.963 51.9506 308.377 51.5366 308.689 50.9846C309.013 50.4326 309.175 49.7606 309.175 48.9686C309.175 48.1766 309.019 47.5046 308.707 46.9526C308.395 46.4006 307.987 45.9926 307.483 45.7286C306.979 45.4526 306.433 45.3146 305.845 45.3146C305.245 45.3146 304.693 45.4526 304.189 45.7286C303.697 45.9926 303.301 46.4006 303.001 46.9526C302.701 47.5046 302.551 48.1766 302.551 48.9686C302.551 49.7726 302.695 50.4506 302.983 51.0026C303.283 51.5546 303.679 51.9686 304.171 52.2446C304.663 52.5086 305.203 52.6406 305.791 52.6406Z" fill="black"/>
<path d="M289.943 48.9686C289.943 47.9486 290.147 47.0606 290.555 46.3046C290.963 45.5366 291.527 44.9426 292.247 44.5226C292.979 44.1026 293.813 43.8926 294.749 43.8926C295.961 43.8926 296.957 44.1866 297.737 44.7746C298.529 45.3626 299.051 46.1786 299.303 47.2226H297.539C297.371 46.6226 297.041 46.1486 296.549 45.8006C296.069 45.4526 295.469 45.2786 294.749 45.2786C293.813 45.2786 293.057 45.6026 292.481 46.2506C291.905 46.8866 291.617 47.7926 291.617 48.9686C291.617 50.1566 291.905 51.0746 292.481 51.7226C293.057 52.3706 293.813 52.6946 294.749 52.6946C295.469 52.6946 296.069 52.5266 296.549 52.1906C297.029 51.8546 297.359 51.3746 297.539 50.7506H299.303C299.039 51.7586 298.511 52.5686 297.719 53.1806C296.927 53.7806 295.937 54.0806 294.749 54.0806C293.813 54.0806 292.979 53.8706 292.247 53.4506C291.527 53.0306 290.963 52.4366 290.555 51.6686C290.147 50.9006 289.943 50.0006 289.943 48.9686Z" fill="black"/>
<path d="M288.393 48.6086C288.393 48.9206 288.375 49.2506 288.339 49.5986H280.455C280.515 50.5706 280.845 51.3326 281.445 51.8846C282.057 52.4246 282.795 52.6946 283.659 52.6946C284.367 52.6946 284.955 52.5326 285.423 52.2086C285.903 51.8726 286.239 51.4286 286.431 50.8766H288.195C287.931 51.8246 287.403 52.5986 286.611 53.1986C285.819 53.7866 284.835 54.0806 283.659 54.0806C282.723 54.0806 281.883 53.8706 281.139 53.4506C280.407 53.0306 279.831 52.4366 279.411 51.6686C278.991 50.8886 278.781 49.9886 278.781 48.9686C278.781 47.9486 278.985 47.0546 279.393 46.2866C279.801 45.5186 280.371 44.9306 281.103 44.5226C281.847 44.1026 282.699 43.8926 283.659 43.8926C284.595 43.8926 285.423 44.0966 286.143 44.5046C286.863 44.9126 287.415 45.4766 287.799 46.1966C288.195 46.9046 288.393 47.7086 288.393 48.6086ZM286.701 48.2666C286.701 47.6426 286.563 47.1086 286.287 46.6646C286.011 46.2086 285.633 45.8666 285.153 45.6386C284.685 45.3986 284.163 45.2786 283.587 45.2786C282.759 45.2786 282.051 45.5426 281.463 46.0706C280.887 46.5986 280.557 47.3306 280.473 48.2666H286.701Z" fill="black"/>
<path d="M274.318 45.657C274.606 45.093 275.014 44.655 275.542 44.343C276.082 44.031 276.736 43.875 277.504 43.875V45.567H277.072C275.236 45.567 274.318 46.563 274.318 48.555V53.919H272.68V44.055H274.318V45.657Z" fill="black"/>
<path d="M269.606 46.6289V48.0149H262.424V46.6289H269.606Z" fill="black"/>
<path d="M249.988 48.9506C249.988 47.9426 250.192 47.0606 250.6 46.3046C251.008 45.5366 251.566 44.9426 252.274 44.5226C252.994 44.1026 253.798 43.8926 254.686 43.8926C255.454 43.8926 256.168 44.0726 256.828 44.4326C257.488 44.7806 257.992 45.2426 258.34 45.8186V40.5986H259.996V53.9186H258.34V52.0646C258.016 52.6526 257.536 53.1386 256.9 53.5226C256.264 53.8946 255.52 54.0806 254.668 54.0806C253.792 54.0806 252.994 53.8646 252.274 53.4326C251.566 53.0006 251.008 52.3946 250.6 51.6146C250.192 50.8346 249.988 49.9466 249.988 48.9506ZM258.34 48.9686C258.34 48.2246 258.19 47.5766 257.89 47.0246C257.59 46.4726 257.182 46.0526 256.666 45.7646C256.162 45.4646 255.604 45.3146 254.992 45.3146C254.38 45.3146 253.822 45.4586 253.318 45.7466C252.814 46.0346 252.412 46.4546 252.112 47.0066C251.812 47.5586 251.662 48.2066 251.662 48.9506C251.662 49.7066 251.812 50.3666 252.112 50.9306C252.412 51.4826 252.814 51.9086 253.318 52.2086C253.822 52.4966 254.38 52.6406 254.992 52.6406C255.604 52.6406 256.162 52.4966 256.666 52.2086C257.182 51.9086 257.59 51.4826 257.89 50.9306C258.19 50.3666 258.34 49.7126 258.34 48.9686Z" fill="black"/>
<path d="M247.81 40.5986V53.9186H246.172V40.5986H247.81Z" fill="black"/>
<path d="M242.587 42.4527C242.275 42.4527 242.011 42.3447 241.795 42.1287C241.579 41.9127 241.471 41.6487 241.471 41.3367C241.471 41.0247 241.579 40.7607 241.795 40.5447C242.011 40.3287 242.275 40.2207 242.587 40.2207C242.887 40.2207 243.139 40.3287 243.343 40.5447C243.559 40.7607 243.667 41.0247 243.667 41.3367C243.667 41.6487 243.559 41.9127 243.343 42.1287C243.139 42.3447 242.887 42.4527 242.587 42.4527ZM243.379 44.0547V53.9187H241.741V44.0547H243.379Z" fill="black"/>
<path d="M235.125 43.8746C235.869 43.8746 236.541 44.0366 237.141 44.3606C237.741 44.6726 238.209 45.1466 238.545 45.7826C238.893 46.4186 239.067 47.1926 239.067 48.1046V53.9186H237.447V48.3386C237.447 47.3546 237.201 46.6046 236.709 46.0886C236.217 45.5606 235.545 45.2966 234.693 45.2966C233.829 45.2966 233.139 45.5666 232.623 46.1066C232.119 46.6466 231.867 47.4326 231.867 48.4646V53.9186H230.229V40.5986H231.867V45.4586C232.191 44.9546 232.635 44.5646 233.199 44.2886C233.775 44.0126 234.417 43.8746 235.125 43.8746Z" fill="black"/>
<path d="M218.682 48.9686C218.682 47.9486 218.886 47.0606 219.294 46.3046C219.702 45.5366 220.266 44.9426 220.986 44.5226C221.718 44.1026 222.552 43.8926 223.488 43.8926C224.7 43.8926 225.696 44.1866 226.476 44.7746C227.268 45.3626 227.79 46.1786 228.042 47.2226H226.278C226.11 46.6226 225.78 46.1486 225.288 45.8006C224.808 45.4526 224.208 45.2786 223.488 45.2786C222.552 45.2786 221.796 45.6026 221.22 46.2506C220.644 46.8866 220.356 47.7926 220.356 48.9686C220.356 50.1566 220.644 51.0746 221.22 51.7226C221.796 52.3706 222.552 52.6946 223.488 52.6946C224.208 52.6946 224.808 52.5266 225.288 52.1906C225.768 51.8546 226.098 51.3746 226.278 50.7506H228.042C227.778 51.7586 227.25 52.5686 226.458 53.1806C225.666 53.7806 224.676 54.0806 223.488 54.0806C222.552 54.0806 221.718 53.8706 220.986 53.4506C220.266 53.0306 219.702 52.4366 219.294 51.6686C218.886 50.9006 218.682 50.0006 218.682 48.9686Z" fill="black"/>
<path d="M201.719 48.9506C201.719 47.9426 201.923 47.0606 202.331 46.3046C202.739 45.5366 203.297 44.9426 204.005 44.5226C204.725 44.1026 205.529 43.8926 206.417 43.8926C207.185 43.8926 207.899 44.0726 208.559 44.4326C209.219 44.7806 209.723 45.2426 210.071 45.8186V40.5986H211.727V53.9186H210.071V52.0646C209.747 52.6526 209.267 53.1386 208.631 53.5226C207.995 53.8946 207.251 54.0806 206.399 54.0806C205.523 54.0806 204.725 53.8646 204.005 53.4326C203.297 53.0006 202.739 52.3946 202.331 51.6146C201.923 50.8346 201.719 49.9466 201.719 48.9506ZM210.071 48.9686C210.071 48.2246 209.921 47.5766 209.621 47.0246C209.321 46.4726 208.913 46.0526 208.397 45.7646C207.893 45.4646 207.335 45.3146 206.723 45.3146C206.111 45.3146 205.553 45.4586 205.049 45.7466C204.545 46.0346 204.143 46.4546 203.843 47.0066C203.543 47.5586 203.393 48.2066 203.393 48.9506C203.393 49.7066 203.543 50.3666 203.843 50.9306C204.143 51.4826 204.545 51.9086 205.049 52.2086C205.553 52.4966 206.111 52.6406 206.723 52.6406C207.335 52.6406 207.893 52.4966 208.397 52.2086C208.913 51.9086 209.321 51.4826 209.621 50.9306C209.921 50.3666 210.071 49.7126 210.071 48.9686Z" fill="black"/>
<path d="M200.169 48.6086C200.169 48.9206 200.151 49.2506 200.115 49.5986H192.231C192.291 50.5706 192.621 51.3326 193.221 51.8846C193.833 52.4246 194.571 52.6946 195.435 52.6946C196.143 52.6946 196.731 52.5326 197.199 52.2086C197.679 51.8726 198.015 51.4286 198.207 50.8766H199.971C199.707 51.8246 199.179 52.5986 198.387 53.1986C197.595 53.7866 196.611 54.0806 195.435 54.0806C194.499 54.0806 193.659 53.8706 192.915 53.4506C192.183 53.0306 191.607 52.4366 191.187 51.6686C190.767 50.8886 190.557 49.9886 190.557 48.9686C190.557 47.9486 190.761 47.0546 191.169 46.2866C191.577 45.5186 192.147 44.9306 192.879 44.5226C193.623 44.1026 194.475 43.8926 195.435 43.8926C196.371 43.8926 197.199 44.0966 197.919 44.5046C198.639 44.9126 199.191 45.4766 199.575 46.1966C199.971 46.9046 200.169 47.7086 200.169 48.6086ZM198.477 48.2666C198.477 47.6426 198.339 47.1086 198.063 46.6646C197.787 46.2086 197.409 45.8666 196.929 45.6386C196.461 45.3986 195.939 45.2786 195.363 45.2786C194.535 45.2786 193.827 45.5426 193.239 46.0706C192.663 46.5986 192.333 47.3306 192.249 48.2666H198.477Z" fill="black"/>
<path d="M186.611 45.4053V51.2193C186.611 51.6993 186.713 52.0413 186.917 52.2453C187.121 52.4373 187.475 52.5333 187.979 52.5333H189.185V53.9193H187.709C186.797 53.9193 186.113 53.7093 185.657 53.2893C185.201 52.8693 184.973 52.1793 184.973 51.2193V45.4053H183.695V44.0553H184.973V41.5713H186.611V44.0553H189.185V45.4053H186.611Z" fill="black"/>
<path d="M173.066 48.9686C173.066 47.9486 173.27 47.0606 173.678 46.3046C174.086 45.5366 174.65 44.9426 175.37 44.5226C176.102 44.1026 176.936 43.8926 177.872 43.8926C179.084 43.8926 180.08 44.1866 180.86 44.7746C181.652 45.3626 182.174 46.1786 182.426 47.2226H180.662C180.494 46.6226 180.164 46.1486 179.672 45.8006C179.192 45.4526 178.592 45.2786 177.872 45.2786C176.936 45.2786 176.18 45.6026 175.604 46.2506C175.028 46.8866 174.74 47.7926 174.74 48.9686C174.74 50.1566 175.028 51.0746 175.604 51.7226C176.18 52.3706 176.936 52.6946 177.872 52.6946C178.592 52.6946 179.192 52.5266 179.672 52.1906C180.152 51.8546 180.482 51.3746 180.662 50.7506H182.426C182.162 51.7586 181.634 52.5686 180.842 53.1806C180.05 53.7806 179.06 54.0806 177.872 54.0806C176.936 54.0806 176.102 53.8706 175.37 53.4506C174.65 53.0306 174.086 52.4366 173.678 51.6686C173.27 50.9006 173.066 50.0006 173.066 48.9686Z" fill="black"/>
<path d="M171.516 48.6086C171.516 48.9206 171.498 49.2506 171.462 49.5986H163.578C163.638 50.5706 163.968 51.3326 164.568 51.8846C165.18 52.4246 165.918 52.6946 166.782 52.6946C167.49 52.6946 168.078 52.5326 168.546 52.2086C169.026 51.8726 169.362 51.4286 169.554 50.8766H171.318C171.054 51.8246 170.526 52.5986 169.734 53.1986C168.942 53.7866 167.958 54.0806 166.782 54.0806C165.846 54.0806 165.006 53.8706 164.262 53.4506C163.53 53.0306 162.954 52.4366 162.534 51.6686C162.114 50.8886 161.904 49.9886 161.904 48.9686C161.904 47.9486 162.108 47.0546 162.516 46.2866C162.924 45.5186 163.494 44.9306 164.226 44.5226C164.97 44.1026 165.822 43.8926 166.782 43.8926C167.718 43.8926 168.546 44.0966 169.266 44.5046C169.986 44.9126 170.538 45.4766 170.922 46.1966C171.318 46.9046 171.516 47.7086 171.516 48.6086ZM169.824 48.2666C169.824 47.6426 169.686 47.1086 169.41 46.6646C169.134 46.2086 168.756 45.8666 168.276 45.6386C167.808 45.3986 167.286 45.2786 166.71 45.2786C165.882 45.2786 165.174 45.5426 164.586 46.0706C164.01 46.5986 163.68 47.3306 163.596 48.2666H169.824Z" fill="black"/>
<path d="M159.726 40.5986V53.9186H158.088V40.5986H159.726Z" fill="black"/>
<path d="M155.924 48.6086C155.924 48.9206 155.907 49.2506 155.871 49.5986H147.986C148.046 50.5706 148.377 51.3326 148.977 51.8846C149.589 52.4246 150.327 52.6946 151.191 52.6946C151.899 52.6946 152.487 52.5326 152.955 52.2086C153.435 51.8726 153.77 51.4286 153.962 50.8766H155.727C155.463 51.8246 154.935 52.5986 154.142 53.1986C153.351 53.7866 152.367 54.0806 151.191 54.0806C150.255 54.0806 149.414 53.8706 148.67 53.4506C147.938 53.0306 147.363 52.4366 146.943 51.6686C146.523 50.8886 146.312 49.9886 146.312 48.9686C146.312 47.9486 146.516 47.0546 146.924 46.2866C147.332 45.5186 147.902 44.9306 148.634 44.5226C149.378 44.1026 150.231 43.8926 151.191 43.8926C152.127 43.8926 152.954 44.0966 153.674 44.5046C154.394 44.9126 154.946 45.4766 155.33 46.1966C155.726 46.9046 155.924 47.7086 155.924 48.6086ZM154.233 48.2666C154.233 47.6426 154.095 47.1086 153.819 46.6646C153.543 46.2086 153.164 45.8666 152.684 45.6386C152.216 45.3986 151.694 45.2786 151.118 45.2786C150.29 45.2786 149.583 45.5426 148.995 46.0706C148.419 46.5986 148.089 47.3306 148.005 48.2666H154.233Z" fill="black"/>
<path d="M140.338 54.0449C139.51 54.0449 138.766 53.9009 138.106 53.6129C137.458 53.3129 136.948 52.9049 136.576 52.3889C136.204 51.8609 136.012 51.2549 136 50.5709H137.746C137.806 51.1589 138.046 51.6569 138.466 52.0649C138.898 52.4609 139.522 52.6589 140.338 52.6589C141.118 52.6589 141.73 52.4669 142.174 52.0829C142.63 51.6869 142.858 51.1829 142.858 50.5709C142.858 50.0909 142.726 49.7009 142.462 49.4009C142.198 49.1009 141.868 48.8729 141.472 48.7169C141.076 48.5609 140.542 48.3929 139.87 48.2129C139.042 47.9969 138.376 47.7809 137.872 47.5649C137.38 47.3489 136.954 47.0129 136.594 46.5569C136.246 46.0889 136.072 45.4649 136.072 44.6849C136.072 44.0009 136.246 43.3949 136.594 42.8669C136.942 42.3389 137.428 41.9309 138.052 41.6429C138.688 41.3549 139.414 41.2109 140.23 41.2109C141.406 41.2109 142.366 41.5049 143.11 42.0929C143.866 42.6809 144.292 43.4609 144.388 44.4329H142.588C142.528 43.9529 142.276 43.5329 141.832 43.1729C141.388 42.8009 140.8 42.6149 140.068 42.6149C139.384 42.6149 138.826 42.7949 138.394 43.1549C137.962 43.5029 137.746 43.9949 137.746 44.6309C137.746 45.0869 137.872 45.4589 138.124 45.7469C138.388 46.0349 138.706 46.2569 139.078 46.4129C139.462 46.5569 139.996 46.7249 140.68 46.9169C141.508 47.1449 142.174 47.3729 142.678 47.6009C143.182 47.8169 143.614 48.1589 143.974 48.6269C144.334 49.0829 144.514 49.7069 144.514 50.4989C144.514 51.1109 144.352 51.6869 144.028 52.2269C143.704 52.7669 143.224 53.2049 142.588 53.5409C141.952 53.8769 141.202 54.0449 140.338 54.0449Z" fill="black"/>
</svg>
