<svg width="797" height="126" viewBox="0 0 797 126" fill="none" xmlns="http://www.w3.org/2000/svg">
<rect width="797" height="126" rx="8" fill="#E3E4F4"/>
<circle cx="60.5007" cy="42.4187" r="8.60811" fill="#4E4F64"/>
<path d="M81.027 59.0264C83.2212 59.0264 85 60.8051 85 62.9993C85 65.1936 83.2212 66.9723 81.027 66.9723H39.973C37.7788 66.9723 36 65.1936 36 62.9993C36 60.8051 37.7788 59.0264 39.973 59.0264H81.027Z" fill="#4E4F64"/>
<circle cx="60.5007" cy="83.5808" r="8.60811" fill="#4E4F64"/>
<path d="M438.593 83.3394C438.281 83.3394 438.017 83.2314 437.801 83.0154C437.585 82.7994 437.477 82.5354 437.477 82.2234C437.477 81.9114 437.585 81.6474 437.801 81.4314C438.017 81.2154 438.281 81.1074 438.593 81.1074C438.893 81.1074 439.145 81.2154 439.349 81.4314C439.565 81.6474 439.673 81.9114 439.673 82.2234C439.673 82.5354 439.565 82.7994 439.349 83.0154C439.145 83.2314 438.893 83.3394 438.593 83.3394Z" fill="black"/>
<path d="M429.374 86.5799V86.4179C430.61 85.1459 431.546 83.6639 432.182 81.9719C432.83 80.2799 433.154 78.5039 433.154 76.6439C433.154 74.7359 432.812 72.8999 432.128 71.1359C431.456 69.3599 430.448 67.8419 429.104 66.5819V66.4199H430.814C432.074 67.5839 433.04 69.0659 433.712 70.8659C434.396 72.6539 434.738 74.5799 434.738 76.6439C434.738 78.6599 434.414 80.5379 433.766 82.2779C433.13 84.0179 432.236 85.4519 431.084 86.5799H429.374Z" fill="black"/>
<path d="M418.322 76.5895C418.322 74.5255 418.658 72.9175 419.33 71.7655C420.002 70.6015 421.178 70.0195 422.858 70.0195C424.526 70.0195 425.696 70.6015 426.368 71.7655C427.04 72.9175 427.376 74.5255 427.376 76.5895C427.376 78.6895 427.04 80.3215 426.368 81.4855C425.696 82.6495 424.526 83.2315 422.858 83.2315C421.178 83.2315 420.002 82.6495 419.33 81.4855C418.658 80.3215 418.322 78.6895 418.322 76.5895ZM425.756 76.5895C425.756 75.5455 425.684 74.6635 425.54 73.9435C425.408 73.2115 425.126 72.6235 424.694 72.1795C424.274 71.7355 423.662 71.5135 422.858 71.5135C422.042 71.5135 421.418 71.7355 420.986 72.1795C420.566 72.6235 420.284 73.2115 420.14 73.9435C420.008 74.6635 419.942 75.5455 419.942 76.5895C419.942 77.6695 420.008 78.5755 420.14 79.3075C420.284 80.0395 420.566 80.6275 420.986 81.0715C421.418 81.5155 422.042 81.7375 422.858 81.7375C423.662 81.7375 424.274 81.5155 424.694 81.0715C425.126 80.6275 425.408 80.0395 425.54 79.3075C425.684 78.5755 425.756 77.6695 425.756 76.5895Z" fill="black"/>
<path d="M407.02 76.5895C407.02 74.5255 407.356 72.9175 408.028 71.7655C408.7 70.6015 409.876 70.0195 411.556 70.0195C413.224 70.0195 414.394 70.6015 415.066 71.7655C415.738 72.9175 416.074 74.5255 416.074 76.5895C416.074 78.6895 415.738 80.3215 415.066 81.4855C414.394 82.6495 413.224 83.2315 411.556 83.2315C409.876 83.2315 408.7 82.6495 408.028 81.4855C407.356 80.3215 407.02 78.6895 407.02 76.5895ZM414.454 76.5895C414.454 75.5455 414.382 74.6635 414.238 73.9435C414.106 73.2115 413.824 72.6235 413.392 72.1795C412.972 71.7355 412.36 71.5135 411.556 71.5135C410.74 71.5135 410.116 71.7355 409.684 72.1795C409.264 72.6235 408.982 73.2115 408.838 73.9435C408.706 74.6635 408.64 75.5455 408.64 76.5895C408.64 77.6695 408.706 78.5755 408.838 79.3075C408.982 80.0395 409.264 80.6275 409.684 81.0715C410.116 81.5155 410.74 81.7375 411.556 81.7375C412.36 81.7375 412.972 81.5155 413.392 81.0715C413.824 80.6275 414.106 80.0395 414.238 79.3075C414.382 78.5755 414.454 77.6695 414.454 76.5895Z" fill="black"/>
<path d="M395.717 76.5895C395.717 74.5255 396.053 72.9175 396.725 71.7655C397.397 70.6015 398.573 70.0195 400.253 70.0195C401.921 70.0195 403.091 70.6015 403.763 71.7655C404.435 72.9175 404.771 74.5255 404.771 76.5895C404.771 78.6895 404.435 80.3215 403.763 81.4855C403.091 82.6495 401.921 83.2315 400.253 83.2315C398.573 83.2315 397.397 82.6495 396.725 81.4855C396.053 80.3215 395.717 78.6895 395.717 76.5895ZM403.151 76.5895C403.151 75.5455 403.079 74.6635 402.935 73.9435C402.803 73.2115 402.521 72.6235 402.089 72.1795C401.669 71.7355 401.057 71.5135 400.253 71.5135C399.437 71.5135 398.813 71.7355 398.381 72.1795C397.961 72.6235 397.679 73.2115 397.535 73.9435C397.403 74.6635 397.337 75.5455 397.337 76.5895C397.337 77.6695 397.403 78.5755 397.535 79.3075C397.679 80.0395 397.961 80.6275 398.381 81.0715C398.813 81.5155 399.437 81.7375 400.253 81.7375C401.057 81.7375 401.669 81.5155 402.089 81.0715C402.521 80.6275 402.803 80.0395 402.935 79.3075C403.079 78.5755 403.151 77.6695 403.151 76.5895Z" fill="black"/>
<path d="M394.112 80.9639L392.096 85.8059H390.998L392.312 80.9639H394.112Z" fill="black"/>
<path d="M380.846 76.5895C380.846 74.5255 381.182 72.9175 381.854 71.7655C382.526 70.6015 383.702 70.0195 385.382 70.0195C387.05 70.0195 388.22 70.6015 388.892 71.7655C389.564 72.9175 389.9 74.5255 389.9 76.5895C389.9 78.6895 389.564 80.3215 388.892 81.4855C388.22 82.6495 387.05 83.2315 385.382 83.2315C383.702 83.2315 382.526 82.6495 381.854 81.4855C381.182 80.3215 380.846 78.6895 380.846 76.5895ZM388.28 76.5895C388.28 75.5455 388.208 74.6635 388.064 73.9435C387.932 73.2115 387.65 72.6235 387.218 72.1795C386.798 71.7355 386.186 71.5135 385.382 71.5135C384.566 71.5135 383.942 71.7355 383.51 72.1795C383.09 72.6235 382.808 73.2115 382.664 73.9435C382.532 74.6635 382.466 75.5455 382.466 76.5895C382.466 77.6695 382.532 78.5755 382.664 79.3075C382.808 80.0395 383.09 80.6275 383.51 81.0715C383.942 81.5155 384.566 81.7375 385.382 81.7375C386.186 81.7375 386.798 81.5155 387.218 81.0715C387.65 80.6275 387.932 80.0395 388.064 79.3075C388.208 78.5755 388.28 77.6695 388.28 76.5895Z" fill="black"/>
<path d="M369.543 76.5895C369.543 74.5255 369.879 72.9175 370.551 71.7655C371.223 70.6015 372.399 70.0195 374.079 70.0195C375.747 70.0195 376.917 70.6015 377.589 71.7655C378.261 72.9175 378.597 74.5255 378.597 76.5895C378.597 78.6895 378.261 80.3215 377.589 81.4855C376.917 82.6495 375.747 83.2315 374.079 83.2315C372.399 83.2315 371.223 82.6495 370.551 81.4855C369.879 80.3215 369.543 78.6895 369.543 76.5895ZM376.977 76.5895C376.977 75.5455 376.905 74.6635 376.761 73.9435C376.629 73.2115 376.347 72.6235 375.915 72.1795C375.495 71.7355 374.883 71.5135 374.079 71.5135C373.263 71.5135 372.639 71.7355 372.207 72.1795C371.787 72.6235 371.505 73.2115 371.361 73.9435C371.229 74.6635 371.163 75.5455 371.163 76.5895C371.163 77.6695 371.229 78.5755 371.361 79.3075C371.505 80.0395 371.787 80.6275 372.207 81.0715C372.639 81.5155 373.263 81.7375 374.079 81.7375C374.883 81.7375 375.495 81.5155 375.915 81.0715C376.347 80.6275 376.629 80.0395 376.761 79.3075C376.905 78.5755 376.977 77.6695 376.977 76.5895Z" fill="black"/>
<path d="M358.24 76.5895C358.24 74.5255 358.576 72.9175 359.248 71.7655C359.92 70.6015 361.096 70.0195 362.776 70.0195C364.444 70.0195 365.614 70.6015 366.286 71.7655C366.958 72.9175 367.294 74.5255 367.294 76.5895C367.294 78.6895 366.958 80.3215 366.286 81.4855C365.614 82.6495 364.444 83.2315 362.776 83.2315C361.096 83.2315 359.92 82.6495 359.248 81.4855C358.576 80.3215 358.24 78.6895 358.24 76.5895ZM365.674 76.5895C365.674 75.5455 365.602 74.6635 365.458 73.9435C365.326 73.2115 365.044 72.6235 364.612 72.1795C364.192 71.7355 363.58 71.5135 362.776 71.5135C361.96 71.5135 361.336 71.7355 360.904 72.1795C360.484 72.6235 360.202 73.2115 360.058 73.9435C359.926 74.6635 359.86 75.5455 359.86 76.5895C359.86 77.6695 359.926 78.5755 360.058 79.3075C360.202 80.0395 360.484 80.6275 360.904 81.0715C361.336 81.5155 361.96 81.7375 362.776 81.7375C363.58 81.7375 364.192 81.5155 364.612 81.0715C365.044 80.6275 365.326 80.0395 365.458 79.3075C365.602 78.5755 365.674 77.6695 365.674 76.5895Z" fill="black"/>
<path d="M356.635 80.9639L354.619 85.8059H353.521L354.835 80.9639H356.635Z" fill="black"/>
<path d="M343.369 76.5895C343.369 74.5255 343.705 72.9175 344.377 71.7655C345.049 70.6015 346.225 70.0195 347.905 70.0195C349.573 70.0195 350.743 70.6015 351.415 71.7655C352.087 72.9175 352.423 74.5255 352.423 76.5895C352.423 78.6895 352.087 80.3215 351.415 81.4855C350.743 82.6495 349.573 83.2315 347.905 83.2315C346.225 83.2315 345.049 82.6495 344.377 81.4855C343.705 80.3215 343.369 78.6895 343.369 76.5895ZM350.803 76.5895C350.803 75.5455 350.731 74.6635 350.587 73.9435C350.455 73.2115 350.173 72.6235 349.741 72.1795C349.321 71.7355 348.709 71.5135 347.905 71.5135C347.089 71.5135 346.465 71.7355 346.033 72.1795C345.613 72.6235 345.331 73.2115 345.187 73.9435C345.055 74.6635 344.989 75.5455 344.989 76.5895C344.989 77.6695 345.055 78.5755 345.187 79.3075C345.331 80.0395 345.613 80.6275 346.033 81.0715C346.465 81.5155 347.089 81.7375 347.905 81.7375C348.709 81.7375 349.321 81.5155 349.741 81.0715C350.173 80.6275 350.455 80.0395 350.587 79.3075C350.731 78.5755 350.803 77.6695 350.803 76.5895Z" fill="black"/>
<path d="M332.066 76.5895C332.066 74.5255 332.402 72.9175 333.074 71.7655C333.746 70.6015 334.922 70.0195 336.602 70.0195C338.27 70.0195 339.44 70.6015 340.112 71.7655C340.784 72.9175 341.12 74.5255 341.12 76.5895C341.12 78.6895 340.784 80.3215 340.112 81.4855C339.44 82.6495 338.27 83.2315 336.602 83.2315C334.922 83.2315 333.746 82.6495 333.074 81.4855C332.402 80.3215 332.066 78.6895 332.066 76.5895ZM339.5 76.5895C339.5 75.5455 339.428 74.6635 339.284 73.9435C339.152 73.2115 338.87 72.6235 338.438 72.1795C338.018 71.7355 337.406 71.5135 336.602 71.5135C335.786 71.5135 335.162 71.7355 334.73 72.1795C334.31 72.6235 334.028 73.2115 333.884 73.9435C333.752 74.6635 333.686 75.5455 333.686 76.5895C333.686 77.6695 333.752 78.5755 333.884 79.3075C334.028 80.0395 334.31 80.6275 334.73 81.0715C335.162 81.5155 335.786 81.7375 336.602 81.7375C337.406 81.7375 338.018 81.5155 338.438 81.0715C338.87 80.6275 339.152 80.0395 339.284 79.3075C339.428 78.5755 339.5 77.6695 339.5 76.5895Z" fill="black"/>
<path d="M320.764 76.5895C320.764 74.5255 321.1 72.9175 321.772 71.7655C322.444 70.6015 323.62 70.0195 325.3 70.0195C326.968 70.0195 328.138 70.6015 328.81 71.7655C329.482 72.9175 329.818 74.5255 329.818 76.5895C329.818 78.6895 329.482 80.3215 328.81 81.4855C328.138 82.6495 326.968 83.2315 325.3 83.2315C323.62 83.2315 322.444 82.6495 321.772 81.4855C321.1 80.3215 320.764 78.6895 320.764 76.5895ZM328.198 76.5895C328.198 75.5455 328.126 74.6635 327.982 73.9435C327.85 73.2115 327.568 72.6235 327.136 72.1795C326.716 71.7355 326.104 71.5135 325.3 71.5135C324.484 71.5135 323.86 71.7355 323.428 72.1795C323.008 72.6235 322.726 73.2115 322.582 73.9435C322.45 74.6635 322.384 75.5455 322.384 76.5895C322.384 77.6695 322.45 78.5755 322.582 79.3075C322.726 80.0395 323.008 80.6275 323.428 81.0715C323.86 81.5155 324.484 81.7375 325.3 81.7375C326.104 81.7375 326.716 81.5155 327.136 81.0715C327.568 80.6275 327.85 80.0395 327.982 79.3075C328.126 78.5755 328.198 77.6695 328.198 76.5895Z" fill="black"/>
<path d="M319.159 80.9639L317.143 85.8059H316.045L317.359 80.9639H319.159Z" fill="black"/>
<path d="M314.192 71.6392H307.874V75.7432C308.15 75.3592 308.558 75.0472 309.098 74.8072C309.638 74.5552 310.22 74.4292 310.844 74.4292C311.84 74.4292 312.65 74.6392 313.274 75.0592C313.898 75.4672 314.342 76.0012 314.606 76.6612C314.882 77.3092 315.02 77.9992 315.02 78.7312C315.02 79.5952 314.858 80.3692 314.534 81.0532C314.21 81.7372 313.712 82.2772 313.04 82.6732C312.38 83.0692 311.558 83.2672 310.574 83.2672C309.314 83.2672 308.294 82.9432 307.514 82.2952C306.734 81.6472 306.26 80.7832 306.092 79.7032H307.694C307.85 80.3872 308.18 80.9212 308.684 81.3052C309.188 81.6892 309.824 81.8812 310.592 81.8812C311.54 81.8812 312.254 81.5992 312.734 81.0352C313.214 80.4592 313.454 79.7032 313.454 78.7672C313.454 77.8312 313.214 77.1112 312.734 76.6072C312.254 76.0912 311.546 75.8332 310.61 75.8332C309.974 75.8332 309.416 75.9892 308.936 76.3012C308.468 76.6012 308.126 77.0152 307.91 77.5432H306.362V70.1992H314.192V71.6392Z" fill="black"/>
<path d="M304.077 71.4959L299.073 83.2319H297.417L302.493 71.6579H295.545V70.2539H304.077V71.4959Z" fill="black"/>
<path d="M289.629 74.7175H287.559V83.2315H285.921V74.7175H284.643V73.3675H285.921V72.6655C285.921 71.5615 286.203 70.7575 286.767 70.2535C287.343 69.7375 288.261 69.4795 289.521 69.4795V70.8475C288.801 70.8475 288.291 70.9915 287.991 71.2795C287.703 71.5555 287.559 72.0175 287.559 72.6655V73.3675H289.629V74.7175Z" fill="black"/>
<path d="M278.402 83.3931C277.478 83.3931 276.638 83.1831 275.882 82.7631C275.138 82.3431 274.55 81.7491 274.118 80.9811C273.698 80.2011 273.488 79.3011 273.488 78.2811C273.488 77.2731 273.704 76.3851 274.136 75.6171C274.58 74.8371 275.18 74.2431 275.936 73.8351C276.692 73.4151 277.538 73.2051 278.474 73.2051C279.41 73.2051 280.256 73.4151 281.012 73.8351C281.768 74.2431 282.362 74.8311 282.794 75.5991C283.238 76.3671 283.46 77.2611 283.46 78.2811C283.46 79.3011 283.232 80.2011 282.776 80.9811C282.332 81.7491 281.726 82.3431 280.958 82.7631C280.19 83.1831 279.338 83.3931 278.402 83.3931ZM278.402 81.9531C278.99 81.9531 279.542 81.8151 280.058 81.5391C280.574 81.2631 280.988 80.8491 281.3 80.2971C281.624 79.7451 281.786 79.0731 281.786 78.2811C281.786 77.4891 281.63 76.8171 281.318 76.2651C281.006 75.7131 280.598 75.3051 280.094 75.0411C279.59 74.7651 279.044 74.6271 278.456 74.6271C277.856 74.6271 277.304 74.7651 276.8 75.0411C276.308 75.3051 275.912 75.7131 275.612 76.2651C275.312 76.8171 275.162 77.4891 275.162 78.2811C275.162 79.0851 275.306 79.7631 275.594 80.3151C275.894 80.8671 276.29 81.2811 276.782 81.5571C277.274 81.8211 277.814 81.9531 278.402 81.9531Z" fill="black"/>
<path d="M256.525 78.2631C256.525 77.2551 256.729 76.3731 257.137 75.6171C257.545 74.8491 258.103 74.2551 258.811 73.8351C259.531 73.4151 260.335 73.2051 261.223 73.2051C261.991 73.2051 262.705 73.3851 263.365 73.7451C264.025 74.0931 264.529 74.5551 264.877 75.1311V69.9111H266.533V83.2311H264.877V81.3771C264.553 81.9651 264.073 82.4511 263.437 82.8351C262.801 83.2071 262.057 83.3931 261.205 83.3931C260.329 83.3931 259.531 83.1771 258.811 82.7451C258.103 82.3131 257.545 81.7071 257.137 80.9271C256.729 80.1471 256.525 79.2591 256.525 78.2631ZM264.877 78.2811C264.877 77.5371 264.727 76.8891 264.427 76.3371C264.127 75.7851 263.719 75.3651 263.203 75.0771C262.699 74.7771 262.141 74.6271 261.529 74.6271C260.917 74.6271 260.359 74.7711 259.855 75.0591C259.351 75.3471 258.949 75.7671 258.649 76.3191C258.349 76.8711 258.199 77.5191 258.199 78.2631C258.199 79.0191 258.349 79.6791 258.649 80.2431C258.949 80.7951 259.351 81.2211 259.855 81.5211C260.359 81.8091 260.917 81.9531 261.529 81.9531C262.141 81.9531 262.699 81.8091 263.203 81.5211C263.719 81.2211 264.127 80.7951 264.427 80.2431C264.727 79.6791 264.877 79.0251 264.877 78.2811Z" fill="black"/>
<path d="M244.361 78.2631C244.361 77.2551 244.565 76.3731 244.973 75.6171C245.381 74.8491 245.939 74.2551 246.647 73.8351C247.367 73.4151 248.165 73.2051 249.041 73.2051C249.905 73.2051 250.655 73.3911 251.291 73.7631C251.927 74.1351 252.401 74.6031 252.713 75.1671V73.3671H254.369V83.2311H252.713V81.3951C252.389 81.9711 251.903 82.4511 251.255 82.8351C250.619 83.2071 249.875 83.3931 249.023 83.3931C248.147 83.3931 247.355 83.1771 246.647 82.7451C245.939 82.3131 245.381 81.7071 244.973 80.9271C244.565 80.1471 244.361 79.2591 244.361 78.2631ZM252.713 78.2811C252.713 77.5371 252.563 76.8891 252.263 76.3371C251.963 75.7851 251.555 75.3651 251.039 75.0771C250.535 74.7771 249.977 74.6271 249.365 74.6271C248.753 74.6271 248.195 74.7711 247.691 75.0591C247.187 75.3471 246.785 75.7671 246.485 76.3191C246.185 76.8711 246.035 77.5191 246.035 78.2631C246.035 79.0191 246.185 79.6791 246.485 80.2431C246.785 80.7951 247.187 81.2211 247.691 81.5211C248.195 81.8091 248.753 81.9531 249.365 81.9531C249.977 81.9531 250.535 81.8091 251.039 81.5211C251.555 81.2211 251.963 80.7951 252.263 80.2431C252.563 79.6791 252.713 79.0251 252.713 78.2811Z" fill="black"/>
<path d="M242.811 77.9211C242.811 78.2331 242.793 78.5631 242.757 78.9111H234.873C234.933 79.8831 235.263 80.6451 235.863 81.1971C236.475 81.7371 237.213 82.0071 238.077 82.0071C238.785 82.0071 239.373 81.8451 239.841 81.5211C240.321 81.1851 240.657 80.7411 240.849 80.1891H242.613C242.349 81.1371 241.821 81.9111 241.029 82.5111C240.237 83.0991 239.253 83.3931 238.077 83.3931C237.141 83.3931 236.301 83.1831 235.557 82.7631C234.825 82.3431 234.249 81.7491 233.829 80.9811C233.409 80.2011 233.199 79.3011 233.199 78.2811C233.199 77.2611 233.403 76.3671 233.811 75.5991C234.219 74.8311 234.789 74.2431 235.521 73.8351C236.265 73.4151 237.117 73.2051 238.077 73.2051C239.013 73.2051 239.841 73.4091 240.561 73.8171C241.281 74.2251 241.833 74.7891 242.217 75.5091C242.613 76.2171 242.811 77.0211 242.811 77.9211ZM241.119 77.5791C241.119 76.9551 240.981 76.4211 240.705 75.9771C240.429 75.5211 240.051 75.1791 239.571 74.9511C239.103 74.7111 238.581 74.5911 238.005 74.5911C237.177 74.5911 236.469 74.8551 235.881 75.3831C235.305 75.9111 234.975 76.6431 234.891 77.5791H241.119Z" fill="black"/>
<path d="M229.254 74.7178V80.5318C229.254 81.0118 229.356 81.3538 229.56 81.5578C229.764 81.7498 230.118 81.8458 230.622 81.8458H231.828V83.2318H230.352C229.44 83.2318 228.756 83.0218 228.3 82.6018C227.844 82.1818 227.616 81.4918 227.616 80.5318V74.7178H226.338V73.3678H227.616V70.8838H229.254V73.3678H231.828V74.7178H229.254Z" fill="black"/>
<path d="M221.343 83.3931C220.587 83.3931 219.909 83.2671 219.309 83.0151C218.709 82.7511 218.235 82.3911 217.887 81.9351C217.539 81.4671 217.347 80.9331 217.311 80.3331H219.003C219.051 80.8251 219.279 81.2271 219.687 81.5391C220.107 81.8511 220.653 82.0071 221.325 82.0071C221.949 82.0071 222.441 81.8691 222.801 81.5931C223.161 81.3171 223.341 80.9691 223.341 80.5491C223.341 80.1171 223.149 79.7991 222.765 79.5951C222.381 79.3791 221.787 79.1691 220.983 78.9651C220.251 78.7731 219.651 78.5811 219.183 78.3891C218.727 78.1851 218.331 77.8911 217.995 77.5071C217.671 77.1111 217.509 76.5951 217.509 75.9591C217.509 75.4551 217.659 74.9931 217.959 74.5731C218.259 74.1531 218.685 73.8231 219.237 73.5831C219.789 73.3311 220.419 73.2051 221.127 73.2051C222.219 73.2051 223.101 73.4811 223.773 74.0331C224.445 74.5851 224.805 75.3411 224.853 76.3011H223.215C223.179 75.7851 222.969 75.3711 222.585 75.0591C222.213 74.7471 221.709 74.5911 221.073 74.5911C220.485 74.5911 220.017 74.7171 219.669 74.9691C219.321 75.2211 219.147 75.5511 219.147 75.9591C219.147 76.2831 219.249 76.5531 219.453 76.7691C219.669 76.9731 219.933 77.1411 220.245 77.2731C220.569 77.3931 221.013 77.5311 221.577 77.6871C222.285 77.8791 222.861 78.0711 223.305 78.2631C223.749 78.4431 224.127 78.7191 224.439 79.0911C224.763 79.4631 224.931 79.9491 224.943 80.5491C224.943 81.0891 224.793 81.5751 224.493 82.0071C224.193 82.4391 223.767 82.7811 223.215 83.0331C222.675 83.2731 222.051 83.3931 221.343 83.3931Z" fill="black"/>
<path d="M211.144 73.1875C212.344 73.1875 213.316 73.5535 214.06 74.2855C214.804 75.0055 215.176 76.0495 215.176 77.4175V83.2315H213.556V77.6515C213.556 76.6675 213.31 75.9175 212.818 75.4015C212.326 74.8735 211.654 74.6095 210.802 74.6095C209.938 74.6095 209.248 74.8795 208.732 75.4195C208.228 75.9595 207.976 76.7455 207.976 77.7775V83.2315H206.338V73.3675H207.976V74.7715C208.3 74.2675 208.738 73.8775 209.29 73.6015C209.854 73.3255 210.472 73.1875 211.144 73.1875Z" fill="black"/>
<path d="M202.753 71.7652C202.441 71.7652 202.177 71.6572 201.961 71.4412C201.745 71.2252 201.637 70.9612 201.637 70.6492C201.637 70.3372 201.745 70.0732 201.961 69.8572C202.177 69.6412 202.441 69.5332 202.753 69.5332C203.053 69.5332 203.305 69.6412 203.509 69.8572C203.725 70.0732 203.833 70.3372 203.833 70.6492C203.833 70.9612 203.725 71.2252 203.509 71.4412C203.305 71.6572 203.053 71.7652 202.753 71.7652ZM203.545 73.3672V83.2312H201.907V73.3672H203.545Z" fill="black"/>
<path d="M190.523 70.6855H192.341L190.613 74.7715H189.461L190.523 70.6855ZM193.439 70.6855H195.257L193.529 74.7715H192.359L193.439 70.6855Z" fill="black"/>
<path d="M183.564 73.1875C184.764 73.1875 185.736 73.5535 186.48 74.2855C187.224 75.0055 187.596 76.0495 187.596 77.4175V83.2315H185.976V77.6515C185.976 76.6675 185.73 75.9175 185.238 75.4015C184.746 74.8735 184.074 74.6095 183.222 74.6095C182.358 74.6095 181.668 74.8795 181.152 75.4195C180.648 75.9595 180.396 76.7455 180.396 77.7775V83.2315H178.758V73.3675H180.396V74.7715C180.72 74.2675 181.158 73.8775 181.71 73.6015C182.274 73.3255 182.892 73.1875 183.564 73.1875Z" fill="black"/>
<path d="M171.545 83.3931C170.621 83.3931 169.781 83.1831 169.025 82.7631C168.281 82.3431 167.693 81.7491 167.261 80.9811C166.841 80.2011 166.631 79.3011 166.631 78.2811C166.631 77.2731 166.847 76.3851 167.279 75.6171C167.723 74.8371 168.323 74.2431 169.079 73.8351C169.835 73.4151 170.681 73.2051 171.617 73.2051C172.553 73.2051 173.399 73.4151 174.155 73.8351C174.911 74.2431 175.505 74.8311 175.937 75.5991C176.381 76.3671 176.603 77.2611 176.603 78.2811C176.603 79.3011 176.375 80.2011 175.919 80.9811C175.475 81.7491 174.869 82.3431 174.101 82.7631C173.333 83.1831 172.481 83.3931 171.545 83.3931ZM171.545 81.9531C172.133 81.9531 172.685 81.8151 173.201 81.5391C173.717 81.2631 174.131 80.8491 174.443 80.2971C174.767 79.7451 174.929 79.0731 174.929 78.2811C174.929 77.4891 174.773 76.8171 174.461 76.2651C174.149 75.7131 173.741 75.3051 173.237 75.0411C172.733 74.7651 172.187 74.6271 171.599 74.6271C170.999 74.6271 170.447 74.7651 169.943 75.0411C169.451 75.3051 169.055 75.7131 168.755 76.2651C168.455 76.8171 168.305 77.4891 168.305 78.2811C168.305 79.0851 168.449 79.7631 168.737 80.3151C169.037 80.8671 169.433 81.2811 169.925 81.5571C170.417 81.8211 170.957 81.9531 171.545 81.9531Z" fill="black"/>
<path d="M163.659 71.7652C163.347 71.7652 163.083 71.6572 162.867 71.4412C162.651 71.2252 162.543 70.9612 162.543 70.6492C162.543 70.3372 162.651 70.0732 162.867 69.8572C163.083 69.6412 163.347 69.5332 163.659 69.5332C163.959 69.5332 164.211 69.6412 164.415 69.8572C164.631 70.0732 164.739 70.3372 164.739 70.6492C164.739 70.9612 164.631 71.2252 164.415 71.4412C164.211 71.6572 163.959 71.7652 163.659 71.7652ZM164.451 73.3672V83.2312H162.813V73.3672H164.451Z" fill="black"/>
<path d="M160.023 69.9111V83.2311H158.385V69.9111H160.023Z" fill="black"/>
<path d="M155.593 69.9111V83.2311H153.955V69.9111H155.593Z" fill="black"/>
<path d="M150.37 71.7652C150.058 71.7652 149.794 71.6572 149.578 71.4412C149.362 71.2252 149.254 70.9612 149.254 70.6492C149.254 70.3372 149.362 70.0732 149.578 69.8572C149.794 69.6412 150.058 69.5332 150.37 69.5332C150.67 69.5332 150.922 69.6412 151.126 69.8572C151.342 70.0732 151.45 70.3372 151.45 70.6492C151.45 70.9612 151.342 71.2252 151.126 71.4412C150.922 71.6572 150.67 71.7652 150.37 71.7652ZM151.162 73.3672V83.2312H149.524V73.3672H151.162Z" fill="black"/>
<path d="M138.999 75.2031C139.335 74.6151 139.827 74.1351 140.475 73.7631C141.123 73.3911 141.861 73.2051 142.689 73.2051C143.577 73.2051 144.375 73.4151 145.083 73.8351C145.791 74.2551 146.349 74.8491 146.757 75.6171C147.165 76.3731 147.369 77.2551 147.369 78.2631C147.369 79.2591 147.165 80.1471 146.757 80.9271C146.349 81.7071 145.785 82.3131 145.065 82.7451C144.357 83.1771 143.565 83.3931 142.689 83.3931C141.837 83.3931 141.087 83.2071 140.439 82.8351C139.803 82.4631 139.323 81.9891 138.999 81.4131V83.2311H137.361V69.9111H138.999V75.2031ZM145.695 78.2631C145.695 77.5191 145.545 76.8711 145.245 76.3191C144.945 75.7671 144.537 75.3471 144.021 75.0591C143.517 74.7711 142.959 74.6271 142.347 74.6271C141.747 74.6271 141.189 74.7771 140.673 75.0771C140.169 75.3651 139.761 75.7911 139.449 76.3551C139.149 76.9071 138.999 77.5491 138.999 78.2811C138.999 79.0251 139.149 79.6791 139.449 80.2431C139.761 80.7951 140.169 81.2211 140.673 81.5211C141.189 81.8091 141.747 81.9531 142.347 81.9531C142.959 81.9531 143.517 81.8091 144.021 81.5211C144.537 81.2211 144.945 80.7951 145.245 80.2431C145.545 79.6791 145.695 79.0191 145.695 78.2631Z" fill="black"/>
<path d="M716.379 44.6392H710.061V48.7432C710.337 48.3592 710.745 48.0472 711.285 47.8072C711.825 47.5552 712.407 47.4292 713.031 47.4292C714.027 47.4292 714.837 47.6392 715.461 48.0592C716.085 48.4672 716.529 49.0012 716.793 49.6612C717.069 50.3092 717.207 50.9992 717.207 51.7312C717.207 52.5952 717.045 53.3692 716.721 54.0532C716.397 54.7372 715.899 55.2772 715.227 55.6732C714.567 56.0692 713.745 56.2672 712.761 56.2672C711.501 56.2672 710.481 55.9432 709.701 55.2952C708.921 54.6472 708.447 53.7832 708.279 52.7032H709.881C710.037 53.3872 710.367 53.9212 710.871 54.3052C711.375 54.6892 712.011 54.8812 712.779 54.8812C713.727 54.8812 714.441 54.5992 714.921 54.0352C715.401 53.4592 715.641 52.7032 715.641 51.7672C715.641 50.8312 715.401 50.1112 714.921 49.6072C714.441 49.0912 713.733 48.8332 712.797 48.8332C712.161 48.8332 711.603 48.9892 711.123 49.3012C710.655 49.6012 710.313 50.0152 710.097 50.5432H708.549V43.1992H716.379V44.6392Z" fill="black"/>
<path d="M706.264 44.4959L701.26 56.2319H699.604L704.68 44.6579H697.732V43.2539H706.264V44.4959Z" fill="black"/>
<path d="M692.568 47.7715H690.732L692.46 43.6855H693.63L692.568 47.7715ZM695.484 47.7715H693.648L695.376 43.6855H696.546L695.484 47.7715Z" fill="black"/>
<path d="M685.012 53.9639L682.996 58.8059H681.898L683.212 53.9639H685.012Z" fill="black"/>
<path d="M680.061 56.3394C679.749 56.3394 679.485 56.2314 679.269 56.0154C679.053 55.7994 678.945 55.5354 678.945 55.2234C678.945 54.9114 679.053 54.6474 679.269 54.4314C679.485 54.2154 679.749 54.1074 680.061 54.1074C680.361 54.1074 680.613 54.2154 680.817 54.4314C681.033 54.6474 681.141 54.9114 681.141 55.2234C681.141 55.5354 681.033 55.7994 680.817 56.0154C680.613 56.2314 680.361 56.3394 680.061 56.3394Z" fill="black"/>
<path d="M671.444 46.2051C672.296 46.2051 673.04 46.3911 673.676 46.7631C674.324 47.1351 674.804 47.6031 675.116 48.1671V46.3671H676.772V56.4471C676.772 57.3471 676.58 58.1451 676.196 58.8411C675.812 59.5491 675.26 60.1011 674.54 60.4971C673.832 60.8931 673.004 61.0911 672.056 61.0911C670.76 61.0911 669.68 60.7851 668.816 60.1731C667.952 59.5611 667.442 58.7271 667.286 57.6711H668.906C669.086 58.2711 669.458 58.7511 670.022 59.1111C670.586 59.4831 671.264 59.6691 672.056 59.6691C672.956 59.6691 673.688 59.3871 674.252 58.8231C674.828 58.2591 675.116 57.4671 675.116 56.4471V54.3771C674.792 54.9531 674.312 55.4331 673.676 55.8171C673.04 56.2011 672.296 56.3931 671.444 56.3931C670.568 56.3931 669.77 56.1771 669.05 55.7451C668.342 55.3131 667.784 54.7071 667.376 53.9271C666.968 53.1471 666.764 52.2591 666.764 51.2631C666.764 50.2551 666.968 49.3731 667.376 48.6171C667.784 47.8491 668.342 47.2551 669.05 46.8351C669.77 46.4151 670.568 46.2051 671.444 46.2051ZM675.116 51.2811C675.116 50.5371 674.966 49.8891 674.666 49.3371C674.366 48.7851 673.958 48.3651 673.442 48.0771C672.938 47.7771 672.38 47.6271 671.768 47.6271C671.156 47.6271 670.598 47.7711 670.094 48.0591C669.59 48.3471 669.188 48.7671 668.888 49.3191C668.588 49.8711 668.438 50.5191 668.438 51.2631C668.438 52.0191 668.588 52.6791 668.888 53.2431C669.188 53.7951 669.59 54.2211 670.094 54.5211C670.598 54.8091 671.156 54.9531 671.768 54.9531C672.38 54.9531 672.938 54.8091 673.442 54.5211C673.958 54.2211 674.366 53.7951 674.666 53.2431C674.966 52.6791 675.116 52.0251 675.116 51.2811Z" fill="black"/>
<path d="M664.12 56.3394C663.808 56.3394 663.544 56.2314 663.328 56.0154C663.112 55.7994 663.004 55.5354 663.004 55.2234C663.004 54.9114 663.112 54.6474 663.328 54.4314C663.544 54.2154 663.808 54.1074 664.12 54.1074C664.42 54.1074 664.672 54.2154 664.876 54.4314C665.092 54.6474 665.2 54.9114 665.2 55.2234C665.2 55.5354 665.092 55.7994 664.876 56.0154C664.672 56.2314 664.42 56.3394 664.12 56.3394Z" fill="black"/>
<path d="M661.434 50.9211C661.434 51.2331 661.416 51.5631 661.38 51.9111H653.496C653.556 52.8831 653.886 53.6451 654.486 54.1971C655.098 54.7371 655.836 55.0071 656.7 55.0071C657.408 55.0071 657.996 54.8451 658.464 54.5211C658.944 54.1851 659.28 53.7411 659.472 53.1891H661.236C660.972 54.1371 660.444 54.9111 659.652 55.5111C658.86 56.0991 657.876 56.3931 656.7 56.3931C655.764 56.3931 654.924 56.1831 654.18 55.7631C653.448 55.3431 652.872 54.7491 652.452 53.9811C652.032 53.2011 651.822 52.3011 651.822 51.2811C651.822 50.2611 652.026 49.3671 652.434 48.5991C652.842 47.8311 653.412 47.2431 654.144 46.8351C654.888 46.4151 655.74 46.2051 656.7 46.2051C657.636 46.2051 658.464 46.4091 659.184 46.8171C659.904 47.2251 660.456 47.7891 660.84 48.5091C661.236 49.2171 661.434 50.0211 661.434 50.9211ZM659.742 50.5791C659.742 49.9551 659.604 49.4211 659.328 48.9771C659.052 48.5211 658.674 48.1791 658.194 47.9511C657.726 47.7111 657.204 47.5911 656.628 47.5911C655.8 47.5911 655.092 47.8551 654.504 48.3831C653.928 48.9111 653.598 49.6431 653.514 50.5791H659.742Z" fill="black"/>
<path d="M648.472 59.5799C647.32 58.4519 646.42 57.0179 645.772 55.2779C645.136 53.5379 644.818 51.6599 644.818 49.6439C644.818 47.5799 645.154 45.6539 645.826 43.8659C646.51 42.0659 647.482 40.5839 648.742 39.4199H650.452V39.5819C649.108 40.8419 648.094 42.3599 647.41 44.1359C646.738 45.8999 646.402 47.7359 646.402 49.6439C646.402 51.5039 646.72 53.2799 647.356 54.9719C648.004 56.6639 648.946 58.1459 650.182 59.4179V59.5799H648.472Z" fill="black"/>
<path d="M637.816 46.3672L631.876 60.8752H630.184L632.128 56.1232L628.15 46.3672H629.968L633.064 54.3592L636.124 46.3672H637.816Z" fill="black"/>
<path d="M624.762 47.7178V53.5318C624.762 54.0118 624.864 54.3538 625.068 54.5578C625.272 54.7498 625.626 54.8458 626.13 54.8458H627.336V56.2318H625.86C624.948 56.2318 624.264 56.0218 623.808 55.6018C623.352 55.1818 623.124 54.4918 623.124 53.5318V47.7178H621.846V46.3678H623.124V43.8838H624.762V46.3678H627.336V47.7178H624.762Z" fill="black"/>
<path d="M619.178 44.7652C618.866 44.7652 618.603 44.6572 618.387 44.4412C618.171 44.2252 618.062 43.9612 618.062 43.6492C618.062 43.3372 618.171 43.0732 618.387 42.8572C618.603 42.6412 618.866 42.5332 619.178 42.5332C619.478 42.5332 619.731 42.6412 619.935 42.8572C620.151 43.0732 620.259 43.3372 620.259 43.6492C620.259 43.9612 620.151 44.2252 619.935 44.4412C619.731 44.6572 619.478 44.7652 619.178 44.7652ZM619.97 46.3672V56.2312H618.332V46.3672H619.97Z" fill="black"/>
<path d="M615.542 42.9111V56.2311H613.904V42.9111H615.542Z" fill="black"/>
<path d="M610.319 44.7652C610.007 44.7652 609.743 44.6572 609.527 44.4412C609.311 44.2252 609.203 43.9612 609.203 43.6492C609.203 43.3372 609.311 43.0732 609.527 42.8572C609.743 42.6412 610.007 42.5332 610.319 42.5332C610.619 42.5332 610.871 42.6412 611.075 42.8572C611.291 43.0732 611.399 43.3372 611.399 43.6492C611.399 43.9612 611.291 44.2252 611.075 44.4412C610.871 44.6572 610.619 44.7652 610.319 44.7652ZM611.111 46.3672V56.2312H609.473V46.3672H611.111Z" fill="black"/>
<path d="M598.949 48.2031C599.285 47.6151 599.777 47.1351 600.425 46.7631C601.073 46.3911 601.811 46.2051 602.639 46.2051C603.527 46.2051 604.325 46.4151 605.033 46.8351C605.741 47.2551 606.299 47.8491 606.707 48.6171C607.115 49.3731 607.319 50.2551 607.319 51.2631C607.319 52.2591 607.115 53.1471 606.707 53.9271C606.299 54.7071 605.735 55.3131 605.015 55.7451C604.307 56.1771 603.515 56.3931 602.639 56.3931C601.787 56.3931 601.037 56.2071 600.389 55.8351C599.753 55.4631 599.273 54.9891 598.949 54.4131V56.2311H597.311V42.9111H598.949V48.2031ZM605.645 51.2631C605.645 50.5191 605.495 49.8711 605.195 49.3191C604.895 48.7671 604.487 48.3471 603.971 48.0591C603.467 47.7711 602.909 47.6271 602.297 47.6271C601.697 47.6271 601.139 47.7771 600.623 48.0771C600.119 48.3651 599.711 48.7911 599.399 49.3551C599.099 49.9071 598.949 50.5491 598.949 51.2811C598.949 52.0251 599.099 52.6791 599.399 53.2431C599.711 53.7951 600.119 54.2211 600.623 54.5211C601.139 54.8091 601.697 54.9531 602.297 54.9531C602.909 54.9531 603.467 54.8091 603.971 54.5211C604.487 54.2211 604.895 53.7951 605.195 53.2431C605.495 52.6791 605.645 52.0191 605.645 51.2631Z" fill="black"/>
<path d="M584.533 51.2631C584.533 50.2551 584.737 49.3731 585.145 48.6171C585.553 47.8491 586.111 47.2551 586.819 46.8351C587.539 46.4151 588.337 46.2051 589.213 46.2051C590.077 46.2051 590.827 46.3911 591.463 46.7631C592.099 47.1351 592.573 47.6031 592.885 48.1671V46.3671H594.541V56.2311H592.885V54.3951C592.561 54.9711 592.075 55.4511 591.427 55.8351C590.791 56.2071 590.047 56.3931 589.195 56.3931C588.319 56.3931 587.527 56.1771 586.819 55.7451C586.111 55.3131 585.553 54.7071 585.145 53.9271C584.737 53.1471 584.533 52.2591 584.533 51.2631ZM592.885 51.2811C592.885 50.5371 592.735 49.8891 592.435 49.3371C592.135 48.7851 591.727 48.3651 591.211 48.0771C590.707 47.7771 590.149 47.6271 589.537 47.6271C588.925 47.6271 588.367 47.7711 587.863 48.0591C587.359 48.3471 586.957 48.7671 586.657 49.3191C586.357 49.8711 586.207 50.5191 586.207 51.2631C586.207 52.0191 586.357 52.6791 586.657 53.2431C586.957 53.7951 587.359 54.2211 587.863 54.5211C588.367 54.8091 588.925 54.9531 589.537 54.9531C590.149 54.9531 590.707 54.8091 591.211 54.5211C591.727 54.2211 592.135 53.7951 592.435 53.2431C592.735 52.6791 592.885 52.0251 592.885 51.2811Z" fill="black"/>
<path d="M572.369 51.2631C572.369 50.2551 572.573 49.3731 572.981 48.6171C573.389 47.8491 573.947 47.2551 574.655 46.8351C575.375 46.4151 576.179 46.2051 577.067 46.2051C577.835 46.2051 578.549 46.3851 579.209 46.7451C579.869 47.0931 580.373 47.5551 580.721 48.1311V42.9111H582.377V56.2311H580.721V54.3771C580.397 54.9651 579.917 55.4511 579.281 55.8351C578.645 56.2071 577.901 56.3931 577.049 56.3931C576.173 56.3931 575.375 56.1771 574.655 55.7451C573.947 55.3131 573.389 54.7071 572.981 53.9271C572.573 53.1471 572.369 52.2591 572.369 51.2631ZM580.721 51.2811C580.721 50.5371 580.571 49.8891 580.271 49.3371C579.971 48.7851 579.563 48.3651 579.047 48.0771C578.543 47.7771 577.985 47.6271 577.373 47.6271C576.761 47.6271 576.203 47.7711 575.699 48.0591C575.195 48.3471 574.793 48.7671 574.493 49.3191C574.193 49.8711 574.043 50.5191 574.043 51.2631C574.043 52.0191 574.193 52.6791 574.493 53.2431C574.793 53.7951 575.195 54.2211 575.699 54.5211C576.203 54.8091 576.761 54.9531 577.373 54.9531C577.985 54.9531 578.543 54.8091 579.047 54.5211C579.563 54.2211 579.971 53.7951 580.271 53.2431C580.571 52.6791 580.721 52.0251 580.721 51.2811Z" fill="black"/>
<path d="M560.205 51.2631C560.205 50.2551 560.409 49.3731 560.817 48.6171C561.225 47.8491 561.783 47.2551 562.491 46.8351C563.211 46.4151 564.009 46.2051 564.885 46.2051C565.749 46.2051 566.499 46.3911 567.135 46.7631C567.771 47.1351 568.245 47.6031 568.557 48.1671V46.3671H570.213V56.2311H568.557V54.3951C568.233 54.9711 567.747 55.4511 567.099 55.8351C566.463 56.2071 565.719 56.3931 564.867 56.3931C563.991 56.3931 563.199 56.1771 562.491 55.7451C561.783 55.3131 561.225 54.7071 560.817 53.9271C560.409 53.1471 560.205 52.2591 560.205 51.2631ZM568.557 51.2811C568.557 50.5371 568.407 49.8891 568.107 49.3371C567.807 48.7851 567.399 48.3651 566.883 48.0771C566.379 47.7771 565.821 47.6271 565.209 47.6271C564.597 47.6271 564.039 47.7711 563.535 48.0591C563.031 48.3471 562.629 48.7671 562.329 49.3191C562.029 49.8711 561.879 50.5191 561.879 51.2631C561.879 52.0191 562.029 52.6791 562.329 53.2431C562.629 53.7951 563.031 54.2211 563.535 54.5211C564.039 54.8091 564.597 54.9531 565.209 54.9531C565.821 54.9531 566.379 54.8091 566.883 54.5211C567.399 54.2211 567.807 53.7951 568.107 53.2431C568.407 52.6791 568.557 52.0251 568.557 51.2811Z" fill="black"/>
<path d="M558.655 50.9211C558.655 51.2331 558.637 51.5631 558.601 51.9111H550.717C550.777 52.8831 551.107 53.6451 551.707 54.1971C552.319 54.7371 553.057 55.0071 553.921 55.0071C554.629 55.0071 555.217 54.8451 555.685 54.5211C556.165 54.1851 556.501 53.7411 556.693 53.1891H558.457C558.193 54.1371 557.665 54.9111 556.873 55.5111C556.081 56.0991 555.097 56.3931 553.921 56.3931C552.985 56.3931 552.145 56.1831 551.401 55.7631C550.669 55.3431 550.093 54.7491 549.673 53.9811C549.253 53.2011 549.043 52.3011 549.043 51.2811C549.043 50.2611 549.247 49.3671 549.655 48.5991C550.063 47.8311 550.633 47.2431 551.365 46.8351C552.109 46.4151 552.961 46.2051 553.921 46.2051C554.857 46.2051 555.685 46.4091 556.405 46.8171C557.125 47.2251 557.677 47.7891 558.061 48.5091C558.457 49.2171 558.655 50.0211 558.655 50.9211ZM556.963 50.5791C556.963 49.9551 556.825 49.4211 556.549 48.9771C556.273 48.5211 555.895 48.1791 555.415 47.9511C554.947 47.7111 554.425 47.5911 553.849 47.5911C553.021 47.5911 552.313 47.8551 551.725 48.3831C551.149 48.9111 550.819 49.6431 550.735 50.5791H556.963Z" fill="black"/>
<path d="M544.579 47.9695C544.867 47.4055 545.275 46.9675 545.803 46.6555C546.343 46.3435 546.997 46.1875 547.765 46.1875V47.8795H547.333C545.497 47.8795 544.579 48.8755 544.579 50.8675V56.2315H542.941V46.3675H544.579V47.9695Z" fill="black"/>
<path d="M536.496 46.3672L530.556 60.8752H528.864L530.808 56.1232L526.83 46.3672H528.648L531.744 54.3592L534.804 46.3672H536.496Z" fill="black"/>
<path d="M525.208 42.9111V56.2311H523.57V42.9111H525.208Z" fill="black"/>
<path d="M510.793 51.2631C510.793 50.2551 510.997 49.3731 511.405 48.6171C511.813 47.8491 512.371 47.2551 513.079 46.8351C513.799 46.4151 514.603 46.2051 515.491 46.2051C516.259 46.2051 516.973 46.3851 517.633 46.7451C518.293 47.0931 518.797 47.5551 519.145 48.1311V42.9111H520.801V56.2311H519.145V54.3771C518.821 54.9651 518.341 55.4511 517.705 55.8351C517.069 56.2071 516.325 56.3931 515.473 56.3931C514.597 56.3931 513.799 56.1771 513.079 55.7451C512.371 55.3131 511.813 54.7071 511.405 53.9271C510.997 53.1471 510.793 52.2591 510.793 51.2631ZM519.145 51.2811C519.145 50.5371 518.995 49.8891 518.695 49.3371C518.395 48.7851 517.987 48.3651 517.471 48.0771C516.967 47.7771 516.409 47.6271 515.797 47.6271C515.185 47.6271 514.627 47.7711 514.123 48.0591C513.619 48.3471 513.217 48.7671 512.917 49.3191C512.617 49.8711 512.467 50.5191 512.467 51.2631C512.467 52.0191 512.617 52.6791 512.917 53.2431C513.217 53.7951 513.619 54.2211 514.123 54.5211C514.627 54.8091 515.185 54.9531 515.797 54.9531C516.409 54.9531 516.967 54.8091 517.471 54.5211C517.987 54.2211 518.395 53.7951 518.695 53.2431C518.995 52.6791 519.145 52.0251 519.145 51.2811Z" fill="black"/>
<path d="M504.699 46.1875C505.899 46.1875 506.871 46.5535 507.615 47.2855C508.359 48.0055 508.731 49.0495 508.731 50.4175V56.2315H507.111V50.6515C507.111 49.6675 506.865 48.9175 506.373 48.4015C505.881 47.8735 505.209 47.6095 504.357 47.6095C503.493 47.6095 502.803 47.8795 502.287 48.4195C501.783 48.9595 501.531 49.7455 501.531 50.7775V56.2315H499.893V46.3675H501.531V47.7715C501.855 47.2675 502.293 46.8775 502.845 46.6015C503.409 46.3255 504.027 46.1875 504.699 46.1875Z" fill="black"/>
<path d="M497.729 50.9211C497.729 51.2331 497.711 51.5631 497.675 51.9111H489.791C489.851 52.8831 490.181 53.6451 490.781 54.1971C491.393 54.7371 492.131 55.0071 492.995 55.0071C493.703 55.0071 494.291 54.8451 494.759 54.5211C495.239 54.1851 495.575 53.7411 495.767 53.1891H497.531C497.267 54.1371 496.739 54.9111 495.947 55.5111C495.155 56.0991 494.171 56.3931 492.995 56.3931C492.059 56.3931 491.219 56.1831 490.475 55.7631C489.743 55.3431 489.167 54.7491 488.747 53.9811C488.327 53.2011 488.117 52.3011 488.117 51.2811C488.117 50.2611 488.321 49.3671 488.729 48.5991C489.137 47.8311 489.707 47.2431 490.439 46.8351C491.183 46.4151 492.035 46.2051 492.995 46.2051C493.931 46.2051 494.759 46.4091 495.479 46.8171C496.199 47.2251 496.751 47.7891 497.135 48.5091C497.531 49.2171 497.729 50.0211 497.729 50.9211ZM496.037 50.5791C496.037 49.9551 495.899 49.4211 495.623 48.9771C495.347 48.5211 494.969 48.1791 494.489 47.9511C494.021 47.7111 493.499 47.5911 492.923 47.5911C492.095 47.5911 491.387 47.8551 490.799 48.3831C490.223 48.9111 489.893 49.6431 489.809 50.5791H496.037Z" fill="black"/>
<path d="M485.145 44.7652C484.833 44.7652 484.569 44.6572 484.353 44.4412C484.137 44.2252 484.029 43.9612 484.029 43.6492C484.029 43.3372 484.137 43.0732 484.353 42.8572C484.569 42.6412 484.833 42.5332 485.145 42.5332C485.445 42.5332 485.697 42.6412 485.901 42.8572C486.117 43.0732 486.225 43.3372 486.225 43.6492C486.225 43.9612 486.117 44.2252 485.901 44.4412C485.697 44.6572 485.445 44.7652 485.145 44.7652ZM485.937 46.3672V56.2312H484.299V46.3672H485.937Z" fill="black"/>
<path d="M479.224 47.9695C479.512 47.4055 479.92 46.9675 480.448 46.6555C480.988 46.3435 481.642 46.1875 482.41 46.1875V47.8795H481.978C480.142 47.8795 479.224 48.8755 479.224 50.8675V56.2315H477.586V46.3675H479.224V47.9695Z" fill="black"/>
<path d="M475.675 47.7175H473.605V56.2315H471.967V47.7175H470.689V46.3675H471.967V45.6655C471.967 44.5615 472.249 43.7575 472.813 43.2535C473.389 42.7375 474.307 42.4795 475.567 42.4795V43.8475C474.847 43.8475 474.337 43.9915 474.037 44.2795C473.749 44.5555 473.605 45.0175 473.605 45.6655V46.3675H475.675V47.7175Z" fill="black"/>
<path d="M468.588 48.9414V50.3274H461.406V48.9414H468.588Z" fill="black"/>
<path d="M448.971 51.2631C448.971 50.2551 449.175 49.3731 449.583 48.6171C449.991 47.8491 450.549 47.2551 451.257 46.8351C451.977 46.4151 452.781 46.2051 453.669 46.2051C454.437 46.2051 455.151 46.3851 455.811 46.7451C456.471 47.0931 456.975 47.5551 457.323 48.1311V42.9111H458.979V56.2311H457.323V54.3771C456.999 54.9651 456.519 55.4511 455.883 55.8351C455.247 56.2071 454.503 56.3931 453.651 56.3931C452.775 56.3931 451.977 56.1771 451.257 55.7451C450.549 55.3131 449.991 54.7071 449.583 53.9271C449.175 53.1471 448.971 52.2591 448.971 51.2631ZM457.323 51.2811C457.323 50.5371 457.173 49.8891 456.873 49.3371C456.573 48.7851 456.165 48.3651 455.649 48.0771C455.145 47.7771 454.587 47.6271 453.975 47.6271C453.363 47.6271 452.805 47.7711 452.301 48.0591C451.797 48.3471 451.395 48.7671 451.095 49.3191C450.795 49.8711 450.645 50.5191 450.645 51.2631C450.645 52.0191 450.795 52.6791 451.095 53.2431C451.395 53.7951 451.797 54.2211 452.301 54.5211C452.805 54.8091 453.363 54.9531 453.975 54.9531C454.587 54.9531 455.145 54.8091 455.649 54.5211C456.165 54.2211 456.573 53.7951 456.873 53.2431C457.173 52.6791 457.323 52.0251 457.323 51.2811Z" fill="black"/>
<path d="M446.792 42.9111V56.2311H445.154V42.9111H446.792Z" fill="black"/>
<path d="M441.569 44.7652C441.257 44.7652 440.993 44.6572 440.777 44.4412C440.561 44.2252 440.453 43.9612 440.453 43.6492C440.453 43.3372 440.561 43.0732 440.777 42.8572C440.993 42.6412 441.257 42.5332 441.569 42.5332C441.869 42.5332 442.121 42.6412 442.325 42.8572C442.541 43.0732 442.649 43.3372 442.649 43.6492C442.649 43.9612 442.541 44.2252 442.325 44.4412C442.121 44.6572 441.869 44.7652 441.569 44.7652ZM442.361 46.3672V56.2312H440.723V46.3672H442.361Z" fill="black"/>
<path d="M434.107 46.1871C434.851 46.1871 435.523 46.3491 436.123 46.6731C436.723 46.9851 437.191 47.4591 437.527 48.0951C437.875 48.7311 438.049 49.5051 438.049 50.4171V56.2311H436.429V50.6511C436.429 49.6671 436.183 48.9171 435.691 48.4011C435.199 47.8731 434.527 47.6091 433.675 47.6091C432.811 47.6091 432.121 47.8791 431.605 48.4191C431.101 48.9591 430.849 49.7451 430.849 50.7771V56.2311H429.211V42.9111H430.849V47.7711C431.173 47.2671 431.617 46.8771 432.181 46.6011C432.757 46.3251 433.399 46.1871 434.107 46.1871Z" fill="black"/>
<path d="M417.664 51.2811C417.664 50.2611 417.868 49.3731 418.276 48.6171C418.684 47.8491 419.248 47.2551 419.968 46.8351C420.7 46.4151 421.534 46.2051 422.47 46.2051C423.682 46.2051 424.678 46.4991 425.458 47.0871C426.25 47.6751 426.772 48.4911 427.024 49.5351H425.26C425.092 48.9351 424.762 48.4611 424.27 48.1131C423.79 47.7651 423.19 47.5911 422.47 47.5911C421.534 47.5911 420.778 47.9151 420.202 48.5631C419.626 49.1991 419.338 50.1051 419.338 51.2811C419.338 52.4691 419.626 53.3871 420.202 54.0351C420.778 54.6831 421.534 55.0071 422.47 55.0071C423.19 55.0071 423.79 54.8391 424.27 54.5031C424.75 54.1671 425.08 53.6871 425.26 53.0631H427.024C426.76 54.0711 426.232 54.8811 425.44 55.4931C424.648 56.0931 423.658 56.3931 422.47 56.3931C421.534 56.3931 420.7 56.1831 419.968 55.7631C419.248 55.3431 418.684 54.7491 418.276 53.9811C417.868 53.2131 417.664 52.3131 417.664 51.2811Z" fill="black"/>
<path d="M408.402 47.9695C408.69 47.4055 409.098 46.9675 409.626 46.6555C410.166 46.3435 410.82 46.1875 411.588 46.1875V47.8795H411.156C409.32 47.8795 408.402 48.8755 408.402 50.8675V56.2315H406.764V46.3675H408.402V47.9695Z" fill="black"/>
<path d="M399.551 56.3931C398.627 56.3931 397.787 56.1831 397.031 55.7631C396.287 55.3431 395.699 54.7491 395.267 53.9811C394.847 53.2011 394.637 52.3011 394.637 51.2811C394.637 50.2731 394.853 49.3851 395.285 48.6171C395.729 47.8371 396.329 47.2431 397.085 46.8351C397.841 46.4151 398.687 46.2051 399.623 46.2051C400.559 46.2051 401.405 46.4151 402.161 46.8351C402.917 47.2431 403.511 47.8311 403.943 48.5991C404.387 49.3671 404.609 50.2611 404.609 51.2811C404.609 52.3011 404.381 53.2011 403.925 53.9811C403.481 54.7491 402.875 55.3431 402.107 55.7631C401.339 56.1831 400.487 56.3931 399.551 56.3931ZM399.551 54.9531C400.139 54.9531 400.691 54.8151 401.207 54.5391C401.723 54.2631 402.137 53.8491 402.449 53.2971C402.773 52.7451 402.935 52.0731 402.935 51.2811C402.935 50.4891 402.779 49.8171 402.467 49.2651C402.155 48.7131 401.747 48.3051 401.243 48.0411C400.739 47.7651 400.193 47.6271 399.605 47.6271C399.005 47.6271 398.453 47.7651 397.949 48.0411C397.457 48.3051 397.061 48.7131 396.761 49.2651C396.461 49.8171 396.311 50.4891 396.311 51.2811C396.311 52.0851 396.455 52.7631 396.743 53.3151C397.043 53.8671 397.439 54.2811 397.931 54.5571C398.423 54.8211 398.963 54.9531 399.551 54.9531Z" fill="black"/>
<path d="M393.34 47.7175H391.27V56.2315H389.632V47.7175H388.354V46.3675H389.632V45.6655C389.632 44.5615 389.914 43.7575 390.478 43.2535C391.054 42.7375 391.972 42.4795 393.232 42.4795V43.8475C392.512 43.8475 392.002 43.9915 391.702 44.2795C391.414 44.5555 391.27 45.0175 391.27 45.6655V46.3675H393.34V47.7175Z" fill="black"/>
<path d="M378.614 56.3931C377.858 56.3931 377.18 56.2671 376.58 56.0151C375.98 55.7511 375.506 55.3911 375.158 54.9351C374.81 54.4671 374.618 53.9331 374.582 53.3331H376.274C376.322 53.8251 376.55 54.2271 376.958 54.5391C377.378 54.8511 377.924 55.0071 378.596 55.0071C379.22 55.0071 379.712 54.8691 380.072 54.5931C380.432 54.3171 380.612 53.9691 380.612 53.5491C380.612 53.1171 380.42 52.7991 380.036 52.5951C379.652 52.3791 379.058 52.1691 378.254 51.9651C377.522 51.7731 376.922 51.5811 376.454 51.3891C375.998 51.1851 375.602 50.8911 375.266 50.5071C374.942 50.1111 374.78 49.5951 374.78 48.9591C374.78 48.4551 374.93 47.9931 375.23 47.5731C375.53 47.1531 375.956 46.8231 376.508 46.5831C377.06 46.3311 377.69 46.2051 378.398 46.2051C379.49 46.2051 380.372 46.4811 381.044 47.0331C381.716 47.5851 382.076 48.3411 382.124 49.3011H380.486C380.45 48.7851 380.24 48.3711 379.856 48.0591C379.484 47.7471 378.98 47.5911 378.344 47.5911C377.756 47.5911 377.288 47.7171 376.94 47.9691C376.592 48.2211 376.418 48.5511 376.418 48.9591C376.418 49.2831 376.52 49.5531 376.724 49.7691C376.94 49.9731 377.204 50.1411 377.516 50.2731C377.84 50.3931 378.284 50.5311 378.848 50.6871C379.556 50.8791 380.132 51.0711 380.576 51.2631C381.02 51.4431 381.398 51.7191 381.71 52.0911C382.034 52.4631 382.202 52.9491 382.214 53.5491C382.214 54.0891 382.064 54.5751 381.764 55.0071C381.464 55.4391 381.038 55.7811 380.486 56.0331C379.946 56.2731 379.322 56.3931 378.614 56.3931Z" fill="black"/>
<path d="M372.96 50.9211C372.96 51.2331 372.942 51.5631 372.906 51.9111H365.022C365.082 52.8831 365.412 53.6451 366.012 54.1971C366.624 54.7371 367.362 55.0071 368.226 55.0071C368.934 55.0071 369.522 54.8451 369.99 54.5211C370.47 54.1851 370.806 53.7411 370.998 53.1891H372.762C372.498 54.1371 371.97 54.9111 371.178 55.5111C370.386 56.0991 369.402 56.3931 368.226 56.3931C367.29 56.3931 366.45 56.1831 365.706 55.7631C364.974 55.3431 364.398 54.7491 363.978 53.9811C363.558 53.2011 363.348 52.3011 363.348 51.2811C363.348 50.2611 363.552 49.3671 363.96 48.5991C364.368 47.8311 364.938 47.2431 365.67 46.8351C366.414 46.4151 367.266 46.2051 368.226 46.2051C369.162 46.2051 369.99 46.4091 370.71 46.8171C371.43 47.2251 371.982 47.7891 372.366 48.5091C372.762 49.2171 372.96 50.0211 372.96 50.9211ZM371.268 50.5791C371.268 49.9551 371.13 49.4211 370.854 48.9771C370.578 48.5211 370.2 48.1791 369.72 47.9511C369.252 47.7111 368.73 47.5911 368.154 47.5911C367.326 47.5911 366.618 47.8551 366.03 48.3831C365.454 48.9111 365.124 49.6431 365.04 50.5791H371.268Z" fill="black"/>
<path d="M361.195 46.3672V56.2312H359.557V54.7732C359.245 55.2772 358.807 55.6732 358.243 55.9612C357.691 56.2372 357.079 56.3752 356.407 56.3752C355.639 56.3752 354.949 56.2192 354.337 55.9072C353.725 55.5832 353.239 55.1032 352.879 54.4672C352.531 53.8312 352.357 53.0572 352.357 52.1452V46.3672H353.977V51.9292C353.977 52.9012 354.223 53.6512 354.715 54.1792C355.207 54.6952 355.879 54.9532 356.731 54.9532C357.607 54.9532 358.297 54.6832 358.801 54.1432C359.305 53.6032 359.557 52.8172 359.557 51.7852V46.3672H361.195Z" fill="black"/>
<path d="M349.656 42.9111V56.2311H348.018V42.9111H349.656Z" fill="black"/>
<path d="M335.24 51.2631C335.24 50.2551 335.444 49.3731 335.852 48.6171C336.26 47.8491 336.818 47.2551 337.526 46.8351C338.246 46.4151 339.044 46.2051 339.92 46.2051C340.784 46.2051 341.534 46.3911 342.17 46.7631C342.806 47.1351 343.28 47.6031 343.592 48.1671V46.3671H345.248V56.2311H343.592V54.3951C343.268 54.9711 342.782 55.4511 342.134 55.8351C341.498 56.2071 340.754 56.3931 339.902 56.3931C339.026 56.3931 338.234 56.1771 337.526 55.7451C336.818 55.3131 336.26 54.7071 335.852 53.9271C335.444 53.1471 335.24 52.2591 335.24 51.2631ZM343.592 51.2811C343.592 50.5371 343.442 49.8891 343.142 49.3371C342.842 48.7851 342.434 48.3651 341.918 48.0771C341.414 47.7771 340.856 47.6271 340.244 47.6271C339.632 47.6271 339.074 47.7711 338.57 48.0591C338.066 48.3471 337.664 48.7671 337.364 49.3191C337.064 49.8711 336.914 50.5191 336.914 51.2631C336.914 52.0191 337.064 52.6791 337.364 53.2431C337.664 53.7951 338.066 54.2211 338.57 54.5211C339.074 54.8091 339.632 54.9531 340.244 54.9531C340.856 54.9531 341.414 54.8091 341.918 54.5211C342.434 54.2211 342.842 53.7951 343.142 53.2431C343.442 52.6791 343.592 52.0251 343.592 51.2811Z" fill="black"/>
<path d="M329.436 54.7192L332.496 46.3672H334.242L330.372 56.2312H328.464L324.594 46.3672H326.358L329.436 54.7192Z" fill="black"/>
<path d="M308.188 51.2631C308.188 50.2551 308.391 49.3731 308.799 48.6171C309.207 47.8491 309.765 47.2551 310.473 46.8351C311.193 46.4151 311.997 46.2051 312.885 46.2051C313.653 46.2051 314.367 46.3851 315.027 46.7451C315.687 47.0931 316.192 47.5551 316.54 48.1311V42.9111H318.195V56.2311H316.54V54.3771C316.216 54.9651 315.736 55.4511 315.1 55.8351C314.464 56.2071 313.719 56.3931 312.867 56.3931C311.991 56.3931 311.193 56.1771 310.473 55.7451C309.765 55.3131 309.207 54.7071 308.799 53.9271C308.391 53.1471 308.188 52.2591 308.188 51.2631ZM316.54 51.2811C316.54 50.5371 316.389 49.8891 316.089 49.3371C315.789 48.7851 315.381 48.3651 314.865 48.0771C314.361 47.7771 313.803 47.6271 313.191 47.6271C312.579 47.6271 312.022 47.7711 311.518 48.0591C311.014 48.3471 310.611 48.7671 310.311 49.3191C310.011 49.8711 309.861 50.5191 309.861 51.2631C309.861 52.0191 310.011 52.6791 310.311 53.2431C310.611 53.7951 311.014 54.2211 311.518 54.5211C312.022 54.8091 312.579 54.9531 313.191 54.9531C313.803 54.9531 314.361 54.8091 314.865 54.5211C315.381 54.2211 315.789 53.7951 316.089 53.2431C316.389 52.6791 316.54 52.0251 316.54 51.2811Z" fill="black"/>
<path d="M306.637 50.9211C306.637 51.2331 306.619 51.5631 306.583 51.9111H298.699C298.759 52.8831 299.089 53.6451 299.689 54.1971C300.301 54.7371 301.039 55.0071 301.903 55.0071C302.611 55.0071 303.199 54.8451 303.667 54.5211C304.147 54.1851 304.483 53.7411 304.675 53.1891H306.439C306.175 54.1371 305.647 54.9111 304.855 55.5111C304.063 56.0991 303.079 56.3931 301.903 56.3931C300.967 56.3931 300.127 56.1831 299.383 55.7631C298.651 55.3431 298.075 54.7491 297.655 53.9811C297.235 53.2011 297.025 52.3011 297.025 51.2811C297.025 50.2611 297.229 49.3671 297.637 48.5991C298.045 47.8311 298.615 47.2431 299.347 46.8351C300.091 46.4151 300.943 46.2051 301.903 46.2051C302.839 46.2051 303.667 46.4091 304.387 46.8171C305.107 47.2251 305.659 47.7891 306.043 48.5091C306.439 49.2171 306.637 50.0211 306.637 50.9211ZM304.945 50.5791C304.945 49.9551 304.807 49.4211 304.531 48.9771C304.255 48.5211 303.877 48.1791 303.397 47.9511C302.929 47.7111 302.407 47.5911 301.831 47.5911C301.003 47.5911 300.295 47.8551 299.707 48.3831C299.131 48.9111 298.801 49.6431 298.717 50.5791H304.945Z" fill="black"/>
<path d="M284.861 51.2631C284.861 50.2551 285.065 49.3731 285.473 48.6171C285.881 47.8491 286.439 47.2551 287.147 46.8351C287.867 46.4151 288.671 46.2051 289.559 46.2051C290.327 46.2051 291.041 46.3851 291.701 46.7451C292.361 47.0931 292.865 47.5551 293.213 48.1311V42.9111H294.869V56.2311H293.213V54.3771C292.889 54.9651 292.409 55.4511 291.773 55.8351C291.137 56.2071 290.393 56.3931 289.541 56.3931C288.665 56.3931 287.867 56.1771 287.147 55.7451C286.439 55.3131 285.881 54.7071 285.473 53.9271C285.065 53.1471 284.861 52.2591 284.861 51.2631ZM293.213 51.2811C293.213 50.5371 293.063 49.8891 292.763 49.3371C292.463 48.7851 292.055 48.3651 291.539 48.0771C291.035 47.7771 290.477 47.6271 289.865 47.6271C289.253 47.6271 288.695 47.7711 288.191 48.0591C287.687 48.3471 287.285 48.7671 286.985 49.3191C286.685 49.8711 286.535 50.5191 286.535 51.2631C286.535 52.0191 286.685 52.6791 286.985 53.2431C287.285 53.7951 287.687 54.2211 288.191 54.5211C288.695 54.8091 289.253 54.9531 289.865 54.9531C290.477 54.9531 291.035 54.8091 291.539 54.5211C292.055 54.2211 292.463 53.7951 292.763 53.2431C293.063 52.6791 293.213 52.0251 293.213 51.2811Z" fill="black"/>
<path d="M278.767 46.1875C279.967 46.1875 280.939 46.5535 281.683 47.2855C282.427 48.0055 282.799 49.0495 282.799 50.4175V56.2315H281.179V50.6515C281.179 49.6675 280.933 48.9175 280.441 48.4015C279.949 47.8735 279.277 47.6095 278.425 47.6095C277.561 47.6095 276.871 47.8795 276.355 48.4195C275.851 48.9595 275.599 49.7455 275.599 50.7775V56.2315H273.961V46.3675H275.599V47.7715C275.923 47.2675 276.361 46.8775 276.913 46.6015C277.477 46.3255 278.095 46.1875 278.767 46.1875Z" fill="black"/>
<path d="M271.195 46.3672V56.2312H269.557V54.7732C269.245 55.2772 268.807 55.6732 268.243 55.9612C267.691 56.2372 267.079 56.3752 266.407 56.3752C265.639 56.3752 264.949 56.2192 264.337 55.9072C263.725 55.5832 263.239 55.1032 262.879 54.4672C262.531 53.8312 262.357 53.0572 262.357 52.1452V46.3672H263.977V51.9292C263.977 52.9012 264.223 53.6512 264.715 54.1792C265.207 54.6952 265.879 54.9532 266.731 54.9532C267.607 54.9532 268.297 54.6832 268.801 54.1432C269.305 53.6032 269.557 52.8172 269.557 51.7852V46.3672H271.195Z" fill="black"/>
<path d="M255.234 56.3931C254.31 56.3931 253.47 56.1831 252.714 55.7631C251.97 55.3431 251.382 54.7491 250.95 53.9811C250.53 53.2011 250.32 52.3011 250.32 51.2811C250.32 50.2731 250.536 49.3851 250.968 48.6171C251.412 47.8371 252.012 47.2431 252.768 46.8351C253.524 46.4151 254.37 46.2051 255.306 46.2051C256.242 46.2051 257.088 46.4151 257.844 46.8351C258.6 47.2431 259.194 47.8311 259.626 48.5991C260.07 49.3671 260.292 50.2611 260.292 51.2811C260.292 52.3011 260.064 53.2011 259.608 53.9811C259.164 54.7491 258.558 55.3431 257.79 55.7631C257.022 56.1831 256.17 56.3931 255.234 56.3931ZM255.234 54.9531C255.822 54.9531 256.374 54.8151 256.89 54.5391C257.406 54.2631 257.82 53.8491 258.132 53.2971C258.456 52.7451 258.618 52.0731 258.618 51.2811C258.618 50.4891 258.462 49.8171 258.15 49.2651C257.838 48.7131 257.43 48.3051 256.926 48.0411C256.422 47.7651 255.876 47.6271 255.288 47.6271C254.688 47.6271 254.136 47.7651 253.632 48.0411C253.14 48.3051 252.744 48.7131 252.444 49.2651C252.144 49.8171 251.994 50.4891 251.994 51.2811C251.994 52.0851 252.138 52.7631 252.426 53.3151C252.726 53.8671 253.122 54.2811 253.614 54.5571C254.106 54.8211 254.646 54.9531 255.234 54.9531Z" fill="black"/>
<path d="M245.857 47.9695C246.145 47.4055 246.553 46.9675 247.081 46.6555C247.621 46.3435 248.275 46.1875 249.043 46.1875V47.8795H248.611C246.775 47.8795 245.857 48.8755 245.857 50.8675V56.2315H244.219V46.3675H245.857V47.9695Z" fill="black"/>
<path d="M226.643 51.2631C226.643 50.2551 226.847 49.3731 227.255 48.6171C227.663 47.8491 228.221 47.2551 228.929 46.8351C229.649 46.4151 230.453 46.2051 231.341 46.2051C232.109 46.2051 232.823 46.3851 233.483 46.7451C234.143 47.0931 234.647 47.5551 234.995 48.1311V42.9111H236.651V56.2311H234.995V54.3771C234.671 54.9651 234.191 55.4511 233.555 55.8351C232.919 56.2071 232.175 56.3931 231.323 56.3931C230.447 56.3931 229.649 56.1771 228.929 55.7451C228.221 55.3131 227.663 54.7071 227.255 53.9271C226.847 53.1471 226.643 52.2591 226.643 51.2631ZM234.995 51.2811C234.995 50.5371 234.845 49.8891 234.545 49.3371C234.245 48.7851 233.837 48.3651 233.321 48.0771C232.817 47.7771 232.259 47.6271 231.647 47.6271C231.035 47.6271 230.477 47.7711 229.973 48.0591C229.469 48.3471 229.067 48.7671 228.767 49.3191C228.467 49.8711 228.317 50.5191 228.317 51.2631C228.317 52.0191 228.467 52.6791 228.767 53.2431C229.067 53.7951 229.469 54.2211 229.973 54.5211C230.477 54.8091 231.035 54.9531 231.647 54.9531C232.259 54.9531 232.817 54.8091 233.321 54.5211C233.837 54.2211 234.245 53.7951 234.545 53.2431C234.845 52.6791 234.995 52.0251 234.995 51.2811Z" fill="black"/>
<path d="M220.548 46.1875C221.748 46.1875 222.72 46.5535 223.464 47.2855C224.208 48.0055 224.58 49.0495 224.58 50.4175V56.2315H222.96V50.6515C222.96 49.6675 222.714 48.9175 222.222 48.4015C221.73 47.8735 221.058 47.6095 220.206 47.6095C219.342 47.6095 218.652 47.8795 218.136 48.4195C217.632 48.9595 217.38 49.7455 217.38 50.7775V56.2315H215.742V46.3675H217.38V47.7715C217.704 47.2675 218.142 46.8775 218.694 46.6015C219.258 46.3255 219.876 46.1875 220.548 46.1875Z" fill="black"/>
<path d="M202.965 51.2631C202.965 50.2551 203.169 49.3731 203.577 48.6171C203.985 47.8491 204.543 47.2551 205.251 46.8351C205.971 46.4151 206.769 46.2051 207.645 46.2051C208.509 46.2051 209.259 46.3911 209.895 46.7631C210.531 47.1351 211.005 47.6031 211.317 48.1671V46.3671H212.973V56.2311H211.317V54.3951C210.993 54.9711 210.507 55.4511 209.859 55.8351C209.223 56.2071 208.479 56.3931 207.627 56.3931C206.751 56.3931 205.959 56.1771 205.251 55.7451C204.543 55.3131 203.985 54.7071 203.577 53.9271C203.169 53.1471 202.965 52.2591 202.965 51.2631ZM211.317 51.2811C211.317 50.5371 211.167 49.8891 210.867 49.3371C210.567 48.7851 210.159 48.3651 209.643 48.0771C209.139 47.7771 208.581 47.6271 207.969 47.6271C207.357 47.6271 206.799 47.7711 206.295 48.0591C205.791 48.3471 205.389 48.7671 205.089 49.3191C204.789 49.8711 204.639 50.5191 204.639 51.2631C204.639 52.0191 204.789 52.6791 205.089 53.2431C205.389 53.7951 205.791 54.2211 206.295 54.5211C206.799 54.8091 207.357 54.9531 207.969 54.9531C208.581 54.9531 209.139 54.8091 209.643 54.5211C210.159 54.2211 210.567 53.7951 210.867 53.2431C211.167 52.6791 211.317 52.0251 211.317 51.2811Z" fill="black"/>
<path d="M186.002 51.2631C186.002 50.2551 186.206 49.3731 186.614 48.6171C187.022 47.8491 187.58 47.2551 188.288 46.8351C189.008 46.4151 189.812 46.2051 190.7 46.2051C191.468 46.2051 192.182 46.3851 192.842 46.7451C193.502 47.0931 194.006 47.5551 194.354 48.1311V42.9111H196.01V56.2311H194.354V54.3771C194.03 54.9651 193.55 55.4511 192.914 55.8351C192.278 56.2071 191.534 56.3931 190.682 56.3931C189.806 56.3931 189.008 56.1771 188.288 55.7451C187.58 55.3131 187.022 54.7071 186.614 53.9271C186.206 53.1471 186.002 52.2591 186.002 51.2631ZM194.354 51.2811C194.354 50.5371 194.204 49.8891 193.904 49.3371C193.604 48.7851 193.196 48.3651 192.68 48.0771C192.176 47.7771 191.618 47.6271 191.006 47.6271C190.394 47.6271 189.836 47.7711 189.332 48.0591C188.828 48.3471 188.426 48.7671 188.126 49.3191C187.826 49.8711 187.676 50.5191 187.676 51.2631C187.676 52.0191 187.826 52.6791 188.126 53.2431C188.426 53.7951 188.828 54.2211 189.332 54.5211C189.836 54.8091 190.394 54.9531 191.006 54.9531C191.618 54.9531 192.176 54.8091 192.68 54.5211C193.196 54.2211 193.604 53.7951 193.904 53.2431C194.204 52.6791 194.354 52.0251 194.354 51.2811Z" fill="black"/>
<path d="M184.452 50.9211C184.452 51.2331 184.434 51.5631 184.398 51.9111H176.514C176.574 52.8831 176.904 53.6451 177.504 54.1971C178.116 54.7371 178.854 55.0071 179.718 55.0071C180.426 55.0071 181.014 54.8451 181.482 54.5211C181.962 54.1851 182.298 53.7411 182.49 53.1891H184.254C183.99 54.1371 183.462 54.9111 182.67 55.5111C181.878 56.0991 180.894 56.3931 179.718 56.3931C178.782 56.3931 177.942 56.1831 177.198 55.7631C176.466 55.3431 175.89 54.7491 175.47 53.9811C175.05 53.2011 174.84 52.3011 174.84 51.2811C174.84 50.2611 175.044 49.3671 175.452 48.5991C175.86 47.8311 176.43 47.2431 177.162 46.8351C177.906 46.4151 178.758 46.2051 179.718 46.2051C180.654 46.2051 181.482 46.4091 182.202 46.8171C182.922 47.2251 183.474 47.7891 183.858 48.5091C184.254 49.2171 184.452 50.0211 184.452 50.9211ZM182.76 50.5791C182.76 49.9551 182.622 49.4211 182.346 48.9771C182.07 48.5211 181.692 48.1791 181.212 47.9511C180.744 47.7111 180.222 47.5911 179.646 47.5911C178.818 47.5911 178.11 47.8551 177.522 48.3831C176.946 48.9111 176.616 49.6431 176.532 50.5791H182.76Z" fill="black"/>
<path d="M172.661 42.9111V56.2311H171.023V42.9111H172.661Z" fill="black"/>
<path d="M158.246 51.2631C158.246 50.2551 158.45 49.3731 158.858 48.6171C159.266 47.8491 159.824 47.2551 160.532 46.8351C161.252 46.4151 162.05 46.2051 162.926 46.2051C163.79 46.2051 164.54 46.3911 165.176 46.7631C165.812 47.1351 166.286 47.6031 166.598 48.1671V46.3671H168.254V56.2311H166.598V54.3951C166.274 54.9711 165.788 55.4511 165.14 55.8351C164.504 56.2071 163.76 56.3931 162.908 56.3931C162.032 56.3931 161.24 56.1771 160.532 55.7451C159.824 55.3131 159.266 54.7071 158.858 53.9271C158.45 53.1471 158.246 52.2591 158.246 51.2631ZM166.598 51.2811C166.598 50.5371 166.448 49.8891 166.148 49.3371C165.848 48.7851 165.44 48.3651 164.924 48.0771C164.42 47.7771 163.862 47.6271 163.25 47.6271C162.638 47.6271 162.08 47.7711 161.576 48.0591C161.072 48.3471 160.67 48.7671 160.37 49.3191C160.07 49.8711 159.92 50.5191 159.92 51.2631C159.92 52.0191 160.07 52.6791 160.37 53.2431C160.67 53.7951 161.072 54.2211 161.576 54.5211C162.08 54.8091 162.638 54.9531 163.25 54.9531C163.862 54.9531 164.42 54.8091 164.924 54.5211C165.44 54.2211 165.848 53.7951 166.148 53.2431C166.448 52.6791 166.598 52.0251 166.598 51.2811Z" fill="black"/>
<path d="M147.312 51.2811C147.312 50.2611 147.516 49.3731 147.924 48.6171C148.332 47.8491 148.896 47.2551 149.616 46.8351C150.348 46.4151 151.182 46.2051 152.118 46.2051C153.33 46.2051 154.327 46.4991 155.107 47.0871C155.899 47.6751 156.421 48.4911 156.673 49.5351H154.909C154.741 48.9351 154.411 48.4611 153.919 48.1131C153.439 47.7651 152.838 47.5911 152.118 47.5911C151.182 47.5911 150.427 47.9151 149.851 48.5631C149.275 49.1991 148.986 50.1051 148.986 51.2811C148.986 52.4691 149.275 53.3871 149.851 54.0351C150.427 54.6831 151.182 55.0071 152.118 55.0071C152.838 55.0071 153.439 54.8391 153.919 54.5031C154.399 54.1671 154.729 53.6871 154.909 53.0631H156.673C156.409 54.0711 155.881 54.8811 155.089 55.4931C154.297 56.0931 153.306 56.3931 152.118 56.3931C151.182 56.3931 150.348 56.1831 149.616 55.7631C148.896 55.3431 148.332 54.7491 147.924 53.9811C147.516 53.2131 147.312 52.3131 147.312 51.2811Z" fill="black"/>
<path d="M141.338 56.3574C140.51 56.3574 139.766 56.2134 139.106 55.9254C138.458 55.6254 137.948 55.2174 137.576 54.7014C137.204 54.1734 137.012 53.5674 137 52.8834H138.746C138.806 53.4714 139.046 53.9694 139.466 54.3774C139.898 54.7734 140.522 54.9714 141.338 54.9714C142.118 54.9714 142.73 54.7794 143.174 54.3954C143.63 53.9994 143.858 53.4954 143.858 52.8834C143.858 52.4034 143.726 52.0134 143.462 51.7134C143.198 51.4134 142.868 51.1854 142.472 51.0294C142.076 50.8734 141.542 50.7054 140.87 50.5254C140.042 50.3094 139.376 50.0934 138.872 49.8774C138.38 49.6614 137.954 49.3254 137.594 48.8694C137.246 48.4014 137.072 47.7774 137.072 46.9974C137.072 46.3134 137.246 45.7074 137.594 45.1794C137.942 44.6514 138.428 44.2434 139.052 43.9554C139.688 43.6674 140.414 43.5234 141.23 43.5234C142.406 43.5234 143.366 43.8174 144.11 44.4054C144.866 44.9934 145.292 45.7734 145.388 46.7454H143.588C143.528 46.2654 143.276 45.8454 142.832 45.4854C142.388 45.1134 141.8 44.9274 141.068 44.9274C140.384 44.9274 139.826 45.1074 139.394 45.4674C138.962 45.8154 138.746 46.3074 138.746 46.9434C138.746 47.3994 138.872 47.7714 139.124 48.0594C139.388 48.3474 139.706 48.5694 140.078 48.7254C140.462 48.8694 140.996 49.0374 141.68 49.2294C142.508 49.4574 143.174 49.6854 143.678 49.9134C144.182 50.1294 144.614 50.4714 144.974 50.9394C145.334 51.3954 145.514 52.0194 145.514 52.8114C145.514 53.4234 145.352 53.9994 145.028 54.5394C144.704 55.0794 144.224 55.5174 143.588 55.8534C142.952 56.1894 142.202 56.3574 141.338 56.3574Z" fill="black"/>
</svg>
